<svg xmlns="http://www.w3.org/2000/svg" xmlns:xlink="http://www.w3.org/1999/xlink" viewBox="0 0 1197 603"><defs><style>.cls-1{fill:#fecb9c;}.cls-1,.cls-10,.cls-12,.cls-13,.cls-18,.cls-2,.cls-20,.cls-21,.cls-22,.cls-23,.cls-24,.cls-25,.cls-27,.cls-28,.cls-3,.cls-30,.cls-31,.cls-4,.cls-5,.cls-7,.cls-8,.cls-9{stroke:#000;}.cls-1,.cls-10,.cls-11,.cls-12,.cls-13,.cls-14,.cls-15,.cls-18,.cls-19,.cls-2,.cls-20,.cls-21,.cls-22,.cls-23,.cls-24,.cls-25,.cls-26,.cls-27,.cls-28,.cls-3,.cls-30,.cls-31,.cls-4,.cls-5,.cls-6,.cls-7,.cls-8,.cls-9{stroke-miterlimit:10;}.cls-11,.cls-19,.cls-2,.cls-26,.cls-6,.cls-9{fill:none;}.cls-3{fill:#050201;}.cls-4{fill:#0a0400;}.cls-5{fill:#352a25;}.cls-6{stroke:#505d60;}.cls-7{fill:#111533;}.cls-8{fill:#5b696b;}.cls-11,.cls-20,.cls-21,.cls-9{stroke-width:2px;}.cls-10{fill:#3b4d4f;}.cls-11,.cls-19{stroke:#5b1b00;}.cls-12{fill:#f9f9f9;}.cls-13,.cls-15{fill:#434851;}.cls-14{fill:#fafcfc;}.cls-14,.cls-15{stroke:#000102;}.cls-16{fill:#000202;}.cls-17{fill:#fcfcfc;}.cls-18{fill:#925127;}.cls-20,.cls-31{fill:#fff;opacity:0;}.cls-22{fill:#c81e1e;}.cls-23{fill:#f0c99a;}.cls-24{fill:#050000;}.cls-25{fill:#0a0000;}.cls-26{stroke:#5b1b06;}.cls-27{fill:#f7f7f7;}.cls-28{fill:#f8fafa;}.cls-29{fill:#fafafa;}.cls-30{fill:#905127;}</style><symbol id="Neutral" data-name="Neutral" viewBox="0 0 302 602"><path class="cls-23" d="M199.5,353.5s12,7,4,16-20.77,0-20.77,0S184.5,351.5,199.5,353.5Z"/><path class="cls-2" d="M102.5,377.5s8-1,13-10"/><path class="cls-2" d="M176.5,360.5s3,9,10,9"/><path class="cls-2" d="M135.5,386.5s-6,0-8-2"/><path class="cls-2" d="M144.5,386.5s8-1,10-2"/><path class="cls-24" d="M156.5,525.5s-7,13-5,17,17,8,17,8,19,5,21,9c0,0,8-6,17-3,0,0,13-12,3-21S152.5,521.5,156.5,525.5Z"/><path class="cls-25" d="M89.5,543.5s-1,14,2,14a30.87,30.87,0,0,0,21,2,251.56,251.56,0,0,0,25-8s10-8,10-12-4-10-6-10S89.5,543.5,89.5,543.5Z"/><path class="cls-5" d="M107.5,498.5s17.61-9.95,30.72,1a26.92,26.92,0,0,1,5.28,6s-12,16-2,24c0,0-5,13-5,14s-20,10-25,9c0,0-4-4-6-2s-10,3-12,2c0,0-4,0-4-17,0,0,2-3,4-2a17.34,17.34,0,0,1,12-10S114.5,521.5,107.5,498.5Z"/><polyline class="cls-2" points="131.5 519.5 108.5 522.5 122.5 529.5 99.5 527.5 116.5 536.02"/><polyline class="cls-2" points="110.44 519.5 125.5 525.5 104.5 524.5 118.5 532.5 95.31 530.3"/><path class="cls-5" d="M182.5,494.5s-24-2-26,11c0,0,0,9,2,10,0,0-7,2-6.5,20.52,0,0,31.5,17.48,36.5,8.48,0,0,2-2,5,0s10,0,10,0,5,4,7,4,13-13-17-24C193.5,524.5,186.5,492.5,182.5,494.5Z"/><polyline class="cls-2" points="187.5 511.5 175.58 525.31 191.5 523.5 183.5 534.5 197.76 529.98"/><polyline class="cls-2" points="172.5 521.5 189.5 518.5 180.5 531.5 195.5 527.5 186.5 536.5"/><path class="cls-23" d="M82.72,339.51A13.88,13.88,0,0,0,76,353.82s4,11.25,9.41,10.23c0,0,2.68,3.06,4,2,0,0,4,2.05,4,0,0,0,4,1,4,0,0,0,1.34-1-1.34-4.09s-2.69-8.18-2.69-9.2c0,0,0,6.13,4,6.13,0,0,4,1,2.69-2,0,0-2.69-2.05-2.69-4.09v-5.11S85.41,337.46,82.72,339.51Z"/><path class="cls-2" d="M80,353.82s1.35,6.14,5.38,10.23"/><path class="cls-2" d="M85.41,354.84s-1.35,4.09,4,11.25"/><path class="cls-2" d="M89.44,354.84s-1.35,4.09,4,11.25"/><path class="cls-7" d="M93.5,373.5s2-18,10-26c6.71-6.71,83-5,83-5l7,20-6,41,4,7-5,5a49.36,49.36,0,0,1-1,16v29s3,12,2,13-7,20-7,20-18,14-24,10c0,0-8-9-6-10,0,0,4-10,4-14s1-19,0-23-4-25-4-25l-2-16-4-3,3-3s-2-22-3-23a22.58,22.58,0,0,1-9,0s3,26,1,27h-4l5,5s2,6,2,8,1,14,1,14v30l-1,12,1,4s3,4,3,6,3,7,2,9a12.38,12.38,0,0,1-2,3,49.2,49.2,0,0,1-36-6s3-15,2-16,1-14,1-14l-2-10-1-12,2-6,1-7s-3-12-6-14,2-11,2-11l-10-31S91.5,375.5,93.5,373.5Z"/><path class="cls-8" d="M208.5,361.5s4-42,6-74a165,165,0,0,0-7-58s-35-25-65-25-63,20-63,20-5,37-5,43c0,0,2,80-1,81,0,0,14-15,18-4s7-12,7-12-12-35,4-70c0,0,8,21,7,25s-17,67-13,74,42,15,42,15,34-10,53-25c0,0,0-37-10-65l7-16s1,37,0,39c0,0,5,46,2,48C190.5,357.5,197.5,374.5,208.5,361.5Z"/><path class="cls-6" d="M76,270.5S93.37,269,96,269"/><path class="cls-6" d="M133.5,342.93s-24-4.43-31-8.43"/><path class="cls-6" d="M98.88,349.14S127.5,361.5,133.5,360.5"/><path class="cls-6" d="M94.5,314.5s-5,15-3,21"/><path class="cls-6" d="M75,257.54s22.88,2.73,24,4.92"/><path class="cls-6" d="M126.5,265.5s-14,2-20,2c-3.61,0,1-23,1-23"/><path class="cls-6" d="M135.5,228.5s-45-10-54-5"/><path class="cls-6" d="M133.5,241.5s-50-3-55-7"/><path class="cls-6" d="M131.5,256.5s-56-3-57-6"/><path class="cls-6" d="M133.5,278.5s-19,1-22-2"/><path class="cls-6" d="M110.5,288.5s16,5,21,4"/><path class="cls-6" d="M106.5,304.5s17,8,25,7"/><line class="cls-6" x1="103.5" y1="318.5" x2="133.5" y2="329.5"/><path class="cls-6" d="M131.5,218.5s-3,146,0,147"/><path class="cls-6" d="M124.5,221.5s1,132-6,139"/><path class="cls-6" d="M116.71,224.9s3.79,118.6-8.21,132.6"/><path class="cls-6" d="M104.5,213s4,37.7,2,43.5"/><line class="cls-6" x1="93.5" y1="218" x2="93.5" y2="264.5"/><path class="cls-6" d="M85.5,222s-1,49.56,2,50.5"/><path class="cls-6" d="M76.5,245.5s1,43,4,43"/><path class="cls-6" d="M139.18,346.2s42.32-25.7,48.32-25.7"/><path class="cls-6" d="M139.18,329.19S177.5,308,186.5,307.76"/><path class="cls-6" d="M139.18,310.25s31.78-18.33,43.55-18"/><path class="cls-6" d="M139.18,294.5a96,96,0,0,1,40.32-17"/><path class="cls-6" d="M192,348.15s10.55,3.35,14.55,1.35"/><path class="cls-6" d="M193.5,334.5a47.41,47.41,0,0,0,13,0"/><path class="cls-6" d="M191.5,324.5s8-5,17-3"/><path class="cls-6" d="M190.5,304.5s9-5,18-2"/><path class="cls-6" d="M190.5,288.5s12-7,20-3"/><path class="cls-6" d="M190.5,271.5s12-4,20,0"/><path class="cls-6" d="M141.5,271.5s55-21,69-19"/><path class="cls-6" d="M141.5,252.5s36-12,67-10"/><path class="cls-6" d="M140.5,239.5s34.31-16.84,62.65-11.42"/><path class="cls-6" d="M200.5,226s-12,81.65-10,84.5"/><path class="cls-6" d="M212.5,258.5s-8,97-6,97"/><path class="cls-6" d="M139.18,359.8c3.32-1.3,45.3-26.1,51.81-27.2"/><path class="cls-9" d="M141.5,218.5s-8,18-3,152"/><path class="cls-6" d="M150.43,217s-10.07,61.51,0,148"/><path class="cls-6" d="M162,360.92s-13.5-23.42-4.5-137.42"/><path class="cls-6" d="M173.9,212s-12.61,103.21,0,143.42"/><path class="cls-6" d="M186.5,218S166,247.86,182.73,351.51"/><path class="cls-6" d="M195.94,223s-10.44,27.75-7.44,41.5"/><path class="cls-6" d="M206.5,229s-11.72,114.78-8.86,130.8"/><path class="cls-10" d="M104.5,205.5a65.77,65.77,0,0,1,36-15c22-2,41,15,41,15s-10,1-21,18c0,0-9.71-7.77-10-9.91,0,0,0-.06-.08,0-.73.62-7.05,5.94-8.93,5.94,0,0-8-3-12-6l-11,8S110.5,209.5,104.5,205.5Z"/><path class="cls-23" d="M208.5,115.5s10-12,19-7c0,0,2,23-7,24S208.5,123.5,208.5,115.5Z"/><path class="cls-23" d="M120.5,203.5s8,12,21,15c0,0,5-1,19-13,0,0-3-4,2-25,0,0-37-4-38-1S122.5,201.5,120.5,203.5Z"/><path class="cls-23" d="M89.5,151.5s25,35,53,34c0,0,40-1,67-34,0,0,4,2,5-46,0,0-12-43-75-15l-50,28S86.5,147.5,89.5,151.5Z"/><path class="cls-26" d="M158.2,108s14.3-8.5,35.3.5"/><path class="cls-27" d="M191.5,130.5s-10,3-29,2c0,0-5,2-4-17,0,0,8-9,33-2C191.5,113.5,196.5,122.5,191.5,130.5Z"/><path class="cls-13" d="M158.5,115.5s10-8,20-3c0,0,9,8,0,20h-16C159.5,131.5,155.5,126.5,158.5,115.5Z"/><path class="cls-28" d="M109,128h20s6-6,0-20-21,11-21,11S107,125,109,128Z"/><path class="cls-13" d="M131,111s3,13-2,17H115l-4-12C110,113,131,111,131,111Z"/><path d="M178,120c0,4-1.36,8-5.5,8a7.76,7.76,0,0,1-7.5-8c0-5,3.36-8,7.5-8S178,115.88,178,120Z"/><path d="M126,116c0,4-1.36,8-5.5,8a7.76,7.76,0,0,1-7.5-8c0-5,3.36-8,7.5-8S126,111.88,126,116Z"/><ellipse class="cls-29" cx="170" cy="116" rx="2.5" ry="3.5"/><path class="cls-2" d="M131.5,162.5s27,7,45-7"/><line class="cls-2" x1="178.5" y1="157.5" x2="175.5" y2="154.5"/><path class="cls-2" d="M140.5,127.5s-2,10-7,12c0,0,3,1,3,5"/><path class="cls-30" d="M187.5,59.5s10-10,22,4c0,0,11-1,13,5,0,0-8,7-7,8,0,0,7,8,7,16l-7-2s7,9-1,32c0,0-5-2-3-17,0,0-1-6-6-4,0,0-4,0-4-7,0,0-10,10-17,10,0,0,3-11,2-15,0,0-43,35-103,33l10-23s-6,8-9,9,2-29,32-47l-3-5s10-3,15,3C128.5,59.5,166.5,44.5,187.5,59.5Z"/><path class="cls-26" d="M171.5,74.5s8-6,14-5"/><polyline class="cls-26" points="190.5 64.5 194.5 61.5 200.5 65.5"/><polyline class="cls-26" points="191.5 70.5 195.5 68.5 201.5 73.5"/><path class="cls-26" d="M161.5,61.5s15-4,20,2"/><path class="cls-26" d="M168.5,66.5s10-3,13-1"/><path class="cls-6" d="M76,306.5S91.63,305,94,305"/><path class="cls-6" d="M75,317.5S92.37,316,95,316"/><path class="cls-6" d="M76,324.5S93.37,323,96,323"/><path class="cls-6" d="M76,299.5S90.76,298,93,298"/><path class="cls-6" d="M75,289.5S92.37,288,95,288"/><path class="cls-6" d="M75,282.5S92.37,281,95,281"/><path class="cls-6" d="M75,277.5S92.37,276,95,276"/><path class="cls-6" d="M76,330.5S93.37,329,96,329"/><path class="cls-6" d="M78.5,283.5s-1,53,2,54"/><path class="cls-6" d="M85.5,269s-1,65.27,2,66.5"/><rect class="cls-20" x="1" y="1" width="300" height="600"/></symbol><symbol id="Glad_" data-name="Glad&apos;" viewBox="0 0 302 602"><path class="cls-1" d="M205.5,355.5s12,7,4,16-20.77,0-20.77,0S190.5,353.5,205.5,355.5Z"/><path class="cls-1" d="M52.5,275.5s-6-4-13-9c0,0,6-15,10-14s14,7,14,8S52.5,275.5,52.5,275.5Z"/><path class="cls-1" d="M43.5,269.5s-3-7,10-16c0,0,7-2,1-10,0,0-8-11-7-20,0,0,2-7-2-6,0,0-6,1-5,8,0,0,3,9,3,11,0,0-5-1-5,0,0,0-1-7-19,2,0,0-2,3,2,4,0,0-4,0-4,1s0,2,3,3c0,0-4,1-3,3s2,2,2,2a2.05,2.05,0,0,0-2,3l2,6s2,6,6,6C25.5,266.5,41.5,270.5,43.5,269.5Z"/><path class="cls-2" d="M34.5,237.5a7.47,7.47,0,0,1-3,3"/><path class="cls-2" d="M33.5,239.5s5,0,4,5c0,0-6,2-16-2"/><path class="cls-2" d="M34,245c2.5,1.5,1.5,4.5,1.5,4.5s1,3-15-3"/><path class="cls-2" d="M32.3,250.25c3.79,4.75-1.8,5.25-1.8,5.25l-11-4"/><path class="cls-2" d="M20.5,261.78s9-.28,9-1.28c0,0,3-3,1-5"/><path class="cls-2" d="M40.5,244.5s-4,7-1,8c0,0-5,3-5,6"/><path class="cls-2" d="M108.5,379.5s8-1,13-10"/><path class="cls-2" d="M182.5,362.5s3,9,10,9"/><path class="cls-2" d="M141.5,388.5s-6,0-8-2"/><path class="cls-2" d="M150.5,388.5s8-1,10-2"/><path class="cls-3" d="M162.5,527.5s-7,13-5,17,17,8,17,8,19,5,21,9c0,0,8-6,17-3,0,0,13-12,3-21S158.5,523.5,162.5,527.5Z"/><path class="cls-4" d="M95.5,545.5s-1,14,2,14a30.87,30.87,0,0,0,21,2,251.56,251.56,0,0,0,25-8s10-8,10-12-4-10-6-10S95.5,545.5,95.5,545.5Z"/><path class="cls-5" d="M113.5,500.5s17.61-9.95,30.72,1a26.92,26.92,0,0,1,5.28,6s-12,16-2,24c0,0-5,13-5,14s-20,10-25,9c0,0-4-4-6-2s-10,3-12,2c0,0-4,0-4-17,0,0,2-3,4-2a17.34,17.34,0,0,1,12-10S120.5,523.5,113.5,500.5Z"/><polyline class="cls-2" points="137.5 521.5 114.5 524.5 128.5 531.5 105.5 529.5 122.5 538.02"/><polyline class="cls-2" points="116.44 521.5 131.5 527.5 110.5 526.5 124.5 534.5 101.31 532.3"/><path class="cls-5" d="M188.5,496.5s-24-2-26,11c0,0,0,9,2,10,0,0-7,2-6.5,20.52,0,0,31.5,17.48,36.5,8.48,0,0,2-2,5,0s10,0,10,0,5,4,7,4,13-13-17-24C199.5,526.5,192.5,494.5,188.5,496.5Z"/><polyline class="cls-2" points="193.5 513.5 181.58 527.31 197.5 525.5 189.5 536.5 203.76 531.98"/><polyline class="cls-2" points="178.5 523.5 195.5 520.5 186.5 533.5 201.5 529.5 192.5 538.5"/><path class="cls-7" d="M99.5,375.5s2-18,10-26c6.71-6.71,83-5,83-5l7,20-6,41,4,7-5,5a49.36,49.36,0,0,1-1,16v29s3,12,2,13-7,20-7,20-18,14-24,10c0,0-8-9-6-10,0,0,4-10,4-14s1-19,0-23-4-25-4-25l-2-16-4-3,3-3s-2-22-3-23a22.58,22.58,0,0,1-9,0s3,26,1,27h-4l5,5s2,6,2,8,1,14,1,14v30l-1,12,1,4s3,4,3,6,3,7,2,9a12.38,12.38,0,0,1-2,3,49.2,49.2,0,0,1-36-6s3-15,2-16,1-14,1-14l-2-10-1-12,2-6,1-7s-3-12-6-14,2-11,2-11l-10-31S97.5,377.5,99.5,375.5Z"/><path class="cls-8" d="M214.5,357.5s4-42,6-74a165,165,0,0,0-7-58s-35-25-65-25-63,20-63,20-12,35-12,41c0,0-7-7-10-6,0,0-17,8-13,19s34,20,34,20,8-1,24-36c0,0,8,21,7,25s-17,67-13,74,42,15,42,15,34-10,53-25c0,0,0-37-10-65l7-16s1,37,0,39c0,0,5,46,2,48C196.5,353.5,203.5,370.5,214.5,357.5Z"/><path class="cls-6" d="M55.5,278.5s33-1,38-1"/><path class="cls-6" d="M139.5,344.93s-24-4.43-31-8.43"/><path class="cls-6" d="M104.88,351.14S133.5,363.5,139.5,362.5"/><path class="cls-6" d="M63.5,258.5s-5,15-3,21"/><path class="cls-6" d="M56.5,262.5s41,5,43,9"/><path class="cls-6" d="M91.5,284.5s-14,2-20,2c-3.61,0,1-23,1-23"/><path class="cls-6" d="M141.5,230.5s-45-10-54-5"/><path class="cls-6" d="M139.5,243.5s-50-3-55-7"/><path class="cls-6" d="M137.5,258.5s-56-3-57-6"/><path class="cls-6" d="M139.5,280.5s-19,1-22-2"/><path class="cls-6" d="M116.5,290.5s16,5,21,4"/><path class="cls-6" d="M112.5,306.5s17,8,25,7"/><line class="cls-6" x1="109.5" y1="320.5" x2="139.5" y2="331.5"/><path class="cls-6" d="M137.5,220.5s-3,146,0,147"/><path class="cls-6" d="M130.5,223.5s1,132-6,139"/><path class="cls-6" d="M122.71,226.9s3.79,118.6-8.21,132.6"/><path class="cls-6" d="M110.5,213.5s4,39,2,45"/><line class="cls-6" x1="99.5" y1="217.5" x2="99.5" y2="266.5"/><path class="cls-6" d="M91.5,220.5s-1,53,2,54"/><path class="cls-6" d="M82.5,247.5s1,43,4,43"/><path class="cls-6" d="M145.18,348.2s42.32-25.7,48.32-25.7"/><path class="cls-6" d="M145.18,331.19S183.5,310,192.5,309.76"/><path class="cls-6" d="M145.18,312.25s31.78-18.33,43.55-18"/><path class="cls-6" d="M145.18,296.5a96,96,0,0,1,40.32-17"/><path class="cls-6" d="M198,350.15s10.55,3.35,14.55,1.35"/><path class="cls-6" d="M199.5,336.5a47.41,47.41,0,0,0,13,0"/><path class="cls-6" d="M197.5,326.5s8-5,17-3"/><path class="cls-6" d="M196.5,306.5s9-5,18-2"/><path class="cls-6" d="M196.5,290.5s12-7,20-3"/><path class="cls-6" d="M196.5,273.5s12-4,20,0"/><path class="cls-6" d="M147.5,273.5s55-21,69-19"/><path class="cls-6" d="M147.5,254.5s36-12,67-10"/><path class="cls-6" d="M149.5,240.5s34.31-16.84,62.65-11.42"/><path class="cls-6" d="M206.5,223.5s-12,86-10,89"/><path class="cls-6" d="M218.5,260.5s-8,97-6,97"/><path class="cls-6" d="M145.18,361.8c3.32-1.3,45.3-26.1,51.81-27.2"/><path class="cls-9" d="M147.5,220.5s-8,18-3,152"/><path class="cls-6" d="M156.43,219s-10.07,61.51,0,148"/><path class="cls-6" d="M168,362.92s-13.5-23.42-4.5-137.42"/><path class="cls-6" d="M179.9,210.92s-12.61,105.42,0,146.5"/><path class="cls-6" d="M192.5,213.13s-20.54,31.4-3.77,140.38"/><path class="cls-6" d="M201.94,218.22S191.5,250.5,194.5,266.5"/><path class="cls-6" d="M212.5,225.5s-11.72,119.6-8.86,136.3"/><path class="cls-10" d="M110.5,207.5a65.77,65.77,0,0,1,36-15c22-2,41,15,41,15s-10,1-21,18c0,0-9.71-7.77-10-9.91,0,0,0-.06-.08,0-.73.62-7.05,5.94-8.93,5.94,0,0-8-3-12-6l-11,8S116.5,211.5,110.5,207.5Z"/><path class="cls-1" d="M214.5,117.5s10-12,19-7c0,0,2,23-7,24S214.5,125.5,214.5,117.5Z"/><path class="cls-1" d="M126.5,205.5s8,12,21,15c0,0,5-1,19-13,0,0-3-4,2-25,0,0-37-4-38-1S128.5,203.5,126.5,205.5Z"/><path class="cls-1" d="M95.5,153.5s25,35,53,34c0,0,40-1,67-34,0,0,4,2,5-46,0,0-12-43-75-15l-50,28S92.5,149.5,95.5,153.5Z"/><path class="cls-19" d="M164.2,110s14.3-8.5,35.3.5"/><path class="cls-12" d="M197.5,132.5s-10,3-29,2c0,0-5,2-4-17,0,0,8-9,33-2C197.5,115.5,202.5,124.5,197.5,132.5Z"/><path class="cls-13" d="M164.5,117.5s10-8,20-3c0,0,9,8,0,20h-16C165.5,133.5,161.5,128.5,164.5,117.5Z"/><path class="cls-14" d="M115,130h20s6-6,0-20-21,11-21,11S113,127,115,130Z"/><path class="cls-15" d="M137,113s3,13-2,17H121l-4-12C116,115,137,113,137,113Z"/><path class="cls-16" d="M184,122c0,4-1.36,8-5.5,8a7.76,7.76,0,0,1-7.5-8c0-5,3.36-8,7.5-8S184,117.88,184,122Z"/><path class="cls-16" d="M132,118c0,4-1.36,8-5.5,8a7.76,7.76,0,0,1-7.5-8c0-5,3.36-8,7.5-8S132,113.88,132,118Z"/><ellipse class="cls-17" cx="176" cy="118" rx="2.5" ry="3.5"/><path class="cls-2" d="M146.5,129.5s-2,10-7,12c0,0,3,1,3,5"/><path class="cls-18" d="M193.5,61.5s10-10,22,4c0,0,11-1,13,5,0,0-8,7-7,8,0,0,7,8,7,16l-7-2s7,9-1,32c0,0-5-2-3-17,0,0-1-6-6-4,0,0-4,0-4-7,0,0-10,10-17,10,0,0,3-11,2-15,0,0-43,35-103,33l10-23s-6,8-9,9,2-29,32-47l-3-5s10-3,15,3C134.5,61.5,172.5,46.5,193.5,61.5Z"/><path class="cls-19" d="M179.5,77.5s8-6,14-5"/><polyline class="cls-19" points="198.5 67.5 202.5 64.5 208.5 68.5"/><polyline class="cls-19" points="199.5 73.5 203.5 71.5 209.5 76.5"/><path class="cls-19" d="M169.5,64.5s15-4,20,2"/><path class="cls-19" d="M176.5,69.5s10-3,13-1"/><rect class="cls-20" x="1" y="1" width="300" height="600"/><path class="cls-21" d="M176,146l-1.14,1.08c-13.69,9.7-43.36,8.62-43.36,8.62s7.42,24.8,26.24,24.8S176,146,176,146Z"/><path class="cls-22" d="M141.5,170.5s8.16-13.37,33.08-13.37C174.58,157.13,166,195,141.5,170.5Z"/></symbol><symbol id="Frastødt" data-name="Frastødt" viewBox="0 0 302 602"><path class="cls-1" d="M205.5,355.5s12,7,4,16-20.77,0-20.77,0S190.5,353.5,205.5,355.5Z"/><path class="cls-2" d="M81.15,281.21s.15-8.06-3-7.5c0,0,3-5,1.51-7.66"/><path class="cls-2" d="M108.5,379.5s8-1,13-10"/><path class="cls-2" d="M182.5,362.5s3,9,10,9"/><path class="cls-2" d="M141.5,388.5s-6,0-8-2"/><path class="cls-2" d="M150.5,388.5s8-1,10-2"/><path class="cls-3" d="M162.5,527.5s-7,13-5,17,17,8,17,8,19,5,21,9c0,0,8-6,17-3,0,0,13-12,3-21S158.5,523.5,162.5,527.5Z"/><path class="cls-4" d="M95.5,545.5s-1,14,2,14a30.87,30.87,0,0,0,21,2,251.56,251.56,0,0,0,25-8s10-8,10-12-4-10-6-10S95.5,545.5,95.5,545.5Z"/><path class="cls-5" d="M113.5,500.5s17.61-9.95,30.72,1a26.92,26.92,0,0,1,5.28,6s-12,16-2,24c0,0-5,13-5,14s-20,10-25,9c0,0-4-4-6-2s-10,3-12,2c0,0-4,0-4-17,0,0,2-3,4-2a17.34,17.34,0,0,1,12-10S120.5,523.5,113.5,500.5Z"/><polyline class="cls-2" points="137.5 521.5 114.5 524.5 128.5 531.5 105.5 529.5 122.5 538.02"/><polyline class="cls-2" points="116.44 521.5 131.5 527.5 110.5 526.5 124.5 534.5 101.31 532.3"/><path class="cls-5" d="M188.5,496.5s-24-2-26,11c0,0,0,9,2,10,0,0-7,2-6.5,20.52,0,0,31.5,17.48,36.5,8.48,0,0,2-2,5,0s10,0,10,0,5,4,7,4,13-13-17-24C199.5,526.5,192.5,494.5,188.5,496.5Z"/><polyline class="cls-2" points="193.5 513.5 181.58 527.31 197.5 525.5 189.5 536.5 203.76 531.98"/><polyline class="cls-2" points="178.5 523.5 195.5 520.5 186.5 533.5 201.5 529.5 192.5 538.5"/><path class="cls-6" d="M91.5,220.5s-1,53,2,54"/><path class="cls-6" d="M82.5,247.5s1,43,4,43"/><path class="cls-6" d="M75.5,253.5s-5,13.93-3,19.5"/><path class="cls-6" d="M137.5,258.5s-56-3-57-6"/><path class="cls-6" d="M70,262.5s36.71,5,38.5,9"/><path class="cls-6" d="M95.5,282.5s-14,2-20,2c-3.61,0,1-23,1-23"/><path class="cls-6" d="M72,277h28.5"/><path class="cls-7" d="M99.5,375.5s2-18,10-26c6.71-6.71,83-5,83-5l7,20-6,41,4,7-5,5a49.36,49.36,0,0,1-1,16v29s3,12,2,13-7,20-7,20-18,14-24,10c0,0-8-9-6-10,0,0,4-10,4-14s1-19,0-23-4-25-4-25l-2-16-4-3,3-3s-2-22-3-23a22.58,22.58,0,0,1-9,0s3,26,1,27h-4l5,5s2,6,2,8,1,14,1,14v30l-1,12,1,4s3,4,3,6,3,7,2,9a12.38,12.38,0,0,1-2,3,49.2,49.2,0,0,1-36-6s3-15,2-16,1-14,1-14l-2-10-1-12,2-6,1-7s-3-12-6-14,2-11,2-11l-10-31S97.5,377.5,99.5,375.5Z"/><path class="cls-8" d="M214.5,357.5s4-42,6-74a165,165,0,0,0-7-58s-35-25-65-25-63,20-63,20-9,23-9,29c0,0-3,5-6,6,0,0-4,12,0,23s14,11,14,11,8,4,24-31c0,0,8,21,7,25s-17,67-13,74,42,15,42,15,34-10,53-25c0,0,0-37-10-65l7-16s1,37,0,39c0,0,5,46,2,48C196.5,353.5,203.5,370.5,214.5,357.5Z"/><path class="cls-6" d="M122.71,226.9s3.79,118.6-8.21,132.6"/><path class="cls-6" d="M139.5,280.5s-19,1-22-2"/><path class="cls-6" d="M110.5,213.5s4,39,2,45"/><path class="cls-6" d="M112.5,306.5s17,8,25,7"/><path class="cls-1" d="M78.75,259.77s7.18.63,15.72,1.66c0,0,1.94,16-2,17.08s-15.65.58-16.12-.3S78.75,259.77,78.75,259.77Z"/><path class="cls-1" d="M92.52,260.72s6,4.7-1.09,18.83c0,0-5.18,5.12,3.92,9.26,0,0,12.3,5.81,15.74,14.19,0,0,1.6,7.1,4.63,4.3,0,0,4.79-3.76.55-9.42,0,0-7-6.46-7.91-8.21,0,0,4.87-1.52,4.39-2.4,0,0,4.23,5.66,15.71-10.87,0,0,.31-3.59-3.68-2.55,0,0,3.51-1.92,3-2.8s-1-1.75-4.07-1.19c0,0,3-2.8,1.19-4.07s-2.71-.8-2.71-.8a2.05,2.05,0,0,0,.31-3.59l-4.63-4.3s-4.64-4.31-8.14-2.39C109.76,254.71,93.8,258.88,92.52,260.72Z"/><path class="cls-2" d="M102.77,284.47a7.46,7.46,0,0,1,1.2-4.07"/><path class="cls-2" d="M115.69,282.24s-4.38,2.4-5.91-2.47c0,0,4.31-4.63,15-5.92"/><path class="cls-2" d="M112.62,277.65c-2.91-.11-3.48-3.22-3.48-3.22s-2.32-2.16,14.6-4.57"/><path class="cls-2" d="M111.59,272.23c-5.61-2.35-.94-5.47-.94-5.47L122.22,265"/><path class="cls-2" d="M115.41,256.45s-7.77,4.57-7.29,5.45c0,0-1.19,4.07,1.53,4.86"/><path class="cls-6" d="M139.5,344.93s-24-4.43-31-8.43"/><path class="cls-6" d="M104.88,351.14S133.5,363.5,139.5,362.5"/><path class="cls-6" d="M141.5,230.5s-45-10-54-5"/><path class="cls-6" d="M139.5,243.5s-50-3-55-7"/><path class="cls-6" d="M116.5,290.5s16,5,21,4"/><line class="cls-6" x1="109.5" y1="320.5" x2="139.5" y2="331.5"/><path class="cls-6" d="M137.5,220.5s-3,146,0,147"/><path class="cls-6" d="M130.5,223.5s1,132-6,139"/><line class="cls-6" x1="99.5" y1="213" x2="99.5" y2="254"/><path class="cls-6" d="M145.18,348.2s42.32-25.7,48.32-25.7"/><path class="cls-6" d="M145.18,331.19S183.5,310,192.5,309.76"/><path class="cls-6" d="M145.18,312.25s31.78-18.33,43.55-18"/><path class="cls-6" d="M145.18,296.5a96,96,0,0,1,40.32-17"/><path class="cls-6" d="M198,350.15s10.55,3.35,14.55,1.35"/><path class="cls-6" d="M199.5,336.5a47.41,47.41,0,0,0,13,0"/><path class="cls-6" d="M197.5,326.5s8-5,17-3"/><path class="cls-6" d="M196.5,306.5s9-5,18-2"/><path class="cls-6" d="M196.5,290.5s12-7,20-3"/><path class="cls-6" d="M196.5,273.5s12-4,20,0"/><path class="cls-6" d="M147.5,273.5s55-21,69-19"/><path class="cls-6" d="M147.5,254.5s36-12,67-10"/><path class="cls-6" d="M149.5,240.5s34.31-16.84,62.65-11.42"/><path class="cls-6" d="M206.5,223.5s-12,86-10,89"/><path class="cls-6" d="M218.5,260.5s-8,97-6,97"/><path class="cls-6" d="M145.18,361.8c3.32-1.3,45.3-26.1,51.81-27.2"/><path class="cls-9" d="M147.5,220.5s-8,18-3,152"/><path class="cls-6" d="M156.43,219s-10.07,61.51,0,148"/><path class="cls-6" d="M168,362.92s-13.5-23.42-4.5-137.42"/><path class="cls-6" d="M179.9,210.92s-12.61,105.42,0,146.5"/><path class="cls-6" d="M192.5,213.13s-20.54,31.4-3.77,140.38"/><path class="cls-6" d="M201.94,218.22S191.5,250.5,194.5,266.5"/><path class="cls-6" d="M212.5,225.5s-11.72,119.6-8.86,136.3"/><path class="cls-10" d="M110.5,207.5a65.77,65.77,0,0,1,36-15c22-2,41,15,41,15s-10,1-21,18c0,0-9.71-7.77-10-9.91,0,0,0-.06-.08,0-.73.62-7.05,5.94-8.93,5.94,0,0-8-3-12-6l-11,8S116.5,211.5,110.5,207.5Z"/><path class="cls-1" d="M214.5,117.5s10-12,19-7c0,0,2,23-7,24S214.5,125.5,214.5,117.5Z"/><path class="cls-1" d="M126.5,205.5s8,12,21,15c0,0,5-1,19-13,0,0-3-4,2-25,0,0-37-4-38-1S128.5,203.5,126.5,205.5Z"/><path class="cls-1" d="M95.5,153.5s25,35,53,34c0,0,40-1,67-34,0,0,4,2,5-46,0,0-12-43-75-15l-50,28S92.5,149.5,95.5,153.5Z"/><path class="cls-11" d="M161,115.32s10.21-13.12,33-12.39"/><path class="cls-12" d="M197.5,132.5s-10,3-29,2c0,0-5,2-4-17,0,0,8-9,33-2C197.5,115.5,202.5,124.5,197.5,132.5Z"/><path class="cls-13" d="M164.5,117.5s10-8,20-3c0,0,9,8,0,20h-16C165.5,133.5,161.5,128.5,164.5,117.5Z"/><path class="cls-14" d="M115,130h20s6-6,0-20-21,11-21,11S113,127,115,130Z"/><path class="cls-15" d="M137,113s3,13-2,17H121l-4-12C116,115,137,113,137,113Z"/><path class="cls-16" d="M184,122c0,4-1.36,8-5.5,8a7.76,7.76,0,0,1-7.5-8c0-5,3.36-8,7.5-8S184,117.88,184,122Z"/><path class="cls-16" d="M132,118c0,4-1.36,8-5.5,8a7.76,7.76,0,0,1-7.5-8c0-5,3.36-8,7.5-8S132,113.88,132,118Z"/><ellipse class="cls-17" cx="176" cy="118" rx="2.5" ry="3.5"/><path class="cls-2" d="M146.5,129.5s-2,10-7,12c0,0,3,1,3,5"/><path class="cls-18" d="M193.5,61.5s10-10,22,4c0,0,11-1,13,5,0,0-8,7-7,8,0,0,7,8,7,16l-7-2s7,9-1,32c0,0-5-2-3-17,0,0-1-6-6-4,0,0-4,0-4-7,0,0-10,10-17,10,0,0,3-11,2-15,0,0-43,35-103,33l10-23s-6,8-9,9,2-29,32-47l-3-5s10-3,15,3C134.5,61.5,172.5,46.5,193.5,61.5Z"/><path class="cls-19" d="M179.5,77.5s8-6,14-5"/><polyline class="cls-19" points="198.5 67.5 202.5 64.5 208.5 68.5"/><polyline class="cls-19" points="199.5 73.5 203.5 71.5 209.5 76.5"/><path class="cls-19" d="M169.5,64.5s15-4,20,2"/><path class="cls-19" d="M176.5,69.5s10-3,13-1"/><rect class="cls-20" x="1" y="1" width="300" height="600"/><path class="cls-2" d="M136.5,169.5s16-29,37-5"/></symbol><symbol id="Overrasket" data-name="Overrasket" viewBox="0 0 301 601"><path class="cls-23" d="M199.5,353.5s12,7,4,16-20.77,0-20.77,0S184.5,351.5,199.5,353.5Z"/><path class="cls-2" d="M102.5,377.5s8-1,13-10"/><path class="cls-2" d="M176.5,360.5s3,9,10,9"/><path class="cls-2" d="M135.5,386.5s-6,0-8-2"/><path class="cls-2" d="M144.5,386.5s8-1,10-2"/><path class="cls-24" d="M156.5,525.5s-7,13-5,17,17,8,17,8,19,5,21,9c0,0,8-6,17-3,0,0,13-12,3-21S152.5,521.5,156.5,525.5Z"/><path class="cls-25" d="M89.5,543.5s-1,14,2,14a30.87,30.87,0,0,0,21,2,251.56,251.56,0,0,0,25-8s10-8,10-12-4-10-6-10S89.5,543.5,89.5,543.5Z"/><path class="cls-5" d="M107.5,498.5s17.61-9.95,30.72,1a26.92,26.92,0,0,1,5.28,6s-12,16-2,24c0,0-5,13-5,14s-20,10-25,9c0,0-4-4-6-2s-10,3-12,2c0,0-4,0-4-17,0,0,2-3,4-2a17.34,17.34,0,0,1,12-10S114.5,521.5,107.5,498.5Z"/><polyline class="cls-2" points="131.5 519.5 108.5 522.5 122.5 529.5 99.5 527.5 116.5 536.02"/><polyline class="cls-2" points="110.44 519.5 125.5 525.5 104.5 524.5 118.5 532.5 95.31 530.3"/><path class="cls-5" d="M182.5,494.5s-24-2-26,11c0,0,0,9,2,10,0,0-7,2-6.5,20.52,0,0,31.5,17.48,36.5,8.48,0,0,2-2,5,0s10,0,10,0,5,4,7,4,13-13-17-24C193.5,524.5,186.5,492.5,182.5,494.5Z"/><polyline class="cls-2" points="187.5 511.5 175.58 525.31 191.5 523.5 183.5 534.5 197.76 529.98"/><polyline class="cls-2" points="172.5 521.5 189.5 518.5 180.5 531.5 195.5 527.5 186.5 536.5"/><path class="cls-23" d="M82.72,339.51A13.88,13.88,0,0,0,76,353.82s4,11.25,9.41,10.23c0,0,2.68,3.06,4,2,0,0,4,2.05,4,0,0,0,4,1,4,0,0,0,1.34-1-1.34-4.09s-2.69-8.18-2.69-9.2c0,0,0,6.13,4,6.13,0,0,4,1,2.69-2,0,0-2.69-2.05-2.69-4.09v-5.11S85.41,337.46,82.72,339.51Z"/><path class="cls-2" d="M80,353.82s1.35,6.14,5.38,10.23"/><path class="cls-2" d="M85.41,354.84s-1.35,4.09,4,11.25"/><path class="cls-2" d="M89.44,354.84s-1.35,4.09,4,11.25"/><path class="cls-7" d="M93.5,373.5s2-18,10-26c6.71-6.71,83-5,83-5l7,20-6,41,4,7-5,5a49.36,49.36,0,0,1-1,16v29s3,12,2,13-7,20-7,20-18,14-24,10c0,0-8-9-6-10,0,0,4-10,4-14s1-19,0-23-4-25-4-25l-2-16-4-3,3-3s-2-22-3-23a22.58,22.58,0,0,1-9,0s3,26,1,27h-4l5,5s2,6,2,8,1,14,1,14v30l-1,12,1,4s3,4,3,6,3,7,2,9a12.38,12.38,0,0,1-2,3,49.2,49.2,0,0,1-36-6s3-15,2-16,1-14,1-14l-2-10-1-12,2-6,1-7s-3-12-6-14,2-11,2-11l-10-31S91.5,375.5,93.5,373.5Z"/><path class="cls-8" d="M208.5,361.5s4-42,6-74a165,165,0,0,0-7-58s-35-25-65-25-63,20-63,20-5,37-5,43c0,0,2,80-1,81,0,0,14-15,18-4s7-12,7-12-12-35,4-70c0,0,8,21,7,25s-17,67-13,74,42,15,42,15,34-10,53-25c0,0,0-37-10-65l7-16s1,37,0,39c0,0,5,46,2,48C190.5,357.5,197.5,374.5,208.5,361.5Z"/><path class="cls-6" d="M76,270.5S93.37,269,96,269"/><path class="cls-6" d="M133.5,342.93s-24-4.43-31-8.43"/><path class="cls-6" d="M98.88,349.14S127.5,361.5,133.5,360.5"/><path class="cls-6" d="M94.5,314.5s-5,15-3,21"/><path class="cls-6" d="M75,257.54s22.88,2.73,24,4.92"/><path class="cls-6" d="M126.5,265.5s-14,2-20,2c-3.61,0,1-23,1-23"/><path class="cls-6" d="M135.5,228.5s-45-10-54-5"/><path class="cls-6" d="M133.5,241.5s-50-3-55-7"/><path class="cls-6" d="M131.5,256.5s-56-3-57-6"/><path class="cls-6" d="M133.5,278.5s-19,1-22-2"/><path class="cls-6" d="M110.5,288.5s16,5,21,4"/><path class="cls-6" d="M106.5,304.5s17,8,25,7"/><line class="cls-6" x1="103.5" y1="318.5" x2="133.5" y2="329.5"/><path class="cls-6" d="M131.5,218.5s-3,146,0,147"/><path class="cls-6" d="M124.5,221.5s1,132-6,139"/><path class="cls-6" d="M116.71,224.9s3.79,118.6-8.21,132.6"/><path class="cls-6" d="M104.5,213s4,37.7,2,43.5"/><line class="cls-6" x1="93.5" y1="218" x2="93.5" y2="264.5"/><path class="cls-6" d="M85.5,222s-1,49.56,2,50.5"/><path class="cls-6" d="M76.5,245.5s1,43,4,43"/><path class="cls-6" d="M139.18,346.2s42.32-25.7,48.32-25.7"/><path class="cls-6" d="M139.18,329.19S177.5,308,186.5,307.76"/><path class="cls-6" d="M139.18,310.25s31.78-18.33,43.55-18"/><path class="cls-6" d="M139.18,294.5a96,96,0,0,1,40.32-17"/><path class="cls-6" d="M192,348.15s10.55,3.35,14.55,1.35"/><path class="cls-6" d="M193.5,334.5a47.41,47.41,0,0,0,13,0"/><path class="cls-6" d="M191.5,324.5s8-5,17-3"/><path class="cls-6" d="M190.5,304.5s9-5,18-2"/><path class="cls-6" d="M190.5,288.5s12-7,20-3"/><path class="cls-6" d="M190.5,271.5s12-4,20,0"/><path class="cls-6" d="M141.5,271.5s55-21,69-19"/><path class="cls-6" d="M141.5,252.5s36-12,67-10"/><path class="cls-6" d="M140.5,239.5s34.31-16.84,62.65-11.42"/><path class="cls-6" d="M200.5,226s-12,81.65-10,84.5"/><path class="cls-6" d="M212.5,258.5s-8,97-6,97"/><path class="cls-6" d="M139.18,359.8c3.32-1.3,45.3-26.1,51.81-27.2"/><path class="cls-9" d="M141.5,218.5s-8,18-3,152"/><path class="cls-6" d="M150.43,217s-10.07,61.51,0,148"/><path class="cls-6" d="M162,360.92s-13.5-23.42-4.5-137.42"/><path class="cls-6" d="M173.9,212s-12.61,103.21,0,143.42"/><path class="cls-6" d="M186.5,218S166,247.86,182.73,351.51"/><path class="cls-6" d="M195.94,223s-10.44,27.75-7.44,41.5"/><path class="cls-6" d="M206.5,229s-11.72,114.78-8.86,130.8"/><path class="cls-10" d="M104.5,205.5a65.77,65.77,0,0,1,36-15c22-2,41,15,41,15s-10,1-21,18c0,0-9.71-7.77-10-9.91,0,0,0-.06-.08,0-.73.62-7.05,5.94-8.93,5.94,0,0-8-3-12-6l-11,8S110.5,209.5,104.5,205.5Z"/><path class="cls-23" d="M208.5,115.5s10-12,19-7c0,0,2,23-7,24S208.5,123.5,208.5,115.5Z"/><path class="cls-23" d="M120.5,203.5s8,12,21,15c0,0,5-1,19-13,0,0-3-4,2-25,0,0-37-4-38-1S122.5,201.5,120.5,203.5Z"/><path class="cls-23" d="M89.5,151.5s25,35,53,34c0,0,40-1,67-34,0,0,4,2,5-46,0,0-12-43-75-15l-50,28S86.5,147.5,89.5,151.5Z"/><path class="cls-26" d="M158.2,108s14.3-8.5,35.3.5"/><path class="cls-27" d="M191.5,130.5s-10,3-29,2c0,0-5,2-4-17,0,0,8-9,33-2C191.5,113.5,196.5,122.5,191.5,130.5Z"/><path class="cls-13" d="M158.5,115.5s10-8,20-3c0,0,9,8,0,20h-16C159.5,131.5,155.5,126.5,158.5,115.5Z"/><path class="cls-28" d="M109,128h20s6-6,0-20-21,11-21,11S107,125,109,128Z"/><path class="cls-13" d="M131,111s3,13-2,17H115l-4-12C110,113,131,111,131,111Z"/><path d="M178,120c0,4-1.36,8-5.5,8a7.76,7.76,0,0,1-7.5-8c0-5,3.36-8,7.5-8S178,115.88,178,120Z"/><path d="M126,116c0,4-1.36,8-5.5,8a7.76,7.76,0,0,1-7.5-8c0-5,3.36-8,7.5-8S126,111.88,126,116Z"/><ellipse class="cls-29" cx="170" cy="116" rx="2.5" ry="3.5"/><path class="cls-2" d="M140.5,127.5s-2,10-7,12c0,0,3,1,3,5"/><path class="cls-30" d="M187.5,59.5s10-10,22,4c0,0,11-1,13,5,0,0-8,7-7,8,0,0,7,8,7,16l-7-2s7,9-1,32c0,0-5-2-3-17,0,0-1-6-6-4,0,0-4,0-4-7,0,0-10,10-17,10,0,0,3-11,2-15,0,0-43,35-103,33l10-23s-6,8-9,9,2-29,32-47l-3-5s10-3,15,3C128.5,59.5,166.5,44.5,187.5,59.5Z"/><path class="cls-26" d="M171.5,74.5s8-6,14-5"/><polyline class="cls-26" points="190.5 64.5 194.5 61.5 200.5 65.5"/><polyline class="cls-26" points="191.5 70.5 195.5 68.5 201.5 73.5"/><path class="cls-26" d="M161.5,61.5s15-4,20,2"/><path class="cls-26" d="M168.5,66.5s10-3,13-1"/><path class="cls-6" d="M76,306.5S91.63,305,94,305"/><path class="cls-6" d="M75,317.5S92.37,316,95,316"/><path class="cls-6" d="M76,324.5S93.37,323,96,323"/><path class="cls-6" d="M76,299.5S90.76,298,93,298"/><path class="cls-6" d="M75,289.5S92.37,288,95,288"/><path class="cls-6" d="M75,282.5S92.37,281,95,281"/><path class="cls-6" d="M75,277.5S92.37,276,95,276"/><path class="cls-6" d="M76,330.5S93.37,329,96,329"/><path class="cls-6" d="M78.5,283.5s-1,53,2,54"/><path class="cls-6" d="M85.5,269s-1,65.27,2,66.5"/><ellipse class="cls-21" cx="144.93" cy="161.2" rx="13.43" ry="12.2"/><path class="cls-2" d="M197.44,127.32s4.86,7.05-4.7,12.72"/><path class="cls-2" d="M103.37,127.36s-4.56,7.25,5.23,12.52"/><rect class="cls-31" x="0.5" y="0.5" width="300" height="600"/></symbol></defs><title>Asset 1</title><g id="Layer_2" data-name="Layer 2"><g id="ansigt"><use width="302" height="602" transform="translate(0 0.67)" xlink:href="#Neutral"/><use width="302" height="602" transform="translate(298.67 1)" xlink:href="#Glad_"/><use width="302" height="602" transform="translate(597.33)" xlink:href="#Frastødt"/><use width="301" height="601" transform="translate(896 0.33)" xlink:href="#Overrasket"/></g></g></svg>