<svg xmlns="http://www.w3.org/2000/svg" xmlns:xlink="http://www.w3.org/1999/xlink" viewBox="0 0 1198 601"><defs><style>.cls-1{fill:#fecb9c;}.cls-1,.cls-10,.cls-11,.cls-12,.cls-13,.cls-17,.cls-2,.cls-21,.cls-22,.cls-23,.cls-24,.cls-25,.cls-26,.cls-27,.cls-28,.cls-29,.cls-3,.cls-4,.cls-5,.cls-6,.cls-7,.cls-8,.cls-9{stroke:#000;}.cls-1,.cls-10,.cls-11,.cls-12,.cls-13,.cls-16,.cls-17,.cls-2,.cls-21,.cls-22,.cls-23,.cls-24,.cls-25,.cls-26,.cls-27,.cls-28,.cls-29,.cls-3,.cls-4,.cls-5,.cls-6,.cls-7,.cls-8,.cls-9{stroke-miterlimit:10;}.cls-16,.cls-2,.cls-24{fill:none;}.cls-3{fill:#918e63;}.cls-4{fill:#d6b070;}.cls-5{fill:#000002;}.cls-7{fill:#020100;}.cls-8{fill:#2d3a2e;}.cls-9{fill:#3e5141;}.cls-10{fill:#3d0203;}.cls-11{fill:#f7f7f9;}.cls-12{fill:#02798d;stroke-width:0.5px;}.cls-13{fill:#000005;}.cls-14,.cls-23,.cls-25,.cls-28{fill:#fff;}.cls-15{fill:#fafafc;}.cls-16{stroke:#a37d3e;}.cls-17{fill:#9b514e;}.cls-18{opacity:0.1;}.cls-19{fill:#fec19b;}.cls-20{opacity:0.22;}.cls-21{fill:#ea2424;}.cls-22{fill:#7191db;}.cls-23{stroke-width:0.25px;}.cls-24,.cls-25,.cls-29{stroke-width:0.75px;}.cls-25,.cls-28{opacity:0;}.cls-26{stroke-width:2px;}.cls-27{fill:#c81e1e;}.cls-29{fill:#e8a680;}</style><symbol id="Neutral" data-name="Neutral" viewBox="0 0 301 601"><path class="cls-1" d="M188.5,368.5s6,4,5,14c0,0-3,11-7,10,0,0-2,3-3,2,0,0-3,2-3,0,0,0-3,1-3,0,0,0-1-1,1-4s2-8,2-9c0,0,0,6-3,6,0,0-3,1-2-2,0,0,2-2,2-4v-5S186.5,366.5,188.5,368.5Z"/><path class="cls-2" d="M190.5,382.5s-1,6-4,10"/><path class="cls-2" d="M186.5,383.5s1,4-3,11"/><path class="cls-2" d="M183.5,383.5s1,4-3,11"/><path class="cls-1" d="M97.5,359.5s-7,17-6,18,4,12,10,11,7-22,7-22S98.5,349.5,97.5,359.5Z"/><path class="cls-3" d="M185.5,365.5"/><path class="cls-2" d="M95.5,375.5s2,7.36,4,8.18"/><path class="cls-2" d="M98.5,372.5s0,6.18,2.52,7.09"/><path class="cls-4" d="M109.5,242.5s-20-35.19-2-40S105.5,232.79,109.5,242.5Z"/><path class="cls-5" d="M108.5,501.5v-12s20-2,19,3h0s-4,6-3,16C124.5,508.5,116.5,497.5,108.5,501.5Z"/><path class="cls-5" d="M142.5,508.5l3-14s-18-6-18-2c0,3.52,0,10.91-2,14.68a.42.42,0,0,0,.53.6C129.55,506.2,138.54,503,142.5,508.5Z"/><path class="cls-5" d="M96.5,529.5s-8-7,8-16c0,0,3.59-7.55,4.29-11.78s18.71-.22,15.71,10.78c0,0,4,11-16,19C108.5,531.5,101.5,534.5,96.5,529.5Z"/><path class="cls-5" d="M129.5,525.5s-8.93-7.9-2-20.45,15,3.45,15,3.45,1,6,6,8a9.55,9.55,0,0,1,6,11C153.5,531.5,144.5,539.5,129.5,525.5Z"/><path class="cls-6" d="M107.5,489.5s2-53-2-62c-2.47-5.56,32,6,30,12s-9,42-9,53C126.5,492.5,113.5,502.5,107.5,489.5Z"/><path class="cls-7" d="M146.5,494.5s-10,11-18-2c0,0,6-45,9-53s22-6,22-2S146.5,488.5,146.5,494.5Z"/><path class="cls-8" d="M149.5,238.5s33-1,26,14-49.58-2.72-49.58-2.72S124.5,239.5,149.5,238.5Z"/><path class="cls-9" d="M201.5,334.5s-26,26-102,15c0,0,7-92,12-91,0,0,1-14,55-10a49.31,49.31,0,0,1,9.07,3.06c8.32,3.69,19.18,11.19,17.93,24.94C193.5,276.5,206.5,271.5,201.5,334.5Z"/><path class="cls-10" d="M89.5,421.5s18,20,44,21,48-11,48-11-17-78.6-17-90c0-4,12-45,17-45,0,0,6,56,0,70,0,0,4,8,12,3,0,0,6-89,0-93,0,0-1-11-31-18s-54,1-55,9c0,0-16,11-13,86l1,7s3,9,9,0l3-52,8,3s-4,12,2,27C117.5,338.5,85.5,413.5,89.5,421.5Z"/><path class="cls-1" d="M133.76,242.5s.74,12-4.26,14c0,0,4,11,16,12,0,0,10,2,17-10,0,0-3-7.46,0-17.73S128,237.5,133.76,242.5"/><path class="cls-1" d="M99.5,207.5s10,35,38,35,19,3,48-18c0,0,5-3,9-13,0,0,14-1,15-11,0,0,4-12,0-18s-13,6-13,6,0-52-94-14C102.5,174.5,95.5,197.5,99.5,207.5Z"/><path class="cls-11" d="M151.5,190.5s7-14,25-5c0,0,3,0,4-1a29.58,29.58,0,0,0-3,4s1,7-1,9-11,6-22,4A13.38,13.38,0,0,1,151.5,190.5Z"/><path class="cls-11" d="M132.5,187.5s2,7-1,12c0,0-8,4-19,0a13.83,13.83,0,0,1-2-10s-1-3-2-3,3,0,4-1S122.5,179.5,132.5,187.5Z"/><path class="cls-12" d="M114.5,188.5s.36-4.76,4.68-5.38,13.32,4.38,13.32,4.38,2,8-1,12c0,0-8.63,3.17-15.31,1.08C116.19,200.58,113.5,193.5,114.5,188.5Z"/><path class="cls-12" d="M173.5,191.5s-.77-8.59-5.39-8.79-11.61-.21-16.61,7.79c0,0-2,5,3,11a31.55,31.55,0,0,0,17.39-1.45A30.35,30.35,0,0,0,173.5,191.5Z"/><path class="cls-13" d="M118.5,192.5s-2-6.88,1.5-8.44,11,3.34,11,3.34,2.49,9.1-6.51,10.1C124.5,197.5,119.5,196.5,118.5,192.5Z"/><path class="cls-13" d="M154.77,186.45s-1.27,14.05,7.73,10.05c0,0,9-4,1-13,0,0-.46-3.1-8.73,2.95"/><ellipse class="cls-14" cx="158" cy="188.5" rx="2.5" ry="3"/><ellipse class="cls-15" cx="128" cy="188.5" rx="2.5" ry="3"/><path class="cls-16" d="M108.5,182.5s13-9,23-1"/><path class="cls-16" d="M152.5,181.5s9-9,25-2"/><path class="cls-2" d="M133.5,307.5s16,17,31,2"/><path class="cls-2" d="M119.5,309.5s-11,4-14-5c0,0-6-11,6-21"/><path class="cls-8" d="M169.5,285.5s0,30,7,31,7-5,4-28c0,0-1.94-25.46,1.53-23.23s-6.26-2.79-6.26-2.79S168.5,273.5,169.5,285.5Z"/><path class="cls-8" d="M109.5,283.5s-3.36-15-3.18-15.51-4.48,9.39-4.48,9.39L106,288.8S106.5,287.5,109.5,283.5Z"/><path class="cls-4" d="M98.5,173.5s12-72,81-40c0,0,40.34-6.62,31.67,54.19,0,0,.37-11.24-8.65-5.22,0,0,4,43-13,54,0,0,7-49-2-63C187.5,173.5,154.5,186.5,98.5,173.5Z"/><path class="cls-4" d="M177.5,122.5s-7-24,25-18c0,0-10,0-9,3,0,0,44-10,37,60,0,0-8-41-38-37C192.5,130.5,188.5,122.5,177.5,122.5Z"/><path class="cls-17" d="M170.5,129.5s3-7,7-7,10,1,15,8c0,0,1.33,2.85-1.34,3.93,0,0-8.66-1.93-11.66-.93A25.07,25.07,0,0,0,170.5,129.5Z"/><path class="cls-2" d="M140.5,192.5s-1,8-4,11c0,0,4,0,5,3"/><path class="cls-29" d="M134.5,224.5s4-7,9-2c0,0,5-5,10,0S136.5,233.5,134.5,224.5Z"/><path class="cls-2" d="M124.5,220.5s13,12,38,0"/><path class="cls-16" d="M115.5,159.5s-5,4.57-6,15.28"/><path class="cls-16" d="M125.5,161.5s-4.57,12.83-1.79,15.42"/><path class="cls-16" d="M142.66,161.5s-6.16,11.33-1.16,16.67"/><path class="cls-16" d="M157.5,160.5s0,17.33,3,16.67"/><path class="cls-16" d="M174.51,161.5s2.2,8.67.09,14.33"/><path class="cls-16" d="M200.5,164.5a28.23,28.23,0,0,1,2,17"/><path class="cls-16" d="M186.5,159.5s3,7,0,14"/><g class="cls-18"><path class="cls-19" d="M176.48,210.61a1.5,1.5,0,0,0,0-3,1.5,1.5,0,0,0,0,3Z"/></g><g class="cls-18"><path class="cls-19" d="M181.44,210a1.5,1.5,0,0,0,0-3,1.5,1.5,0,0,0,0,3Z"/></g><g class="cls-18"><path class="cls-19" d="M179.79,216.76c7.72,0,7.73-12,0-12s-7.74,12,0,12Z"/></g><g class="cls-18"><path class="cls-19" d="M182.27,213.25c7.72,0,7.73-12,0-12s-7.74,12,0,12Z"/></g><g class="cls-18"><path class="cls-19" d="M173.38,218.41c7.72,0,7.73-12,0-12s-7.74,12,0,12Z"/></g><g class="cls-18"><path class="cls-19" d="M181.23,211c7.72,0,7.74-12,0-12s-7.73,12,0,12Z"/></g><g class="cls-20"><path class="cls-19" d="M175.24,217.59c7.72,0,7.73-12,0-12s-7.73,12,0,12Z"/></g><g class="cls-20"><path class="cls-19" d="M177.93,216.35h.2a6.2,6.2,0,0,0,4.25-1.76,6,6,0,0,0,0-8.48,6.25,6.25,0,0,0-4.25-1.76h-.2a6.2,6.2,0,0,0-4.25,1.76,6,6,0,0,0,0,8.48,6.25,6.25,0,0,0,4.25,1.76Z"/></g><g class="cls-20"><path class="cls-19" d="M182.27,210.35c7.72,0,7.73-12,0-12s-7.74,12,0,12Z"/></g><g class="cls-20"><path class="cls-19" d="M174.62,213.87c7.72,0,7.73-12,0-12s-7.73,12,0,12Z"/></g><g class="cls-20"><path class="cls-19" d="M171.11,216.76c7.72,0,7.73-12,0-12s-7.74,12,0,12Z"/></g><g class="cls-20"><path class="cls-19" d="M172.76,223h1.45a6.2,6.2,0,0,0,4.24-1.76,6.12,6.12,0,0,0,1.76-4.24,6.05,6.05,0,0,0-1.76-4.24,6.24,6.24,0,0,0-4.24-1.76h-1.45a6.16,6.16,0,0,0-4.24,1.76,6,6,0,0,0,0,8.48,6.2,6.2,0,0,0,4.24,1.76Z"/></g><g class="cls-20"><path class="cls-19" d="M189.71,215.52v-.42a6.21,6.21,0,0,0-1.75-4.24,6,6,0,0,0-8.49,0,6.22,6.22,0,0,0-1.76,4.24v.42a6.2,6.2,0,0,0,1.76,4.24,6,6,0,0,0,8.49,0,6.28,6.28,0,0,0,1.75-4.24Z"/></g><g class="cls-20"><path class="cls-19" d="M104.14,208.7c7.72,0,7.73-12,0-12s-7.74,12,0,12Z"/></g><g class="cls-20"><path class="cls-19" d="M108.07,211.59c7.72,0,7.73-12,0-12s-7.74,12,0,12Z"/></g><g class="cls-20"><path class="cls-19" d="M114.89,215.31c7.72,0,7.73-12,0-12s-7.74,12,0,12Z"/></g><g class="cls-20"><path class="cls-19" d="M120.88,215.11c7.72,0,7.73-12,0-12s-7.73,12,0,12Z"/></g><g class="cls-20"><path class="cls-19" d="M114.06,205.79h-.62a6.16,6.16,0,0,0-4.24,1.76,6,6,0,0,0,0,8.49,6.19,6.19,0,0,0,4.24,1.75h.62A6.17,6.17,0,0,0,118.3,216a6,6,0,0,0,0-8.49,6.2,6.2,0,0,0-4.24-1.76Z"/></g><g class="cls-20"><path class="cls-19" d="M107.24,213c7.72,0,7.73-12,0-12s-7.74,12,0,12Z"/></g><g class="cls-20"><path class="cls-19" d="M105,210.09l.82.21a6.28,6.28,0,0,0,4.63-.61,6,6,0,0,0-1.44-11l-.82-.21a6.28,6.28,0,0,0-4.63.61,6,6,0,0,0,1.44,11Z"/></g><g class="cls-20"><path class="cls-19" d="M114.47,214.49c7.72,0,7.74-12,0-12s-7.73,12,0,12Z"/></g><g class="cls-20"><path class="cls-19" d="M115.22,202.77c-.73-.24-1.45-.5-2.17-.77-1.18-.43.54.31-.69-.29s-2.39-1.21-3.55-1.89a6,6,0,0,0-6.06,10.36,46.27,46.27,0,0,0,9.28,4.16,6,6,0,0,0,7.38-4.19,6.14,6.14,0,0,0-4.19-7.38Z"/></g><g class="cls-20"><path class="cls-19" d="M119.45,213.41c7.72,0,7.73-12,0-12s-7.73,12,0,12Z"/></g><g class="cls-20"><path class="cls-19" d="M104.16,205.26c7.72,0,7.74-12,0-12s-7.73,12,0,12Z"/></g><g class="cls-20"><path class="cls-19" d="M105.18,218.51c7.72,0,7.73-12,0-12s-7.73,12,0,12Z"/></g><g class="cls-20"><path class="cls-19" d="M168.71,214.77c7.72,0,7.73-12,0-12s-7.73,12,0,12Z"/></g><g class="cls-20"><path class="cls-19" d="M165,219.19c7.72,0,7.74-12,0-12s-7.73,12,0,12Z"/></g><g class="cls-20"><path class="cls-19" d="M176.52,225c7.73,0,7.74-12,0-12s-7.73,12,0,12Z"/></g><g class="cls-20"><path class="cls-19" d="M191.13,214.77c7.72,0,7.74-12,0-12s-7.73,12,0,12Z"/></g><g class="cls-20"><path class="cls-19" d="M187.74,201.52c7.72,0,7.73-12,0-12s-7.74,12,0,12Z"/></g><g class="cls-20"><path class="cls-19" d="M186.38,195.75c7.72,0,7.73-12,0-12s-7.74,12,0,12Z"/></g><g class="cls-20"><path class="cls-19" d="M141.19,194.39c7.72,0,7.74-12,0-12s-7.73,12,0,12Z"/></g><g class="cls-20"><path class="cls-19" d="M139.15,208c7.73,0,7.74-12,0-12s-7.73,12,0,12Z"/></g><g class="cls-20"><path class="cls-19" d="M120.81,216.47c7.72,0,7.73-12,0-12s-7.74,12,0,12Z"/></g><g class="cls-20"><path class="cls-19" d="M106.88,215.45c7.72,0,7.73-12,0-12s-7.73,12,0,12Z"/></g><g class="cls-20"><path class="cls-19" d="M102.46,209c7.72,0,7.74-12,0-12s-7.73,12,0,12Z"/></g><g class="cls-20"><path class="cls-19" d="M168,221.91c7.72,0,7.74-12,0-12s-7.73,12,0,12Z"/></g><g class="cls-20"><path class="cls-19" d="M166,215.45c7.72,0,7.74-12,0-12s-7.73,12,0,12Z"/></g><g class="cls-20"><path class="cls-19" d="M176.86,213.41c7.73,0,7.74-12,0-12s-7.73,12,0,12Z"/></g><g class="cls-20"><path class="cls-19" d="M184.68,211c7.72,0,7.73-12,0-12s-7.74,12,0,12Z"/></g><g class="cls-20"><path class="cls-19" d="M123.87,218.51c7.72,0,7.73-12,0-12s-7.74,12,0,12Z"/></g><g class="cls-20"><path class="cls-19" d="M114,214.77c7.73,0,7.74-12,0-12s-7.73,12,0,12Z"/></g><g class="cls-20"><path class="cls-19" d="M106.88,212.39c7.72,0,7.73-12,0-12s-7.73,12,0,12Z"/></g><g class="cls-20"><path class="cls-19" d="M138.81,209.68c7.73,0,7.74-12,0-12s-7.73,12,0,12Z"/></g><g class="cls-20"><path class="cls-19" d="M146,211.37c7.72,0,7.73-12,0-12s-7.74,12,0,12Z"/></g><g class="cls-20"><path class="cls-19" d="M182.3,212.73c7.72,0,7.73-12,0-12s-7.73,12,0,12Z"/></g><g class="cls-20"><path class="cls-19" d="M169.05,214.77c7.72,0,7.73-12,0-12s-7.73,12,0,12Z"/></g><g class="cls-20"><path class="cls-19" d="M114,213.75c7.73,0,7.74-12,0-12s-7.73,12,0,12Z"/></g><g class="cls-20"><path class="cls-19" d="M103.82,212.05c7.72,0,7.74-12,0-12s-7.73,12,0,12Z"/></g><path class="cls-2" d="M112,185.84"/><rect class="cls-28" x="0.5" y="0.5" width="300" height="600"/></symbol><symbol id="Glad" data-name="Glad" viewBox="0 0 301 601"><path class="cls-1" d="M194.5,374.5s6,4,5,14c0,0-3,11-7,10,0,0-2,3-3,2,0,0-3,2-3,0,0,0-3,1-3,0,0,0-1-1,1-4s2-8,2-9c0,0,0,6-3,6,0,0-3,1-2-2,0,0,2-2,2-4v-5S192.5,372.5,194.5,374.5Z"/><path class="cls-2" d="M196.5,388.5s-1,6-4,10"/><path class="cls-2" d="M192.5,389.5s1,4-3,11"/><path class="cls-2" d="M189.5,389.5s1,4-3,11"/><path class="cls-1" d="M103.5,365.5s-7,17-6,18,4,12,10,11,7-22,7-22S104.5,355.5,103.5,365.5Z"/><path class="cls-3" d="M191.5,371.5"/><path class="cls-2" d="M101.5,381.5s2,7.36,4,8.18"/><path class="cls-2" d="M104.5,378.5s0,6.18,2.52,7.09"/><path class="cls-4" d="M115.5,248.5s-20-35.19-2-40S111.5,238.79,115.5,248.5Z"/><path class="cls-5" d="M114.5,507.5v-12s20-2,19,3h0s-4,6-3,16C130.5,514.5,122.5,503.5,114.5,507.5Z"/><path class="cls-5" d="M148.5,514.5l3-14s-18-6-18-2c0,3.52,0,10.91-2,14.68a.42.42,0,0,0,.53.6C135.55,512.2,144.54,509,148.5,514.5Z"/><path class="cls-5" d="M102.5,535.5s-8-7,8-16c0,0,3.59-7.55,4.29-11.78s18.71-.22,15.71,10.78c0,0,4,11-16,19C114.5,537.5,107.5,540.5,102.5,535.5Z"/><path class="cls-5" d="M135.5,531.5s-8.93-7.9-2-20.45,15,3.45,15,3.45,1,6,6,8a9.55,9.55,0,0,1,6,11C159.5,537.5,150.5,545.5,135.5,531.5Z"/><path class="cls-6" d="M113.5,495.5s2-53-2-62c-2.47-5.56,32,6,30,12s-9,42-9,53C132.5,498.5,119.5,508.5,113.5,495.5Z"/><path class="cls-7" d="M152.5,500.5s-10,11-18-2c0,0,6-45,9-53s22-6,22-2S152.5,494.5,152.5,500.5Z"/><path class="cls-8" d="M155.5,244.5s33-1,26,14-49.58-2.72-49.58-2.72S130.5,245.5,155.5,244.5Z"/><path class="cls-9" d="M207.5,340.5s-26,26-102,15c0,0,7-92,12-91,0,0,1-14,55-10a49.31,49.31,0,0,1,9.07,3.06c8.32,3.69,19.18,11.19,17.93,24.94C199.5,282.5,212.5,277.5,207.5,340.5Z"/><path class="cls-10" d="M95.5,427.5s18,20,44,21,48-11,48-11-17-78.6-17-90c0-4,12-45,17-45,0,0,6,56,0,70,0,0,4,8,12,3,0,0,6-89,0-93,0,0-1-11-31-18s-54,1-55,9c0,0-16,11-13,86l1,7s3,9,9,0l3-52,8,3s-4,12,2,27C123.5,344.5,91.5,419.5,95.5,427.5Z"/><path class="cls-1" d="M139.76,248.5s.74,12-4.26,14c0,0,4,11,16,12,0,0,10,2,17-10,0,0-3-7.46,0-17.73S134,243.5,139.76,248.5"/><path class="cls-1" d="M105.5,213.5s10,35,38,35,19,3,48-18c0,0,5-3,9-13,0,0,14-1,15-11,0,0,4-12,0-18s-13,6-13,6,0-52-94-14C108.5,180.5,101.5,203.5,105.5,213.5Z"/><path class="cls-16" d="M114.5,188.5s13-9,23-1"/><path class="cls-16" d="M158.5,187.5s9-9,25-2"/><path class="cls-2" d="M139.5,313.5s16,17,31,2"/><path class="cls-2" d="M125.5,315.5s-11,4-14-5c0,0-6-11,6-21"/><path class="cls-8" d="M175.5,291.5s0,30,7,31,7-5,4-28c0,0-1.94-25.46,1.53-23.23s-6.26-2.79-6.26-2.79S174.5,279.5,175.5,291.5Z"/><path class="cls-8" d="M115.5,289.5s-3.36-15-3.18-15.51-4.48,9.39-4.48,9.39L112,294.8S112.5,293.5,115.5,289.5Z"/><path class="cls-4" d="M104.5,179.5s12-72,81-40c0,0,40.34-6.62,31.67,54.19,0,0,.37-11.24-8.65-5.22,0,0,4,43-13,54,0,0,7-49-2-63C193.5,179.5,160.5,192.5,104.5,179.5Z"/><path class="cls-4" d="M183.5,128.5s-7-24,25-18c0,0-10,0-9,3,0,0,44-10,37,60,0,0-8-41-38-37C198.5,136.5,194.5,128.5,183.5,128.5Z"/><path class="cls-17" d="M176.5,135.5s3-7,7-7,10,1,15,8c0,0,1.33,2.85-1.34,3.93,0,0-8.66-1.93-11.66-.93A25.07,25.07,0,0,0,176.5,135.5Z"/><path class="cls-2" d="M146.5,198.5s-1,8-4,11c0,0,4,0,5,3"/><path class="cls-16" d="M121.5,165.5s-5,4.57-6,15.28"/><path class="cls-16" d="M131.5,167.5s-4.57,12.83-1.79,15.42"/><path class="cls-16" d="M148.66,167.5s-6.16,11.33-1.16,16.67"/><path class="cls-16" d="M163.5,166.5s0,17.33,3,16.67"/><path class="cls-16" d="M180.51,167.5s2.2,8.67.09,14.33"/><path class="cls-16" d="M206.5,170.5a28.23,28.23,0,0,1,2,17"/><path class="cls-16" d="M192.5,165.5s3,7,0,14"/><g class="cls-18"><path class="cls-19" d="M182.48,216.61a1.5,1.5,0,0,0,0-3,1.5,1.5,0,0,0,0,3Z"/></g><g class="cls-18"><path class="cls-19" d="M187.44,216a1.5,1.5,0,0,0,0-3,1.5,1.5,0,0,0,0,3Z"/></g><g class="cls-18"><path class="cls-19" d="M185.79,222.76c7.72,0,7.73-12,0-12s-7.74,12,0,12Z"/></g><g class="cls-18"><path class="cls-19" d="M188.27,219.25c7.72,0,7.73-12,0-12s-7.74,12,0,12Z"/></g><g class="cls-18"><path class="cls-19" d="M179.38,224.41c7.72,0,7.73-12,0-12s-7.74,12,0,12Z"/></g><g class="cls-18"><path class="cls-19" d="M187.23,217c7.72,0,7.74-12,0-12s-7.73,12,0,12Z"/></g><g class="cls-20"><path class="cls-19" d="M181.24,223.59c7.72,0,7.73-12,0-12s-7.73,12,0,12Z"/></g><g class="cls-20"><path class="cls-19" d="M183.93,222.35h.2a6.2,6.2,0,0,0,4.25-1.76,6,6,0,0,0,0-8.48,6.25,6.25,0,0,0-4.25-1.76h-.2a6.2,6.2,0,0,0-4.25,1.76,6,6,0,0,0,0,8.48,6.25,6.25,0,0,0,4.25,1.76Z"/></g><g class="cls-20"><path class="cls-19" d="M188.27,216.35c7.72,0,7.73-12,0-12s-7.74,12,0,12Z"/></g><g class="cls-20"><path class="cls-19" d="M180.62,219.87c7.72,0,7.73-12,0-12s-7.73,12,0,12Z"/></g><g class="cls-20"><path class="cls-19" d="M177.11,222.76c7.72,0,7.73-12,0-12s-7.74,12,0,12Z"/></g><g class="cls-20"><path class="cls-19" d="M178.76,229h1.45a6.2,6.2,0,0,0,4.24-1.76,6.12,6.12,0,0,0,1.76-4.24,6.05,6.05,0,0,0-1.76-4.24,6.24,6.24,0,0,0-4.24-1.76h-1.45a6.16,6.16,0,0,0-4.24,1.76,6,6,0,0,0,0,8.48,6.2,6.2,0,0,0,4.24,1.76Z"/></g><g class="cls-20"><path class="cls-19" d="M195.71,221.52v-.42a6.21,6.21,0,0,0-1.75-4.24,6,6,0,0,0-8.49,0,6.22,6.22,0,0,0-1.76,4.24v.42a6.2,6.2,0,0,0,1.76,4.24,6,6,0,0,0,8.49,0,6.28,6.28,0,0,0,1.75-4.24Z"/></g><g class="cls-20"><path class="cls-19" d="M110.14,214.7c7.72,0,7.73-12,0-12s-7.74,12,0,12Z"/></g><g class="cls-20"><path class="cls-19" d="M114.07,217.59c7.72,0,7.73-12,0-12s-7.74,12,0,12Z"/></g><g class="cls-20"><path class="cls-19" d="M120.89,221.31c7.72,0,7.73-12,0-12s-7.74,12,0,12Z"/></g><g class="cls-20"><path class="cls-19" d="M126.88,221.11c7.72,0,7.73-12,0-12s-7.73,12,0,12Z"/></g><g class="cls-20"><path class="cls-19" d="M120.06,211.79h-.62a6.16,6.16,0,0,0-4.24,1.76,6,6,0,0,0,0,8.49,6.19,6.19,0,0,0,4.24,1.75h.62A6.17,6.17,0,0,0,124.3,222a6,6,0,0,0,0-8.49,6.2,6.2,0,0,0-4.24-1.76Z"/></g><g class="cls-20"><path class="cls-19" d="M113.24,219c7.72,0,7.73-12,0-12s-7.74,12,0,12Z"/></g><g class="cls-20"><path class="cls-19" d="M111,216.09l.82.21a6.28,6.28,0,0,0,4.63-.61,6,6,0,0,0-1.44-11l-.82-.21a6.28,6.28,0,0,0-4.63.61,6,6,0,0,0,1.44,11Z"/></g><g class="cls-20"><path class="cls-19" d="M120.47,220.49c7.72,0,7.74-12,0-12s-7.73,12,0,12Z"/></g><g class="cls-20"><path class="cls-19" d="M121.22,208.77c-.73-.24-1.45-.5-2.17-.77-1.18-.43.54.31-.69-.29s-2.39-1.21-3.55-1.89a6,6,0,0,0-6.06,10.36,46.27,46.27,0,0,0,9.28,4.16,6,6,0,0,0,7.38-4.19,6.14,6.14,0,0,0-4.19-7.38Z"/></g><g class="cls-20"><path class="cls-19" d="M125.45,219.41c7.72,0,7.73-12,0-12s-7.73,12,0,12Z"/></g><g class="cls-20"><path class="cls-19" d="M110.16,211.26c7.72,0,7.74-12,0-12s-7.73,12,0,12Z"/></g><g class="cls-20"><path class="cls-19" d="M111.18,224.51c7.72,0,7.73-12,0-12s-7.73,12,0,12Z"/></g><g class="cls-20"><path class="cls-19" d="M174.71,220.77c7.72,0,7.73-12,0-12s-7.73,12,0,12Z"/></g><g class="cls-20"><path class="cls-19" d="M171,225.19c7.72,0,7.74-12,0-12s-7.73,12,0,12Z"/></g><g class="cls-20"><path class="cls-19" d="M182.52,231c7.73,0,7.74-12,0-12s-7.73,12,0,12Z"/></g><g class="cls-20"><path class="cls-19" d="M197.13,220.77c7.72,0,7.74-12,0-12s-7.73,12,0,12Z"/></g><g class="cls-20"><path class="cls-19" d="M193.74,207.52c7.72,0,7.73-12,0-12s-7.74,12,0,12Z"/></g><g class="cls-20"><path class="cls-19" d="M192.38,201.75c7.72,0,7.73-12,0-12s-7.74,12,0,12Z"/></g><g class="cls-20"><path class="cls-19" d="M147.19,200.39c7.72,0,7.74-12,0-12s-7.73,12,0,12Z"/></g><g class="cls-20"><path class="cls-19" d="M145.15,214c7.73,0,7.74-12,0-12s-7.73,12,0,12Z"/></g><g class="cls-20"><path class="cls-19" d="M126.81,222.47c7.72,0,7.73-12,0-12s-7.74,12,0,12Z"/></g><g class="cls-20"><path class="cls-19" d="M112.88,221.45c7.72,0,7.73-12,0-12s-7.73,12,0,12Z"/></g><g class="cls-20"><path class="cls-19" d="M108.46,215c7.72,0,7.74-12,0-12s-7.73,12,0,12Z"/></g><g class="cls-20"><path class="cls-19" d="M174,227.91c7.72,0,7.74-12,0-12s-7.73,12,0,12Z"/></g><g class="cls-20"><path class="cls-19" d="M172,221.45c7.72,0,7.74-12,0-12s-7.73,12,0,12Z"/></g><g class="cls-20"><path class="cls-19" d="M182.86,219.41c7.73,0,7.74-12,0-12s-7.73,12,0,12Z"/></g><g class="cls-20"><path class="cls-19" d="M190.68,217c7.72,0,7.73-12,0-12s-7.74,12,0,12Z"/></g><g class="cls-20"><path class="cls-19" d="M129.87,224.51c7.72,0,7.73-12,0-12s-7.74,12,0,12Z"/></g><g class="cls-20"><path class="cls-19" d="M120,220.77c7.73,0,7.74-12,0-12s-7.73,12,0,12Z"/></g><g class="cls-20"><path class="cls-19" d="M112.88,218.39c7.72,0,7.73-12,0-12s-7.73,12,0,12Z"/></g><g class="cls-20"><path class="cls-19" d="M144.81,215.68c7.73,0,7.74-12,0-12s-7.73,12,0,12Z"/></g><g class="cls-20"><path class="cls-19" d="M152,217.37c7.72,0,7.73-12,0-12s-7.74,12,0,12Z"/></g><g class="cls-20"><path class="cls-19" d="M188.3,218.73c7.72,0,7.73-12,0-12s-7.73,12,0,12Z"/></g><g class="cls-20"><path class="cls-19" d="M175.05,220.77c7.72,0,7.73-12,0-12s-7.73,12,0,12Z"/></g><g class="cls-20"><path class="cls-19" d="M120,219.75c7.73,0,7.74-12,0-12s-7.73,12,0,12Z"/></g><g class="cls-20"><path class="cls-19" d="M109.82,218.05c7.72,0,7.74-12,0-12s-7.73,12,0,12Z"/></g><path class="cls-2" d="M118,191.84"/><path class="cls-26" d="M169,222l-.81.76c-9.69,6.87-30.69,6.11-30.69,6.11s5.25,17.55,18.58,17.55S169,222,169,222Z"/><path class="cls-27" d="M143.87,239.34s5.78-9.46,23.42-9.46C167.29,229.88,161.21,256.69,143.87,239.34Z"/><path class="cls-2" d="M161,202s10-26,19,0"/><path class="cls-2" d="M120,201s8.27-21.5,15.71,0"/><rect class="cls-28" x="0.5" y="0.5" width="300" height="600"/></symbol><symbol id="Frastødt" data-name="Frastødt" viewBox="0 0 300.75 600.75"><path class="cls-1" d="M189.38,361.38s6,4,5,14c0,0-3,11-7,10,0,0-2,3-3,2,0,0-3,2-3,0,0,0-3,1-3,0,0,0-1-1,1-4s2-8,2-9c0,0,0,6-3,6,0,0-3,1-2-2,0,0,2-2,2-4v-5S187.38,359.38,189.38,361.38Z"/><path class="cls-2" d="M191.38,375.38s-1,6-4,10"/><path class="cls-2" d="M187.38,376.38s1,4-3,11"/><path class="cls-2" d="M184.38,376.38s1,4-3,11"/><path class="cls-1" d="M98.38,352.38s-7,17-6,18,4,12,10,11,7-22,7-22S99.38,342.38,98.38,352.38Z"/><path class="cls-3" d="M186.38,358.38"/><path class="cls-2" d="M95.38,364.38s2,7.35,4,8.17"/><path class="cls-2" d="M98.38,361.38s0,6.17,2.52,7.08"/><path class="cls-4" d="M110.38,235.38s-20-35.19-2-40S106.38,225.67,110.38,235.38Z"/><path class="cls-5" d="M109.38,494.38v-12s20-2,19,3h0s-4,6-3,16C125.38,501.38,117.38,490.38,109.38,494.38Z"/><path class="cls-5" d="M143.38,501.38l3-14s-18-6-18-2c0,3.51,0,10.9-2,14.67a.43.43,0,0,0,.54.61C130.43,499.07,139.41,495.83,143.38,501.38Z"/><path class="cls-5" d="M97.38,522.38s-8-7,8-16c0,0,3.58-7.56,4.29-11.78s18.71-.22,15.71,10.78c0,0,4,11-16,19C109.38,524.38,102.38,527.38,97.38,522.38Z"/><path class="cls-5" d="M130.38,518.38s-8.93-7.91-2-20.46,15,3.46,15,3.46,1,6,6,8a9.55,9.55,0,0,1,6,11C154.38,524.38,145.38,532.38,130.38,518.38Z"/><path class="cls-6" d="M108.38,482.38s2-53-2-62c-2.48-5.56,32,6,30,12s-9,42-9,53C127.38,485.38,114.38,495.38,108.38,482.38Z"/><path class="cls-7" d="M147.38,487.38s-10,11-18-2c0,0,6-45,9-53s22-6,22-2S147.38,481.38,147.38,487.38Z"/><path class="cls-8" d="M150.38,231.38s33-1,26,14-49.58-2.72-49.58-2.72S125.38,232.38,150.38,231.38Z"/><path class="cls-9" d="M202.38,327.38s-26,26-102,15c0,0,7-92,12-91,0,0,1-14,55-10a50,50,0,0,1,9.07,3.05c8.32,3.69,19.18,11.19,17.93,24.95C194.38,269.38,207.38,264.38,202.38,327.38Z"/><path class="cls-10" d="M90.38,414.38s18,20,44,21,48-11,48-11-17-78.6-17-90c0-4,12-45,17-45,0,0,6,56,0,70,0,0,4,8,12,3,0,0,6-89,0-93,0,0-1-11-31-18s-54,1-55,9c0,0-16,11-13,86l1,7s3,9,9,0l3-52,8,3s-4,12,2,27C118.38,331.38,86.38,406.38,90.38,414.38Z"/><path class="cls-1" d="M134.63,235.38s.75,12-4.25,14c0,0,4,11,16,12,0,0,10,2,17-10,0,0-3-7.46,0-17.73s-34.48-3.27-28.74,1.73"/><path class="cls-1" d="M100.38,200.38s10,35,38,35,19,3,48-18c0,0,5-3,9-13,0,0,14-1,15-11,0,0,4-12,0-18s-13,6-13,6,0-52-94-14C103.38,167.38,96.38,190.38,100.38,200.38Z"/><path class="cls-11" d="M152.38,183.38s7-14,25-5c0,0,3,0,4-1a29.58,29.58,0,0,0-3,4s1,7-1,9-11,6-22,4A13.38,13.38,0,0,1,152.38,183.38Z"/><path class="cls-11" d="M133.38,180.38s2,7-1,12c0,0-8,4-19,0a13.83,13.83,0,0,1-2-10s-1-3-2-3,3,0,4-1S123.38,172.38,133.38,180.38Z"/><path class="cls-12" d="M115.38,181.38s.35-4.76,4.67-5.38,13.33,4.38,13.33,4.38,2,8-1,12c0,0-8.63,3.16-15.32,1.08C117.06,193.46,114.38,186.38,115.38,181.38Z"/><path class="cls-12" d="M174.38,184.38s-.78-8.59-5.39-8.8-11.61-.2-16.61,7.8c0,0-2,5,3,11a31.49,31.49,0,0,0,17.39-1.46A30.24,30.24,0,0,0,174.38,184.38Z"/><path class="cls-13" d="M119.38,185.38s-2-6.89,1.5-8.45,11,3.35,11,3.35,2.5,9.1-6.5,10.1C125.38,190.38,120.38,189.38,119.38,185.38Z"/><path class="cls-13" d="M155.65,179.32s-1.27,14.06,7.73,10.06c0,0,9-4,1-13,0,0-.46-3.11-8.73,2.94"/><ellipse class="cls-14" cx="158.88" cy="181.38" rx="2.5" ry="3"/><ellipse class="cls-15" cx="128.88" cy="181.38" rx="2.5" ry="3"/><path class="cls-16" d="M109.38,175.38s13-9,23-1"/><path class="cls-16" d="M153.38,174.38s9-9,25-2"/><path class="cls-2" d="M134.38,300.38s16,17,31,2"/><path class="cls-2" d="M120.38,302.38s-11,4-14-5c0,0-6-11,6-21"/><path class="cls-8" d="M170.38,278.38s0,30,7,31,7-5,4-28c0,0-1.94-25.47,1.53-23.24s-6.27-2.79-6.27-2.79S169.38,266.37,170.38,278.38Z"/><path class="cls-8" d="M110.38,276.38s-3.37-15-3.19-15.52-4.47,9.4-4.47,9.4l4.19,11.42S107.38,280.38,110.38,276.38Z"/><path class="cls-4" d="M99.38,166.38s12-72,81-40c0,0,40.33-6.62,31.66,54.19,0,0,.37-11.25-8.65-5.22,0,0,4,43-13,54,0,0,7-49-2-63C188.38,166.38,155.38,179.38,99.38,166.38Z"/><path class="cls-4" d="M178.38,115.38s-7-24,25-18c0,0-10,0-9,3,0,0,44-10,37,60,0,0-8-41-38-37C193.38,123.38,189.38,115.38,178.38,115.38Z"/><path class="cls-17" d="M171.38,122.38s3-7,7-7,10,1,15,8c0,0,1.32,2.85-1.34,3.92,0,0-8.66-1.92-11.66-.92A25.07,25.07,0,0,0,171.38,122.38Z"/><path class="cls-2" d="M141.38,185.38s-1,8-4,11c0,0,4,0,5,3"/><path class="cls-16" d="M116.38,152.38s-5,4.56-6,15.28"/><path class="cls-16" d="M126.38,154.38s-4.58,12.83-1.79,15.41"/><path class="cls-16" d="M143.54,154.38s-6.16,11.33-1.16,16.66"/><path class="cls-16" d="M158.38,153.38s0,17.33,3,16.66"/><path class="cls-16" d="M175.38,154.38s2.2,8.66.1,14.33"/><path class="cls-16" d="M201.38,157.38a28.23,28.23,0,0,1,2,17"/><path class="cls-16" d="M187.38,152.38s3,7,0,14"/><g class="cls-18"><path class="cls-19" d="M177.35,203.48a1.5,1.5,0,0,0,0-3,1.5,1.5,0,0,0,0,3Z"/></g><g class="cls-18"><path class="cls-19" d="M182.31,202.86a1.5,1.5,0,0,0,0-3,1.5,1.5,0,0,0,0,3Z"/></g><g class="cls-18"><path class="cls-19" d="M180.66,209.64c7.72,0,7.74-12,0-12s-7.73,12,0,12Z"/></g><g class="cls-18"><path class="cls-19" d="M183.14,206.12c7.72,0,7.74-12,0-12s-7.73,12,0,12Z"/></g><g class="cls-18"><path class="cls-19" d="M174.25,211.29c7.73,0,7.74-12,0-12s-7.73,12,0,12Z"/></g><g class="cls-18"><path class="cls-19" d="M182.11,203.85c7.72,0,7.73-12,0-12s-7.74,12,0,12Z"/></g><g class="cls-20"><path class="cls-19" d="M176.11,210.46c7.73,0,7.74-12,0-12s-7.73,12,0,12Z"/></g><g class="cls-20"><path class="cls-19" d="M178.8,209.22H179a6,6,0,0,0,6-6,6.05,6.05,0,0,0-1.76-4.24,6.22,6.22,0,0,0-4.24-1.76h-.21a6.18,6.18,0,0,0-4.24,1.76,6,6,0,0,0,0,8.49,6.26,6.26,0,0,0,4.24,1.75Z"/></g><g class="cls-20"><path class="cls-19" d="M183.14,203.23c7.72,0,7.74-12,0-12s-7.73,12,0,12Z"/></g><g class="cls-20"><path class="cls-19" d="M175.49,206.74c7.73,0,7.74-12,0-12s-7.73,12,0,12Z"/></g><g class="cls-20"><path class="cls-19" d="M172,209.64c7.72,0,7.73-12,0-12s-7.73,12,0,12Z"/></g><g class="cls-20"><path class="cls-19" d="M173.63,215.84h1.45a6.16,6.16,0,0,0,4.24-1.76,6,6,0,0,0,0-8.49,6.24,6.24,0,0,0-4.24-1.75h-1.45a6.23,6.23,0,0,0-4.24,1.75,6.14,6.14,0,0,0-1.76,4.25,6.05,6.05,0,0,0,1.76,4.24,6.24,6.24,0,0,0,4.24,1.76Z"/></g><g class="cls-20"><path class="cls-19" d="M190.59,208.39V208a6.2,6.2,0,0,0-1.76-4.25,6,6,0,0,0-8.48,0,6.25,6.25,0,0,0-1.76,4.25v.41a6.18,6.18,0,0,0,1.76,4.24,6,6,0,0,0,8.48,0,6.2,6.2,0,0,0,1.76-4.24Z"/></g><g class="cls-20"><path class="cls-19" d="M105,201.58c7.72,0,7.74-12,0-12s-7.73,12,0,12Z"/></g><g class="cls-20"><path class="cls-19" d="M108.94,204.47c7.72,0,7.73-12,0-12s-7.73,12,0,12Z"/></g><g class="cls-20"><path class="cls-19" d="M115.76,208.19c7.72,0,7.74-12,0-12s-7.73,12,0,12Z"/></g><g class="cls-20"><path class="cls-19" d="M121.76,208c7.72,0,7.73-12,0-12s-7.74,12,0,12Z"/></g><g class="cls-20"><path class="cls-19" d="M114.93,198.67h-.62a6.2,6.2,0,0,0-4.24,1.76,6.13,6.13,0,0,0-1.76,4.24,6.05,6.05,0,0,0,1.76,4.24,6.24,6.24,0,0,0,4.24,1.76h.62a6.2,6.2,0,0,0,4.25-1.76,6.08,6.08,0,0,0,1.75-4.24,6,6,0,0,0-1.75-4.24,6.25,6.25,0,0,0-4.25-1.76Z"/></g><g class="cls-20"><path class="cls-19" d="M108.11,205.92c7.73,0,7.74-12,0-12s-7.73,12,0,12Z"/></g><g class="cls-20"><path class="cls-19" d="M105.91,203l.83.2a6.31,6.31,0,0,0,4.62-.6,6.13,6.13,0,0,0,2.76-3.59,6,6,0,0,0-4.19-7.38l-.83-.2a6.26,6.26,0,0,0-4.62.6,6,6,0,0,0,1.43,11Z"/></g><g class="cls-20"><path class="cls-19" d="M115.35,207.36c7.72,0,7.73-12,0-12s-7.74,12,0,12Z"/></g><g class="cls-20"><path class="cls-19" d="M116.09,195.65c-.73-.24-1.45-.5-2.17-.77-1.17-.44.55.3-.68-.3s-2.4-1.2-3.56-1.89a6,6,0,0,0-6.06,10.36,47.14,47.14,0,0,0,9.28,4.17,6,6,0,0,0,7.38-4.19,6.12,6.12,0,0,0-4.19-7.38Z"/></g><g class="cls-20"><path class="cls-19" d="M120.32,206.29c7.73,0,7.74-12,0-12s-7.73,12,0,12Z"/></g><g class="cls-20"><path class="cls-19" d="M105,198.13c7.72,0,7.73-12,0-12s-7.74,12,0,12Z"/></g><g class="cls-20"><path class="cls-19" d="M106.06,211.38c7.72,0,7.73-12,0-12s-7.74,12,0,12Z"/></g><g class="cls-20"><path class="cls-19" d="M169.59,207.65c7.72,0,7.73-12,0-12s-7.74,12,0,12Z"/></g><g class="cls-20"><path class="cls-19" d="M165.85,212.06c7.72,0,7.73-12,0-12s-7.74,12,0,12Z"/></g><g class="cls-20"><path class="cls-19" d="M177.4,217.84c7.72,0,7.73-12,0-12s-7.74,12,0,12Z"/></g><g class="cls-20"><path class="cls-19" d="M192,207.65c7.72,0,7.73-12,0-12s-7.74,12,0,12Z"/></g><g class="cls-20"><path class="cls-19" d="M188.61,194.4c7.72,0,7.73-12,0-12s-7.73,12,0,12Z"/></g><g class="cls-20"><path class="cls-19" d="M187.25,188.62c7.72,0,7.74-12,0-12s-7.73,12,0,12Z"/></g><g class="cls-20"><path class="cls-19" d="M142.07,187.26c7.72,0,7.73-12,0-12s-7.74,12,0,12Z"/></g><g class="cls-20"><path class="cls-19" d="M140,200.85c7.72,0,7.73-12,0-12s-7.74,12,0,12Z"/></g><g class="cls-20"><path class="cls-19" d="M121.68,209.35c7.72,0,7.74-12,0-12s-7.73,12,0,12Z"/></g><g class="cls-20"><path class="cls-19" d="M107.75,208.33c7.73,0,7.74-12,0-12s-7.73,12,0,12Z"/></g><g class="cls-20"><path class="cls-19" d="M103.34,201.87c7.72,0,7.73-12,0-12s-7.74,12,0,12Z"/></g><g class="cls-20"><path class="cls-19" d="M168.91,214.78c7.72,0,7.73-12,0-12s-7.74,12,0,12Z"/></g><g class="cls-20"><path class="cls-19" d="M166.87,208.33c7.72,0,7.73-12,0-12s-7.74,12,0,12Z"/></g><g class="cls-20"><path class="cls-19" d="M177.74,206.29c7.72,0,7.73-12,0-12s-7.74,12,0,12Z"/></g><g class="cls-20"><path class="cls-19" d="M185.55,203.91c7.72,0,7.74-12,0-12s-7.73,12,0,12Z"/></g><g class="cls-20"><path class="cls-19" d="M124.74,211.38c7.72,0,7.74-12,0-12s-7.73,12,0,12Z"/></g><g class="cls-20"><path class="cls-19" d="M114.89,207.65c7.72,0,7.73-12,0-12s-7.74,12,0,12Z"/></g><g class="cls-20"><path class="cls-19" d="M107.75,205.27c7.73,0,7.74-12,0-12s-7.73,12,0,12Z"/></g><g class="cls-20"><path class="cls-19" d="M139.69,202.55c7.72,0,7.73-12,0-12s-7.74,12,0,12Z"/></g><g class="cls-20"><path class="cls-19" d="M146.82,204.25c7.72,0,7.74-12,0-12s-7.73,12,0,12Z"/></g><g class="cls-20"><path class="cls-19" d="M183.17,205.61c7.73,0,7.74-12,0-12s-7.73,12,0,12Z"/></g><g class="cls-20"><path class="cls-19" d="M169.93,207.65c7.72,0,7.73-12,0-12s-7.74,12,0,12Z"/></g><g class="cls-20"><path class="cls-19" d="M114.89,206.63c7.72,0,7.73-12,0-12s-7.74,12,0,12Z"/></g><g class="cls-20"><path class="cls-19" d="M104.7,204.93c7.72,0,7.73-12,0-12s-7.74,12,0,12Z"/></g><path class="cls-2" d="M112.85,178.72"/><path class="cls-21" d="M129.38,219.38s16-21,30,0c0,0-1,6-7,3s-6-6-20,0C132.38,222.38,130.38,224.38,129.38,219.38Z"/><path class="cls-22" d="M188.38,176.38s-8,8-4,14,7-2,7-2S187.38,184.38,188.38,176.38Z"/><path class="cls-23" d="M186.38,184.38s-2,5,1,7c0,0,2,0,1-1S185.38,184.38,186.38,184.38Z"/><path class="cls-24" d="M171.88,199.88s6-6,11-4"/><rect class="cls-25" x="0.38" y="0.38" width="300" height="600"/></symbol><symbol id="Overrasket" data-name="Overrasket" viewBox="0 0 301 601"><path class="cls-1" d="M189.5,361.5s6,4,5,14c0,0-3,11-7,10,0,0-2,3-3,2,0,0-3,2-3,0,0,0-3,1-3,0,0,0-1-1,1-4s2-8,2-9c0,0,0,6-3,6,0,0-3,1-2-2,0,0,2-2,2-4v-5S187.5,359.5,189.5,361.5Z"/><path class="cls-2" d="M191.5,375.5s-1,6-4,10"/><path class="cls-2" d="M187.5,376.5s1,4-3,11"/><path class="cls-2" d="M184.5,376.5s1,4-3,11"/><path class="cls-1" d="M98.5,352.5s-7,17-6,18,4,12,10,11,7-22,7-22S99.5,342.5,98.5,352.5Z"/><path class="cls-3" d="M186.5,358.5"/><path class="cls-2" d="M95.5,364.5s2,7.36,4,8.18"/><path class="cls-2" d="M98.5,361.5s0,6.18,2.52,7.09"/><path class="cls-4" d="M110.5,235.5s-20-35.19-2-40S106.5,225.79,110.5,235.5Z"/><path class="cls-5" d="M109.5,494.5v-12s20-2,19,3h0s-4,6-3,16C125.5,501.5,117.5,490.5,109.5,494.5Z"/><path class="cls-5" d="M143.5,501.5l3-14s-18-6-18-2c0,3.52,0,10.91-2,14.68a.42.42,0,0,0,.53.6C130.55,499.2,139.54,496,143.5,501.5Z"/><path class="cls-5" d="M97.5,522.5s-8-7,8-16c0,0,3.59-7.55,4.29-11.78s18.71-.22,15.71,10.78c0,0,4,11-16,19C109.5,524.5,102.5,527.5,97.5,522.5Z"/><path class="cls-5" d="M130.5,518.5s-8.93-7.9-2-20.45,15,3.45,15,3.45,1,6,6,8a9.55,9.55,0,0,1,6,11C154.5,524.5,145.5,532.5,130.5,518.5Z"/><path class="cls-6" d="M108.5,482.5s2-53-2-62c-2.47-5.56,32,6,30,12s-9,42-9,53C127.5,485.5,114.5,495.5,108.5,482.5Z"/><path class="cls-7" d="M147.5,487.5s-10,11-18-2c0,0,6-45,9-53s22-6,22-2S147.5,481.5,147.5,487.5Z"/><path class="cls-8" d="M150.5,231.5s33-1,26,14-49.58-2.72-49.58-2.72S125.5,232.5,150.5,231.5Z"/><path class="cls-9" d="M202.5,327.5s-26,26-102,15c0,0,7-92,12-91,0,0,1-14,55-10a49.31,49.31,0,0,1,9.07,3.06c8.32,3.69,19.18,11.19,17.93,24.94C194.5,269.5,207.5,264.5,202.5,327.5Z"/><path class="cls-10" d="M90.5,414.5s18,20,44,21,48-11,48-11-17-78.6-17-90c0-4,12-45,17-45,0,0,6,56,0,70,0,0,4,8,12,3,0,0,6-89,0-93,0,0-1-11-31-18s-54,1-55,9c0,0-16,11-13,86l1,7s3,9,9,0l3-52,8,3s-4,12,2,27C118.5,331.5,86.5,406.5,90.5,414.5Z"/><path class="cls-1" d="M134.76,235.5s.74,12-4.26,14c0,0,4,11,16,12,0,0,10,2,17-10,0,0-3-7.46,0-17.73S129,230.5,134.76,235.5"/><path class="cls-1" d="M100.5,200.5s10,35,38,35,19,3,48-18c0,0,5-3,9-13,0,0,14-1,15-11,0,0,4-12,0-18s-13,6-13,6,0-52-94-14C103.5,167.5,96.5,190.5,100.5,200.5Z"/><path class="cls-11" d="M152.5,183.5s7-14,25-5c0,0,3,0,4-1a29.58,29.58,0,0,0-3,4s1,7-1,9-11,6-22,4A13.38,13.38,0,0,1,152.5,183.5Z"/><path class="cls-11" d="M133.5,180.5s2,7-1,12c0,0-8,4-19,0a13.83,13.83,0,0,1-2-10s-1-3-2-3,3,0,4-1S123.5,172.5,133.5,180.5Z"/><path class="cls-12" d="M115.5,181.5s.36-4.76,4.68-5.38,13.32,4.38,13.32,4.38,2,8-1,12c0,0-8.63,3.17-15.31,1.08C117.19,193.58,114.5,186.5,115.5,181.5Z"/><path class="cls-12" d="M174.5,184.5s-.77-8.59-5.39-8.79-11.61-.21-16.61,7.79c0,0-2,5,3,11a31.55,31.55,0,0,0,17.39-1.45A30.35,30.35,0,0,0,174.5,184.5Z"/><path class="cls-13" d="M119.5,185.5s-2-6.88,1.5-8.44,11,3.34,11,3.34,2.49,9.1-6.51,10.1C125.5,190.5,120.5,189.5,119.5,185.5Z"/><path class="cls-13" d="M155.77,179.45s-1.27,14.05,7.73,10.05c0,0,9-4,1-13,0,0-.46-3.1-8.73,2.95"/><ellipse class="cls-14" cx="159" cy="181.5" rx="2.5" ry="3"/><ellipse class="cls-15" cx="129" cy="181.5" rx="2.5" ry="3"/><path class="cls-16" d="M109.5,175.5s13-9,23-1"/><path class="cls-16" d="M153.5,174.5s9-9,25-2"/><path class="cls-2" d="M134.5,300.5s16,17,31,2"/><path class="cls-2" d="M120.5,302.5s-11,4-14-5c0,0-6-11,6-21"/><path class="cls-8" d="M170.5,278.5s0,30,7,31,7-5,4-28c0,0-1.94-25.46,1.53-23.23s-6.26-2.79-6.26-2.79S169.5,266.5,170.5,278.5Z"/><path class="cls-8" d="M110.5,276.5s-3.36-15-3.18-15.51-4.48,9.39-4.48,9.39L107,281.8S107.5,280.5,110.5,276.5Z"/><path class="cls-4" d="M99.5,166.5s12-72,81-40c0,0,40.34-6.62,31.67,54.19,0,0,.37-11.24-8.65-5.22,0,0,4,43-13,54,0,0,7-49-2-63C188.5,166.5,155.5,179.5,99.5,166.5Z"/><path class="cls-4" d="M178.5,115.5s-7-24,25-18c0,0-10,0-9,3,0,0,44-10,37,60,0,0-8-41-38-37C193.5,123.5,189.5,115.5,178.5,115.5Z"/><path class="cls-17" d="M171.5,122.5s3-7,7-7,10,1,15,8c0,0,1.33,2.85-1.34,3.93,0,0-8.66-1.93-11.66-.93A25.07,25.07,0,0,0,171.5,122.5Z"/><path class="cls-2" d="M141.5,185.5s-1,8-4,11c0,0,4,0,5,3"/><path class="cls-16" d="M116.5,152.5s-5,4.57-6,15.28"/><path class="cls-16" d="M126.5,154.5s-4.57,12.83-1.79,15.42"/><path class="cls-16" d="M143.66,154.5s-6.16,11.33-1.16,16.67"/><path class="cls-16" d="M158.5,153.5s0,17.33,3,16.67"/><path class="cls-16" d="M175.51,154.5s2.2,8.67.09,14.33"/><path class="cls-16" d="M201.5,157.5a28.23,28.23,0,0,1,2,17"/><path class="cls-16" d="M187.5,152.5s3,7,0,14"/><g class="cls-18"><path class="cls-19" d="M177.48,203.61a1.5,1.5,0,0,0,0-3,1.5,1.5,0,0,0,0,3Z"/></g><g class="cls-18"><path class="cls-19" d="M182.44,203a1.5,1.5,0,0,0,0-3,1.5,1.5,0,0,0,0,3Z"/></g><g class="cls-18"><path class="cls-19" d="M180.79,209.76c7.72,0,7.73-12,0-12s-7.74,12,0,12Z"/></g><g class="cls-18"><path class="cls-19" d="M183.27,206.25c7.72,0,7.73-12,0-12s-7.74,12,0,12Z"/></g><g class="cls-18"><path class="cls-19" d="M174.38,211.41c7.72,0,7.73-12,0-12s-7.74,12,0,12Z"/></g><g class="cls-18"><path class="cls-19" d="M182.23,204c7.72,0,7.74-12,0-12s-7.73,12,0,12Z"/></g><g class="cls-20"><path class="cls-19" d="M176.24,210.59c7.72,0,7.73-12,0-12s-7.73,12,0,12Z"/></g><g class="cls-20"><path class="cls-19" d="M178.93,209.35h.2a6.2,6.2,0,0,0,4.25-1.76,6,6,0,0,0,0-8.48,6.25,6.25,0,0,0-4.25-1.76h-.2a6.2,6.2,0,0,0-4.25,1.76,6,6,0,0,0,0,8.48,6.25,6.25,0,0,0,4.25,1.76Z"/></g><g class="cls-20"><path class="cls-19" d="M183.27,203.35c7.72,0,7.73-12,0-12s-7.74,12,0,12Z"/></g><g class="cls-20"><path class="cls-19" d="M175.62,206.87c7.72,0,7.73-12,0-12s-7.73,12,0,12Z"/></g><g class="cls-20"><path class="cls-19" d="M172.11,209.76c7.72,0,7.73-12,0-12s-7.74,12,0,12Z"/></g><g class="cls-20"><path class="cls-19" d="M173.76,216h1.45a6.2,6.2,0,0,0,4.24-1.76,6.12,6.12,0,0,0,1.76-4.24,6.05,6.05,0,0,0-1.76-4.24,6.24,6.24,0,0,0-4.24-1.76h-1.45a6.16,6.16,0,0,0-4.24,1.76,6,6,0,0,0,0,8.48,6.2,6.2,0,0,0,4.24,1.76Z"/></g><g class="cls-20"><path class="cls-19" d="M190.71,208.52v-.42a6.21,6.21,0,0,0-1.75-4.24,6,6,0,0,0-8.49,0,6.22,6.22,0,0,0-1.76,4.24v.42a6.2,6.2,0,0,0,1.76,4.24,6,6,0,0,0,8.49,0,6.28,6.28,0,0,0,1.75-4.24Z"/></g><g class="cls-20"><path class="cls-19" d="M105.14,201.7c7.72,0,7.73-12,0-12s-7.74,12,0,12Z"/></g><g class="cls-20"><path class="cls-19" d="M109.07,204.59c7.72,0,7.73-12,0-12s-7.74,12,0,12Z"/></g><g class="cls-20"><path class="cls-19" d="M115.89,208.31c7.72,0,7.73-12,0-12s-7.74,12,0,12Z"/></g><g class="cls-20"><path class="cls-19" d="M121.88,208.11c7.72,0,7.73-12,0-12s-7.73,12,0,12Z"/></g><g class="cls-20"><path class="cls-19" d="M115.06,198.79h-.62a6.16,6.16,0,0,0-4.24,1.76,6,6,0,0,0,0,8.49,6.19,6.19,0,0,0,4.24,1.75h.62A6.17,6.17,0,0,0,119.3,209a6,6,0,0,0,0-8.49,6.2,6.2,0,0,0-4.24-1.76Z"/></g><g class="cls-20"><path class="cls-19" d="M108.24,206c7.72,0,7.73-12,0-12s-7.74,12,0,12Z"/></g><g class="cls-20"><path class="cls-19" d="M106,203.09l.82.21a6.28,6.28,0,0,0,4.63-.61,6,6,0,0,0-1.44-11l-.82-.21a6.28,6.28,0,0,0-4.63.61,6,6,0,0,0,1.44,11Z"/></g><g class="cls-20"><path class="cls-19" d="M115.47,207.49c7.72,0,7.74-12,0-12s-7.73,12,0,12Z"/></g><g class="cls-20"><path class="cls-19" d="M116.22,195.77c-.73-.24-1.45-.5-2.17-.77-1.18-.43.54.31-.69-.29s-2.39-1.21-3.55-1.89a6,6,0,0,0-6.06,10.36,46.27,46.27,0,0,0,9.28,4.16,6,6,0,0,0,7.38-4.19,6.14,6.14,0,0,0-4.19-7.38Z"/></g><g class="cls-20"><path class="cls-19" d="M120.45,206.41c7.72,0,7.73-12,0-12s-7.73,12,0,12Z"/></g><g class="cls-20"><path class="cls-19" d="M105.16,198.26c7.72,0,7.74-12,0-12s-7.73,12,0,12Z"/></g><g class="cls-20"><path class="cls-19" d="M106.18,211.51c7.72,0,7.73-12,0-12s-7.73,12,0,12Z"/></g><g class="cls-20"><path class="cls-19" d="M169.71,207.77c7.72,0,7.73-12,0-12s-7.73,12,0,12Z"/></g><g class="cls-20"><path class="cls-19" d="M166,212.19c7.72,0,7.74-12,0-12s-7.73,12,0,12Z"/></g><g class="cls-20"><path class="cls-19" d="M177.52,218c7.73,0,7.74-12,0-12s-7.73,12,0,12Z"/></g><g class="cls-20"><path class="cls-19" d="M192.13,207.77c7.72,0,7.74-12,0-12s-7.73,12,0,12Z"/></g><g class="cls-20"><path class="cls-19" d="M188.74,194.52c7.72,0,7.73-12,0-12s-7.74,12,0,12Z"/></g><g class="cls-20"><path class="cls-19" d="M187.38,188.75c7.72,0,7.73-12,0-12s-7.74,12,0,12Z"/></g><g class="cls-20"><path class="cls-19" d="M142.19,187.39c7.72,0,7.74-12,0-12s-7.73,12,0,12Z"/></g><g class="cls-20"><path class="cls-19" d="M140.15,201c7.73,0,7.74-12,0-12s-7.73,12,0,12Z"/></g><g class="cls-20"><path class="cls-19" d="M121.81,209.47c7.72,0,7.73-12,0-12s-7.74,12,0,12Z"/></g><g class="cls-20"><path class="cls-19" d="M107.88,208.45c7.72,0,7.73-12,0-12s-7.73,12,0,12Z"/></g><g class="cls-20"><path class="cls-19" d="M103.46,202c7.72,0,7.74-12,0-12s-7.73,12,0,12Z"/></g><g class="cls-20"><path class="cls-19" d="M169,214.91c7.72,0,7.74-12,0-12s-7.73,12,0,12Z"/></g><g class="cls-20"><path class="cls-19" d="M167,208.45c7.72,0,7.74-12,0-12s-7.73,12,0,12Z"/></g><g class="cls-20"><path class="cls-19" d="M177.86,206.41c7.73,0,7.74-12,0-12s-7.73,12,0,12Z"/></g><g class="cls-20"><path class="cls-19" d="M185.68,204c7.72,0,7.73-12,0-12s-7.74,12,0,12Z"/></g><g class="cls-20"><path class="cls-19" d="M124.87,211.51c7.72,0,7.73-12,0-12s-7.74,12,0,12Z"/></g><g class="cls-20"><path class="cls-19" d="M115,207.77c7.73,0,7.74-12,0-12s-7.73,12,0,12Z"/></g><g class="cls-20"><path class="cls-19" d="M107.88,205.39c7.72,0,7.73-12,0-12s-7.73,12,0,12Z"/></g><g class="cls-20"><path class="cls-19" d="M139.81,202.68c7.73,0,7.74-12,0-12s-7.73,12,0,12Z"/></g><g class="cls-20"><path class="cls-19" d="M147,204.37c7.72,0,7.73-12,0-12s-7.74,12,0,12Z"/></g><g class="cls-20"><path class="cls-19" d="M183.3,205.73c7.72,0,7.73-12,0-12s-7.73,12,0,12Z"/></g><g class="cls-20"><path class="cls-19" d="M170.05,207.77c7.72,0,7.73-12,0-12s-7.73,12,0,12Z"/></g><g class="cls-20"><path class="cls-19" d="M115,206.75c7.73,0,7.74-12,0-12s-7.73,12,0,12Z"/></g><g class="cls-20"><path class="cls-19" d="M104.82,205.05c7.72,0,7.74-12,0-12s-7.73,12,0,12Z"/></g><path class="cls-2" d="M113,178.84"/><path class="cls-22" d="M188.5,176.5s-8,8-4,14,7-2,7-2S187.5,184.5,188.5,176.5Z"/><path class="cls-23" d="M186.5,184.5s-2,5,1,7c0,0,2,0,1-1S185.5,184.5,186.5,184.5Z"/><path class="cls-24" d="M172,200s6-6,11-4"/><ellipse class="cls-26" cx="142.93" cy="218.2" rx="13.43" ry="12.2"/><polyline class="cls-2" points="105 181 109 184 105 185"/><rect class="cls-28" x="0.5" y="0.5" width="300" height="600"/></symbol></defs><title>Asset 1</title><g id="Layer_2" data-name="Layer 2"><g id="Layer_2-2" data-name="Layer 2"><use width="301" height="601" xlink:href="#Neutral"/><use width="301" height="601" transform="translate(299)" xlink:href="#Glad"/><use width="300.75" height="600.75" transform="translate(598 1)" xlink:href="#Frastødt"/><use width="301" height="601" transform="translate(897)" xlink:href="#Overrasket"/></g></g></svg>