<svg xmlns="http://www.w3.org/2000/svg" width="530" height="221" viewBox="0 0 530 221">
  <defs>
    <style>
      .cls-1 {
        fill: #89cce5;
        stroke: #000;
        stroke-width: 2.5px;
        fill-rule: evenodd;
      }
    </style>
  </defs>
  <g id="Tegnebræt_1" data-name="Tegnebræt 1">
    <path id="Form_2" data-name="Form 2" class="cls-1" d="M1431,404s-20.93,2.258-24-6c-0.1-.262-3.85,13.006-31,6-0.4-.1-44.91,18.393-93,1-0.48-.172-97.52,25.455-157-1-0.33-.147-15.66,9.372-30,0-0.27-.177-59.96,19.474-107,0-0.212-.088-23.743,14.947-36-8-0.122-.229-28.453-5.774-11-29,0.246-.328-14.777-24.153,0-49,0.229-.385-12.813-31.2,1-41,0.687-.488-5.619-28.378,25-19,0.183,0.056,39.85-21.069,74,1,0.25,0.164,91.49-31.926,159,1,0.41,0.2,44.08-30.079,91-2,0.71,0.423,36.25-25.429,74,0,0.93,0.624,16.44-15.33,29,1,0.44,0.571,27.04-2.008,23,24-0.05.317,17.44,22.179-1,53-0.41.683,11.81,13.9,2,33-0.09.169,9.95,11.189,0,24C1417.79,394.56,1423.66,407.531,1431,404Z" transform="translate(-899 -213)"/>
    <path id="Form_3" data-name="Form 3" class="cls-1" d="M937,305s21.592-8.128,1-20c-0.034-.02-6.514-19.78-21-6-0.063.06-11.545-4.208-10,8,0.008,0.064-21.928,10.812,6,19C913.07,306.021,937,305,937,305Z" transform="translate(-899 -213)"/>
    <path id="Form_3_kopier" data-name="Form 3 kopier" class="cls-1" d="M1173,433s21.59-8.128,1-20c-0.03-.02-6.51-19.78-21-6-0.06.06-11.55-4.208-10,8,0.01,0.064-21.93,10.812,6,19C1149.07,434.021,1173,433,1173,433Z" transform="translate(-899 -213)"/>
    <path id="Form_3_kopier_2" data-name="Form 3 kopier 2" class="cls-1" d="M1419,244s21.59-8.128,1-20c-0.03-.02-6.51-19.78-21-6-0.06.06-11.55-4.208-10,8,0.01,0.064-21.93,10.812,6,19C1395.07,245.021,1419,244,1419,244Z" transform="translate(-899 -213)"/>
  </g>
</svg>
