<svg xmlns="http://www.w3.org/2000/svg" viewBox="0 0 489.58 149.66"><defs><style>.cls-1{fill:#f4912d;stroke:#000;stroke-width:2.5px;}.cls-2{fill:#fff;}</style></defs><title>instruk1</title><g id="Layer_2" data-name="Layer 2"><g id="Layer_1-2" data-name="Layer 1"><path id="Taleboble" class="cls-1" d="M489.25,148.29s-12,1.35-21-5c-.39-.28-4.41,4.94-24,5-41.58.13-418,0-418,0s-25.15-2.37-25-30,0-92,0-92,1.32-24.92,28-25,423,0,423,0,25.53,1.08,26,22,1,112,1,112S475.9,144.64,489.25,148.29Z"/><path class="cls-2" d="M40.54,21.83H32.26v7.09h8v2.52h-8V43.32H29.6v-24H40.54Z"/><path class="cls-2" d="M45.87,20.9A1.84,1.84,0,1,1,44,22.73,1.83,1.83,0,0,1,45.87,20.9Zm1.29,7.48V43.32H44.57V28.38Z"/><path class="cls-2" d="M52.06,28.38h2.59v1.73A5.28,5.28,0,0,1,58.93,28a5.07,5.07,0,0,1,4.29,2.05,6.72,6.72,0,0,1,.86,4v9.25H61.49V34.14a4.38,4.38,0,0,0-.68-2.73,2.94,2.94,0,0,0-2.45-1.08,3.27,3.27,0,0,0-2.63,1.15,6.28,6.28,0,0,0-1.08,4v7.81H52.06Z"/><path class="cls-2" d="M80.43,17.08H83V43.32H80.43V41.23a6.31,6.31,0,0,1-5.12,2.52c-3.78,0-7.27-2.66-7.27-7.92S71.5,28,75.31,28a6.21,6.21,0,0,1,5.12,2.49ZM70.71,35.83c0,3.21,1.8,5.62,4.89,5.62s5-2.63,5-5.58c0-3.85-2.66-5.54-5-5.54C73.05,30.33,70.71,32.2,70.71,35.83Z"/><path class="cls-2" d="M107.75,17.08h2.59V43.32h-2.59V41.23a6.29,6.29,0,0,1-5.11,2.52c-3.78,0-7.27-2.66-7.27-7.92S98.82,28,102.64,28a6.17,6.17,0,0,1,5.11,2.49ZM98,35.83c0,3.21,1.8,5.62,4.9,5.62s5-2.63,5-5.58c0-3.85-2.66-5.54-5-5.54C100.37,30.33,98,32.2,98,35.83Z"/><path class="cls-2" d="M116.17,20.9a1.84,1.84,0,1,1-1.83,1.83A1.84,1.84,0,0,1,116.17,20.9Zm1.3,7.48V43.32h-2.59V28.38Z"/><path class="cls-2" d="M122.37,28.38H125v1.73A5.28,5.28,0,0,1,129.24,28a5.07,5.07,0,0,1,4.28,2.05,6.65,6.65,0,0,1,.87,4v9.25H131.8V34.14a4.39,4.39,0,0,0-.69-2.73,2.91,2.91,0,0,0-2.44-1.08A3.26,3.26,0,0,0,126,31.48a6.28,6.28,0,0,0-1.08,4v7.81h-2.59Z"/><path class="cls-2" d="M152.53,39.51a9.21,9.21,0,0,1-1.83,2.41,7.27,7.27,0,0,1-5,1.83c-3.6,0-7.38-2.26-7.38-7.81,0-4.46,2.74-7.92,7.23-7.92a6.69,6.69,0,0,1,5.66,2.74,10.07,10.07,0,0,1,1.4,5.61H141a4.79,4.79,0,0,0,4.75,5.08,4.52,4.52,0,0,0,3.06-1.08,5.87,5.87,0,0,0,1.55-2ZM150,34.21a4.47,4.47,0,0,0-4.4-3.88,4.54,4.54,0,0,0-4.39,3.88Z"/><path class="cls-2" d="M167.65,30.76V43.32h-2.59V30.76h-1.58V28.38h1.58V23h2.59v5.4h2.59v2.38Z"/><path class="cls-2" d="M174,20.9a1.84,1.84,0,1,1-1.84,1.83A1.83,1.83,0,0,1,174,20.9Zm1.29,7.48V43.32h-2.59V28.38Z"/><path class="cls-2" d="M180.18,28.38h2.59v1.73A5.28,5.28,0,0,1,187.05,28a5.07,5.07,0,0,1,4.29,2.05,6.72,6.72,0,0,1,.86,4v9.25h-2.59V34.14a4.38,4.38,0,0,0-.68-2.73,2.94,2.94,0,0,0-2.45-1.08,3.27,3.27,0,0,0-2.63,1.15,6.28,6.28,0,0,0-1.08,4v7.81h-2.59Z"/><path class="cls-2" d="M208.55,28.38h2.59V43a9.41,9.41,0,0,1-1.44,5.87,7.28,7.28,0,0,1-6,2.77,7.37,7.37,0,0,1-5.32-2,6.69,6.69,0,0,1-2-4.82H199a4.43,4.43,0,0,0,4.75,4.54,4.2,4.2,0,0,0,4-2.09,7,7,0,0,0,.83-3.82V41.23a6.31,6.31,0,0,1-5.12,2.52,7.16,7.16,0,0,1-5.11-2,8.13,8.13,0,0,1-2.16-5.91A7.83,7.83,0,0,1,198.32,30a7.39,7.39,0,0,1,5.11-2,6.23,6.23,0,0,1,5.12,2.49Zm-8.21,3.35a5.69,5.69,0,0,0-1.51,4.1,5.78,5.78,0,0,0,1.69,4.4,4.53,4.53,0,0,0,3.2,1.22A4.42,4.42,0,0,0,207,40.19a6.05,6.05,0,0,0,1.69-4.32,5.93,5.93,0,0,0-1.58-4.21,4.8,4.8,0,0,0-3.39-1.33A4.63,4.63,0,0,0,200.34,31.73Z"/><path class="cls-2" d="M227,51.6h-2.59V28.38H227v2.09A6.47,6.47,0,0,1,232.13,28c4.67,0,7.27,3.89,7.27,7.92s-2.63,7.81-7.17,7.81A6.35,6.35,0,0,1,227,41.23Zm9.72-15.66c0-3.67-2.48-5.61-4.89-5.61s-5,2-5,5.58c0,3.06,1.94,5.54,5,5.54S236.73,38.93,236.73,35.94Z"/><path class="cls-2" d="M254.8,28.38h2.6V43.32h-2.6V41.23a6.28,6.28,0,0,1-5.11,2.52c-3.78,0-7.27-2.66-7.27-7.92S245.88,28,249.69,28a6.17,6.17,0,0,1,5.11,2.49Zm-9.71,7.45c0,3.21,1.8,5.62,4.89,5.62s5-2.63,5-5.58c0-3.85-2.67-5.54-5-5.54C247.43,30.33,245.09,32.2,245.09,35.83Zm5.47-16.59a3.1,3.1,0,1,1-3.1,3.1A3.11,3.11,0,0,1,250.56,19.24Zm0,4.61a1.52,1.52,0,1,0-1.51-1.51A1.57,1.57,0,0,0,250.56,23.85Z"/><path class="cls-2" d="M271.4,28.38l4.46,10.08,4.47-10.08h2.88l-7.35,15.91-7.34-15.91Z"/><path class="cls-2" d="M309.67,39.58a7.31,7.31,0,0,1-6.73,4.17,6.72,6.72,0,0,1-5.87-3,6,6,0,0,1-5.62,3c-3.49,0-6.44-1.58-6.44-4.86S287.78,34,291.24,34a6.93,6.93,0,0,1,4.28,1.26,6.14,6.14,0,0,0-.68-3.17,3.76,3.76,0,0,0-3.57-1.72,15.23,15.23,0,0,0-4.6.93V28.82a14.24,14.24,0,0,1,4.64-.8c1.65,0,4.35.29,5.65,3a6.55,6.55,0,0,1,5.76-3c4.35,0,7.13,3.21,7.13,8.1v.25H298.18c.11,3,2.16,5.08,4.72,5.08a5.33,5.33,0,0,0,4.61-3.17Zm-22.07-.69c0,1.08.79,2.56,3.78,2.56s4-1.51,4-2.66-1-2.52-3.93-2.52C288.9,36.27,287.6,37.45,287.6,38.89Zm19.58-4.68a4.31,4.31,0,0,0-4.42-3.88,4.36,4.36,0,0,0-4.4,3.88Z"/><path class="cls-2" d="M313.81,28.38h2.59V30a4.16,4.16,0,0,1,3.38-2,5.4,5.4,0,0,1,2.31.62L320.86,31a2.68,2.68,0,0,0-1.51-.5,2.51,2.51,0,0,0-2.09.94c-.43.57-.86,1.58-.86,4v7.88h-2.59Z"/><path class="cls-2" d="M336.85,39.51A9.25,9.25,0,0,1,335,41.92a7.27,7.27,0,0,1-5,1.83c-3.6,0-7.38-2.26-7.38-7.81,0-4.46,2.74-7.92,7.24-7.92a6.68,6.68,0,0,1,5.65,2.74,9.91,9.91,0,0,1,1.4,5.61H325.33a4.78,4.78,0,0,0,4.75,5.08,4.54,4.54,0,0,0,3.06-1.08,6.12,6.12,0,0,0,1.55-2Zm-2.56-5.3a4.46,4.46,0,0,0-4.39-3.88,4.52,4.52,0,0,0-4.39,3.88Z"/><path class="cls-2" d="M343.51,17.08V43.32h-2.6V17.08Z"/><path class="cls-2" d="M354.56,31.84a2.29,2.29,0,0,0-2.09-1.51,1.65,1.65,0,0,0-1.8,1.69c0,1.08.72,1.4,2.41,2.12,2.16.9,3.17,1.59,3.75,2.31a3.56,3.56,0,0,1,.79,2.41c0,3.13-2.27,4.89-5.15,4.89a5.34,5.34,0,0,1-5.22-3.81l2.23-.94a3.39,3.39,0,0,0,3,2.45A2.31,2.31,0,0,0,355,39.07c0-1.4-1-1.87-2.41-2.48a9.62,9.62,0,0,1-3.63-2.2,3.22,3.22,0,0,1-.69-2.19A4,4,0,0,1,352.58,28a4.32,4.32,0,0,1,4.1,2.7Z"/><path class="cls-2" d="M374.32,39.51a9.21,9.21,0,0,1-1.83,2.41,7.27,7.27,0,0,1-5,1.83c-3.6,0-7.38-2.26-7.38-7.81,0-4.46,2.73-7.92,7.23-7.92A6.7,6.7,0,0,1,373,30.76a10.07,10.07,0,0,1,1.4,5.61H362.8a4.79,4.79,0,0,0,4.75,5.08,4.52,4.52,0,0,0,3.06-1.08,5.87,5.87,0,0,0,1.55-2Zm-2.55-5.3a4.47,4.47,0,0,0-4.4-3.88A4.54,4.54,0,0,0,363,34.21Z"/><path class="cls-2" d="M381.05,30.76V43.32h-2.59V30.76h-1.58V28.38h1.58V23h2.59v5.4h2.6v2.38Z"/><path class="cls-2" d="M388.69,40.08a1.8,1.8,0,1,1-1.8,1.8A1.83,1.83,0,0,1,388.69,40.08Zm-1.3-1.62V19.31H390V38.46Z"/><path class="cls-2" d="M29.6,62.51h4.89a13.06,13.06,0,0,1,8.86,2.81,11.73,11.73,0,0,1,4.1,9.21,11.44,11.44,0,0,1-4.21,9.22c-2.2,1.87-4.5,2.77-8.78,2.77H29.6ZM32.26,84H34.6a10.21,10.21,0,0,0,6.87-2.16,9.19,9.19,0,0,0,3.24-7.31c0-5.75-4-9.5-10.11-9.5H32.26Z"/><path class="cls-2" d="M54.29,80.29A5.1,5.1,0,0,0,55,83.5a3.58,3.58,0,0,0,5.26,0A5.1,5.1,0,0,0,61,80.29V71.58h2.59v9c0,1.84-.18,3.21-1.37,4.5a6.52,6.52,0,0,1-9.14,0c-1.19-1.29-1.37-2.66-1.37-4.5v-9h2.59Z"/><path class="cls-2" d="M79.45,94.8H76.86V71.58h2.59v2.09a6.47,6.47,0,0,1,5.12-2.45c4.68,0,7.27,3.89,7.27,7.92S89.21,87,84.67,87a6.35,6.35,0,0,1-5.22-2.52Zm9.72-15.66c0-3.67-2.48-5.61-4.89-5.61s-5,2-5,5.58c0,3.06,1.94,5.54,5,5.54S89.17,82.13,89.17,79.14Z"/><path class="cls-2" d="M98.39,80.29a5.1,5.1,0,0,0,.72,3.21,3.58,3.58,0,0,0,5.26,0,5.1,5.1,0,0,0,.72-3.21V71.58h2.59v9c0,1.84-.18,3.21-1.37,4.5a6.52,6.52,0,0,1-9.14,0c-1.19-1.29-1.37-2.66-1.37-4.5v-9h2.59Z"/><path class="cls-2" d="M115.24,74V86.52h-2.59V74h-1.59V71.58h1.59v-5.4h2.59v5.4h2.59V74Z"/><path class="cls-2" d="M123.66,74V86.52h-2.59V74h-1.58V71.58h1.58v-5.4h2.59v5.4h2.59V74Z"/><path class="cls-2" d="M142,82.71a9,9,0,0,1-1.84,2.41,7.27,7.27,0,0,1-5,1.83c-3.6,0-7.38-2.26-7.38-7.81,0-4.46,2.74-7.92,7.24-7.92A6.67,6.67,0,0,1,140.65,74a10,10,0,0,1,1.41,5.61H130.43a4.78,4.78,0,0,0,4.75,5.08,4.54,4.54,0,0,0,3.06-1.08,6.12,6.12,0,0,0,1.55-2Zm-2.56-5.3A4.46,4.46,0,0,0,135,73.53a4.52,4.52,0,0,0-4.39,3.88Z"/><path class="cls-2" d="M146,71.58h2.59V73.2a4.16,4.16,0,0,1,3.38-2,5.44,5.44,0,0,1,2.31.62l-1.23,2.33a2.68,2.68,0,0,0-1.51-.5,2.51,2.51,0,0,0-2.09.94c-.43.57-.86,1.58-.86,4v7.88H146Z"/><path class="cls-2" d="M176.51,60.28h2.59V86.52h-2.59V84.43A6.31,6.31,0,0,1,171.39,87c-3.77,0-7.27-2.66-7.27-7.92s3.46-7.81,7.27-7.81a6.21,6.21,0,0,1,5.12,2.49ZM166.79,79c0,3.21,1.8,5.62,4.89,5.62s5-2.63,5-5.58c0-3.85-2.66-5.54-5-5.54C169.13,73.53,166.79,75.4,166.79,79Z"/><path class="cls-2" d="M197.24,82.71a9.21,9.21,0,0,1-1.83,2.41,7.27,7.27,0,0,1-5,1.83c-3.6,0-7.38-2.26-7.38-7.81,0-4.46,2.74-7.92,7.23-7.92A6.69,6.69,0,0,1,196,74a10.07,10.07,0,0,1,1.4,5.61H185.72a4.79,4.79,0,0,0,4.75,5.08,4.52,4.52,0,0,0,3.06-1.08,5.87,5.87,0,0,0,1.55-2Zm-2.55-5.3a4.47,4.47,0,0,0-4.4-3.88,4.54,4.54,0,0,0-4.39,3.88Z"/><path class="cls-2" d="M201.31,71.58h2.59v1.59a4.34,4.34,0,0,1,3.71-2,4.49,4.49,0,0,1,4.07,2.41,5,5,0,0,1,4.5-2.41c4.42,0,4.86,3.71,4.86,5.83v9.47h-2.6V77.45c0-1.69-.21-3.92-2.66-3.92-3,0-3.31,2.88-3.31,4.68v8.31h-2.59V77.67c0-1,0-4.14-2.7-4.14-3,0-3.28,3.06-3.28,4.86v8.13h-2.59Z"/><path class="cls-2" d="M235.65,64.1a1.84,1.84,0,1,1-1.83,1.83A1.84,1.84,0,0,1,235.65,64.1Zm1.3,7.48V86.52h-2.59V71.58Z"/><path class="cls-2" d="M252.9,74V86.52h-2.59V74h-1.59V71.58h1.59v-5.4h2.59v5.4h2.59V74Z"/><path class="cls-2" d="M269.38,71.58H272V86.52h-2.6V84.43A6.28,6.28,0,0,1,264.27,87C260.49,87,257,84.29,257,79s3.46-7.81,7.27-7.81a6.17,6.17,0,0,1,5.11,2.49ZM259.67,79c0,3.21,1.8,5.62,4.89,5.62s5-2.63,5-5.58c0-3.85-2.67-5.54-5-5.54C262,73.53,259.67,75.4,259.67,79Z"/><path class="cls-2" d="M283,75a2.29,2.29,0,0,0-2.09-1.51,1.65,1.65,0,0,0-1.8,1.69c0,1.08.72,1.4,2.41,2.12,2.16.9,3.17,1.59,3.75,2.31a3.56,3.56,0,0,1,.79,2.41c0,3.13-2.27,4.89-5.15,4.89a5.34,5.34,0,0,1-5.22-3.81L278,82.2a3.4,3.4,0,0,0,3,2.45,2.31,2.31,0,0,0,2.44-2.38c0-1.4-1-1.87-2.41-2.48a9.62,9.62,0,0,1-3.63-2.2,3.22,3.22,0,0,1-.69-2.19,4,4,0,0,1,4.36-4.18,4.32,4.32,0,0,1,4.1,2.7Z"/><path class="cls-2" d="M292.14,60.28V77.13l5.47-5.55H301L294.58,78l7.56,8.53h-3.38l-6-6.8-.64.65v6.15h-2.6V60.28Z"/><path class="cls-2" d="M317.62,82.71a9.21,9.21,0,0,1-1.83,2.41,7.27,7.27,0,0,1-5,1.83c-3.6,0-7.38-2.26-7.38-7.81,0-4.46,2.74-7.92,7.24-7.92A6.68,6.68,0,0,1,316.33,74a10.07,10.07,0,0,1,1.4,5.61H306.1a4.79,4.79,0,0,0,4.76,5.08,4.52,4.52,0,0,0,3.05-1.08,5.87,5.87,0,0,0,1.55-2Zm-2.55-5.3a4.47,4.47,0,0,0-4.39-3.88,4.54,4.54,0,0,0-4.4,3.88Z"/><path class="cls-2" d="M321.69,71.58h2.59v1.73a5.28,5.28,0,0,1,4.29-2.09,5.05,5.05,0,0,1,4.28,2.06,6.6,6.6,0,0,1,.86,4v9.25h-2.59V77.34a4.38,4.38,0,0,0-.68-2.73A2.94,2.94,0,0,0,328,73.53a3.27,3.27,0,0,0-2.63,1.15,6.34,6.34,0,0,0-1.08,4v7.81h-2.59Z"/><path class="cls-2" d="M339.48,83l2.37.87L338.22,92l-1.7-.68Z"/><path class="cls-2" d="M355.93,71.58l4.46,10.08,4.46-10.08h2.88l-7.34,15.91-7.34-15.91Z"/><path class="cls-2" d="M383.72,82.71a9.25,9.25,0,0,1-1.84,2.41,7.27,7.27,0,0,1-5,1.83c-3.6,0-7.38-2.26-7.38-7.81,0-4.46,2.74-7.92,7.24-7.92A6.67,6.67,0,0,1,382.42,74a9.91,9.91,0,0,1,1.4,5.61H372.2A4.79,4.79,0,0,0,377,84.65,4.54,4.54,0,0,0,380,83.57a6.12,6.12,0,0,0,1.55-2Zm-2.56-5.3a4.46,4.46,0,0,0-4.39-3.88,4.52,4.52,0,0,0-4.39,3.88Z"/><path class="cls-2" d="M399.23,60.28h2.59V86.52h-2.59V84.43A6.28,6.28,0,0,1,394.12,87c-3.78,0-7.27-2.66-7.27-7.92s3.46-7.81,7.27-7.81a6.17,6.17,0,0,1,5.11,2.49ZM389.51,79c0,3.21,1.8,5.62,4.9,5.62s5-2.63,5-5.58c0-3.85-2.67-5.54-5-5.54C391.85,73.53,389.51,75.4,389.51,79Z"/><path class="cls-2" d="M426.56,71.58h2.59V86.52h-2.59V84.43A6.31,6.31,0,0,1,421.45,87c-3.79,0-7.28-2.66-7.28-7.92s3.46-7.81,7.28-7.81a6.2,6.2,0,0,1,5.11,2.49ZM416.84,79c0,3.21,1.8,5.62,4.89,5.62s5-2.63,5-5.58c0-3.85-2.66-5.54-5-5.54C419.18,73.53,416.84,75.4,416.84,79Z"/><path class="cls-2" d="M436.71,74V86.52h-2.59V74h-1.59V71.58h1.59v-5.4h2.59v5.4h2.59V74Z"/><path class="cls-2" d="M31.54,103.48v16.85L37,114.78h3.38L34,121.19l7.56,8.53H38.16l-6-6.8-.65.65v6.15H29V103.48Z"/><path class="cls-2" d="M46.73,103.48v26.24H44.14V103.48Z"/><path class="cls-2" d="M52.92,107.3a1.84,1.84,0,1,1-1.83,1.83A1.84,1.84,0,0,1,52.92,107.3Zm1.3,7.48v14.94H51.63V114.78Z"/><path class="cls-2" d="M61.71,103.48v16.85l5.47-5.55h3.38l-6.41,6.41,7.56,8.53H68.33l-6-6.8-.65.65v6.15H59.12V103.48Z"/><path class="cls-2" d="M76.9,103.48v16.85l5.47-5.55h3.38l-6.4,6.41,7.56,8.53H83.52l-6-6.8-.65.65v6.15H74.31V103.48Z"/><path class="cls-2" d="M102.39,125.91a9.25,9.25,0,0,1-1.84,2.41,7.27,7.27,0,0,1-5,1.83c-3.6,0-7.38-2.26-7.38-7.81,0-4.46,2.74-7.92,7.24-7.92a6.68,6.68,0,0,1,5.65,2.74,9.91,9.91,0,0,1,1.4,5.61H90.87a4.78,4.78,0,0,0,4.75,5.08,4.56,4.56,0,0,0,3.06-1.08,6.12,6.12,0,0,0,1.55-2Zm-2.56-5.3a4.47,4.47,0,0,0-4.39-3.88,4.52,4.52,0,0,0-4.39,3.88Z"/><path class="cls-2" d="M117.43,138h-2.59V114.78h2.59v2.09a6.47,6.47,0,0,1,5.12-2.45c4.68,0,7.27,3.89,7.27,7.92s-2.63,7.81-7.17,7.81a6.35,6.35,0,0,1-5.22-2.52Zm9.72-15.66c0-3.67-2.48-5.61-4.89-5.61s-5,2-5,5.58c0,3.06,1.94,5.54,5,5.54S127.15,125.33,127.15,122.34Z"/><path class="cls-2" d="M145.22,114.78h2.6v14.94h-2.6v-2.09a6.28,6.28,0,0,1-5.11,2.52c-3.78,0-7.27-2.66-7.27-7.92s3.46-7.81,7.27-7.81a6.17,6.17,0,0,1,5.11,2.49Zm-9.71,7.45c0,3.21,1.8,5.62,4.89,5.62s5-2.63,5-5.58c0-3.85-2.66-5.54-5-5.54C137.85,116.73,135.51,118.6,135.51,122.23ZM141,105.64a3.1,3.1,0,1,1-3.1,3.1A3.11,3.11,0,0,1,141,105.64Zm0,4.61a1.52,1.52,0,1,0-1.51-1.51A1.57,1.57,0,0,0,141,110.25Z"/><path class="cls-2" d="M172.55,103.48h2.59v26.24h-2.59v-2.09a6.31,6.31,0,0,1-5.11,2.52c-3.78,0-7.27-2.66-7.27-7.92s3.45-7.81,7.27-7.81a6.19,6.19,0,0,1,5.11,2.49Zm-9.72,18.75c0,3.21,1.8,5.62,4.89,5.62s5-2.63,5-5.58c0-3.85-2.66-5.54-5-5.54C165.17,116.73,162.83,118.6,162.83,122.23Z"/><path class="cls-2" d="M193.28,125.91a9.21,9.21,0,0,1-1.83,2.41,7.27,7.27,0,0,1-5,1.83c-3.6,0-7.38-2.26-7.38-7.81,0-4.46,2.74-7.92,7.24-7.92a6.68,6.68,0,0,1,5.65,2.74,10.07,10.07,0,0,1,1.4,5.61H181.76a4.79,4.79,0,0,0,4.76,5.08,4.56,4.56,0,0,0,3.06-1.08,6,6,0,0,0,1.54-2Zm-2.55-5.3a4.47,4.47,0,0,0-4.39-3.88,4.52,4.52,0,0,0-4.39,3.88Z"/><path class="cls-2" d="M197.35,114.78h2.59v1.59a4.34,4.34,0,0,1,3.71-2,4.49,4.49,0,0,1,4.07,2.41,5,5,0,0,1,4.5-2.41c4.43,0,4.86,3.71,4.86,5.83v9.47h-2.59v-9.07c0-1.69-.22-3.92-2.67-3.92-3,0-3.31,2.88-3.31,4.68v8.31h-2.59v-8.85c0-1.05,0-4.14-2.7-4.14-2.95,0-3.28,3.06-3.28,4.86v8.13h-2.59Z"/></g></g></svg>
