<svg xmlns="http://www.w3.org/2000/svg" viewBox="0 0 491.59 152.49"><defs><style>.cls-1{fill:#f4912d;stroke:#000;stroke-width:2.5px;}.cls-2{fill:#fff;}</style></defs><title>instruk6</title><g id="Layer_2" data-name="Layer 2"><g id="Layer_1-2" data-name="Layer 1"><path id="Taleboble" class="cls-1" d="M491.25,151.11s-12,1.4-21-5c-.4-.3-4.4,4.9-24,5-41.6.1-420,.06-420,.06s-25.2-2.4-25-30,0-94.85,0-94.85,1.3-24.9,28-25,425-.06,425-.06,25.5,1.1,26,22,1,114.85,1,114.85S478,147.41,491.25,151.11Z"/><path class="cls-2" d="M35.1,25.23H40A13.06,13.06,0,0,1,48.85,28,11.74,11.74,0,0,1,53,37.26a11.43,11.43,0,0,1-4.21,9.21c-2.2,1.87-4.5,2.77-8.78,2.77H35.1Zm2.66,21.49H40.1A10.23,10.23,0,0,0,47,44.56a9.18,9.18,0,0,0,3.24-7.3c0-5.76-4-9.51-10.12-9.51H37.76Z"/><path class="cls-2" d="M60.12,43a5.1,5.1,0,0,0,.72,3.21,3.57,3.57,0,0,0,5.25,0A5.1,5.1,0,0,0,66.81,43V34.3H69.4v9c0,1.84-.18,3.21-1.36,4.5a6.53,6.53,0,0,1-9.15,0c-1.19-1.29-1.37-2.66-1.37-4.5v-9h2.6Z"/><path class="cls-2" d="M86,36.68V49.24H83.41V36.68H81.82V34.3h1.59V28.9H86v5.4h2.59v2.38Z"/><path class="cls-2" d="M92.66,26.82a1.84,1.84,0,1,1-1.84,1.83A1.83,1.83,0,0,1,92.66,26.82ZM94,34.3V57.52H91.36V34.3Z"/><path class="cls-2" d="M112.42,45.43a9.21,9.21,0,0,1-1.83,2.41,7.27,7.27,0,0,1-5,1.83c-3.6,0-7.38-2.26-7.38-7.81,0-4.46,2.73-7.92,7.23-7.92a6.69,6.69,0,0,1,5.66,2.74,10.07,10.07,0,0,1,1.4,5.61H100.9a4.79,4.79,0,0,0,4.75,5.08,4.52,4.52,0,0,0,3.06-1.08,5.87,5.87,0,0,0,1.55-2Zm-2.55-5.3a4.47,4.47,0,0,0-4.4-3.88,4.54,4.54,0,0,0-4.39,3.88Z"/><path class="cls-2" d="M119.41,23V39.85l5.47-5.55h3.38l-6.41,6.41,7.56,8.53H126l-6-6.8-.64.65v6.15h-2.6V23Z"/><path class="cls-2" d="M134.92,23V39.85l5.47-5.55h3.39l-6.41,6.41,7.56,8.53h-3.38l-6-6.8-.65.65v6.15h-2.59V23Z"/><path class="cls-2" d="M160.73,45.43a9.21,9.21,0,0,1-1.83,2.41,7.27,7.27,0,0,1-5,1.83c-3.6,0-7.38-2.26-7.38-7.81,0-4.46,2.74-7.92,7.24-7.92a6.68,6.68,0,0,1,5.65,2.74,10.07,10.07,0,0,1,1.4,5.61H149.21A4.79,4.79,0,0,0,154,47.37,4.52,4.52,0,0,0,157,46.29a5.87,5.87,0,0,0,1.55-2Zm-2.55-5.3a4.47,4.47,0,0,0-4.39-3.88,4.54,4.54,0,0,0-4.4,3.88Z"/><path class="cls-2" d="M165.13,34.3h2.59v1.62a4.16,4.16,0,0,1,3.38-2,5.35,5.35,0,0,1,2.3.62l-1.22,2.33a2.72,2.72,0,0,0-1.51-.5,2.51,2.51,0,0,0-2.09.94c-.43.57-.86,1.58-.86,4v7.88h-2.59Z"/><path class="cls-2" d="M196.26,23h2.6V49.24h-2.6V47.15a6.28,6.28,0,0,1-5.11,2.52c-3.78,0-7.27-2.66-7.27-7.92s3.46-7.81,7.27-7.81a6.17,6.17,0,0,1,5.11,2.49Zm-9.72,18.75c0,3.21,1.8,5.62,4.9,5.62s5-2.63,5-5.58c0-3.85-2.67-5.54-5-5.54C188.88,36.25,186.54,38.12,186.54,41.75Z"/><path class="cls-2" d="M205,26.82a1.84,1.84,0,1,1-1.83,1.83A1.84,1.84,0,0,1,205,26.82Zm1.3,7.48V49.24h-2.59V34.3Z"/><path class="cls-2" d="M211.53,34.3h2.59V36a5.28,5.28,0,0,1,4.28-2.09A5.07,5.07,0,0,1,222.69,36a6.72,6.72,0,0,1,.86,4v9.25H221V40.06a4.38,4.38,0,0,0-.68-2.73,2.94,2.94,0,0,0-2.45-1.08,3.27,3.27,0,0,0-2.63,1.15,6.28,6.28,0,0,0-1.08,4v7.81h-2.59Z"/><path class="cls-2" d="M240.15,36.68V49.24h-2.59V36.68H236V34.3h1.59V28.9h2.59v5.4h2.59v2.38Z"/><path class="cls-2" d="M258.76,45.43a9,9,0,0,1-1.84,2.41,7.27,7.27,0,0,1-5,1.83c-3.6,0-7.37-2.26-7.37-7.81,0-4.46,2.73-7.92,7.23-7.92a6.67,6.67,0,0,1,5.65,2.74,10,10,0,0,1,1.41,5.61H247.24A4.78,4.78,0,0,0,252,47.37a4.54,4.54,0,0,0,3.06-1.08,6.12,6.12,0,0,0,1.55-2Zm-2.56-5.3a4.46,4.46,0,0,0-4.39-3.88,4.53,4.53,0,0,0-4.39,3.88Z"/><path class="cls-2" d="M265.74,23V49.24h-2.59V23Z"/><path class="cls-2" d="M284.21,45.43a9,9,0,0,1-1.84,2.41,7.25,7.25,0,0,1-5,1.83c-3.6,0-7.38-2.26-7.38-7.81,0-4.46,2.73-7.92,7.23-7.92a6.67,6.67,0,0,1,5.65,2.74,10,10,0,0,1,1.41,5.61H272.69a4.79,4.79,0,0,0,4.75,5.08,4.52,4.52,0,0,0,3.06-1.08,6.12,6.12,0,0,0,1.55-2Zm-2.56-5.3a4.46,4.46,0,0,0-4.39-3.88,4.54,4.54,0,0,0-4.39,3.88Z"/><path class="cls-2" d="M291.27,36.68V49.24h-2.6V36.68h-1.44V34.3h1.44V27.79c0-1.37.11-3.1,1.44-4.21a4.61,4.61,0,0,1,3-1,5,5,0,0,1,1.84.33v2.52a4.62,4.62,0,0,0-1.69-.33,1.83,1.83,0,0,0-1.66.8,4.53,4.53,0,0,0-.32,2.16V34.3h3.67v2.38Z"/><path class="cls-2" d="M296.63,41.83a7.92,7.92,0,1,1,7.92,7.84A7.67,7.67,0,0,1,296.63,41.83Zm2.66,0a5.26,5.26,0,1,0,10.51,0c0-3.67-2.52-5.58-5.25-5.58A5.19,5.19,0,0,0,299.29,41.83Z"/><path class="cls-2" d="M316.75,34.3h2.59V36a5.28,5.28,0,0,1,4.29-2.09A5.07,5.07,0,0,1,327.91,36a6.65,6.65,0,0,1,.86,4v9.25h-2.59V40.06a4.38,4.38,0,0,0-.68-2.73,2.93,2.93,0,0,0-2.45-1.08,3.27,3.27,0,0,0-2.63,1.15,6.34,6.34,0,0,0-1.08,4v7.81h-2.59Z"/><path class="cls-2" d="M335.65,46a1.8,1.8,0,1,1-1.8,1.8A1.83,1.83,0,0,1,335.65,46Z"/></g></g></svg>
