<svg xmlns="http://www.w3.org/2000/svg" viewBox="0 0 491.59 152.49"><defs><style>.cls-1{fill:#f4912d;stroke:#000;stroke-width:2.5px;}.cls-2{fill:#fff;}</style></defs><title>instruk3</title><g id="Layer_2" data-name="Layer 2"><g id="Layer_1-2" data-name="Layer 1"><path id="Taleboble" class="cls-1" d="M491.25,151.11s-12,1.4-21-5c-.4-.3-4.4,4.9-24,5-41.6.1-420,.06-420,.06s-25.2-2.4-25-30,0-94.85,0-94.85,1.3-24.9,28-25,425-.06,425-.06,25.5,1.1,26,22,1,114.85,1,114.85S478,147.41,491.25,151.11Z"/><path class="cls-2" d="M28.24,21.23,35,39.55l6.77-18.32h2.95L35,46.68,25.29,21.23Z"/><path class="cls-2" d="M49.09,22.82a1.84,1.84,0,1,1-1.84,1.83A1.84,1.84,0,0,1,49.09,22.82Zm1.29,7.48V45.24H47.79V30.3Z"/><path class="cls-2" d="M58.19,19V45.24H55.6V19Z"/><path class="cls-2" d="M83.57,19h2.59V45.24H83.57V43.15a6.28,6.28,0,0,1-5.11,2.52c-3.78,0-7.27-2.66-7.27-7.92s3.45-7.81,7.27-7.81a6.17,6.17,0,0,1,5.11,2.49ZM73.85,37.75c0,3.21,1.8,5.62,4.9,5.62s5-2.63,5-5.58c0-3.85-2.66-5.54-5-5.54C76.19,32.25,73.85,34.12,73.85,37.75Z"/><path class="cls-2" d="M94,39a5.1,5.1,0,0,0,.72,3.21,3.16,3.16,0,0,0,2.62,1.15A3.19,3.19,0,0,0,100,42.22a5.1,5.1,0,0,0,.72-3.21V30.3h2.59v9c0,1.84-.18,3.21-1.37,4.5a6.52,6.52,0,0,1-9.14,0c-1.19-1.29-1.37-2.66-1.37-4.5v-9H94Z"/><path class="cls-2" d="M128.64,19h2.59V45.24h-2.59V43.15a6.28,6.28,0,0,1-5.11,2.52c-3.78,0-7.27-2.66-7.27-7.92s3.45-7.81,7.27-7.81a6.17,6.17,0,0,1,5.11,2.49Zm-9.72,18.75c0,3.21,1.8,5.62,4.9,5.62s5-2.63,5-5.58c0-3.85-2.67-5.54-5-5.54C121.26,32.25,118.92,34.12,118.92,37.75Z"/><path class="cls-2" d="M149.7,41.43a9,9,0,0,1-1.84,2.41,7.23,7.23,0,0,1-5,1.83c-3.6,0-7.38-2.26-7.38-7.81,0-4.46,2.73-7.92,7.23-7.92a6.65,6.65,0,0,1,5.65,2.74,10,10,0,0,1,1.41,5.61H138.18a4.79,4.79,0,0,0,4.75,5.08A4.52,4.52,0,0,0,146,42.29a5.87,5.87,0,0,0,1.55-2Zm-2.56-5.3a4.46,4.46,0,0,0-4.39-3.88,4.54,4.54,0,0,0-4.39,3.88Z"/><path class="cls-2" d="M156.69,19V45.24h-2.6V19Z"/><path class="cls-2" d="M175.15,41.43a9.21,9.21,0,0,1-1.83,2.41,7.27,7.27,0,0,1-5,1.83c-3.6,0-7.38-2.26-7.38-7.81,0-4.46,2.74-7.92,7.24-7.92a6.68,6.68,0,0,1,5.65,2.74,10.07,10.07,0,0,1,1.4,5.61H163.63a4.79,4.79,0,0,0,4.75,5.08,4.52,4.52,0,0,0,3.06-1.08,5.87,5.87,0,0,0,1.55-2Zm-2.55-5.3a4.47,4.47,0,0,0-4.39-3.88,4.54,4.54,0,0,0-4.4,3.88Z"/><path class="cls-2" d="M199.7,19h2.6V45.24h-2.6V43.15a6.28,6.28,0,0,1-5.11,2.52c-3.78,0-7.27-2.66-7.27-7.92s3.46-7.81,7.27-7.81a6.17,6.17,0,0,1,5.11,2.49ZM190,37.75c0,3.21,1.8,5.62,4.9,5.62s5-2.63,5-5.58c0-3.85-2.67-5.54-5-5.54C192.32,32.25,190,34.12,190,37.75Z"/><path class="cls-2" d="M208.45,22.82a1.84,1.84,0,1,1-1.83,1.83A1.84,1.84,0,0,1,208.45,22.82Zm1.3,7.48V45.24h-2.59V30.3Z"/><path class="cls-2" d="M215,30.3h2.59V32a5.28,5.28,0,0,1,4.28-2.09,5.07,5.07,0,0,1,4.29,2,6.72,6.72,0,0,1,.86,4v9.25H224.4V36.06a4.38,4.38,0,0,0-.68-2.73,2.94,2.94,0,0,0-2.45-1.08,3.27,3.27,0,0,0-2.63,1.15,6.28,6.28,0,0,0-1.08,4v7.81H215Z"/><path class="cls-2" d="M245.46,41.43a9,9,0,0,1-1.84,2.41,7.27,7.27,0,0,1-5,1.83c-3.59,0-7.37-2.26-7.37-7.81,0-4.46,2.73-7.92,7.23-7.92a6.67,6.67,0,0,1,5.65,2.74,10,10,0,0,1,1.41,5.61H233.94a4.79,4.79,0,0,0,4.75,5.08,4.54,4.54,0,0,0,3.06-1.08,6.12,6.12,0,0,0,1.55-2Zm-2.56-5.3a4.46,4.46,0,0,0-4.39-3.88,4.54,4.54,0,0,0-4.39,3.88Z"/><path class="cls-2" d="M30.11,75.88V88.44H27.52V75.88H25.94V73.5h1.58V68.1h2.59v5.4H32.7v2.38Z"/><path class="cls-2" d="M41.27,87,34.4,73.5h3l5.29,10.69L47.5,73.5h2.88l-11,23.22H36.52Z"/><path class="cls-2" d="M64.89,73.5h2.59V88.08A9.41,9.41,0,0,1,66,94a7.28,7.28,0,0,1-6,2.77,7.37,7.37,0,0,1-5.32-2,6.69,6.69,0,0,1-2-4.82h2.56a4.43,4.43,0,0,0,4.75,4.54,4.19,4.19,0,0,0,4-2.09,7,7,0,0,0,.83-3.82V86.35a6.31,6.31,0,0,1-5.11,2.52,7.19,7.19,0,0,1-5.12-2A8.13,8.13,0,0,1,52.5,81a7.83,7.83,0,0,1,2.16-5.79,7.35,7.35,0,0,1,5.12-2,6.22,6.22,0,0,1,5.11,2.49Zm-8.21,3.35A5.69,5.69,0,0,0,55.17,81a5.78,5.78,0,0,0,1.69,4.4,4.55,4.55,0,0,0,3.2,1.22,4.42,4.42,0,0,0,3.28-1.26A6.05,6.05,0,0,0,65,81a5.93,5.93,0,0,0-1.58-4.21,4.78,4.78,0,0,0-3.39-1.33A4.63,4.63,0,0,0,56.68,76.85Z"/><path class="cls-2" d="M84.15,73.5h2.59V88.08A9.41,9.41,0,0,1,85.3,94a7.28,7.28,0,0,1-6,2.77,7.37,7.37,0,0,1-5.32-2,6.69,6.69,0,0,1-2-4.82h2.56a4.43,4.43,0,0,0,4.75,4.54,4.2,4.2,0,0,0,4-2.09,7,7,0,0,0,.83-3.82V86.35A6.31,6.31,0,0,1,79,88.87a7.18,7.18,0,0,1-5.11-2A8.13,8.13,0,0,1,71.76,81a7.83,7.83,0,0,1,2.16-5.79,7.35,7.35,0,0,1,5.11-2,6.23,6.23,0,0,1,5.12,2.49Zm-8.21,3.35A5.69,5.69,0,0,0,74.43,81a5.78,5.78,0,0,0,1.69,4.4,4.55,4.55,0,0,0,3.2,1.22,4.42,4.42,0,0,0,3.28-1.26A6.05,6.05,0,0,0,84.29,81a5.93,5.93,0,0,0-1.58-4.21,4.8,4.8,0,0,0-3.39-1.33A4.63,4.63,0,0,0,75.94,76.85Z"/><path class="cls-2" d="M105.21,84.63A9.25,9.25,0,0,1,103.37,87a7.27,7.27,0,0,1-5,1.83c-3.6,0-7.38-2.26-7.38-7.81,0-4.46,2.74-7.92,7.24-7.92a6.68,6.68,0,0,1,5.65,2.74,9.91,9.91,0,0,1,1.4,5.61H93.69a4.78,4.78,0,0,0,4.75,5.08,4.56,4.56,0,0,0,3.06-1.08,6.12,6.12,0,0,0,1.55-2Zm-2.56-5.3a4.46,4.46,0,0,0-4.39-3.88,4.52,4.52,0,0,0-4.39,3.88Z"/><path class="cls-2" d="M121.05,73.5h2.59V88.08A9.41,9.41,0,0,1,122.2,94a7.28,7.28,0,0,1-6,2.77,7.41,7.41,0,0,1-5.33-2A6.73,6.73,0,0,1,109,89.88h2.56a4.43,4.43,0,0,0,4.75,4.54,4.2,4.2,0,0,0,4-2.09,7,7,0,0,0,.83-3.82V86.35a6.31,6.31,0,0,1-5.12,2.52,7.16,7.16,0,0,1-5.11-2A8.09,8.09,0,0,1,108.66,81a7.83,7.83,0,0,1,2.16-5.79,7.35,7.35,0,0,1,5.11-2,6.23,6.23,0,0,1,5.12,2.49Zm-8.21,3.35a5.69,5.69,0,0,0-1.51,4.1,5.78,5.78,0,0,0,1.69,4.4,4.53,4.53,0,0,0,3.2,1.22,4.42,4.42,0,0,0,3.28-1.26A6.05,6.05,0,0,0,121.19,81a5.93,5.93,0,0,0-1.58-4.21,4.8,4.8,0,0,0-3.39-1.33A4.63,4.63,0,0,0,112.84,76.85Z"/><path class="cls-2" d="M131.45,82.21a5.1,5.1,0,0,0,.72,3.21,3.58,3.58,0,0,0,5.26,0,5.16,5.16,0,0,0,.71-3.21V73.5h2.6v9c0,1.84-.18,3.21-1.37,4.5a6.52,6.52,0,0,1-9.14,0c-1.19-1.29-1.37-2.66-1.37-4.5v-9h2.59Z"/><path class="cls-2" d="M146,73.5h2.59v1.59a4.33,4.33,0,0,1,3.71-2,4.44,4.44,0,0,1,4.06,2.42,5,5,0,0,1,4.5-2.42c4.43,0,4.86,3.71,4.86,5.83v9.47h-2.59V79.37c0-1.69-.21-3.92-2.66-3.92-3,0-3.31,2.88-3.31,4.68v8.31h-2.6V79.59c0-1,0-4.14-2.7-4.14-2.95,0-3.27,3.06-3.27,4.86v8.13H146Z"/><path class="cls-2" d="M170.94,73.5h2.59v1.59a4.34,4.34,0,0,1,3.71-2,4.47,4.47,0,0,1,4.07,2.42,5,5,0,0,1,4.5-2.42c4.42,0,4.86,3.71,4.86,5.83v9.47h-2.6V79.37c0-1.69-.21-3.92-2.66-3.92-3,0-3.31,2.88-3.31,4.68v8.31h-2.59V79.59c0-1,0-4.14-2.7-4.14-2.95,0-3.28,3.06-3.28,4.86v8.13h-2.59Z"/><path class="cls-2" d="M197.22,66a1.84,1.84,0,1,1-1.83,1.83A1.84,1.84,0,0,1,197.22,66Zm1.3,7.48V88.44h-2.59V73.5Z"/><path class="cls-2" d="M217,84.63A9.21,9.21,0,0,1,215.15,87a7.27,7.27,0,0,1-5,1.83c-3.6,0-7.38-2.26-7.38-7.81,0-4.46,2.74-7.92,7.24-7.92a6.68,6.68,0,0,1,5.65,2.74,10.07,10.07,0,0,1,1.4,5.61H205.47a4.78,4.78,0,0,0,4.75,5.08,4.56,4.56,0,0,0,3.06-1.08,6,6,0,0,0,1.54-2Zm-2.55-5.3A4.46,4.46,0,0,0,210,75.45a4.52,4.52,0,0,0-4.39,3.88Z"/><path class="cls-2" d="M221.38,73.5H224v1.62a4.16,4.16,0,0,1,3.38-2,5.44,5.44,0,0,1,2.31.62l-1.23,2.33a2.68,2.68,0,0,0-1.51-.5,2.51,2.51,0,0,0-2.09.94c-.43.57-.86,1.58-.86,4v7.88h-2.59Z"/><path class="cls-2" d="M241.07,73.5h2.59v1.59a4.33,4.33,0,0,1,3.71-2,4.44,4.44,0,0,1,4.06,2.42,5,5,0,0,1,4.5-2.42c4.43,0,4.86,3.71,4.86,5.83v9.47H258.2V79.37c0-1.69-.21-3.92-2.66-3.92-3,0-3.31,2.88-3.31,4.68v8.31h-2.6V79.59c0-1,0-4.14-2.69-4.14-3,0-3.28,3.06-3.28,4.86v8.13h-2.59Z"/><path class="cls-2" d="M279.3,84.63A9,9,0,0,1,277.46,87a7.26,7.26,0,0,1-5,1.83c-3.6,0-7.38-2.26-7.38-7.81,0-4.46,2.73-7.92,7.23-7.92A6.67,6.67,0,0,1,278,75.88a10,10,0,0,1,1.41,5.61H267.78a4.79,4.79,0,0,0,4.75,5.08,4.52,4.52,0,0,0,3.06-1.08,6.12,6.12,0,0,0,1.55-2Zm-2.56-5.3a4.46,4.46,0,0,0-4.39-3.88A4.54,4.54,0,0,0,268,79.33Z"/><path class="cls-2" d="M295.14,62.2h2.59V88.44h-2.59V86.35A6.31,6.31,0,0,1,290,88.87c-3.78,0-7.27-2.66-7.27-7.92s3.45-7.81,7.27-7.81a6.19,6.19,0,0,1,5.11,2.49ZM285.42,81c0,3.21,1.8,5.62,4.9,5.62s5-2.63,5-5.58c0-3.85-2.66-5.54-5-5.54C287.76,75.45,285.42,77.32,285.42,81Z"/><path class="cls-2" d="M323.11,62.2h2.59V88.44h-2.59V86.35A6.28,6.28,0,0,1,318,88.87c-3.78,0-7.27-2.66-7.27-7.92s3.45-7.81,7.27-7.81a6.17,6.17,0,0,1,5.11,2.49ZM313.39,81c0,3.21,1.8,5.62,4.9,5.62s5-2.63,5-5.58c0-3.85-2.66-5.54-5-5.54C315.73,75.45,313.39,77.32,313.39,81Z"/><path class="cls-2" d="M344.17,84.63A9,9,0,0,1,342.33,87a7.25,7.25,0,0,1-5,1.83c-3.6,0-7.38-2.26-7.38-7.81,0-4.46,2.73-7.92,7.23-7.92a6.67,6.67,0,0,1,5.65,2.74,10,10,0,0,1,1.41,5.61H332.65a4.79,4.79,0,0,0,4.75,5.08,4.52,4.52,0,0,0,3.06-1.08,6,6,0,0,0,1.55-2Zm-2.56-5.3a4.46,4.46,0,0,0-4.39-3.88,4.54,4.54,0,0,0-4.39,3.88Z"/><path class="cls-2" d="M368.72,73.5h2.59V88.44h-2.59V86.35a6.28,6.28,0,0,1-5.11,2.52c-3.78,0-7.27-2.66-7.27-7.92s3.45-7.81,7.27-7.81a6.17,6.17,0,0,1,5.11,2.49ZM359,81c0,3.21,1.8,5.62,4.9,5.62s5-2.63,5-5.58c0-3.85-2.66-5.54-5-5.54C361.34,75.45,359,77.32,359,81Z"/><path class="cls-2" d="M376.53,73.5h2.59v1.73a5.28,5.28,0,0,1,4.29-2.09,5.05,5.05,0,0,1,4.28,2.06,6.61,6.61,0,0,1,.86,4v9.25H386V79.26a4.38,4.38,0,0,0-.68-2.73,2.93,2.93,0,0,0-2.45-1.08,3.27,3.27,0,0,0-2.63,1.15,6.34,6.34,0,0,0-1.08,4v7.81h-2.59Z"/><path class="cls-2" d="M405.22,62.2h2.6V88.44h-2.6V86.35a6.28,6.28,0,0,1-5.11,2.52c-3.78,0-7.27-2.66-7.27-7.92s3.46-7.81,7.27-7.81a6.17,6.17,0,0,1,5.11,2.49ZM395.51,81c0,3.21,1.79,5.62,4.89,5.62s5-2.63,5-5.58c0-3.85-2.67-5.54-5-5.54C397.84,75.45,395.51,77.32,395.51,81Z"/><path class="cls-2" d="M413,73.5h2.59v1.62a4.16,4.16,0,0,1,3.38-2,5.44,5.44,0,0,1,2.31.62l-1.23,2.33a2.68,2.68,0,0,0-1.51-.5,2.51,2.51,0,0,0-2.09.94c-.43.57-.86,1.58-.86,4v7.88H413Z"/><path class="cls-2" d="M436.4,84.63A9,9,0,0,1,434.56,87a7.25,7.25,0,0,1-5,1.83c-3.6,0-7.38-2.26-7.38-7.81,0-4.46,2.73-7.92,7.23-7.92a6.67,6.67,0,0,1,5.65,2.74,10,10,0,0,1,1.41,5.61H424.88a4.79,4.79,0,0,0,4.75,5.08,4.52,4.52,0,0,0,3.06-1.08,5.87,5.87,0,0,0,1.55-2Zm-2.56-5.3a4.46,4.46,0,0,0-4.39-3.88,4.54,4.54,0,0,0-4.39,3.88Z"/><path class="cls-2" d="M451.34,78a5.85,5.85,0,0,1-1.48,4.07,4.9,4.9,0,0,1-3.71,1.44,5.1,5.1,0,0,1-3.74-1.44A5.16,5.16,0,0,1,441,78.4a4.56,4.56,0,0,1,3-4.47,30.53,30.53,0,0,1,3-1,3.05,3.05,0,0,0,2.3-3.17,3.26,3.26,0,0,0-.93-2.52,3.15,3.15,0,0,0-2.2-.76,3.34,3.34,0,0,0-2.27.76,3.48,3.48,0,0,0-.93,2.41,5.56,5.56,0,0,0,.21,1.51h-2.66a7.2,7.2,0,0,1-.14-1.58,5.51,5.51,0,0,1,1.36-3.89A5.75,5.75,0,0,1,446.15,64,5.4,5.4,0,0,1,452,69.83a5,5,0,0,1-1.23,3.53,6.54,6.54,0,0,1-2.77,1.8,26.65,26.65,0,0,0-2.59.9,2.64,2.64,0,0,0-1.77,2.52,2.53,2.53,0,0,0,.73,1.87,2.44,2.44,0,0,0,1.76.65,2.41,2.41,0,0,0,1.76-.65,3.66,3.66,0,0,0,.87-2.41Zm-5.15,7.23a1.8,1.8,0,1,1-1.8,1.8A1.83,1.83,0,0,1,446.19,85.27Z"/></g></g></svg>
