<svg xmlns="http://www.w3.org/2000/svg" width="491.59" height="492.97" viewBox="0 0 491.59 492.97"><defs><style>.cls-1{fill:#f4912d;stroke:#000;stroke-width:2.5px;}.cls-2{isolation:isolate;font-size:36px;fill:#fff;font-family:Futura-Medium, Futura;}.cls-3{letter-spacing:-0.02em;}.cls-4{letter-spacing:0.01em;}.cls-5{letter-spacing:0.01em;}.cls-6{letter-spacing:0.01em;}.cls-7{letter-spacing:-0.02em;}.cls-8{letter-spacing:-0.06em;}.cls-9{letter-spacing:-0.01em;}.cls-10{letter-spacing:-0.01em;}.cls-11{letter-spacing:-0.02em;}.cls-12{letter-spacing:-0.04em;}.cls-13{letter-spacing:0.02em;}</style></defs><title>instruk7</title><g id="Lag_2" data-name="Lag 2"><g id="Lag_1-2" data-name="Lag 1"><path id="Taleboble" class="cls-1" d="M491.25,491.6s-12,1.4-21-5c-.4-.3-4.4,4.9-24,5-41.6.1-420,.06-420,.06s-25.2-2.4-25-30,0-435.34,0-435.34,1.3-24.9,28-25,425-.06,425-.06,25.5,1.1,26,22,1,455.34,1,455.34S478,487.9,491.25,491.6Z"/><text class="cls-2" transform="translate(28.6 51.41)">E<tspan class="cls-3" x="20.36" y="0">v</tspan><tspan x="37.83" y="0">a </tspan><tspan class="cls-4" x="70.52" y="0">t</tspan><tspan x="80.61" y="0">og din </tspan><tspan class="cls-5" x="196.31" y="0">t</tspan><tspan x="206.47" y="0">ele</tspan><tspan class="cls-6" x="255.27" y="0">f</tspan><tspan x="266.4" y="0">on, uden </tspan><tspan x="0" y="43.2">at spørge om l</tspan><tspan class="cls-7" x="236.6" y="43.2">o</tspan><tspan class="cls-8" x="257.52" y="43.2">v</tspan><tspan x="273.62" y="43.2">. D</tspan><tspan class="cls-5" x="321.98" y="43.2">e</tspan><tspan x="342.21" y="43.2">t er </tspan><tspan x="0" y="86.4">så st</tspan><tspan class="cls-9" x="71.75" y="86.4">r</tspan><tspan x="84.97" y="86.4">engt! Man har altid </tspan><tspan class="cls-9" x="0" y="129.6">r</tspan><tspan class="cls-5" x="13.22" y="129.6">e</tspan><tspan x="33.45" y="129.6">t til at </tspan><tspan class="cls-10" x="135.83" y="129.6">v</tspan><tspan x="153.47" y="129.6">ælge om man vil </tspan><tspan x="0" y="172.8">dele sine ting. </tspan><tspan x="0" y="216">Har du, eller nogen du </tspan><tspan class="cls-11" x="0" y="259.2">k</tspan><tspan x="17.35" y="259.2">ende</tspan><tspan class="cls-12" x="98.51" y="259.2">r</tspan><tspan x="110.53" y="259.2">, </tspan><tspan class="cls-13" x="132.75" y="259.2">f</tspan><tspan x="143.98" y="259.2">å</tspan><tspan class="cls-5" x="165.57" y="259.2">e</tspan><tspan x="185.8" y="259.2">t delt </tspan><tspan x="0" y="302.4">billeder uden at bli</tspan><tspan class="cls-3" x="308.5" y="302.4">v</tspan><tspan x="325.97" y="302.4">e </tspan><tspan x="0" y="345.6">spurgt? </tspan><tspan x="0" y="388.8">Klik her </tspan><tspan class="cls-6" x="135.05" y="388.8">f</tspan><tspan x="146.18" y="388.8">or at læ</tspan><tspan class="cls-9" x="274.89" y="388.8">r</tspan><tspan x="288.11" y="388.8">e me</tspan><tspan class="cls-9" x="367.52" y="388.8">r</tspan><tspan x="380.74" y="388.8">e! </tspan></text></g></g></svg>
