<svg xmlns="http://www.w3.org/2000/svg" viewBox="0 0 491.59 152.52"><defs><style>.cls-1{fill:#f4912d;stroke:#000;stroke-width:2.5px;}.cls-2{fill:#fff;}</style></defs><title>instruk2</title><g id="Layer_2" data-name="Layer 2"><g id="Layer_1-2" data-name="Layer 1"><path id="Taleboble" class="cls-1" d="M491.25,151.14s-12,1.4-21-5c-.4-.3-4.4,4.9-24,5-41.6.1-420,0-420,0s-25.2-2.4-25-30,0-94.85,0-94.85,1.3-24.9,28-25,425,0,425,0,25.5,1.1,26,22,1,114.85,1,114.85S478,147.44,491.25,151.14Z"/><path class="cls-2" d="M42.63,26.51a5.67,5.67,0,0,0-1.4-1.8,4.32,4.32,0,0,0-2.7-.83c-2.38,0-4,1.48-4,3.71a2.51,2.51,0,0,0,.9,2.09,7.91,7.91,0,0,0,2.52,1.51l2.3,1a11.56,11.56,0,0,1,3.71,2.27,5.77,5.77,0,0,1,1.73,4.35c0,4.43-3.28,7.38-7.6,7.38a7.17,7.17,0,0,1-5.22-1.94A8.69,8.69,0,0,1,30.61,40l2.59-.72a5.7,5.7,0,0,0,1.44,3.06,4.61,4.61,0,0,0,3.46,1.33,4.54,4.54,0,0,0,4.82-4.75,3.57,3.57,0,0,0-1.19-2.81,10.22,10.22,0,0,0-2.88-1.65l-2.16-1a10.73,10.73,0,0,1-3.2-2,5,5,0,0,1-1.66-3.93c0-3.7,2.85-6.19,6.74-6.19a6.53,6.53,0,0,1,3.85,1.08,7.27,7.27,0,0,1,2.34,2.67Z"/><path class="cls-2" d="M61.35,30.83h2.59V45.77H61.35V43.68a6.28,6.28,0,0,1-5.11,2.52c-3.78,0-7.27-2.66-7.27-7.92s3.46-7.81,7.27-7.81A6.17,6.17,0,0,1,61.35,33Zm-9.72,7.45c0,3.2,1.8,5.62,4.9,5.62s5-2.63,5-5.58c0-3.85-2.67-5.55-5-5.55C54,32.77,51.63,34.65,51.63,38.28Zm5.48-16.59A3.1,3.1,0,1,1,54,24.78,3.11,3.11,0,0,1,57.11,21.69Zm0,4.6a1.51,1.51,0,1,0-1.52-1.51A1.57,1.57,0,0,0,57.11,26.29Z"/><path class="cls-2" d="M80.29,19.53h2.59V45.77H80.29V43.68a6.31,6.31,0,0,1-5.11,2.52c-3.78,0-7.27-2.66-7.27-7.92s3.45-7.81,7.27-7.81A6.19,6.19,0,0,1,80.29,33ZM70.57,38.28c0,3.2,1.8,5.62,4.9,5.62s5-2.63,5-5.58c0-3.85-2.66-5.55-5-5.55C72.91,32.77,70.57,34.65,70.57,38.28Z"/><path class="cls-2" d="M99.22,30.83h2.6V45.77h-2.6V43.68a6.28,6.28,0,0,1-5.11,2.52c-3.78,0-7.27-2.66-7.27-7.92s3.46-7.81,7.27-7.81A6.17,6.17,0,0,1,99.22,33Zm-9.71,7.45c0,3.2,1.79,5.62,4.89,5.62s5-2.63,5-5.58c0-3.85-2.67-5.55-5-5.55C91.84,32.77,89.51,34.65,89.51,38.28Z"/><path class="cls-2" d="M106.71,30.83h2.59v1.73a5.28,5.28,0,0,1,4.29-2.09,5.07,5.07,0,0,1,4.28,2.05,6.65,6.65,0,0,1,.87,4v9.25h-2.6V36.59a4.43,4.43,0,0,0-.68-2.74A3,3,0,0,0,113,32.77a3.28,3.28,0,0,0-2.63,1.16,6.33,6.33,0,0,0-1.08,4v7.81h-2.59Z"/><path class="cls-2" d="M126.22,42.53a1.8,1.8,0,1,1-1.8,1.8A1.83,1.83,0,0,1,126.22,42.53Zm-1.29-1.62V21.76h2.59V40.91Z"/><path class="cls-2" d="M142.75,21.76h4.89a13,13,0,0,1,8.86,2.81,11.7,11.7,0,0,1,4.1,9.21A11.44,11.44,0,0,1,156.39,43c-2.2,1.87-4.5,2.77-8.78,2.77h-4.86Zm2.66,21.49h2.34a10.29,10.29,0,0,0,6.88-2.16,9.19,9.19,0,0,0,3.24-7.31c0-5.76-4-9.5-10.12-9.5h-2.34Z"/><path class="cls-2" d="M167.44,39.54a5.07,5.07,0,0,0,.72,3.2,3.56,3.56,0,0,0,5.26,0,5.07,5.07,0,0,0,.72-3.2V30.83h2.59v9c0,1.83-.18,3.2-1.37,4.5a6.52,6.52,0,0,1-9.14,0c-1.19-1.3-1.37-2.67-1.37-4.5v-9h2.59Z"/><path class="cls-2" d="M190,19.53h2.6v13a5.26,5.26,0,0,1,4.28-2.09,5.07,5.07,0,0,1,4.28,2.05,6.65,6.65,0,0,1,.87,4v9.25h-2.59V36.59a4.44,4.44,0,0,0-.69-2.74,2.94,2.94,0,0,0-2.45-1.08,3.25,3.25,0,0,0-2.62,1.16,6.26,6.26,0,0,0-1.08,4v7.81H190Z"/><path class="cls-2" d="M218.38,30.83H221V45.77h-2.59V43.68a6.28,6.28,0,0,1-5.11,2.52c-3.78,0-7.27-2.66-7.27-7.92s3.45-7.81,7.27-7.81A6.17,6.17,0,0,1,218.38,33Zm-9.72,7.45c0,3.2,1.8,5.62,4.9,5.62s5-2.63,5-5.58c0-3.85-2.66-5.55-5-5.55C211,32.77,208.66,34.65,208.66,38.28Z"/><path class="cls-2" d="M225.87,30.83h2.59v1.62a4.14,4.14,0,0,1,3.38-2,5.54,5.54,0,0,1,2.31.61l-1.22,2.34a2.73,2.73,0,0,0-1.52-.5,2.5,2.5,0,0,0-2.08.93c-.44.58-.87,1.59-.87,4v7.88h-2.59Z"/><path class="cls-2" d="M247.51,54.05h-2.6V30.83h2.6v2.09a6.41,6.41,0,0,1,5.11-2.45c4.68,0,7.27,3.89,7.27,7.92s-2.63,7.81-7.17,7.81a6.32,6.32,0,0,1-5.21-2.52Zm9.71-15.66c0-3.67-2.48-5.62-4.89-5.62s-5,2-5,5.58c0,3.06,1.94,5.55,5,5.55S257.22,41.38,257.22,38.39Z"/><path class="cls-2" d="M275.3,30.83h2.59V45.77H275.3V43.68a6.31,6.31,0,0,1-5.12,2.52c-3.78,0-7.27-2.66-7.27-7.92s3.46-7.81,7.27-7.81A6.21,6.21,0,0,1,275.3,33Zm-9.72,7.45c0,3.2,1.8,5.62,4.89,5.62s5-2.63,5-5.58c0-3.85-2.66-5.55-5-5.55C267.92,32.77,265.58,34.65,265.58,38.28Z"/><path class="cls-2" d="M285.38,19.53V36.37l5.47-5.54h3.38l-6.41,6.41,7.56,8.53H292L286,39l-.64.65v6.16h-2.6V19.53Z"/><path class="cls-2" d="M300.57,19.53V36.37L306,30.83h3.38L303,37.24l7.56,8.53h-3.38l-6-6.81-.65.65v6.16H298V19.53Z"/><path class="cls-2" d="M326.05,42a8.89,8.89,0,0,1-1.83,2.41,7.23,7.23,0,0,1-5,1.84c-3.6,0-7.38-2.27-7.38-7.81,0-4.46,2.74-7.92,7.24-7.92a6.68,6.68,0,0,1,5.65,2.74,10.07,10.07,0,0,1,1.4,5.61H314.54a4.78,4.78,0,0,0,4.75,5.08,4.56,4.56,0,0,0,3.06-1.08,6,6,0,0,0,1.54-2.06Zm-2.55-5.29a4.47,4.47,0,0,0-4.39-3.89,4.53,4.53,0,0,0-4.39,3.89Z"/><path class="cls-2" d="M332.79,33.21V45.77h-2.6V33.21h-1.58V30.83h1.58v-5.4h2.6v5.4h2.59v2.38Z"/><path class="cls-2" d="M357.66,19.53h2.59V45.77h-2.59V43.68a6.28,6.28,0,0,1-5.11,2.52c-3.78,0-7.27-2.66-7.27-7.92s3.45-7.81,7.27-7.81A6.17,6.17,0,0,1,357.66,33Zm-9.72,18.75c0,3.2,1.8,5.62,4.9,5.62s5-2.63,5-5.58c0-3.85-2.66-5.55-5-5.55C350.28,32.77,347.94,34.65,347.94,38.28Z"/><path class="cls-2" d="M366.09,23.34a1.84,1.84,0,1,1-1.84,1.84A1.85,1.85,0,0,1,366.09,23.34Zm1.29,7.49V45.77h-2.59V30.83Z"/><path class="cls-2" d="M372.28,30.83h2.59v1.73a5.28,5.28,0,0,1,4.28-2.09,5.07,5.07,0,0,1,4.29,2.05,6.72,6.72,0,0,1,.86,4v9.25h-2.59V36.59a4.37,4.37,0,0,0-.69-2.74,2.93,2.93,0,0,0-2.44-1.08A3.27,3.27,0,0,0,376,33.93a6.26,6.26,0,0,0-1.08,4v7.81h-2.59Z"/><path class="cls-2" d="M33.92,76.41V89H31.33V76.41H29.75V74h1.58v-5.4h2.59V74h2.59v2.38Z"/><path class="cls-2" d="M50.41,74H53V89H50.41V86.88A6.28,6.28,0,0,1,45.3,89.4c-3.78,0-7.27-2.66-7.27-7.92s3.45-7.81,7.27-7.81a6.17,6.17,0,0,1,5.11,2.48Zm-9.72,7.45c0,3.2,1.8,5.62,4.9,5.62s5-2.63,5-5.58c0-3.85-2.66-5.55-5-5.55C43,76,40.69,77.84,40.69,81.48Z"/><path class="cls-2" d="M64.05,77.49A2.28,2.28,0,0,0,62,76a1.65,1.65,0,0,0-1.8,1.7c0,1.08.72,1.4,2.41,2.12,2.16.9,3.17,1.58,3.74,2.3a3.53,3.53,0,0,1,.79,2.41c0,3.14-2.26,4.9-5.14,4.9a5.33,5.33,0,0,1-5.22-3.82L59,84.65a3.38,3.38,0,0,0,3,2.45,2.32,2.32,0,0,0,2.45-2.38c0-1.4-1-1.87-2.41-2.48A9.9,9.9,0,0,1,58.4,80a3.28,3.28,0,0,1-.68-2.2,4,4,0,0,1,4.35-4.17,4.3,4.3,0,0,1,4.11,2.7Z"/><path class="cls-2" d="M73.16,62.73V79.57L78.63,74H82l-6.41,6.41L83.17,89H79.78l-6-6.8-.65.64V89H70.57V62.73Z"/><path class="cls-2" d="M98.65,85.15a8.74,8.74,0,0,1-1.84,2.41,7.23,7.23,0,0,1-5,1.84c-3.59,0-7.37-2.27-7.37-7.81,0-4.46,2.73-7.92,7.23-7.92a6.67,6.67,0,0,1,5.65,2.74A10,10,0,0,1,98.76,82H87.13a4.79,4.79,0,0,0,4.75,5.08A4.54,4.54,0,0,0,94.94,86,6.15,6.15,0,0,0,96.49,84Zm-2.56-5.29A4.47,4.47,0,0,0,91.7,76a4.55,4.55,0,0,0-4.39,3.89Z"/><path class="cls-2" d="M110.17,81.55a7.92,7.92,0,1,1,7.92,7.85A7.67,7.67,0,0,1,110.17,81.55Zm2.66,0a5.26,5.26,0,1,0,10.51,0c0-3.67-2.52-5.58-5.25-5.58A5.2,5.2,0,0,0,112.83,81.55Z"/><path class="cls-2" d="M141.41,74H144V88.61a9.37,9.37,0,0,1-1.44,5.86,7.26,7.26,0,0,1-6,2.78,7.41,7.41,0,0,1-5.33-2,6.77,6.77,0,0,1-1.94-4.82h2.56A4.68,4.68,0,0,0,133,93.5a4.62,4.62,0,0,0,3.6,1.44,4.21,4.21,0,0,0,4-2.08,7,7,0,0,0,.82-3.82V86.88a6.28,6.28,0,0,1-5.11,2.52,7.13,7.13,0,0,1-5.11-2,8.06,8.06,0,0,1-2.16-5.9,7.83,7.83,0,0,1,2.16-5.79,7.35,7.35,0,0,1,5.11-2,6.21,6.21,0,0,1,5.11,2.48Zm-8.2,3.35a5.67,5.67,0,0,0-1.51,4.1,5.74,5.74,0,0,0,1.69,4.39,4.84,4.84,0,0,0,6.48,0,6.07,6.07,0,0,0,1.69-4.32A5.92,5.92,0,0,0,140,77.31,4.81,4.81,0,0,0,136.59,76,4.63,4.63,0,0,0,133.21,77.38Z"/><path class="cls-2" d="M159.88,62.73V79.57L165.35,74h3.39l-6.41,6.41L169.89,89h-3.38l-6-6.8-.65.64V89h-2.59V62.73Z"/><path class="cls-2" d="M183.93,74h2.59V89h-2.59V86.88a6.28,6.28,0,0,1-5.11,2.52c-3.78,0-7.27-2.66-7.27-7.92s3.45-7.81,7.27-7.81a6.17,6.17,0,0,1,5.11,2.48Zm-9.72,7.45c0,3.2,1.8,5.62,4.9,5.62s5-2.63,5-5.58c0-3.85-2.66-5.55-5-5.55C176.55,76,174.21,77.84,174.21,81.48Z"/><path class="cls-2" d="M191.42,74H194v1.73a5.28,5.28,0,0,1,4.28-2.09,5.07,5.07,0,0,1,4.29,2,6.72,6.72,0,0,1,.86,4V89h-2.59V79.79a4.41,4.41,0,0,0-.68-2.74A3,3,0,0,0,197.72,76a3.28,3.28,0,0,0-2.63,1.16,6.26,6.26,0,0,0-1.08,4V89h-2.59Z"/><path class="cls-2" d="M219.32,62.73V89h-2.59V62.73Z"/><path class="cls-2" d="M225.51,66.54a1.84,1.84,0,1,1-1.84,1.84A1.85,1.85,0,0,1,225.51,66.54Zm1.3,7.49V89h-2.6V74Z"/><path class="cls-2" d="M243.15,74h2.59V88.61a9.37,9.37,0,0,1-1.44,5.86,7.26,7.26,0,0,1-6,2.78,7.38,7.38,0,0,1-5.32-2,6.73,6.73,0,0,1-1.95-4.82h2.56a4.68,4.68,0,0,0,1.15,3.09,4.62,4.62,0,0,0,3.6,1.44,4.19,4.19,0,0,0,4-2.08,6.94,6.94,0,0,0,.83-3.82V86.88A6.31,6.31,0,0,1,238,89.4a7.11,7.11,0,0,1-5.11-2,8.06,8.06,0,0,1-2.16-5.9,7.83,7.83,0,0,1,2.16-5.79,7.33,7.33,0,0,1,5.11-2,6.24,6.24,0,0,1,5.11,2.48Zm-8.21,3.35a5.67,5.67,0,0,0-1.51,4.1,5.74,5.74,0,0,0,1.69,4.39,4.51,4.51,0,0,0,3.2,1.23,4.46,4.46,0,0,0,3.28-1.26,6.07,6.07,0,0,0,1.69-4.32,5.92,5.92,0,0,0-1.58-4.21A4.79,4.79,0,0,0,238.32,76,4.63,4.63,0,0,0,234.94,77.38Z"/><path class="cls-2" d="M263.88,85.15a8.89,8.89,0,0,1-1.83,2.41,7.23,7.23,0,0,1-5,1.84c-3.6,0-7.38-2.27-7.38-7.81,0-4.46,2.74-7.92,7.24-7.92a6.68,6.68,0,0,1,5.65,2.74A10.07,10.07,0,0,1,264,82H252.36a4.79,4.79,0,0,0,4.76,5.08A4.56,4.56,0,0,0,260.18,86,6,6,0,0,0,261.72,84Zm-2.55-5.29A4.47,4.47,0,0,0,256.94,76a4.55,4.55,0,0,0-4.4,3.89Z"/><path class="cls-2" d="M276.34,74h2.59v1.73a5.28,5.28,0,0,1,4.29-2.09,5.07,5.07,0,0,1,4.28,2,6.65,6.65,0,0,1,.86,4V89h-2.59V79.79a4.41,4.41,0,0,0-.68-2.74A3,3,0,0,0,282.64,76,3.28,3.28,0,0,0,280,77.13a6.26,6.26,0,0,0-1.08,4V89h-2.59Z"/><path class="cls-2" d="M304.71,74h2.59V89h-2.59V86.88a6.31,6.31,0,0,1-5.11,2.52c-3.78,0-7.28-2.66-7.28-7.92s3.46-7.81,7.28-7.81a6.2,6.2,0,0,1,5.11,2.48ZM295,81.48c0,3.2,1.8,5.62,4.89,5.62s5-2.63,5-5.58c0-3.85-2.66-5.55-5-5.55C297.33,76,295,77.84,295,81.48Zm5.47-16.59a3.1,3.1,0,1,1-3.1,3.09A3.11,3.11,0,0,1,300.46,64.89Zm0,4.6A1.51,1.51,0,1,0,299,68,1.57,1.57,0,0,0,300.46,69.49Z"/><path class="cls-2" d="M321.88,66.54A1.84,1.84,0,1,1,320,68.38,1.85,1.85,0,0,1,321.88,66.54Zm1.3,7.49V89h-2.6V74Z"/><path class="cls-2" d="M342.61,77.49A2.28,2.28,0,0,0,340.53,76a1.65,1.65,0,0,0-1.8,1.7c0,1.08.72,1.4,2.41,2.12,2.16.9,3.17,1.58,3.74,2.3a3.53,3.53,0,0,1,.79,2.41c0,3.14-2.26,4.9-5.14,4.9a5.33,5.33,0,0,1-5.22-3.82l2.23-.93a3.38,3.38,0,0,0,3,2.45A2.32,2.32,0,0,0,343,84.72c0-1.4-1-1.87-2.41-2.48A9.9,9.9,0,0,1,337,80a3.28,3.28,0,0,1-.68-2.2,4,4,0,0,1,4.35-4.17,4.3,4.3,0,0,1,4.11,2.7Z"/><path class="cls-2" d="M351.72,62.73V79.57L357.19,74h3.39l-6.41,6.41L361.73,89h-3.39l-6-6.8-.65.64V89h-2.59V62.73Z"/><path class="cls-2" d="M362.85,81.55a7.92,7.92,0,1,1,7.92,7.85A7.67,7.67,0,0,1,362.85,81.55Zm2.66,0a5.26,5.26,0,1,0,10.51,0c0-3.67-2.52-5.58-5.25-5.58A5.2,5.2,0,0,0,365.51,81.55Z"/><path class="cls-2" d="M385.24,62.73V89h-2.59V62.73Z"/><path class="cls-2" d="M403.38,85.15a8.74,8.74,0,0,1-1.84,2.41,7.21,7.21,0,0,1-5,1.84c-3.6,0-7.38-2.27-7.38-7.81,0-4.46,2.73-7.92,7.23-7.92a6.67,6.67,0,0,1,5.65,2.74A10,10,0,0,1,403.49,82H391.86a4.79,4.79,0,0,0,4.75,5.08A4.52,4.52,0,0,0,399.67,86,5.9,5.9,0,0,0,401.22,84Zm-2.56-5.29A4.47,4.47,0,0,0,396.43,76,4.55,4.55,0,0,0,392,79.86Z"/><path class="cls-2" d="M408.31,85.44l2.38.86-3.64,8.14-1.69-.69Z"/><path class="cls-2" d="M32.55,109.74a1.84,1.84,0,1,1-1.83,1.84A1.85,1.85,0,0,1,32.55,109.74Zm1.3,7.49v14.94H31.26V117.23Z"/><path class="cls-2" d="M38.75,117.23h2.59V119a5.28,5.28,0,0,1,4.28-2.09,5.07,5.07,0,0,1,4.29,2,6.72,6.72,0,0,1,.86,4v9.25H48.18V123a4.35,4.35,0,0,0-.69-2.74,2.93,2.93,0,0,0-2.44-1.08,3.27,3.27,0,0,0-2.63,1.16,6.26,6.26,0,0,0-1.08,4v7.81H38.75Z"/><path class="cls-2" d="M67.11,105.93H69.7v26.24H67.11v-2.09A6.28,6.28,0,0,1,62,132.6c-3.78,0-7.27-2.66-7.27-7.92s3.46-7.81,7.27-7.81a6.17,6.17,0,0,1,5.11,2.48Zm-9.72,18.75c0,3.2,1.8,5.62,4.9,5.62s5-2.63,5-5.58c0-3.85-2.67-5.55-5-5.55C59.73,119.17,57.39,121,57.39,124.68Z"/><path class="cls-2" d="M87.85,128.35A8.74,8.74,0,0,1,86,130.76a7.22,7.22,0,0,1-5,1.84c-3.6,0-7.38-2.27-7.38-7.81,0-4.46,2.73-7.92,7.23-7.92a6.67,6.67,0,0,1,5.65,2.74A10,10,0,0,1,88,125.22H76.33a4.79,4.79,0,0,0,4.75,5.08,4.54,4.54,0,0,0,3.06-1.08,6.22,6.22,0,0,0,1.55-2Zm-2.56-5.29a4.47,4.47,0,0,0-4.39-3.89,4.55,4.55,0,0,0-4.39,3.89Z"/><path class="cls-2" d="M91.92,117.23h2.59V119a5.28,5.28,0,0,1,4.28-2.09,5.07,5.07,0,0,1,4.29,2,6.72,6.72,0,0,1,.86,4v9.25h-2.59V123a4.35,4.35,0,0,0-.69-2.74,2.93,2.93,0,0,0-2.44-1.08,3.27,3.27,0,0,0-2.63,1.16,6.26,6.26,0,0,0-1.08,4v7.81H91.92Z"/><path class="cls-2" d="M119.82,105.93v16.84l5.47-5.54h3.38l-6.41,6.41,7.56,8.53h-3.38l-6-6.8-.64.64v6.16h-2.6V105.93Z"/><path class="cls-2" d="M135,105.93v26.24h-2.59V105.93Z"/><path class="cls-2" d="M139,124.75a7.92,7.92,0,1,1,7.92,7.85A7.67,7.67,0,0,1,139,124.75Zm2.66,0a5.26,5.26,0,1,0,10.51,0c0-3.67-2.52-5.58-5.25-5.58A5.2,5.2,0,0,0,141.63,124.75Z"/><path class="cls-2" d="M161.36,105.93v16.84l5.47-5.54h3.38l-6.4,6.41,7.56,8.53H168l-6-6.8-.65.64v6.16h-2.59V105.93Z"/><path class="cls-2" d="M176.55,105.93v16.84l5.47-5.54h3.39L179,123.64l7.56,8.53h-3.39l-6-6.8-.65.64v6.16H174V105.93Z"/><path class="cls-2" d="M202,128.35a8.74,8.74,0,0,1-1.84,2.41,7.22,7.22,0,0,1-5,1.84c-3.6,0-7.38-2.27-7.38-7.81,0-4.46,2.73-7.92,7.23-7.92a6.67,6.67,0,0,1,5.65,2.74,10,10,0,0,1,1.41,5.61H190.52a4.79,4.79,0,0,0,4.75,5.08,4.54,4.54,0,0,0,3.06-1.08,6.22,6.22,0,0,0,1.55-2Zm-2.56-5.29a4.47,4.47,0,0,0-4.39-3.89,4.55,4.55,0,0,0-4.39,3.89Z"/><path class="cls-2" d="M206.11,117.23h2.59V119a5.28,5.28,0,0,1,4.28-2.09,5.07,5.07,0,0,1,4.29,2,6.72,6.72,0,0,1,.86,4v9.25h-2.59V123a4.35,4.35,0,0,0-.69-2.74,2.93,2.93,0,0,0-2.44-1.08,3.27,3.27,0,0,0-2.63,1.16,6.26,6.26,0,0,0-1.08,4v7.81h-2.59Z"/><path class="cls-2" d="M231.41,117.23H234v1.62a4.12,4.12,0,0,1,3.38-2,5.49,5.49,0,0,1,2.3.61l-1.22,2.34a2.72,2.72,0,0,0-1.51-.5,2.52,2.52,0,0,0-2.09.93c-.43.58-.86,1.59-.86,4v7.88h-2.6Z"/><path class="cls-2" d="M243.37,109.74a1.84,1.84,0,1,1-1.84,1.84A1.85,1.85,0,0,1,243.37,109.74Zm1.29,7.49v14.94h-2.59V117.23Z"/><path class="cls-2" d="M249.56,117.23h2.59V119a5.28,5.28,0,0,1,4.28-2.09,5.07,5.07,0,0,1,4.29,2,6.72,6.72,0,0,1,.86,4v9.25H259V123a4.35,4.35,0,0,0-.69-2.74,2.93,2.93,0,0,0-2.44-1.08,3.27,3.27,0,0,0-2.63,1.16,6.26,6.26,0,0,0-1.08,4v7.81h-2.59Z"/><path class="cls-2" d="M277.92,117.23h2.6v14.58a9.37,9.37,0,0,1-1.44,5.86,7.26,7.26,0,0,1-6,2.78,7.41,7.41,0,0,1-5.33-2,6.73,6.73,0,0,1-1.94-4.82h2.55a4.68,4.68,0,0,0,1.16,3.09,4.61,4.61,0,0,0,3.6,1.44,4.19,4.19,0,0,0,4-2.08,7,7,0,0,0,.82-3.82v-2.16a6.28,6.28,0,0,1-5.11,2.52,7.13,7.13,0,0,1-5.11-2,8.06,8.06,0,0,1-2.16-5.9,7.83,7.83,0,0,1,2.16-5.79,7.35,7.35,0,0,1,5.11-2,6.21,6.21,0,0,1,5.11,2.48Zm-8.2,3.35a5.67,5.67,0,0,0-1.51,4.1,5.74,5.74,0,0,0,1.69,4.39,4.84,4.84,0,0,0,6.48,0,6.11,6.11,0,0,0,1.69-4.32,5.88,5.88,0,0,0-1.59-4.21,4.77,4.77,0,0,0-3.38-1.34A4.63,4.63,0,0,0,269.72,120.58Z"/><path class="cls-2" d="M298.66,128.35a8.74,8.74,0,0,1-1.84,2.41,7.21,7.21,0,0,1-5,1.84c-3.6,0-7.38-2.27-7.38-7.81,0-4.46,2.73-7.92,7.23-7.92a6.67,6.67,0,0,1,5.65,2.74,10,10,0,0,1,1.41,5.61H287.14a4.79,4.79,0,0,0,4.75,5.08,4.52,4.52,0,0,0,3.06-1.08,6.08,6.08,0,0,0,1.55-2Zm-2.56-5.29a4.47,4.47,0,0,0-4.39-3.89,4.55,4.55,0,0,0-4.39,3.89Z"/><path class="cls-2" d="M302.73,117.23h2.59v1.62a4.14,4.14,0,0,1,3.38-2,5.54,5.54,0,0,1,2.31.61l-1.23,2.34a2.68,2.68,0,0,0-1.51-.5,2.53,2.53,0,0,0-2.09.93c-.43.58-.86,1.59-.86,4v7.88h-2.59Z"/><path class="cls-2" d="M316,128.93a1.8,1.8,0,1,1-1.79,1.8A1.83,1.83,0,0,1,316,128.93Zm-1.29-1.62V108.16h2.59v19.15Z"/></g></g></svg>
