<svg xmlns="http://www.w3.org/2000/svg" viewBox="0 0 491.59 152.49"><defs><style>.cls-1{fill:#f4912d;stroke:#000;stroke-width:2.5px;}.cls-2{fill:#fff;}</style></defs><title>instruk5</title><g id="Layer_2" data-name="Layer 2"><g id="Layer_1-2" data-name="Layer 1"><g id="Lag_1-2" data-name="Lag 1-2"><path id="Taleboble" class="cls-1" d="M491.25,151.11s-12,1.4-21-5c-.4-.3-4.4,4.9-24,5-41.6.1-420,.06-420,.06s-25.2-2.4-25-30,0-94.85,0-94.85,1.3-24.9,28-25,425-.06,425-.06,25.5,1.1,26,22,1,114.85,1,114.85S478,147.41,491.25,151.11Z"/><path class="cls-2" d="M35.24,25.23,42,43.55l6.77-18.32h2.95L42,50.68,32.29,25.23Z"/><path class="cls-2" d="M56.09,26.82a1.84,1.84,0,1,1-1.84,1.83A1.84,1.84,0,0,1,56.09,26.82Zm1.29,7.48V49.24H54.79V34.3Z"/><path class="cls-2" d="M65.19,23V49.24H62.6V23Z"/><path class="cls-2" d="M90.57,23h2.59V49.24H90.57V47.15a6.28,6.28,0,0,1-5.11,2.52c-3.78,0-7.27-2.66-7.27-7.92s3.45-7.81,7.27-7.81a6.17,6.17,0,0,1,5.11,2.49ZM80.85,41.75c0,3.21,1.8,5.62,4.9,5.62s5-2.63,5-5.58c0-3.85-2.66-5.54-5-5.54C83.19,36.25,80.85,38.12,80.85,41.75Z"/><path class="cls-2" d="M101,43a5.1,5.1,0,0,0,.72,3.21,3.16,3.16,0,0,0,2.62,1.15A3.19,3.19,0,0,0,107,46.22a5.1,5.1,0,0,0,.72-3.21V34.3h2.59v9c0,1.84-.18,3.21-1.37,4.5a6.52,6.52,0,0,1-9.14,0c-1.19-1.29-1.37-2.66-1.37-4.5v-9H101Z"/><path class="cls-2" d="M135.64,23h2.59V49.24h-2.59V47.15a6.28,6.28,0,0,1-5.11,2.52c-3.78,0-7.27-2.66-7.27-7.92s3.45-7.81,7.27-7.81a6.17,6.17,0,0,1,5.11,2.49Zm-9.72,18.75c0,3.21,1.8,5.62,4.9,5.62s5-2.63,5-5.58c0-3.85-2.67-5.54-5-5.54C128.26,36.25,125.92,38.12,125.92,41.75Z"/><path class="cls-2" d="M156.7,45.43a9,9,0,0,1-1.84,2.41,7.23,7.23,0,0,1-5,1.83c-3.6,0-7.38-2.26-7.38-7.81,0-4.46,2.73-7.92,7.23-7.92a6.65,6.65,0,0,1,5.65,2.74,10,10,0,0,1,1.41,5.61H145.18a4.79,4.79,0,0,0,4.75,5.08A4.52,4.52,0,0,0,153,46.29a5.87,5.87,0,0,0,1.55-2Zm-2.56-5.3a4.46,4.46,0,0,0-4.39-3.88,4.54,4.54,0,0,0-4.39,3.88Z"/><path class="cls-2" d="M163.69,23V49.24h-2.6V23Z"/><path class="cls-2" d="M182.15,45.43a9.21,9.21,0,0,1-1.83,2.41,7.27,7.27,0,0,1-5,1.83c-3.6,0-7.38-2.26-7.38-7.81,0-4.46,2.74-7.92,7.24-7.92a6.68,6.68,0,0,1,5.65,2.74,10.07,10.07,0,0,1,1.4,5.61H170.63a4.79,4.79,0,0,0,4.75,5.08,4.52,4.52,0,0,0,3.06-1.08,5.87,5.87,0,0,0,1.55-2Zm-2.55-5.3a4.47,4.47,0,0,0-4.39-3.88,4.54,4.54,0,0,0-4.4,3.88Z"/><path class="cls-2" d="M206.7,23h2.6V49.24h-2.6V47.15a6.28,6.28,0,0,1-5.11,2.52c-3.78,0-7.27-2.66-7.27-7.92s3.46-7.81,7.27-7.81a6.17,6.17,0,0,1,5.11,2.49ZM197,41.75c0,3.21,1.8,5.62,4.9,5.62s5-2.63,5-5.58c0-3.85-2.67-5.54-5-5.54C199.32,36.25,197,38.12,197,41.75Z"/><path class="cls-2" d="M215.45,26.82a1.84,1.84,0,1,1-1.83,1.83A1.84,1.84,0,0,1,215.45,26.82Zm1.3,7.48V49.24h-2.59V34.3Z"/><path class="cls-2" d="M222,34.3h2.59V36a5.28,5.28,0,0,1,4.28-2.09A5.07,5.07,0,0,1,233.13,36a6.72,6.72,0,0,1,.86,4v9.25H231.4V40.06a4.38,4.38,0,0,0-.68-2.73,2.94,2.94,0,0,0-2.45-1.08,3.27,3.27,0,0,0-2.63,1.15,6.28,6.28,0,0,0-1.08,4v7.81H222Z"/><path class="cls-2" d="M252.46,45.43a9,9,0,0,1-1.84,2.41,7.27,7.27,0,0,1-5,1.83c-3.59,0-7.37-2.26-7.37-7.81,0-4.46,2.73-7.92,7.23-7.92a6.67,6.67,0,0,1,5.65,2.74,10,10,0,0,1,1.41,5.61H240.94a4.79,4.79,0,0,0,4.75,5.08,4.54,4.54,0,0,0,3.06-1.08,6.12,6.12,0,0,0,1.55-2Zm-2.56-5.3a4.46,4.46,0,0,0-4.39-3.88,4.54,4.54,0,0,0-4.39,3.88Z"/><path class="cls-2" d="M271.72,37.76a2.29,2.29,0,0,0-2.09-1.51,1.65,1.65,0,0,0-1.8,1.69c0,1.08.72,1.4,2.41,2.12,2.16.9,3.17,1.59,3.75,2.31a3.56,3.56,0,0,1,.79,2.41c0,3.13-2.27,4.89-5.15,4.89a5.34,5.34,0,0,1-5.22-3.81l2.23-.94a3.4,3.4,0,0,0,3,2.45A2.31,2.31,0,0,0,272.11,45c0-1.4-1-1.87-2.41-2.48a9.62,9.62,0,0,1-3.63-2.2,3.22,3.22,0,0,1-.69-2.19,4,4,0,0,1,4.36-4.18,4.32,4.32,0,0,1,4.1,2.7Z"/><path class="cls-2" d="M281.15,43a5.1,5.1,0,0,0,.72,3.21,3.58,3.58,0,0,0,5.26,0,5.1,5.1,0,0,0,.72-3.21V34.3h2.59v9c0,1.84-.18,3.21-1.37,4.5a6.52,6.52,0,0,1-9.14,0c-1.19-1.29-1.37-2.66-1.37-4.5v-9h2.59Z"/><path class="cls-2" d="M295.66,34.3h2.59v1.62a4.16,4.16,0,0,1,3.38-2,5.4,5.4,0,0,1,2.31.62l-1.23,2.33a2.68,2.68,0,0,0-1.51-.5,2.51,2.51,0,0,0-2.09.94c-.43.57-.86,1.58-.86,4v7.88h-2.59Z"/><path class="cls-2" d="M319,45.43a9,9,0,0,1-1.84,2.41,7.23,7.23,0,0,1-5,1.83c-3.6,0-7.38-2.26-7.38-7.81,0-4.46,2.73-7.92,7.23-7.92a6.67,6.67,0,0,1,5.65,2.74,10,10,0,0,1,1.41,5.61H307.5a4.79,4.79,0,0,0,4.75,5.08,4.52,4.52,0,0,0,3.06-1.08,5.87,5.87,0,0,0,1.55-2Zm-2.55-5.3a4.47,4.47,0,0,0-4.4-3.88,4.54,4.54,0,0,0-4.39,3.88Z"/><path class="cls-2" d="M338.28,37.76a2.29,2.29,0,0,0-2.09-1.51,1.65,1.65,0,0,0-1.8,1.69c0,1.08.72,1.4,2.41,2.12,2.16.9,3.17,1.59,3.75,2.31a3.51,3.51,0,0,1,.79,2.41c0,3.13-2.27,4.89-5.15,4.89A5.34,5.34,0,0,1,331,45.86l2.23-.94a3.4,3.4,0,0,0,3,2.45A2.32,2.32,0,0,0,338.68,45c0-1.4-1-1.87-2.42-2.48a9.62,9.62,0,0,1-3.63-2.2,3.22,3.22,0,0,1-.69-2.19,4,4,0,0,1,4.36-4.18,4.31,4.31,0,0,1,4.1,2.7Z"/><path class="cls-2" d="M344.18,41.83a7.92,7.92,0,1,1,7.92,7.84A7.67,7.67,0,0,1,344.18,41.83Zm2.67,0a5.26,5.26,0,1,0,10.51,0,5.26,5.26,0,1,0-10.51,0Z"/><path class="cls-2" d="M366.9,23V39.85l5.47-5.55h3.39l-6.41,6.41,7.56,8.53h-3.39l-6-6.8-.65.65v6.15h-2.59V23Z"/><path class="cls-2" d="M382.41,23V39.85l5.48-5.55h3.38l-6.41,6.41,7.56,8.53H389l-6-6.8-.65.65v6.15h-2.59V23Z"/><path class="cls-2" d="M408.23,45.43a9.25,9.25,0,0,1-1.84,2.41,7.27,7.27,0,0,1-5,1.83c-3.6,0-7.38-2.26-7.38-7.81,0-4.46,2.74-7.92,7.24-7.92a6.68,6.68,0,0,1,5.65,2.74,9.91,9.91,0,0,1,1.4,5.61H396.71a4.78,4.78,0,0,0,4.75,5.08,4.56,4.56,0,0,0,3.06-1.08,6.12,6.12,0,0,0,1.55-2Zm-2.56-5.3a4.46,4.46,0,0,0-4.39-3.88,4.52,4.52,0,0,0-4.39,3.88Z"/><path class="cls-2" d="M412.62,34.3h2.59v1.62a4.16,4.16,0,0,1,3.38-2,5.4,5.4,0,0,1,2.31.62l-1.23,2.33a2.68,2.68,0,0,0-1.51-.5,2.51,2.51,0,0,0-2.09.94c-.43.57-.86,1.58-.86,4v7.88h-2.59Z"/><path class="cls-2" d="M434.14,38.84a5.85,5.85,0,0,1-1.47,4.07A4.92,4.92,0,0,1,429,44.35a4.94,4.94,0,0,1-5.18-5.15,4.55,4.55,0,0,1,3-4.46,28.57,28.57,0,0,1,3-1,3.05,3.05,0,0,0,2.3-3.17,3.28,3.28,0,0,0-.94-2.52,3.12,3.12,0,0,0-2.19-.76,3.34,3.34,0,0,0-2.27.76,3.45,3.45,0,0,0-.94,2.41A5.57,5.57,0,0,0,426,32h-2.66a7.19,7.19,0,0,1-.15-1.58,5.52,5.52,0,0,1,1.37-3.89,5.85,5.85,0,0,1,10.22,4.14,5,5,0,0,1-1.22,3.53A6.6,6.6,0,0,1,430.8,36a26.65,26.65,0,0,0-2.59.9,2.64,2.64,0,0,0-1.77,2.52,2.52,2.52,0,0,0,.72,1.87,2.47,2.47,0,0,0,1.77.65,2.44,2.44,0,0,0,1.76-.65,3.65,3.65,0,0,0,.86-2.41ZM429,46.07a1.8,1.8,0,1,1-1.8,1.8A1.83,1.83,0,0,1,429,46.07Z"/></g></g></g></svg>
