<svg xmlns="http://www.w3.org/2000/svg" width="491.59" height="152.49" viewBox="0 0 491.59 152.49"><defs><style>.cls-1{fill:#f4912d;stroke:#000;stroke-width:2.5px;}.cls-2{isolation:isolate;font-size:36px;fill:#fff;font-family:Futura-Medium, Futura;}.cls-3{letter-spacing:0.01em;}.cls-4{letter-spacing:-0.01em;}.cls-5{letter-spacing:-0.02em;}</style></defs><title>instruk5</title><g id="Lag_2" data-name="Lag 2"><g id="Lag_1-2" data-name="Lag 1"><path id="Taleboble" class="cls-1" d="M491.25,151.11s-12,1.4-21-5c-.4-.3-4.4,4.9-24,5-41.6.1-420,.06-420,.06s-25.2-2.4-25-30,0-94.85,0-94.85,1.3-24.9,28-25,425-.06,425-.06,25.5,1.1,26,22,1,114.85,1,114.85S478,147.41,491.25,151.11Z"/><text class="cls-2" transform="translate(28.6 55.25)"><tspan class="cls-3">V</tspan><tspan x="24.7" y="0">il du dele dine su</tspan><tspan class="cls-4" x="303.08" y="0">r</tspan><tspan x="316.3" y="0">e </tspan><tspan x="0" y="43.2">sok</tspan><tspan class="cls-5" x="54.18" y="43.2">k</tspan><tspan x="71.53" y="43.2">er? </tspan></text></g></g></svg>
