<svg xmlns="http://www.w3.org/2000/svg" viewBox="0 0 491.54 419.25"><defs><style>.cls-1{fill:#f4912d;stroke:#000;stroke-width:2.5px;}.cls-2{fill:#fff;}</style></defs><title>instruk7</title><g id="Layer_2" data-name="Layer 2"><g id="Layer_1-2" data-name="Layer 1"><path id="Taleboble" class="cls-1" d="M491.25,417.89s-12,1.19-21-4.25c-.4-.26-4.4,4.16-24,4.25-41.6.08-420,.05-420,.05s-25.2-2-25-25.49,0-369.9,0-369.9,1.3-21.16,28-21.24,425-.05,425-.05,25.5.93,26,18.69,1,386.89,1,386.89S478,414.74,491.25,417.89Z"/><path class="cls-2" d="M39.55,27.75H29.76v7.13h9.5V37.4h-9.5v9.32h9.79v2.52H27.1v-24H39.55Z"/><path class="cls-2" d="M44.84,34.3l4.47,10.08L53.77,34.3h2.88L49.31,50.21,42,34.3Z"/><path class="cls-2" d="M71.16,34.3h2.59V49.24H71.16V47.15a6.29,6.29,0,0,1-5.11,2.52c-3.78,0-7.27-2.66-7.27-7.92s3.45-7.81,7.27-7.81a6.19,6.19,0,0,1,5.11,2.49Zm-9.72,7.45c0,3.21,1.8,5.62,4.9,5.62s5-2.63,5-5.58c0-3.85-2.66-5.54-5-5.54C63.78,36.25,61.44,38.12,61.44,41.75Z"/><path class="cls-2" d="M90.35,36.68V49.24H87.76V36.68H86.17V34.3h1.59V28.9h2.59v5.4h2.59v2.38Z"/><path class="cls-2" d="M94.78,41.83a7.92,7.92,0,1,1,7.91,7.84A7.67,7.67,0,0,1,94.78,41.83Zm2.66,0a5.26,5.26,0,1,0,10.51,0,5.26,5.26,0,1,0-10.51,0Z"/><path class="cls-2" d="M126.34,34.3h2.6V48.88a9.4,9.4,0,0,1-1.44,5.87,7.28,7.28,0,0,1-6,2.77,7.41,7.41,0,0,1-5.33-2,6.73,6.73,0,0,1-1.94-4.82h2.56a4.43,4.43,0,0,0,4.75,4.54,4.2,4.2,0,0,0,4-2.09,7,7,0,0,0,.82-3.82V47.15a6.28,6.28,0,0,1-5.11,2.52,7.16,7.16,0,0,1-5.11-2A8.09,8.09,0,0,1,114,41.75,7.83,7.83,0,0,1,116.12,36a7.39,7.39,0,0,1,5.11-2,6.19,6.19,0,0,1,5.11,2.49Zm-8.2,3.35a5.69,5.69,0,0,0-1.51,4.1,5.78,5.78,0,0,0,1.69,4.4,4.53,4.53,0,0,0,3.2,1.22,4.42,4.42,0,0,0,3.28-1.26,6.05,6.05,0,0,0,1.69-4.32,5.93,5.93,0,0,0-1.58-4.21,4.8,4.8,0,0,0-3.39-1.33A4.63,4.63,0,0,0,118.14,37.65Z"/><path class="cls-2" d="M154.32,23h2.59V49.24h-2.59V47.15a6.31,6.31,0,0,1-5.12,2.52c-3.77,0-7.27-2.66-7.27-7.92s3.46-7.81,7.27-7.81a6.21,6.21,0,0,1,5.12,2.49ZM144.6,41.75c0,3.21,1.8,5.62,4.89,5.62s5-2.63,5-5.58c0-3.85-2.66-5.54-5-5.54C146.94,36.25,144.6,38.12,144.6,41.75Z"/><path class="cls-2" d="M163.07,26.82a1.84,1.84,0,1,1-1.84,1.83A1.84,1.84,0,0,1,163.07,26.82Zm1.29,7.48V49.24h-2.59V34.3Z"/><path class="cls-2" d="M169.58,34.3h2.59V36a5.28,5.28,0,0,1,4.29-2.09A5.07,5.07,0,0,1,180.74,36a6.65,6.65,0,0,1,.86,4v9.25H179V40.06a4.38,4.38,0,0,0-.68-2.73,2.94,2.94,0,0,0-2.45-1.08,3.27,3.27,0,0,0-2.63,1.15,6.34,6.34,0,0,0-1.08,4v7.81h-2.59Z"/><path class="cls-2" d="M198.2,36.68V49.24h-2.59V36.68H194V34.3h1.58V28.9h2.59v5.4h2.59v2.38Z"/><path class="cls-2" d="M216.81,45.43A9,9,0,0,1,215,47.84a7.23,7.23,0,0,1-5,1.83c-3.6,0-7.38-2.26-7.38-7.81,0-4.46,2.73-7.92,7.23-7.92a6.67,6.67,0,0,1,5.65,2.74,10,10,0,0,1,1.41,5.61H205.29A4.79,4.79,0,0,0,210,47.37a4.52,4.52,0,0,0,3.06-1.08,5.87,5.87,0,0,0,1.55-2Zm-2.56-5.3a4.46,4.46,0,0,0-4.39-3.88,4.54,4.54,0,0,0-4.39,3.88Z"/><path class="cls-2" d="M223.8,23V49.24h-2.6V23Z"/><path class="cls-2" d="M242.26,45.43a9.21,9.21,0,0,1-1.83,2.41,7.27,7.27,0,0,1-5,1.83c-3.6,0-7.38-2.26-7.38-7.81,0-4.46,2.74-7.92,7.23-7.92A6.69,6.69,0,0,1,241,36.68a10.07,10.07,0,0,1,1.4,5.61H230.74a4.79,4.79,0,0,0,4.75,5.08,4.52,4.52,0,0,0,3.06-1.08,5.87,5.87,0,0,0,1.55-2Zm-2.55-5.3a4.47,4.47,0,0,0-4.4-3.88,4.54,4.54,0,0,0-4.39,3.88Z"/><path class="cls-2" d="M249.32,36.68V49.24h-2.59V36.68h-1.44V34.3h1.44V27.79c0-1.37.11-3.1,1.44-4.21a4.6,4.6,0,0,1,3-1,5,5,0,0,1,1.84.33v2.52a4.62,4.62,0,0,0-1.69-.33,1.83,1.83,0,0,0-1.66.8,4.53,4.53,0,0,0-.32,2.16V34.3H253v2.38Z"/><path class="cls-2" d="M254.68,41.83a7.92,7.92,0,1,1,7.92,7.84A7.67,7.67,0,0,1,254.68,41.83Zm2.67,0a5.26,5.26,0,1,0,10.51,0,5.26,5.26,0,1,0-10.51,0Z"/><path class="cls-2" d="M274.81,34.3h2.59V36a5.28,5.28,0,0,1,4.28-2.09A5.09,5.09,0,0,1,286,36a6.72,6.72,0,0,1,.86,4v9.25h-2.59V40.06a4.33,4.33,0,0,0-.69-2.73,2.91,2.91,0,0,0-2.44-1.08,3.26,3.26,0,0,0-2.63,1.15,6.28,6.28,0,0,0-1.08,4v7.81h-2.59Z"/><path class="cls-2" d="M292.91,45.71l2.38.87-3.64,8.13L290,54Z"/><path class="cls-2" d="M311.88,43a5.1,5.1,0,0,0,.72,3.21,3.58,3.58,0,0,0,5.26,0,5.1,5.1,0,0,0,.72-3.21V34.3h2.59v9c0,1.84-.18,3.21-1.37,4.5a6.52,6.52,0,0,1-9.14,0c-1.19-1.29-1.37-2.66-1.37-4.5v-9h2.59Z"/><path class="cls-2" d="M337.84,23h2.59V49.24h-2.59V47.15a6.28,6.28,0,0,1-5.11,2.52c-3.78,0-7.27-2.66-7.27-7.92s3.45-7.81,7.27-7.81a6.17,6.17,0,0,1,5.11,2.49Zm-9.72,18.75c0,3.21,1.8,5.62,4.9,5.62s5-2.63,5-5.58c0-3.85-2.66-5.54-5-5.54C330.46,36.25,328.12,38.12,328.12,41.75Z"/><path class="cls-2" d="M358.9,45.43a9,9,0,0,1-1.84,2.41,7.25,7.25,0,0,1-5,1.83c-3.6,0-7.38-2.26-7.38-7.81,0-4.46,2.73-7.92,7.23-7.92a6.67,6.67,0,0,1,5.65,2.74A10,10,0,0,1,359,42.29H347.38a4.79,4.79,0,0,0,4.75,5.08,4.52,4.52,0,0,0,3.06-1.08,5.87,5.87,0,0,0,1.55-2Zm-2.56-5.3A4.46,4.46,0,0,0,352,36.25a4.54,4.54,0,0,0-4.39,3.88Z"/><path class="cls-2" d="M363.29,34.3h2.59V36a5.28,5.28,0,0,1,4.29-2.09A5.07,5.07,0,0,1,374.45,36a6.65,6.65,0,0,1,.86,4v9.25h-2.59V40.06a4.38,4.38,0,0,0-.68-2.73,2.93,2.93,0,0,0-2.45-1.08A3.27,3.27,0,0,0,367,37.4a6.34,6.34,0,0,0-1.08,4v7.81h-2.59Z"/><path class="cls-2" d="M400.69,34.3h2.6V49.24h-2.6V47.15a6.28,6.28,0,0,1-5.11,2.52c-3.78,0-7.27-2.66-7.27-7.92s3.46-7.81,7.27-7.81a6.17,6.17,0,0,1,5.11,2.49ZM391,41.75c0,3.21,1.8,5.62,4.89,5.62s5-2.63,5-5.58c0-3.85-2.66-5.54-5-5.54C393.32,36.25,391,38.12,391,41.75Z"/><path class="cls-2" d="M411.17,36.68V49.24h-2.59V36.68H407V34.3h1.58V28.9h2.59v5.4h2.59v2.38Z"/><path class="cls-2" d="M32.6,81a2.27,2.27,0,0,0-2.08-1.51,1.65,1.65,0,0,0-1.8,1.69c0,1.08.72,1.4,2.41,2.12,2.16.9,3.17,1.59,3.74,2.31A3.51,3.51,0,0,1,35.66,88c0,3.13-2.26,4.89-5.14,4.89a5.33,5.33,0,0,1-5.22-3.81l2.23-.94a3.38,3.38,0,0,0,3,2.45A2.32,2.32,0,0,0,33,88.19c0-1.4-1-1.87-2.41-2.48A9.77,9.77,0,0,1,27,83.51a3.27,3.27,0,0,1-.68-2.19,4,4,0,0,1,4.35-4.18,4.32,4.32,0,0,1,4.11,2.7Z"/><path class="cls-2" d="M42,100.72H39.45V77.5H42v2.09a6.44,6.44,0,0,1,5.11-2.45c4.68,0,7.27,3.89,7.27,7.92s-2.63,7.81-7.16,7.81A6.32,6.32,0,0,1,42,90.35Zm9.72-15.66c0-3.67-2.49-5.61-4.9-5.61s-5,2-5,5.58c0,3.06,2,5.54,5,5.54S51.76,88.05,51.76,85.06Z"/><path class="cls-2" d="M72,80.17A7.37,7.37,0,0,1,73.61,85a7.64,7.64,0,0,1-7.92,7.84,7.73,7.73,0,0,1-4.83-1.51l-2.19,2.16L57,91.9l2.2-2.16a8,8,0,0,1,6.48-12.6,7.53,7.53,0,0,1,4.68,1.44l2.19-2.16L74.15,78Zm-3.45.1a5.12,5.12,0,0,0-2.88-.82c-2.74,0-5.26,1.9-5.26,5.58a6.33,6.33,0,0,0,.69,3ZM62.7,89.63a4.93,4.93,0,0,0,3,.94A5.15,5.15,0,0,0,70.94,85a6.12,6.12,0,0,0-.79-3.1Z"/><path class="cls-2" d="M77.89,77.5h2.59v1.62a4.19,4.19,0,0,1,3.39-2,5.39,5.39,0,0,1,2.3.62L85,80.09a2.72,2.72,0,0,0-1.51-.5,2.48,2.48,0,0,0-2.09.94c-.43.57-.87,1.58-.87,4v7.88H77.89Z"/><path class="cls-2" d="M99.45,77.5h2.6V92.08A9.41,9.41,0,0,1,100.61,98a7.28,7.28,0,0,1-6,2.77,7.39,7.39,0,0,1-5.33-2,6.73,6.73,0,0,1-1.94-4.82h2.56A4.7,4.7,0,0,0,91.07,97a4.64,4.64,0,0,0,3.6,1.44,4.2,4.2,0,0,0,4-2.09,7,7,0,0,0,.82-3.82V90.35a6.28,6.28,0,0,1-5.11,2.52,7.16,7.16,0,0,1-5.11-2A8.09,8.09,0,0,1,87.07,85a7.83,7.83,0,0,1,2.16-5.79,7.35,7.35,0,0,1,5.11-2,6.19,6.19,0,0,1,5.11,2.49Zm-8.2,3.35A5.69,5.69,0,0,0,89.74,85a5.78,5.78,0,0,0,1.69,4.4,4.53,4.53,0,0,0,3.2,1.22,4.42,4.42,0,0,0,3.28-1.26A6.09,6.09,0,0,0,99.6,85,5.89,5.89,0,0,0,98,80.78a4.76,4.76,0,0,0-3.38-1.33A4.63,4.63,0,0,0,91.25,80.85Z"/><path class="cls-2" d="M120.51,88.63A9.21,9.21,0,0,1,118.68,91a7.27,7.27,0,0,1-5,1.83c-3.6,0-7.38-2.26-7.38-7.81,0-4.46,2.74-7.92,7.24-7.92a6.68,6.68,0,0,1,5.65,2.74,10.07,10.07,0,0,1,1.4,5.61H109a4.79,4.79,0,0,0,4.76,5.08,4.56,4.56,0,0,0,3.06-1.08,6,6,0,0,0,1.54-2ZM118,83.33a4.46,4.46,0,0,0-4.39-3.88,4.52,4.52,0,0,0-4.39,3.88Z"/><path class="cls-2" d="M132.68,85a7.92,7.92,0,1,1,7.92,7.84A7.67,7.67,0,0,1,132.68,85Zm2.67,0a5.26,5.26,0,1,0,10.51,0c0-3.68-2.52-5.58-5.26-5.58A5.19,5.19,0,0,0,135.35,85Z"/><path class="cls-2" d="M152.81,77.5h2.59v1.59a4.33,4.33,0,0,1,3.71-2,4.45,4.45,0,0,1,4.06,2.42,5,5,0,0,1,4.5-2.42c4.43,0,4.86,3.71,4.86,5.83v9.47h-2.59V83.37c0-1.69-.22-3.92-2.66-3.92-3,0-3.31,2.88-3.31,4.68v8.31h-2.6V83.59c0-1,0-4.14-2.7-4.14-2.95,0-3.27,3.06-3.27,4.86v8.13h-2.59Z"/><path class="cls-2" d="M189.09,66.2V92.44H186.5V66.2Z"/><path class="cls-2" d="M193.38,85a7.92,7.92,0,1,1,7.92,7.84A7.67,7.67,0,0,1,193.38,85ZM196,85a5.26,5.26,0,1,0,10.51,0c0-3.68-2.52-5.58-5.25-5.58A5.19,5.19,0,0,0,196,85Z"/><path class="cls-2" d="M214.22,77.5l4.47,10.08,4.46-10.08H226l-7.34,15.91L211.34,77.5Z"/><path class="cls-2" d="M229.27,89.2a1.8,1.8,0,1,1-1.8,1.8A1.83,1.83,0,0,1,229.27,89.2Z"/><path class="cls-2" d="M245.51,68.43h4.89a13.06,13.06,0,0,1,8.86,2.81,11.73,11.73,0,0,1,4.1,9.21,11.44,11.44,0,0,1-4.21,9.22c-2.2,1.87-4.5,2.77-8.79,2.77h-4.85Zm2.66,21.49h2.34a10.21,10.21,0,0,0,6.87-2.16,9.19,9.19,0,0,0,3.24-7.31c0-5.75-4-9.5-10.11-9.5h-2.34Z"/><path class="cls-2" d="M281.18,88.63A9,9,0,0,1,279.34,91a7.25,7.25,0,0,1-5,1.83c-3.6,0-7.38-2.26-7.38-7.81,0-4.46,2.73-7.92,7.23-7.92a6.67,6.67,0,0,1,5.65,2.74,10,10,0,0,1,1.41,5.61H269.66a4.79,4.79,0,0,0,4.75,5.08,4.52,4.52,0,0,0,3.06-1.08,5.87,5.87,0,0,0,1.55-2Zm-2.56-5.3a4.46,4.46,0,0,0-4.39-3.88,4.54,4.54,0,0,0-4.39,3.88Z"/><path class="cls-2" d="M288.24,79.88V92.44h-2.6V79.88h-1.58V77.5h1.58V72.1h2.6v5.4h2.59v2.38Z"/><path class="cls-2" d="M315.56,88.63A9,9,0,0,1,313.72,91a7.26,7.26,0,0,1-5,1.83c-3.6,0-7.38-2.26-7.38-7.81,0-4.46,2.73-7.92,7.23-7.92a6.67,6.67,0,0,1,5.65,2.74,10,10,0,0,1,1.41,5.61H304a4.79,4.79,0,0,0,4.75,5.08,4.54,4.54,0,0,0,3.06-1.08,6.12,6.12,0,0,0,1.55-2ZM313,83.33a4.46,4.46,0,0,0-4.39-3.88,4.54,4.54,0,0,0-4.39,3.88Z"/><path class="cls-2" d="M320,77.5h2.59v1.62a4.19,4.19,0,0,1,3.39-2,5.39,5.39,0,0,1,2.3.62L327,80.09a2.72,2.72,0,0,0-1.51-.5,2.48,2.48,0,0,0-2.09.94c-.43.57-.87,1.58-.87,4v7.88H320Z"/><path class="cls-2" d="M345.8,81a2.29,2.29,0,0,0-2.09-1.51,1.65,1.65,0,0,0-1.8,1.69c0,1.08.72,1.4,2.41,2.12,2.16.9,3.17,1.59,3.75,2.31a3.56,3.56,0,0,1,.79,2.41c0,3.13-2.27,4.89-5.15,4.89a5.34,5.34,0,0,1-5.22-3.81l2.23-.94a3.39,3.39,0,0,0,3,2.45,2.31,2.31,0,0,0,2.44-2.38c0-1.4-1-1.87-2.41-2.48a9.62,9.62,0,0,1-3.63-2.2,3.22,3.22,0,0,1-.69-2.19,4,4,0,0,1,4.36-4.18,4.32,4.32,0,0,1,4.1,2.7Z"/><path class="cls-2" d="M364.09,77.5h2.59V92.44h-2.59V90.35A6.31,6.31,0,0,1,359,92.87c-3.78,0-7.27-2.66-7.27-7.92s3.46-7.81,7.27-7.81a6.21,6.21,0,0,1,5.12,2.49ZM354.37,85c0,3.21,1.8,5.62,4.89,5.62s5-2.63,5-5.58c0-3.85-2.66-5.54-5-5.54C356.71,79.45,354.37,81.32,354.37,85Zm5.47-16.59a3.1,3.1,0,1,1-3.1,3.1A3.11,3.11,0,0,1,359.84,68.36Zm0,4.61a1.52,1.52,0,1,0-1.51-1.51A1.57,1.57,0,0,0,359.84,73Z"/><path class="cls-2" d="M32.6,124.16a2.27,2.27,0,0,0-2.08-1.51,1.65,1.65,0,0,0-1.8,1.69c0,1.08.72,1.4,2.41,2.12,2.16.9,3.17,1.59,3.74,2.31a3.51,3.51,0,0,1,.79,2.41c0,3.13-2.26,4.89-5.14,4.89a5.33,5.33,0,0,1-5.22-3.81l2.23-.94a3.38,3.38,0,0,0,3,2.45A2.32,2.32,0,0,0,33,131.39c0-1.4-1-1.87-2.41-2.48a9.77,9.77,0,0,1-3.64-2.2,3.25,3.25,0,0,1-.68-2.19,4,4,0,0,1,4.35-4.18,4.32,4.32,0,0,1,4.11,2.7Z"/><path class="cls-2" d="M42.11,123.08v12.56H39.52V123.08H37.93V120.7h1.59v-5.4h2.59v5.4H44.7v2.38Z"/><path class="cls-2" d="M47.47,120.7h2.59v1.62a4.19,4.19,0,0,1,3.39-2,5.53,5.53,0,0,1,2.3.61l-1.22,2.34a2.72,2.72,0,0,0-1.51-.5,2.48,2.48,0,0,0-2.09.94c-.43.57-.87,1.58-.87,4v7.88H47.47Z"/><path class="cls-2" d="M70.84,131.83A9.25,9.25,0,0,1,69,134.24a7.27,7.27,0,0,1-5,1.83c-3.6,0-7.38-2.26-7.38-7.81,0-4.46,2.74-7.92,7.24-7.92a6.68,6.68,0,0,1,5.65,2.74,9.91,9.91,0,0,1,1.4,5.61H59.32a4.78,4.78,0,0,0,4.75,5.08,4.56,4.56,0,0,0,3.06-1.08,6.12,6.12,0,0,0,1.55-2.05Zm-2.56-5.29a4.47,4.47,0,0,0-4.39-3.89,4.52,4.52,0,0,0-4.39,3.89Z"/><path class="cls-2" d="M75.23,120.7h2.59v1.73a5.28,5.28,0,0,1,4.28-2.09,5.06,5.06,0,0,1,4.29,2.06,6.69,6.69,0,0,1,.86,4v9.25H84.66v-9.18a4.38,4.38,0,0,0-.68-2.73,2.94,2.94,0,0,0-2.45-1.08,3.27,3.27,0,0,0-2.63,1.15,6.28,6.28,0,0,0-1.08,4v7.81H75.23Z"/><path class="cls-2" d="M103.92,120.7h2.59v14.58a9.41,9.41,0,0,1-1.44,5.87,7.28,7.28,0,0,1-6,2.77,7.42,7.42,0,0,1-5.32-2,6.74,6.74,0,0,1-2-4.83h2.56a4.7,4.7,0,0,0,1.15,3.1,4.62,4.62,0,0,0,3.6,1.44,4.18,4.18,0,0,0,4-2.09,6.92,6.92,0,0,0,.83-3.82v-2.16a6.31,6.31,0,0,1-5.11,2.52,7.15,7.15,0,0,1-5.11-2,8.09,8.09,0,0,1-2.16-5.91,7.83,7.83,0,0,1,2.16-5.79,7.36,7.36,0,0,1,5.11-2,6.22,6.22,0,0,1,5.11,2.49Zm-8.21,3.35a5.69,5.69,0,0,0-1.51,4.1,5.78,5.78,0,0,0,1.69,4.4,4.55,4.55,0,0,0,3.2,1.22,4.42,4.42,0,0,0,3.28-1.26,6.05,6.05,0,0,0,1.69-4.32,5.93,5.93,0,0,0-1.58-4.21,4.78,4.78,0,0,0-3.39-1.33A4.63,4.63,0,0,0,95.71,124.05Z"/><path class="cls-2" d="M114.39,123.08v12.56H111.8V123.08h-1.58V120.7h1.58v-5.4h2.59v5.4H117v2.38Z"/><path class="cls-2" d="M122.35,132.4a1.8,1.8,0,1,1-1.8,1.8A1.83,1.83,0,0,1,122.35,132.4Zm-1.3-1.62V111.63h2.6v19.15Z"/><path class="cls-2" d="M138.87,120.7h2.6v1.59a4.31,4.31,0,0,1,3.7-2,4.49,4.49,0,0,1,4.07,2.41,5,5,0,0,1,4.5-2.41c4.43,0,4.86,3.71,4.86,5.83v9.47H156v-9.07c0-1.69-.22-3.92-2.67-3.92-3,0-3.31,2.88-3.31,4.68v8.31h-2.59v-8.85c0-1.05,0-4.14-2.7-4.14-3,0-3.27,3.06-3.27,4.86v8.13h-2.6Z"/><path class="cls-2" d="M175.31,120.7h2.59v14.94h-2.59v-2.09a6.31,6.31,0,0,1-5.12,2.52c-3.78,0-7.27-2.66-7.27-7.92s3.46-7.81,7.27-7.81a6.21,6.21,0,0,1,5.12,2.49Zm-9.72,7.45c0,3.21,1.8,5.62,4.89,5.62s5-2.63,5-5.58c0-3.85-2.66-5.54-5-5.54C167.93,122.65,165.59,124.52,165.59,128.15Z"/><path class="cls-2" d="M183.12,120.7h2.59v1.73a5.28,5.28,0,0,1,4.28-2.09,5.06,5.06,0,0,1,4.29,2.06,6.69,6.69,0,0,1,.86,4v9.25h-2.59v-9.18a4.38,4.38,0,0,0-.68-2.73,2.94,2.94,0,0,0-2.45-1.08,3.27,3.27,0,0,0-2.63,1.15,6.28,6.28,0,0,0-1.08,4v7.81h-2.59Z"/><path class="cls-2" d="M209.07,109.4h2.59v13a5.28,5.28,0,0,1,4.29-2.09,5.05,5.05,0,0,1,4.28,2.06,6.62,6.62,0,0,1,.87,4v9.25h-2.6v-9.18a4.38,4.38,0,0,0-.68-2.73,2.93,2.93,0,0,0-2.45-1.08,3.27,3.27,0,0,0-2.63,1.15,6.34,6.34,0,0,0-1.08,4v7.81h-2.59Z"/><path class="cls-2" d="M237.76,120.7h2.6v14.94h-2.6v-2.09a6.28,6.28,0,0,1-5.11,2.52c-3.78,0-7.27-2.66-7.27-7.92s3.46-7.81,7.27-7.81a6.17,6.17,0,0,1,5.11,2.49ZM228,128.15c0,3.21,1.8,5.62,4.9,5.62s5-2.63,5-5.58c0-3.85-2.67-5.54-5-5.54C230.38,122.65,228,124.52,228,128.15Z"/><path class="cls-2" d="M245.58,120.7h2.59v1.62a4.16,4.16,0,0,1,3.38-2,5.58,5.58,0,0,1,2.31.61l-1.23,2.34a2.68,2.68,0,0,0-1.51-.5,2.51,2.51,0,0,0-2.09.94c-.43.57-.86,1.58-.86,4v7.88h-2.59Z"/><path class="cls-2" d="M276.71,120.7h2.6v14.94h-2.6v-2.09a6.28,6.28,0,0,1-5.11,2.52c-3.78,0-7.27-2.66-7.27-7.92s3.46-7.81,7.27-7.81a6.17,6.17,0,0,1,5.11,2.49ZM267,128.15c0,3.21,1.8,5.62,4.89,5.62s5-2.63,5-5.58c0-3.85-2.67-5.54-5-5.54C269.34,122.65,267,124.52,267,128.15Z"/><path class="cls-2" d="M287.12,109.4v26.24h-2.59V109.4Z"/><path class="cls-2" d="M295,123.08v12.56h-2.59V123.08h-1.58V120.7h1.58v-5.4H295v5.4h2.59v2.38Z"/><path class="cls-2" d="M301.66,113.22a1.84,1.84,0,1,1-1.83,1.83A1.84,1.84,0,0,1,301.66,113.22Zm1.3,7.48v14.94h-2.59V120.7Z"/><path class="cls-2" d="M319.62,109.4h2.6v26.24h-2.6v-2.09a6.28,6.28,0,0,1-5.11,2.52c-3.78,0-7.27-2.66-7.27-7.92s3.46-7.81,7.27-7.81a6.17,6.17,0,0,1,5.11,2.49Zm-9.71,18.75c0,3.21,1.8,5.62,4.89,5.62s5-2.63,5-5.58c0-3.85-2.67-5.54-5-5.54C312.25,122.65,309.91,124.52,309.91,128.15Z"/><path class="cls-2" d="M336.15,120.7h2.59v1.62a4.16,4.16,0,0,1,3.38-2,5.54,5.54,0,0,1,2.31.61l-1.23,2.34a2.68,2.68,0,0,0-1.51-.5,2.51,2.51,0,0,0-2.09.94c-.43.57-.86,1.58-.86,4v7.88h-2.59Z"/><path class="cls-2" d="M359.51,131.83a9.21,9.21,0,0,1-1.83,2.41,7.27,7.27,0,0,1-5,1.83c-3.6,0-7.38-2.26-7.38-7.81,0-4.46,2.73-7.92,7.23-7.92a6.7,6.7,0,0,1,5.66,2.74,10.07,10.07,0,0,1,1.4,5.61H348a4.79,4.79,0,0,0,4.75,5.08,4.52,4.52,0,0,0,3.06-1.08,5.87,5.87,0,0,0,1.55-2.05ZM357,126.54a4.48,4.48,0,0,0-4.4-3.89,4.54,4.54,0,0,0-4.39,3.89Z"/><path class="cls-2" d="M366.57,123.08v12.56H364V123.08h-1.59V120.7H364v-5.4h2.59v5.4h2.59v2.38Z"/><path class="cls-2" d="M383.31,123.08v12.56h-2.6V123.08h-1.58V120.7h1.58v-5.4h2.6v5.4h2.59v2.38Z"/><path class="cls-2" d="M390,113.22a1.84,1.84,0,1,1-1.84,1.83A1.84,1.84,0,0,1,390,113.22Zm1.29,7.48v14.94h-2.59V120.7Z"/><path class="cls-2" d="M399.07,109.4v26.24h-2.59V109.4Z"/><path class="cls-2" d="M424.45,120.7H427v14.94h-2.59v-2.09a6.28,6.28,0,0,1-5.11,2.52c-3.78,0-7.27-2.66-7.27-7.92s3.45-7.81,7.27-7.81a6.17,6.17,0,0,1,5.11,2.49Zm-9.72,7.45c0,3.21,1.8,5.62,4.9,5.62s5-2.63,5-5.58c0-3.85-2.66-5.54-5-5.54C417.07,122.65,414.73,124.52,414.73,128.15Z"/><path class="cls-2" d="M434.93,123.08v12.56h-2.59V123.08h-1.59V120.7h1.59v-5.4h2.59v5.4h2.59v2.38Z"/><path class="cls-2" d="M27.17,163.9,31.63,174,36.1,163.9H39l-7.35,15.91L24.29,163.9Z"/><path class="cls-2" d="M65.76,175.1A7.31,7.31,0,0,1,59,179.27a6.72,6.72,0,0,1-5.87-3,6,6,0,0,1-5.62,3c-3.49,0-6.44-1.58-6.44-4.86s2.77-4.93,6.23-4.93a6.93,6.93,0,0,1,4.28,1.26,6.08,6.08,0,0,0-.68-3.16,3.75,3.75,0,0,0-3.57-1.73,15.29,15.29,0,0,0-4.6.93v-2.44a14.28,14.28,0,0,1,4.64-.8c1.66,0,4.36.29,5.65,3a6.56,6.56,0,0,1,5.76-3c4.36,0,7.13,3.21,7.13,8.1v.25H54.28c.1,3,2.15,5.08,4.71,5.08a5.33,5.33,0,0,0,4.61-3.17Zm-22.07-.69c0,1.08.79,2.56,3.78,2.56s4-1.51,4-2.66-1-2.52-3.93-2.52C45,171.79,43.69,173,43.69,174.41Zm19.58-4.67a4.44,4.44,0,0,0-8.81,0Z"/><path class="cls-2" d="M72.82,152.6v26.24h-2.6V152.6Z"/><path class="cls-2" d="M89.48,163.9h2.59v14.58a9.4,9.4,0,0,1-1.44,5.87,7.25,7.25,0,0,1-6,2.77,7.43,7.43,0,0,1-5.33-2,6.73,6.73,0,0,1-1.94-4.83h2.55a4.71,4.71,0,0,0,1.16,3.1,4.61,4.61,0,0,0,3.6,1.44,4.18,4.18,0,0,0,4-2.09,6.92,6.92,0,0,0,.83-3.82v-2.16a6.28,6.28,0,0,1-5.11,2.52,7.16,7.16,0,0,1-5.11-2,8.09,8.09,0,0,1-2.16-5.91,7.83,7.83,0,0,1,2.16-5.79,7.39,7.39,0,0,1,5.11-2A6.21,6.21,0,0,1,89.48,166Zm-8.2,3.35a5.7,5.7,0,0,0-1.52,4.1,5.79,5.79,0,0,0,1.7,4.4,4.52,4.52,0,0,0,3.2,1.22,4.38,4.38,0,0,0,3.27-1.26,6.06,6.06,0,0,0,1.7-4.32A5.89,5.89,0,0,0,88,167.18a4.78,4.78,0,0,0-3.38-1.33A4.63,4.63,0,0,0,81.28,167.25Z"/><path class="cls-2" d="M110.54,175a9.21,9.21,0,0,1-1.83,2.41,7.27,7.27,0,0,1-5,1.83c-3.6,0-7.38-2.26-7.38-7.81,0-4.46,2.73-7.92,7.23-7.92a6.69,6.69,0,0,1,5.66,2.74,10.07,10.07,0,0,1,1.4,5.61H99a4.79,4.79,0,0,0,4.75,5.08,4.52,4.52,0,0,0,3.06-1.08,5.87,5.87,0,0,0,1.55-2ZM108,169.74a4.48,4.48,0,0,0-4.4-3.89,4.54,4.54,0,0,0-4.39,3.89Z"/><path class="cls-2" d="M122.71,171.43a7.92,7.92,0,1,1,7.92,7.84A7.67,7.67,0,0,1,122.71,171.43Zm2.66,0a5.26,5.26,0,1,0,10.51,0c0-3.68-2.52-5.58-5.25-5.58A5.19,5.19,0,0,0,125.37,171.43Z"/><path class="cls-2" d="M142.83,163.9h2.6v1.59a4.31,4.31,0,0,1,3.7-2A4.49,4.49,0,0,1,153.2,166a5,5,0,0,1,4.5-2.41c4.43,0,4.86,3.71,4.86,5.83v9.47H160v-9.07c0-1.69-.22-3.92-2.67-3.92-3,0-3.31,2.88-3.31,4.68v8.31H151.4V170c0-1.05,0-4.14-2.7-4.14-2.95,0-3.27,3.06-3.27,4.86v8.13h-2.6Z"/><path class="cls-2" d="M176.53,163.9h2.59v1.59a4.34,4.34,0,0,1,3.71-2A4.49,4.49,0,0,1,186.9,166a5,5,0,0,1,4.5-2.41c4.42,0,4.86,3.71,4.86,5.83v9.47h-2.6v-9.07c0-1.69-.21-3.92-2.66-3.92-3,0-3.31,2.88-3.31,4.68v8.31H185.1V170c0-1.05,0-4.14-2.7-4.14-3,0-3.28,3.06-3.28,4.86v8.13h-2.59Z"/><path class="cls-2" d="M213,163.9h2.59v14.94H213v-2.09a6.28,6.28,0,0,1-5.11,2.52c-3.78,0-7.27-2.66-7.27-7.92s3.45-7.81,7.27-7.81A6.17,6.17,0,0,1,213,166Zm-9.72,7.45c0,3.21,1.8,5.62,4.9,5.62s5-2.63,5-5.58c0-3.85-2.66-5.54-5-5.54C205.58,165.85,203.24,167.72,203.24,171.35Z"/><path class="cls-2" d="M220.77,163.9h2.6v1.73a5.26,5.26,0,0,1,4.28-2.09,5.05,5.05,0,0,1,4.28,2.06,6.62,6.62,0,0,1,.87,4v9.25h-2.6v-9.18a4.38,4.38,0,0,0-.68-2.73,2.93,2.93,0,0,0-2.45-1.08,3.24,3.24,0,0,0-2.62,1.15,6.28,6.28,0,0,0-1.08,4v7.81h-2.6Z"/><path class="cls-2" d="M247.45,163.9,251.91,174l4.47-10.08h2.88l-7.35,15.91-7.34-15.91Z"/><path class="cls-2" d="M263.61,156.42a1.84,1.84,0,1,1-1.83,1.83A1.84,1.84,0,0,1,263.61,156.42Zm1.3,7.48v14.94h-2.59V163.9Z"/><path class="cls-2" d="M272.72,152.6v26.24h-2.59V152.6Z"/><path class="cls-2" d="M298.1,152.6h2.59v26.24H298.1v-2.09a6.31,6.31,0,0,1-5.11,2.52c-3.78,0-7.27-2.66-7.27-7.92s3.45-7.81,7.27-7.81A6.19,6.19,0,0,1,298.1,166Zm-9.72,18.75c0,3.21,1.8,5.62,4.89,5.62s5-2.63,5-5.58c0-3.85-2.66-5.54-5-5.54C290.72,165.85,288.38,167.72,288.38,171.35Z"/><path class="cls-2" d="M319.16,175a9.25,9.25,0,0,1-1.84,2.41,7.27,7.27,0,0,1-5,1.83c-3.6,0-7.38-2.26-7.38-7.81,0-4.46,2.74-7.92,7.24-7.92a6.67,6.67,0,0,1,5.65,2.74,9.91,9.91,0,0,1,1.4,5.61H307.64a4.79,4.79,0,0,0,4.75,5.08,4.54,4.54,0,0,0,3.06-1.08,6.12,6.12,0,0,0,1.55-2Zm-2.56-5.29a4.47,4.47,0,0,0-4.39-3.89,4.52,4.52,0,0,0-4.39,3.89Z"/><path class="cls-2" d="M326.14,152.6v26.24h-2.59V152.6Z"/><path class="cls-2" d="M344.61,175a9,9,0,0,1-1.84,2.41,7.27,7.27,0,0,1-5,1.83c-3.59,0-7.37-2.26-7.37-7.81,0-4.46,2.73-7.92,7.23-7.92a6.67,6.67,0,0,1,5.65,2.74,10,10,0,0,1,1.41,5.61H333.09a4.79,4.79,0,0,0,4.75,5.08,4.54,4.54,0,0,0,3.06-1.08,6,6,0,0,0,1.55-2Zm-2.56-5.29a4.47,4.47,0,0,0-4.39-3.89,4.54,4.54,0,0,0-4.39,3.89Z"/><path class="cls-2" d="M363.87,167.36a2.29,2.29,0,0,0-2.09-1.51,1.65,1.65,0,0,0-1.8,1.69c0,1.08.72,1.4,2.41,2.12,2.16.9,3.17,1.59,3.75,2.31a3.56,3.56,0,0,1,.79,2.41c0,3.13-2.27,4.89-5.15,4.89a5.34,5.34,0,0,1-5.22-3.81l2.23-.94a3.39,3.39,0,0,0,3,2.45,2.31,2.31,0,0,0,2.44-2.38c0-1.4-1-1.87-2.41-2.48a9.62,9.62,0,0,1-3.63-2.2,3.21,3.21,0,0,1-.69-2.19,4,4,0,0,1,4.36-4.18,4.32,4.32,0,0,1,4.1,2.7Z"/><path class="cls-2" d="M372,156.42a1.84,1.84,0,1,1-1.83,1.83A1.84,1.84,0,0,1,372,156.42Zm1.3,7.48v14.94h-2.59V163.9Z"/><path class="cls-2" d="M378.52,163.9h2.59v1.73a5.28,5.28,0,0,1,4.29-2.09,5.05,5.05,0,0,1,4.28,2.06,6.69,6.69,0,0,1,.86,4v9.25H388v-9.18a4.38,4.38,0,0,0-.68-2.73,2.94,2.94,0,0,0-2.45-1.08,3.27,3.27,0,0,0-2.63,1.15,6.28,6.28,0,0,0-1.08,4v7.81h-2.59Z"/><path class="cls-2" d="M409,175a9,9,0,0,1-1.84,2.41,7.25,7.25,0,0,1-5,1.83c-3.6,0-7.38-2.26-7.38-7.81,0-4.46,2.73-7.92,7.23-7.92a6.67,6.67,0,0,1,5.65,2.74,10,10,0,0,1,1.41,5.61H397.49a4.79,4.79,0,0,0,4.75,5.08,4.52,4.52,0,0,0,3.06-1.08,5.87,5.87,0,0,0,1.55-2Zm-2.56-5.29a4.47,4.47,0,0,0-4.39-3.89,4.54,4.54,0,0,0-4.39,3.89Z"/><path class="cls-2" d="M29.11,209.48V222H26.52V209.48H24.94V207.1h1.58v-5.4h2.59v5.4H31.7v2.38Z"/><path class="cls-2" d="M35.77,199.62a1.84,1.84,0,1,1-1.83,1.83A1.84,1.84,0,0,1,35.77,199.62Zm1.3,7.48V222H34.48V207.1Z"/><path class="cls-2" d="M42.29,207.1h2.59v1.73a5.28,5.28,0,0,1,4.28-2.09,5.06,5.06,0,0,1,4.29,2.06,6.69,6.69,0,0,1,.86,4V222H51.72v-9.18a4.38,4.38,0,0,0-.68-2.73,2.94,2.94,0,0,0-2.45-1.08A3.27,3.27,0,0,0,46,210.2a6.28,6.28,0,0,0-1.08,4V222H42.29Z"/><path class="cls-2" d="M71,207.1h2.59v14.58a9.4,9.4,0,0,1-1.44,5.87,7.28,7.28,0,0,1-6,2.77,7.42,7.42,0,0,1-5.32-2,6.74,6.74,0,0,1-1.95-4.83h2.56a4.7,4.7,0,0,0,1.15,3.1,4.62,4.62,0,0,0,3.6,1.44,4.18,4.18,0,0,0,4-2.09,6.92,6.92,0,0,0,.83-3.82V220a6.31,6.31,0,0,1-5.11,2.52,7.15,7.15,0,0,1-5.11-2,8.09,8.09,0,0,1-2.16-5.91,7.83,7.83,0,0,1,2.16-5.79,7.37,7.37,0,0,1,5.11-2A6.22,6.22,0,0,1,71,209.23Zm-8.21,3.35a5.69,5.69,0,0,0-1.51,4.1A5.78,5.78,0,0,0,63,219a4.55,4.55,0,0,0,3.2,1.22,4.42,4.42,0,0,0,3.28-1.26,6.05,6.05,0,0,0,1.69-4.32,5.93,5.93,0,0,0-1.58-4.21,4.78,4.78,0,0,0-3.39-1.33A4.63,4.63,0,0,0,62.77,210.45Z"/><path class="cls-2" d="M80.45,218.8a1.8,1.8,0,1,1-1.8,1.8A1.83,1.83,0,0,1,80.45,218.8Z"/><path class="cls-2" d="M29.76,251H42.07v-9.76h2.66v24H42.07V253.51H29.76v11.73H27.1v-24h2.66Z"/><path class="cls-2" d="M62.05,250.3h2.59v14.94H62.05v-2.09a6.28,6.28,0,0,1-5.11,2.52c-3.78,0-7.27-2.66-7.27-7.92s3.45-7.81,7.27-7.81a6.17,6.17,0,0,1,5.11,2.49Zm-9.72,7.45c0,3.21,1.8,5.62,4.9,5.62s5-2.63,5-5.58c0-3.85-2.67-5.54-5-5.54C54.67,252.25,52.33,254.12,52.33,257.75Z"/><path class="cls-2" d="M69.86,250.3h2.6v1.62a4.15,4.15,0,0,1,3.38-2,5.53,5.53,0,0,1,2.3.61l-1.22,2.34a2.72,2.72,0,0,0-1.51-.5,2.5,2.5,0,0,0-2.09.94c-.43.57-.86,1.58-.86,4v7.88h-2.6Z"/><path class="cls-2" d="M101,239h2.59v26.24H101v-2.09a6.28,6.28,0,0,1-5.11,2.52c-3.78,0-7.27-2.66-7.27-7.92s3.45-7.81,7.27-7.81a6.17,6.17,0,0,1,5.11,2.49Zm-9.72,18.75c0,3.21,1.8,5.62,4.9,5.62s5-2.63,5-5.58c0-3.85-2.67-5.54-5-5.54C93.62,252.25,91.28,254.12,91.28,257.75Z"/><path class="cls-2" d="M111.41,259a5.1,5.1,0,0,0,.72,3.21,3.57,3.57,0,0,0,5.25,0,5.1,5.1,0,0,0,.72-3.21V250.3h2.59v9c0,1.84-.18,3.21-1.36,4.5a6.53,6.53,0,0,1-9.15,0c-1.19-1.29-1.36-2.66-1.36-4.5v-9h2.59Z"/><path class="cls-2" d="M126.78,261.71l2.37.87-3.63,8.13-1.69-.68Z"/><path class="cls-2" d="M156.4,261.43a9.21,9.21,0,0,1-1.83,2.41,7.27,7.27,0,0,1-5,1.83c-3.6,0-7.38-2.26-7.38-7.81,0-4.46,2.74-7.92,7.24-7.92a6.68,6.68,0,0,1,5.65,2.74,10.07,10.07,0,0,1,1.4,5.61H144.89a4.78,4.78,0,0,0,4.75,5.08,4.56,4.56,0,0,0,3.06-1.08,6,6,0,0,0,1.54-2.05Zm-2.55-5.3a4.46,4.46,0,0,0-4.39-3.88,4.52,4.52,0,0,0-4.39,3.88Z"/><path class="cls-2" d="M163.39,239v26.24H160.8V239Z"/><path class="cls-2" d="M171.2,239v26.24h-2.59V239Z"/><path class="cls-2" d="M189.67,261.43a9,9,0,0,1-1.84,2.41,7.27,7.27,0,0,1-5,1.83c-3.6,0-7.37-2.26-7.37-7.81,0-4.46,2.73-7.92,7.23-7.92a6.67,6.67,0,0,1,5.65,2.74,10,10,0,0,1,1.41,5.61H178.15a4.78,4.78,0,0,0,4.75,5.08,4.54,4.54,0,0,0,3.06-1.08,6.12,6.12,0,0,0,1.55-2.05Zm-2.56-5.3a4.46,4.46,0,0,0-4.39-3.88,4.52,4.52,0,0,0-4.39,3.88Z"/><path class="cls-2" d="M194.06,250.3h2.59v1.62a4.17,4.17,0,0,1,3.39-2,5.53,5.53,0,0,1,2.3.61l-1.22,2.34a2.73,2.73,0,0,0-1.52-.5,2.48,2.48,0,0,0-2.08.94c-.44.57-.87,1.58-.87,4v7.88h-2.59Z"/><path class="cls-2" d="M213.75,250.3h2.59V252a5.28,5.28,0,0,1,4.29-2.09,5.07,5.07,0,0,1,4.28,2.05,6.65,6.65,0,0,1,.86,4v9.25h-2.59v-9.18a4.38,4.38,0,0,0-.68-2.73,2.94,2.94,0,0,0-2.45-1.08,3.27,3.27,0,0,0-2.63,1.15,6.34,6.34,0,0,0-1.08,4v7.81h-2.59Z"/><path class="cls-2" d="M230.06,257.83a7.92,7.92,0,1,1,7.92,7.84A7.67,7.67,0,0,1,230.06,257.83Zm2.66,0a5.26,5.26,0,1,0,10.51,0c0-3.68-2.52-5.58-5.25-5.58A5.19,5.19,0,0,0,232.72,257.83Z"/><path class="cls-2" d="M261.63,250.3h2.59v14.58a9.41,9.41,0,0,1-1.44,5.87,7.26,7.26,0,0,1-6,2.77,7.39,7.39,0,0,1-5.33-2,6.69,6.69,0,0,1-1.95-4.82h2.56a4.43,4.43,0,0,0,4.75,4.54,4.18,4.18,0,0,0,4-2.09,6.92,6.92,0,0,0,.83-3.82v-2.16a6.31,6.31,0,0,1-5.11,2.52,7.15,7.15,0,0,1-5.11-2,8.09,8.09,0,0,1-2.16-5.91,7.83,7.83,0,0,1,2.16-5.79,7.37,7.37,0,0,1,5.11-2,6.22,6.22,0,0,1,5.11,2.49Zm-8.21,3.35a5.69,5.69,0,0,0-1.51,4.1,5.78,5.78,0,0,0,1.69,4.4,4.56,4.56,0,0,0,3.21,1.22,4.42,4.42,0,0,0,3.27-1.26,6.05,6.05,0,0,0,1.69-4.32,5.89,5.89,0,0,0-1.58-4.21,4.78,4.78,0,0,0-3.38-1.33A4.63,4.63,0,0,0,253.42,253.65Z"/><path class="cls-2" d="M282.69,261.43a9,9,0,0,1-1.84,2.41,7.27,7.27,0,0,1-5,1.83c-3.59,0-7.37-2.26-7.37-7.81,0-4.46,2.73-7.92,7.23-7.92a6.67,6.67,0,0,1,5.65,2.74,10,10,0,0,1,1.41,5.61H271.17a4.79,4.79,0,0,0,4.75,5.08,4.54,4.54,0,0,0,3.06-1.08,6,6,0,0,0,1.55-2.05Zm-2.56-5.3a4.46,4.46,0,0,0-4.39-3.88,4.54,4.54,0,0,0-4.39,3.88Z"/><path class="cls-2" d="M287.08,250.3h2.59V252a5.28,5.28,0,0,1,4.29-2.09,5.07,5.07,0,0,1,4.28,2.05,6.65,6.65,0,0,1,.86,4v9.25h-2.59v-9.18a4.38,4.38,0,0,0-.68-2.73,2.94,2.94,0,0,0-2.45-1.08,3.27,3.27,0,0,0-2.63,1.15,6.34,6.34,0,0,0-1.08,4v7.81h-2.59Z"/><path class="cls-2" d="M324.48,239h2.6v26.24h-2.6v-2.09a6.28,6.28,0,0,1-5.11,2.52c-3.78,0-7.27-2.66-7.27-7.92s3.46-7.81,7.27-7.81a6.17,6.17,0,0,1,5.11,2.49Zm-9.71,18.75c0,3.21,1.8,5.62,4.89,5.62s5-2.63,5-5.58c0-3.85-2.66-5.54-5-5.54C317.11,252.25,314.77,254.12,314.77,257.75Z"/><path class="cls-2" d="M334.89,259a5.1,5.1,0,0,0,.72,3.21,3.57,3.57,0,0,0,5.25,0,5.1,5.1,0,0,0,.72-3.21V250.3h2.6v9c0,1.84-.18,3.21-1.37,4.5a6.53,6.53,0,0,1-9.15,0c-1.18-1.29-1.36-2.66-1.36-4.5v-9h2.59Z"/><path class="cls-2" d="M360.7,239v16.85l5.47-5.55h3.38l-6.4,6.41,7.56,8.53h-3.39l-6-6.8-.65.65v6.15h-2.59V239Z"/><path class="cls-2" d="M386.51,261.43a9.21,9.21,0,0,1-1.83,2.41,7.27,7.27,0,0,1-5,1.83c-3.6,0-7.38-2.26-7.38-7.81,0-4.46,2.73-7.92,7.23-7.92a6.7,6.7,0,0,1,5.66,2.74,10.07,10.07,0,0,1,1.4,5.61H375a4.79,4.79,0,0,0,4.75,5.08,4.52,4.52,0,0,0,3.06-1.08,5.87,5.87,0,0,0,1.55-2.05Zm-2.55-5.3a4.47,4.47,0,0,0-4.4-3.88,4.54,4.54,0,0,0-4.39,3.88Z"/><path class="cls-2" d="M390.9,250.3h2.59V252a5.28,5.28,0,0,1,4.29-2.09,5.07,5.07,0,0,1,4.28,2.05,6.65,6.65,0,0,1,.87,4v9.25h-2.6v-9.18a4.38,4.38,0,0,0-.68-2.73,2.93,2.93,0,0,0-2.45-1.08,3.27,3.27,0,0,0-2.63,1.15,6.34,6.34,0,0,0-1.08,4v7.81H390.9Z"/><path class="cls-2" d="M419.59,239h2.6v26.24h-2.6v-2.09a6.28,6.28,0,0,1-5.11,2.52c-3.78,0-7.27-2.66-7.27-7.92s3.46-7.81,7.27-7.81a6.17,6.17,0,0,1,5.11,2.49Zm-9.71,18.75c0,3.21,1.8,5.62,4.89,5.62s5-2.63,5-5.58c0-3.85-2.67-5.54-5-5.54C412.22,252.25,409.88,254.12,409.88,257.75Z"/><path class="cls-2" d="M440.65,261.43a9.21,9.21,0,0,1-1.83,2.41,7.27,7.27,0,0,1-5,1.83c-3.6,0-7.38-2.26-7.38-7.81,0-4.46,2.74-7.92,7.24-7.92a6.68,6.68,0,0,1,5.65,2.74,10.07,10.07,0,0,1,1.4,5.61H429.13a4.79,4.79,0,0,0,4.76,5.08,4.56,4.56,0,0,0,3.06-1.08,6,6,0,0,0,1.54-2.05Zm-2.55-5.3a4.46,4.46,0,0,0-4.39-3.88,4.54,4.54,0,0,0-4.4,3.88Z"/><path class="cls-2" d="M445.05,250.3h2.59v1.62a4.16,4.16,0,0,1,3.38-2,5.58,5.58,0,0,1,2.31.61l-1.23,2.34a2.68,2.68,0,0,0-1.51-.5,2.51,2.51,0,0,0-2.09.94c-.43.57-.86,1.58-.86,4v7.88h-2.59Z"/><path class="cls-2" d="M29.11,295.88v12.56H26.52V295.88H25.08V293.5h1.44V287c0-1.37.11-3.1,1.44-4.21a4.61,4.61,0,0,1,3-1,4.88,4.88,0,0,1,1.83.33v2.52a4.62,4.62,0,0,0-1.69-.33,1.81,1.81,0,0,0-1.65.8,4.4,4.4,0,0,0-.33,2.16v6.22h3.67v2.38Z"/><path class="cls-2" d="M46.86,293.5h2.59v14.94H46.86v-2.09a6.28,6.28,0,0,1-5.11,2.52c-3.78,0-7.27-2.66-7.27-7.92s3.45-7.81,7.27-7.81a6.17,6.17,0,0,1,5.11,2.49ZM37.14,301c0,3.21,1.8,5.62,4.9,5.62s5-2.63,5-5.58c0-3.85-2.66-5.54-5-5.54C39.48,295.45,37.14,297.32,37.14,301Zm5.47-16.59a3.1,3.1,0,1,1-3.09,3.1A3.12,3.12,0,0,1,42.61,284.36Zm0,4.61a1.52,1.52,0,1,0-1.51-1.51A1.57,1.57,0,0,0,42.61,289Z"/><path class="cls-2" d="M67.92,304.63A9,9,0,0,1,66.08,307a7.26,7.26,0,0,1-5,1.83c-3.6,0-7.38-2.26-7.38-7.81,0-4.46,2.73-7.92,7.23-7.92a6.67,6.67,0,0,1,5.65,2.74A10,10,0,0,1,68,301.49H56.4a4.79,4.79,0,0,0,4.75,5.08,4.52,4.52,0,0,0,3.06-1.08,6.12,6.12,0,0,0,1.55-2.05Zm-2.56-5.3A4.46,4.46,0,0,0,61,295.45a4.54,4.54,0,0,0-4.39,3.88Z"/><path class="cls-2" d="M75,295.88v12.56h-2.6V295.88H70.8V293.5h1.58v-5.4H75v5.4h2.59v2.38Z"/><path class="cls-2" d="M100.5,282.2h2.59v26.24H100.5v-2.09a6.31,6.31,0,0,1-5.11,2.52c-3.78,0-7.28-2.66-7.28-7.92s3.46-7.81,7.28-7.81a6.19,6.19,0,0,1,5.11,2.49ZM90.78,301c0,3.21,1.8,5.62,4.89,5.62s5-2.63,5-5.58c0-3.85-2.66-5.54-5-5.54C93.12,295.45,90.78,297.32,90.78,301Z"/><path class="cls-2" d="M121.56,304.63a9.25,9.25,0,0,1-1.84,2.41,7.27,7.27,0,0,1-5,1.83c-3.6,0-7.38-2.26-7.38-7.81,0-4.46,2.74-7.92,7.24-7.92a6.67,6.67,0,0,1,5.65,2.74,9.91,9.91,0,0,1,1.4,5.61H110a4.78,4.78,0,0,0,4.75,5.08,4.54,4.54,0,0,0,3.06-1.08,6.12,6.12,0,0,0,1.55-2.05Zm-2.56-5.3a4.46,4.46,0,0,0-4.39-3.88,4.52,4.52,0,0,0-4.39,3.88Z"/><path class="cls-2" d="M128.54,282.2v26.24H126V282.2Z"/><path class="cls-2" d="M136.43,295.88v12.56h-2.6V295.88h-1.58V293.5h1.58v-5.4h2.6v5.4H139v2.38Z"/><path class="cls-2" d="M153.09,308.44H150.5V282.2h2.59v13.39a6.45,6.45,0,0,1,5.11-2.45c4.68,0,7.28,3.89,7.28,7.92s-2.63,7.81-7.17,7.81a6.35,6.35,0,0,1-5.22-2.52Zm9.72-7.38c0-3.67-2.48-5.61-4.89-5.61s-5,2-5,5.58c0,3.06,1.94,5.54,5,5.54S162.81,304.05,162.81,301.06Z"/><path class="cls-2" d="M171.06,286a1.84,1.84,0,1,1-1.84,1.83A1.84,1.84,0,0,1,171.06,286Zm1.29,7.48v14.94h-2.59V293.5Z"/><path class="cls-2" d="M180.16,282.2v26.24h-2.59V282.2Z"/><path class="cls-2" d="M188,282.2v26.24h-2.6V282.2Z"/><path class="cls-2" d="M206.44,304.63a9.21,9.21,0,0,1-1.83,2.41,7.27,7.27,0,0,1-5,1.83c-3.6,0-7.38-2.26-7.38-7.81,0-4.46,2.74-7.92,7.24-7.92a6.68,6.68,0,0,1,5.65,2.74,10.07,10.07,0,0,1,1.4,5.61H194.92a4.79,4.79,0,0,0,4.76,5.08,4.52,4.52,0,0,0,3-1.08,5.87,5.87,0,0,0,1.55-2.05Zm-2.55-5.3a4.47,4.47,0,0,0-4.39-3.88,4.54,4.54,0,0,0-4.4,3.88Z"/><path class="cls-2" d="M222.28,282.2h2.59v26.24h-2.59v-2.09a6.28,6.28,0,0,1-5.11,2.52c-3.78,0-7.27-2.66-7.27-7.92s3.45-7.81,7.27-7.81a6.17,6.17,0,0,1,5.11,2.49ZM212.56,301c0,3.21,1.8,5.62,4.9,5.62s5-2.63,5-5.58c0-3.85-2.67-5.54-5-5.54C214.9,295.45,212.56,297.32,212.56,301Z"/><path class="cls-2" d="M243.34,304.63a9.21,9.21,0,0,1-1.83,2.41,7.27,7.27,0,0,1-5,1.83c-3.6,0-7.38-2.26-7.38-7.81,0-4.46,2.73-7.92,7.23-7.92a6.69,6.69,0,0,1,5.66,2.74,10.07,10.07,0,0,1,1.4,5.61H231.82a4.79,4.79,0,0,0,4.75,5.08,4.52,4.52,0,0,0,3.06-1.08,5.87,5.87,0,0,0,1.55-2.05Zm-2.55-5.3a4.47,4.47,0,0,0-4.4-3.88,4.54,4.54,0,0,0-4.39,3.88Z"/><path class="cls-2" d="M247.73,293.5h2.6v1.62a4.15,4.15,0,0,1,3.38-2,5.49,5.49,0,0,1,2.3.61l-1.22,2.34a2.72,2.72,0,0,0-1.51-.5,2.5,2.5,0,0,0-2.09.94c-.43.57-.86,1.58-.86,4v7.88h-2.6Z"/><path class="cls-2" d="M270,302.21a5.1,5.1,0,0,0,.72,3.21,3.57,3.57,0,0,0,5.25,0,5.1,5.1,0,0,0,.72-3.21V293.5h2.59v9c0,1.84-.18,3.21-1.36,4.5a6.53,6.53,0,0,1-9.15,0c-1.18-1.29-1.36-2.66-1.36-4.5v-9H270Z"/><path class="cls-2" d="M296,282.2h2.59v26.24H296v-2.09a6.28,6.28,0,0,1-5.11,2.52c-3.78,0-7.27-2.66-7.27-7.92s3.46-7.81,7.27-7.81a6.17,6.17,0,0,1,5.11,2.49ZM286.25,301c0,3.21,1.8,5.62,4.9,5.62s5-2.63,5-5.58c0-3.85-2.67-5.54-5-5.54C288.59,295.45,286.25,297.32,286.25,301Z"/><path class="cls-2" d="M317,304.63a9,9,0,0,1-1.84,2.41,7.25,7.25,0,0,1-5,1.83c-3.6,0-7.38-2.26-7.38-7.81,0-4.46,2.73-7.92,7.23-7.92a6.67,6.67,0,0,1,5.65,2.74,10,10,0,0,1,1.41,5.61H305.51a4.79,4.79,0,0,0,4.75,5.08,4.52,4.52,0,0,0,3.06-1.08,5.87,5.87,0,0,0,1.55-2.05Zm-2.56-5.3a4.46,4.46,0,0,0-4.39-3.88,4.54,4.54,0,0,0-4.39,3.88Z"/><path class="cls-2" d="M321.42,293.5H324v1.73a5.28,5.28,0,0,1,4.29-2.09,5.05,5.05,0,0,1,4.28,2.06,6.62,6.62,0,0,1,.87,4v9.25h-2.6v-9.18a4.38,4.38,0,0,0-.68-2.73,2.93,2.93,0,0,0-2.45-1.08,3.27,3.27,0,0,0-2.63,1.15,6.34,6.34,0,0,0-1.08,4v7.81h-2.59Z"/><path class="cls-2" d="M358.83,293.5h2.59v14.94h-2.59v-2.09a6.31,6.31,0,0,1-5.11,2.52c-3.79,0-7.28-2.66-7.28-7.92s3.46-7.81,7.28-7.81a6.2,6.2,0,0,1,5.11,2.49ZM349.11,301c0,3.21,1.8,5.62,4.89,5.62s5-2.63,5-5.58c0-3.85-2.66-5.54-5-5.54C351.45,295.45,349.11,297.32,349.11,301Z"/><path class="cls-2" d="M369.3,295.88v12.56h-2.59V295.88h-1.58V293.5h1.58v-5.4h2.59v5.4h2.59v2.38Z"/><path class="cls-2" d="M386,308.44h-2.59V282.2H386v13.39a6.44,6.44,0,0,1,5.11-2.45c4.68,0,7.27,3.89,7.27,7.92s-2.63,7.81-7.16,7.81a6.35,6.35,0,0,1-5.22-2.52Zm9.72-7.38c0-3.67-2.49-5.61-4.9-5.61s-5,2-5,5.58c0,3.06,1.94,5.54,5,5.54S395.69,304.05,395.69,301.06Z"/><path class="cls-2" d="M405.23,282.2v26.24h-2.59V282.2Z"/><path class="cls-2" d="M411.74,286a1.84,1.84,0,1,1-1.83,1.83A1.84,1.84,0,0,1,411.74,286Zm1.3,7.48v14.94h-2.59V293.5Z"/><path class="cls-2" d="M419,293.5l4.46,10.08,4.47-10.08h2.88l-7.35,15.91L416.1,293.5Z"/><path class="cls-2" d="M447.09,304.63a9.21,9.21,0,0,1-1.83,2.41,7.27,7.27,0,0,1-5,1.83c-3.6,0-7.38-2.26-7.38-7.81,0-4.46,2.74-7.92,7.24-7.92a6.68,6.68,0,0,1,5.65,2.74,10.07,10.07,0,0,1,1.4,5.61H435.58a4.78,4.78,0,0,0,4.75,5.08,4.56,4.56,0,0,0,3.06-1.08,6,6,0,0,0,1.54-2.05Zm-2.55-5.3a4.46,4.46,0,0,0-4.39-3.88,4.52,4.52,0,0,0-4.39,3.88Z"/><path class="cls-2" d="M32.6,340.16a2.27,2.27,0,0,0-2.08-1.51,1.65,1.65,0,0,0-1.8,1.69c0,1.08.72,1.4,2.41,2.12,2.16.9,3.17,1.59,3.74,2.31a3.51,3.51,0,0,1,.79,2.41c0,3.13-2.26,4.89-5.14,4.89a5.33,5.33,0,0,1-5.22-3.81l2.23-.94a3.38,3.38,0,0,0,3,2.45A2.32,2.32,0,0,0,33,347.39c0-1.4-1-1.87-2.41-2.48a9.77,9.77,0,0,1-3.64-2.2,3.25,3.25,0,0,1-.68-2.19,4,4,0,0,1,4.35-4.18,4.32,4.32,0,0,1,4.11,2.7Z"/><path class="cls-2" d="M42,359.92H39.45V336.7H42v2.09a6.44,6.44,0,0,1,5.11-2.45c4.68,0,7.27,3.89,7.27,7.92s-2.63,7.81-7.16,7.81A6.32,6.32,0,0,1,42,349.55Zm9.72-15.66c0-3.67-2.49-5.61-4.9-5.61s-5,2-5,5.58c0,3.06,2,5.54,5,5.54S51.76,347.25,51.76,344.26Z"/><path class="cls-2" d="M61.3,345.41a5.1,5.1,0,0,0,.72,3.21,3.57,3.57,0,0,0,5.25,0,5.1,5.1,0,0,0,.72-3.21V336.7h2.59v9c0,1.84-.18,3.21-1.36,4.5a6.53,6.53,0,0,1-9.15,0c-1.19-1.29-1.37-2.66-1.37-4.5v-9h2.6Z"/><path class="cls-2" d="M75.8,336.7h2.6v1.62a4.15,4.15,0,0,1,3.38-2,5.53,5.53,0,0,1,2.3.61l-1.22,2.34a2.72,2.72,0,0,0-1.51-.5,2.5,2.5,0,0,0-2.09.94c-.43.57-.86,1.58-.86,4v7.88H75.8Z"/><path class="cls-2" d="M97.37,336.7H100v14.58a9.41,9.41,0,0,1-1.44,5.87,7.28,7.28,0,0,1-6,2.77,7.41,7.41,0,0,1-5.32-2,6.74,6.74,0,0,1-2-4.83h2.56a4.7,4.7,0,0,0,1.15,3.1,4.62,4.62,0,0,0,3.6,1.44,4.2,4.2,0,0,0,4-2.09,7,7,0,0,0,.83-3.82v-2.16a6.31,6.31,0,0,1-5.12,2.52,7.18,7.18,0,0,1-5.11-2A8.13,8.13,0,0,1,85,344.15a7.83,7.83,0,0,1,2.16-5.79,7.39,7.39,0,0,1,5.11-2,6.23,6.23,0,0,1,5.12,2.49Zm-8.21,3.35a5.69,5.69,0,0,0-1.51,4.1,5.78,5.78,0,0,0,1.69,4.4,4.55,4.55,0,0,0,3.2,1.22,4.42,4.42,0,0,0,3.28-1.26,6.05,6.05,0,0,0,1.69-4.32A5.93,5.93,0,0,0,95.93,340a4.8,4.8,0,0,0-3.39-1.33A4.63,4.63,0,0,0,89.16,340.05Z"/><path class="cls-2" d="M107.84,339.08v12.56h-2.59V339.08h-1.58V336.7h1.58v-5.4h2.59v5.4h2.59v2.38Z"/><path class="cls-2" d="M123.75,341.24a5.85,5.85,0,0,1-1.47,4.07,4.92,4.92,0,0,1-3.71,1.44,4.94,4.94,0,0,1-5.18-5.15,4.55,4.55,0,0,1,3-4.46,27,27,0,0,1,3-1,3.05,3.05,0,0,0,2.31-3.17,3.28,3.28,0,0,0-.94-2.52,3.12,3.12,0,0,0-2.19-.76,3.32,3.32,0,0,0-2.27.76,3.45,3.45,0,0,0-.94,2.41,5.21,5.21,0,0,0,.22,1.51H113a7.19,7.19,0,0,1-.15-1.58,5.52,5.52,0,0,1,1.37-3.89A5.85,5.85,0,0,1,124.4,333a5.07,5.07,0,0,1-1.22,3.53,6.6,6.6,0,0,1-2.77,1.8c-.83.29-1.73.5-2.6.9a2.63,2.63,0,0,0-1.76,2.52,2.52,2.52,0,0,0,.72,1.87,2.72,2.72,0,0,0,3.53,0,3.65,3.65,0,0,0,.86-2.41Zm-5.14,7.23a1.8,1.8,0,1,1-1.8,1.8A1.83,1.83,0,0,1,118.61,348.47Z"/><path class="cls-2" d="M29,368.6v16.85l5.47-5.55H37.9l-6.41,6.41,7.56,8.53H35.66l-6-6.8-.65.65v6.15H26.45V368.6Z"/><path class="cls-2" d="M44.56,368.6v26.24H42V368.6Z"/><path class="cls-2" d="M51.07,372.42a1.84,1.84,0,1,1-1.83,1.83A1.84,1.84,0,0,1,51.07,372.42Zm1.3,7.48v14.94H49.78V379.9Z"/><path class="cls-2" d="M60.18,368.6v16.85l5.47-5.55H69l-6.4,6.41,7.56,8.53H66.8l-6-6.8-.65.65v6.15H57.59V368.6Z"/><path class="cls-2" d="M81.82,368.6h2.59v13a5.28,5.28,0,0,1,4.28-2.09A5.05,5.05,0,0,1,93,381.6a6.62,6.62,0,0,1,.87,4v9.25H91.25v-9.18a4.33,4.33,0,0,0-.69-2.73,2.91,2.91,0,0,0-2.44-1.08A3.26,3.26,0,0,0,85.49,383a6.28,6.28,0,0,0-1.08,4v7.81H81.82Z"/><path class="cls-2" d="M112,391a9.25,9.25,0,0,1-1.84,2.41,7.27,7.27,0,0,1-5,1.83c-3.6,0-7.38-2.26-7.38-7.81,0-4.46,2.74-7.92,7.24-7.92a6.68,6.68,0,0,1,5.65,2.74,9.91,9.91,0,0,1,1.4,5.61H100.43a4.78,4.78,0,0,0,4.75,5.08,4.56,4.56,0,0,0,3.06-1.08,6.12,6.12,0,0,0,1.55-2.05Zm-2.56-5.29a4.47,4.47,0,0,0-4.39-3.89,4.52,4.52,0,0,0-4.39,3.89Z"/><path class="cls-2" d="M116.34,379.9h2.59v1.62a4.16,4.16,0,0,1,3.38-2,5.4,5.4,0,0,1,2.31.62l-1.23,2.33a2.68,2.68,0,0,0-1.51-.5,2.51,2.51,0,0,0-2.09.94c-.43.57-.86,1.58-.86,4v7.88h-2.59Z"/><path class="cls-2" d="M138.69,382.28v12.56H136.1V382.28h-1.44V379.9h1.44v-6.51c0-1.37.11-3.1,1.44-4.21a4.67,4.67,0,0,1,3-1,5,5,0,0,1,1.84.33v2.52a4.67,4.67,0,0,0-1.7-.33,1.81,1.81,0,0,0-1.65.8,4.4,4.4,0,0,0-.33,2.16v6.22h3.68v2.38Z"/><path class="cls-2" d="M144.06,387.43a7.92,7.92,0,1,1,7.92,7.84A7.67,7.67,0,0,1,144.06,387.43Zm2.66,0a5.26,5.26,0,1,0,10.51,0c0-3.68-2.52-5.58-5.25-5.58A5.19,5.19,0,0,0,146.72,387.43Z"/><path class="cls-2" d="M164.18,379.9h2.59v1.62a4.19,4.19,0,0,1,3.39-2,5.39,5.39,0,0,1,2.3.62l-1.22,2.33a2.73,2.73,0,0,0-1.52-.5,2.48,2.48,0,0,0-2.08.94c-.44.57-.87,1.58-.87,4v7.88h-2.59Z"/><path class="cls-2" d="M195.32,379.9h2.59v14.94h-2.59v-2.09a6.28,6.28,0,0,1-5.11,2.52c-3.78,0-7.27-2.66-7.27-7.92s3.45-7.81,7.27-7.81a6.17,6.17,0,0,1,5.11,2.49Zm-9.72,7.45c0,3.21,1.8,5.62,4.9,5.62s5-2.63,5-5.58c0-3.85-2.66-5.54-5-5.54C187.94,381.85,185.6,383.72,185.6,387.35Z"/><path class="cls-2" d="M205.8,382.28v12.56h-2.6V382.28h-1.58V379.9h1.58v-5.4h2.6v5.4h2.59v2.38Z"/><path class="cls-2" d="M222.46,368.6v26.24h-2.59V368.6Z"/><path class="cls-2" d="M251.4,391.1a7.29,7.29,0,0,1-6.73,4.17,6.69,6.69,0,0,1-5.86-3,6,6,0,0,1-5.62,3c-3.49,0-6.44-1.58-6.44-4.86s2.77-4.93,6.22-4.93a7,7,0,0,1,4.29,1.26,6.1,6.1,0,0,0-.69-3.16,3.72,3.72,0,0,0-3.56-1.73,15.3,15.3,0,0,0-4.61.93v-2.44a14.29,14.29,0,0,1,4.65-.8c1.65,0,4.35.29,5.65,3a6.55,6.55,0,0,1,5.76-3c4.35,0,7.12,3.21,7.12,8.1v.25H239.92c.11,3,2.16,5.08,4.72,5.08a5.31,5.31,0,0,0,4.6-3.17Zm-22.06-.69c0,1.08.79,2.56,3.78,2.56s4-1.51,4-2.66-1-2.52-3.92-2.52C230.63,387.79,229.34,389,229.34,390.41Zm19.58-4.67a4.44,4.44,0,0,0-8.82,0Z"/><path class="cls-2" d="M262,383.36a2.29,2.29,0,0,0-2.09-1.51,1.65,1.65,0,0,0-1.8,1.69c0,1.08.72,1.4,2.41,2.12,2.16.9,3.17,1.59,3.75,2.31a3.56,3.56,0,0,1,.79,2.41c0,3.13-2.27,4.89-5.15,4.89a5.34,5.34,0,0,1-5.22-3.81l2.23-.94a3.38,3.38,0,0,0,3,2.45,2.32,2.32,0,0,0,2.45-2.38c0-1.4-1-1.87-2.41-2.48a9.62,9.62,0,0,1-3.63-2.2,3.21,3.21,0,0,1-.69-2.19,4,4,0,0,1,4.36-4.18,4.32,4.32,0,0,1,4.1,2.7Z"/><path class="cls-2" d="M282.11,391a9.21,9.21,0,0,1-1.83,2.41,7.27,7.27,0,0,1-5,1.83c-3.6,0-7.38-2.26-7.38-7.81,0-4.46,2.74-7.92,7.24-7.92a6.68,6.68,0,0,1,5.65,2.74,10.07,10.07,0,0,1,1.4,5.61H270.6a4.78,4.78,0,0,0,4.75,5.08,4.56,4.56,0,0,0,3.06-1.08,6,6,0,0,0,1.54-2.05Zm-2.55-5.29a4.47,4.47,0,0,0-4.39-3.89,4.52,4.52,0,0,0-4.39,3.89Z"/><path class="cls-2" d="M295.22,379.9h2.59v1.59a4.33,4.33,0,0,1,3.71-1.95,4.49,4.49,0,0,1,4.07,2.41,5,5,0,0,1,4.49-2.41c4.43,0,4.86,3.71,4.86,5.83v9.47h-2.59v-9.07c0-1.69-.21-3.92-2.66-3.92-3,0-3.31,2.88-3.31,4.68v8.31h-2.59V386c0-1.05,0-4.14-2.7-4.14-3,0-3.28,3.06-3.28,4.86v8.13h-2.59Z"/><path class="cls-2" d="M333.45,391a9,9,0,0,1-1.84,2.41,7.25,7.25,0,0,1-5,1.83c-3.6,0-7.38-2.26-7.38-7.81,0-4.46,2.73-7.92,7.23-7.92a6.67,6.67,0,0,1,5.65,2.74,10,10,0,0,1,1.41,5.61H321.93a4.79,4.79,0,0,0,4.75,5.08,4.52,4.52,0,0,0,3.06-1.08,5.87,5.87,0,0,0,1.55-2.05Zm-2.56-5.29a4.47,4.47,0,0,0-4.39-3.89,4.54,4.54,0,0,0-4.39,3.89Z"/><path class="cls-2" d="M337.84,379.9h2.59v1.62a4.19,4.19,0,0,1,3.39-2,5.39,5.39,0,0,1,2.3.62l-1.22,2.33a2.72,2.72,0,0,0-1.51-.5,2.48,2.48,0,0,0-2.09.94c-.43.57-.87,1.58-.87,4v7.88h-2.59Z"/><path class="cls-2" d="M361.2,391a9.21,9.21,0,0,1-1.83,2.41,7.27,7.27,0,0,1-5,1.83c-3.6,0-7.38-2.26-7.38-7.81,0-4.46,2.74-7.92,7.24-7.92a6.68,6.68,0,0,1,5.65,2.74,10.07,10.07,0,0,1,1.4,5.61H349.69a4.78,4.78,0,0,0,4.75,5.08,4.56,4.56,0,0,0,3.06-1.08,6,6,0,0,0,1.54-2.05Zm-2.55-5.29a4.47,4.47,0,0,0-4.39-3.89,4.52,4.52,0,0,0-4.39,3.89Z"/><path class="cls-2" d="M368.19,391.6a1.8,1.8,0,1,1-1.8,1.8A1.83,1.83,0,0,1,368.19,391.6Zm-1.3-1.62V370.83h2.59V390Z"/></g></g></svg>
