<svg xmlns="http://www.w3.org/2000/svg" width="491.59" height="152.5" viewBox="0 0 491.59 152.5"><defs><style>.cls-1{fill:#f4912d;stroke:#000;stroke-width:2.5px;}.cls-2{isolation:isolate;font-size:36px;fill:#fff;font-family:Futura-Medium, Futura;}.cls-3{letter-spacing:-0.02em;}.cls-4{letter-spacing:0.01em;}.cls-5{letter-spacing:-0.02em;}.cls-6{letter-spacing:-0.02em;}.cls-7{letter-spacing:0.02em;}</style></defs><title>instru2</title><g id="Lag_2" data-name="Lag 2"><g id="Lag_1-2" data-name="Lag 1"><path id="Taleboble" class="cls-1" d="M491.25,151.12s-12,1.4-21-5c-.4-.3-4.4,4.9-24,5-41.6.1-420,0-420,0s-25.2-2.4-25-30,0-94.85,0-94.85,1.3-24.9,28-25,425,0,425,0,25.5,1.1,26,22,1,114.85,1,114.85S478,147.42,491.25,151.12Z"/><text class="cls-2" transform="translate(22.65 45.28)">Sådan! Du har pak<tspan class="cls-3" x="312.4" y="0">k</tspan><tspan class="cls-4" x="329.75" y="0">e</tspan><tspan x="349.98" y="0">t din </tspan><tspan class="cls-4" x="0" y="43.2">t</tspan><tspan x="10.16" y="43.2">as</tspan><tspan class="cls-3" x="46.35" y="43.2">k</tspan><tspan x="63.7" y="43.2">e og </tspan><tspan class="cls-5" x="149.03" y="43.2">k</tspan><tspan x="166.34" y="43.2">an lige nå i s</tspan><tspan class="cls-6" x="376.4" y="43.2">k</tspan><tspan x="393.61" y="43.2">ole, </tspan><tspan x="0" y="86.4">inden klok</tspan><tspan class="cls-3" x="167.52" y="86.4">k</tspan><tspan x="184.87" y="86.4">en </tspan><tspan class="cls-7" x="235.63" y="86.4">r</tspan><tspan x="249.64" y="86.4">inger! </tspan></text></g></g></svg>
