<svg xmlns="http://www.w3.org/2000/svg" viewBox="0 0 491.59 152.49"><defs><style>.cls-1{fill:#f4912d;stroke:#000;stroke-width:2.5px;}.cls-2{fill:#fff;}</style></defs><title>instruk3</title><g id="Layer_2" data-name="Layer 2"><g id="Layer_1-2" data-name="Layer 1"><path id="Taleboble" class="cls-1" d="M491.25,151.11s-12,1.4-21-5c-.4-.3-4.4,4.9-24,5-41.6.1-420,.06-420,.06s-25.2-2.4-25-30,0-94.85,0-94.85,1.3-24.9,28-25,425-.06,425-.06,25.5,1.1,26,22,1,114.85,1,114.85S478,147.41,491.25,151.11Z"/><path class="cls-2" d="M28.24,21.23,35,39.55l6.77-18.32h2.95L35,46.68,25.29,21.23Z"/><path class="cls-2" d="M49.09,22.82a1.84,1.84,0,1,1-1.84,1.83A1.84,1.84,0,0,1,49.09,22.82Zm1.29,7.48V45.24H47.79V30.3Z"/><path class="cls-2" d="M58.19,19V45.24H55.6V19Z"/><path class="cls-2" d="M83.57,19h2.59V45.24H83.57V43.15a6.28,6.28,0,0,1-5.11,2.52c-3.78,0-7.27-2.66-7.27-7.92s3.45-7.81,7.27-7.81a6.17,6.17,0,0,1,5.11,2.49ZM73.85,37.75c0,3.21,1.8,5.62,4.9,5.62s5-2.63,5-5.58c0-3.85-2.66-5.54-5-5.54C76.19,32.25,73.85,34.12,73.85,37.75Z"/><path class="cls-2" d="M94,39a5.1,5.1,0,0,0,.72,3.21,3.16,3.16,0,0,0,2.62,1.15A3.19,3.19,0,0,0,100,42.22a5.1,5.1,0,0,0,.72-3.21V30.3h2.59v9c0,1.84-.18,3.21-1.37,4.5a6.52,6.52,0,0,1-9.14,0c-1.19-1.29-1.37-2.66-1.37-4.5v-9H94Z"/><path class="cls-2" d="M128.64,19h2.59V45.24h-2.59V43.15a6.28,6.28,0,0,1-5.11,2.52c-3.78,0-7.27-2.66-7.27-7.92s3.45-7.81,7.27-7.81a6.17,6.17,0,0,1,5.11,2.49Zm-9.72,18.75c0,3.21,1.8,5.62,4.9,5.62s5-2.63,5-5.58c0-3.85-2.67-5.54-5-5.54C121.26,32.25,118.92,34.12,118.92,37.75Z"/><path class="cls-2" d="M149.7,41.43a9,9,0,0,1-1.84,2.41,7.23,7.23,0,0,1-5,1.83c-3.6,0-7.38-2.26-7.38-7.81,0-4.46,2.73-7.92,7.23-7.92a6.65,6.65,0,0,1,5.65,2.74,10,10,0,0,1,1.41,5.61H138.18a4.79,4.79,0,0,0,4.75,5.08A4.52,4.52,0,0,0,146,42.29a5.87,5.87,0,0,0,1.55-2Zm-2.56-5.3a4.46,4.46,0,0,0-4.39-3.88,4.54,4.54,0,0,0-4.39,3.88Z"/><path class="cls-2" d="M156.69,19V45.24h-2.6V19Z"/><path class="cls-2" d="M175.15,41.43a9.21,9.21,0,0,1-1.83,2.41,7.27,7.27,0,0,1-5,1.83c-3.6,0-7.38-2.26-7.38-7.81,0-4.46,2.74-7.92,7.24-7.92a6.68,6.68,0,0,1,5.65,2.74,10.07,10.07,0,0,1,1.4,5.61H163.63a4.79,4.79,0,0,0,4.75,5.08,4.52,4.52,0,0,0,3.06-1.08,5.87,5.87,0,0,0,1.55-2Zm-2.55-5.3a4.47,4.47,0,0,0-4.39-3.88,4.54,4.54,0,0,0-4.4,3.88Z"/><path class="cls-2" d="M199.7,19h2.6V45.24h-2.6V43.15a6.28,6.28,0,0,1-5.11,2.52c-3.78,0-7.27-2.66-7.27-7.92s3.46-7.81,7.27-7.81a6.17,6.17,0,0,1,5.11,2.49ZM190,37.75c0,3.21,1.8,5.62,4.9,5.62s5-2.63,5-5.58c0-3.85-2.67-5.54-5-5.54C192.32,32.25,190,34.12,190,37.75Z"/><path class="cls-2" d="M208.45,22.82a1.84,1.84,0,1,1-1.83,1.83A1.84,1.84,0,0,1,208.45,22.82Zm1.3,7.48V45.24h-2.59V30.3Z"/><path class="cls-2" d="M228.21,41.43a9.21,9.21,0,0,1-1.83,2.41,7.27,7.27,0,0,1-5,1.83c-3.6,0-7.38-2.26-7.38-7.81,0-4.46,2.74-7.92,7.24-7.92a6.68,6.68,0,0,1,5.65,2.74,10.07,10.07,0,0,1,1.4,5.61H216.7a4.78,4.78,0,0,0,4.75,5.08,4.56,4.56,0,0,0,3.06-1.08,6,6,0,0,0,1.54-2Zm-2.55-5.3a4.46,4.46,0,0,0-4.39-3.88,4.52,4.52,0,0,0-4.39,3.88Z"/><path class="cls-2" d="M232.61,30.3h2.59V32a5.28,5.28,0,0,1,4.28-2.09,5.07,5.07,0,0,1,4.29,2,6.72,6.72,0,0,1,.86,4v9.25H242V36.06a4.33,4.33,0,0,0-.69-2.73,2.91,2.91,0,0,0-2.44-1.08,3.26,3.26,0,0,0-2.63,1.15,6.28,6.28,0,0,0-1.08,4v7.81h-2.59Z"/><path class="cls-2" d="M261.23,32.68V45.24h-2.6V32.68h-1.58V30.3h1.58V24.9h2.6v5.4h2.59v2.38Z"/><path class="cls-2" d="M272.39,43.84,265.51,30.3h2.95L273.75,41l4.86-10.69h2.88l-11,23.22h-2.88Z"/><path class="cls-2" d="M296,30.3h2.59V44.88a9.4,9.4,0,0,1-1.44,5.87,7.25,7.25,0,0,1-6,2.77,7.39,7.39,0,0,1-5.33-2,6.69,6.69,0,0,1-1.94-4.82h2.55a4.76,4.76,0,0,0,1.15,3.1,4.66,4.66,0,0,0,3.6,1.44,4.18,4.18,0,0,0,4-2.09,6.92,6.92,0,0,0,.83-3.82V43.15a6.28,6.28,0,0,1-5.11,2.52,7.15,7.15,0,0,1-5.11-2,8.09,8.09,0,0,1-2.16-5.91A7.83,7.83,0,0,1,285.78,32a7.37,7.37,0,0,1,5.11-2A6.21,6.21,0,0,1,296,32.43Zm-8.21,3.35a5.69,5.69,0,0,0-1.51,4.1,5.78,5.78,0,0,0,1.69,4.4,4.56,4.56,0,0,0,3.21,1.22,4.38,4.38,0,0,0,3.27-1.26,6.05,6.05,0,0,0,1.69-4.32,5.89,5.89,0,0,0-1.58-4.21,4.78,4.78,0,0,0-3.38-1.33A4.63,4.63,0,0,0,287.79,33.65Z"/><path class="cls-2" d="M315.26,30.3h2.59V44.88a9.4,9.4,0,0,1-1.44,5.87,7.25,7.25,0,0,1-6,2.77,7.39,7.39,0,0,1-5.33-2,6.69,6.69,0,0,1-1.94-4.82h2.55a4.76,4.76,0,0,0,1.15,3.1,4.66,4.66,0,0,0,3.6,1.44,4.18,4.18,0,0,0,4-2.09,6.92,6.92,0,0,0,.83-3.82V43.15a6.28,6.28,0,0,1-5.11,2.52,7.15,7.15,0,0,1-5.11-2,8.09,8.09,0,0,1-2.16-5.91A7.83,7.83,0,0,1,305,32a7.37,7.37,0,0,1,5.11-2,6.22,6.22,0,0,1,5.11,2.49Zm-8.21,3.35a5.69,5.69,0,0,0-1.51,4.1,5.78,5.78,0,0,0,1.69,4.4,4.56,4.56,0,0,0,3.21,1.22,4.42,4.42,0,0,0,3.27-1.26,6.05,6.05,0,0,0,1.69-4.32,5.89,5.89,0,0,0-1.58-4.21,4.78,4.78,0,0,0-3.38-1.33A4.63,4.63,0,0,0,307.05,33.65Z"/><path class="cls-2" d="M336.32,41.43a9,9,0,0,1-1.84,2.41,7.25,7.25,0,0,1-5,1.83c-3.6,0-7.38-2.26-7.38-7.81,0-4.46,2.73-7.92,7.23-7.92A6.67,6.67,0,0,1,335,32.68a10,10,0,0,1,1.41,5.61H324.8a4.79,4.79,0,0,0,4.75,5.08,4.52,4.52,0,0,0,3.06-1.08,5.87,5.87,0,0,0,1.55-2Zm-2.56-5.3a4.46,4.46,0,0,0-4.39-3.88A4.54,4.54,0,0,0,325,36.13Z"/><path class="cls-2" d="M352.16,30.3h2.59V44.88a9.4,9.4,0,0,1-1.44,5.87,7.26,7.26,0,0,1-6,2.77,7.39,7.39,0,0,1-5.33-2,6.69,6.69,0,0,1-1.95-4.82h2.56a4.43,4.43,0,0,0,4.75,4.54,4.18,4.18,0,0,0,4-2.09,6.92,6.92,0,0,0,.83-3.82V43.15a6.28,6.28,0,0,1-5.11,2.52,7.15,7.15,0,0,1-5.11-2,8.09,8.09,0,0,1-2.16-5.91A7.83,7.83,0,0,1,341.94,32a7.37,7.37,0,0,1,5.11-2,6.22,6.22,0,0,1,5.11,2.49ZM344,33.65a5.69,5.69,0,0,0-1.51,4.1,5.78,5.78,0,0,0,1.69,4.4,4.56,4.56,0,0,0,3.21,1.22,4.42,4.42,0,0,0,3.27-1.26,6.05,6.05,0,0,0,1.69-4.32,5.89,5.89,0,0,0-1.58-4.21,4.78,4.78,0,0,0-3.38-1.33A4.63,4.63,0,0,0,344,33.65Z"/><path class="cls-2" d="M362.56,39a5.1,5.1,0,0,0,.72,3.21,3.58,3.58,0,0,0,5.26,0,5.1,5.1,0,0,0,.72-3.21V30.3h2.59v9c0,1.84-.18,3.21-1.37,4.5a6.52,6.52,0,0,1-9.14,0c-1.19-1.29-1.37-2.66-1.37-4.5v-9h2.59Z"/><path class="cls-2" d="M377.07,30.3h2.59v1.59a4.34,4.34,0,0,1,3.71-1.95,4.47,4.47,0,0,1,4.07,2.42,5,5,0,0,1,4.5-2.42c4.43,0,4.86,3.71,4.86,5.83v9.47h-2.59V36.17c0-1.69-.22-3.92-2.67-3.92-3,0-3.31,2.88-3.31,4.68v8.31h-2.59V36.39c0-1,0-4.14-2.7-4.14-2.95,0-3.28,3.06-3.28,4.86v8.13h-2.59Z"/><path class="cls-2" d="M402.05,30.3h2.6v1.59a4.31,4.31,0,0,1,3.7-1.95,4.47,4.47,0,0,1,4.07,2.42,5,5,0,0,1,4.5-2.42c4.43,0,4.86,3.71,4.86,5.83v9.47h-2.59V36.17c0-1.69-.22-3.92-2.66-3.92-3,0-3.32,2.88-3.32,4.68v8.31h-2.59V36.39c0-1,0-4.14-2.7-4.14-2.95,0-3.27,3.06-3.27,4.86v8.13h-2.6Z"/><path class="cls-2" d="M428.34,22.82a1.84,1.84,0,1,1-1.84,1.83A1.84,1.84,0,0,1,428.34,22.82Zm1.29,7.48V45.24H427V30.3Z"/><path class="cls-2" d="M434.2,36.24h7.92v2.67H434.2Z"/><path class="cls-2" d="M40.7,84.63A9.25,9.25,0,0,1,38.86,87a7.27,7.27,0,0,1-5,1.83c-3.6,0-7.38-2.26-7.38-7.81,0-4.46,2.74-7.92,7.24-7.92a6.68,6.68,0,0,1,5.65,2.74,9.91,9.91,0,0,1,1.4,5.61H29.18a4.78,4.78,0,0,0,4.75,5.08A4.56,4.56,0,0,0,37,85.49a6.12,6.12,0,0,0,1.55-2Zm-2.56-5.3a4.46,4.46,0,0,0-4.39-3.88,4.52,4.52,0,0,0-4.39,3.88Z"/><path class="cls-2" d="M45.09,73.5h2.59v1.62a4.16,4.16,0,0,1,3.38-2,5.4,5.4,0,0,1,2.31.62l-1.23,2.33a2.68,2.68,0,0,0-1.51-.5,2.51,2.51,0,0,0-2.09.94c-.43.57-.86,1.58-.86,4v7.88H45.09Z"/><path class="cls-2" d="M64.78,73.5h2.59v1.59a4.34,4.34,0,0,1,3.71-2,4.47,4.47,0,0,1,4.07,2.42,5,5,0,0,1,4.5-2.42c4.42,0,4.86,3.71,4.86,5.83v9.47h-2.6V79.37c0-1.69-.21-3.92-2.66-3.92-3,0-3.31,2.88-3.31,4.68v8.31H73.35V79.59c0-1,0-4.14-2.7-4.14-3,0-3.28,3.06-3.28,4.86v8.13H64.78Z"/><path class="cls-2" d="M103,84.63A9,9,0,0,1,101.17,87a7.25,7.25,0,0,1-5,1.83c-3.6,0-7.38-2.26-7.38-7.81,0-4.46,2.73-7.92,7.23-7.92a6.67,6.67,0,0,1,5.65,2.74,10,10,0,0,1,1.41,5.61H91.49a4.79,4.79,0,0,0,4.75,5.08,4.52,4.52,0,0,0,3.06-1.08,5.87,5.87,0,0,0,1.55-2Zm-2.56-5.3a4.46,4.46,0,0,0-4.39-3.88,4.54,4.54,0,0,0-4.39,3.88Z"/><path class="cls-2" d="M118.85,62.2h2.59V88.44h-2.59V86.35a6.28,6.28,0,0,1-5.11,2.52c-3.78,0-7.27-2.66-7.27-7.92s3.45-7.81,7.27-7.81a6.17,6.17,0,0,1,5.11,2.49ZM109.13,81c0,3.21,1.8,5.62,4.9,5.62s5-2.63,5-5.58c0-3.85-2.66-5.54-5-5.54C111.47,75.45,109.13,77.32,109.13,81Z"/><path class="cls-2" d="M146.82,62.2h2.59V88.44h-2.59V86.35a6.28,6.28,0,0,1-5.11,2.52c-3.78,0-7.27-2.66-7.27-7.92s3.45-7.81,7.27-7.81a6.17,6.17,0,0,1,5.11,2.49ZM137.1,81c0,3.21,1.8,5.62,4.9,5.62s5-2.63,5-5.58c0-3.85-2.66-5.54-5-5.54C139.44,75.45,137.1,77.32,137.1,81Z"/><path class="cls-2" d="M167.88,84.63A9,9,0,0,1,166,87a7.25,7.25,0,0,1-5,1.83c-3.6,0-7.38-2.26-7.38-7.81,0-4.46,2.73-7.92,7.23-7.92a6.67,6.67,0,0,1,5.65,2.74A10,10,0,0,1,168,81.49H156.36a4.79,4.79,0,0,0,4.75,5.08,4.52,4.52,0,0,0,3.06-1.08,5.87,5.87,0,0,0,1.55-2Zm-2.56-5.3a4.46,4.46,0,0,0-4.39-3.88,4.54,4.54,0,0,0-4.39,3.88Z"/><path class="cls-2" d="M192.43,73.5H195V88.44h-2.59V86.35a6.28,6.28,0,0,1-5.11,2.52c-3.78,0-7.27-2.66-7.27-7.92s3.45-7.81,7.27-7.81a6.17,6.17,0,0,1,5.11,2.49ZM182.71,81c0,3.21,1.8,5.62,4.9,5.62s5-2.63,5-5.58c0-3.85-2.67-5.54-5-5.54C185.05,75.45,182.71,77.32,182.71,81Z"/><path class="cls-2" d="M200.24,73.5h2.6v1.73a5.26,5.26,0,0,1,4.28-2.09,5.05,5.05,0,0,1,4.28,2.06,6.62,6.62,0,0,1,.87,4v9.25h-2.59V79.26a4.39,4.39,0,0,0-.69-2.73,2.91,2.91,0,0,0-2.45-1.08,3.24,3.24,0,0,0-2.62,1.15,6.28,6.28,0,0,0-1.08,4v7.81h-2.6Z"/><path class="cls-2" d="M217.49,73.5h2.59v1.62a4.16,4.16,0,0,1,3.38-2,5.4,5.4,0,0,1,2.31.62l-1.23,2.33a2.68,2.68,0,0,0-1.51-.5,2.51,2.51,0,0,0-2.09.94c-.43.57-.86,1.58-.86,4v7.88h-2.59Z"/><path class="cls-2" d="M240.85,84.63A9,9,0,0,1,239,87a7.23,7.23,0,0,1-5,1.83c-3.6,0-7.38-2.26-7.38-7.81,0-4.46,2.73-7.92,7.23-7.92a6.67,6.67,0,0,1,5.65,2.74A10,10,0,0,1,241,81.49H229.33a4.79,4.79,0,0,0,4.75,5.08,4.52,4.52,0,0,0,3.06-1.08,5.87,5.87,0,0,0,1.55-2Zm-2.56-5.3a4.46,4.46,0,0,0-4.39-3.88,4.54,4.54,0,0,0-4.39,3.88Z"/><path class="cls-2" d="M255.79,78a5.85,5.85,0,0,1-1.48,4.07,4.88,4.88,0,0,1-3.7,1.44,4.94,4.94,0,0,1-5.19-5.15,4.56,4.56,0,0,1,3-4.47,31.42,31.42,0,0,1,3-1,3.05,3.05,0,0,0,2.3-3.17,3.26,3.26,0,0,0-.93-2.52,3.15,3.15,0,0,0-2.2-.76,3.31,3.31,0,0,0-2.26.76,3.45,3.45,0,0,0-.94,2.41,5.21,5.21,0,0,0,.22,1.51H245a7.2,7.2,0,0,1-.14-1.58,5.48,5.48,0,0,1,1.37-3.89,5.86,5.86,0,0,1,10.22,4.14,5,5,0,0,1-1.23,3.53,6.54,6.54,0,0,1-2.77,1.8c-.82.29-1.72.5-2.59.9a2.63,2.63,0,0,0-1.76,2.52,2.52,2.52,0,0,0,.72,1.87,2.72,2.72,0,0,0,3.53,0A3.65,3.65,0,0,0,253.2,78Zm-5.15,7.23a1.8,1.8,0,1,1-1.8,1.8A1.83,1.83,0,0,1,250.64,85.27Z"/></g></g></svg>
