<svg xmlns="http://www.w3.org/2000/svg" viewBox="0 0 491.59 152.49"><defs><style>.cls-1{fill:#f4912d;stroke:#000;stroke-width:2.5px;}.cls-2{fill:#fff;}</style></defs><title>instruk4</title><g id="Layer_2" data-name="Layer 2"><g id="Layer_1-2" data-name="Layer 1"><path id="Taleboble" class="cls-1" d="M491.25,151.11s-12,1.4-21-5c-.4-.3-4.4,4.9-24,5-41.6.1-420,.06-420,.06s-25.2-2.4-25-30,0-94.85,0-94.85,1.3-24.9,28-25,425-.06,425-.06,25.5,1.1,26,22,1,114.85,1,114.85S478,147.41,491.25,151.11Z"/><path class="cls-2" d="M35.24,25.23,42,43.55l6.77-18.32h2.95L42,50.68,32.29,25.23Z"/><path class="cls-2" d="M56.09,26.82a1.84,1.84,0,1,1-1.84,1.83A1.84,1.84,0,0,1,56.09,26.82Zm1.29,7.48V49.24H54.79V34.3Z"/><path class="cls-2" d="M65.19,23V49.24H62.6V23Z"/><path class="cls-2" d="M90.57,23h2.59V49.24H90.57V47.15a6.28,6.28,0,0,1-5.11,2.52c-3.78,0-7.27-2.66-7.27-7.92s3.45-7.81,7.27-7.81a6.17,6.17,0,0,1,5.11,2.49ZM80.85,41.75c0,3.21,1.8,5.62,4.9,5.62s5-2.63,5-5.58c0-3.85-2.66-5.54-5-5.54C83.19,36.25,80.85,38.12,80.85,41.75Z"/><path class="cls-2" d="M101,43a5.1,5.1,0,0,0,.72,3.21,3.16,3.16,0,0,0,2.62,1.15A3.19,3.19,0,0,0,107,46.22a5.1,5.1,0,0,0,.72-3.21V34.3h2.59v9c0,1.84-.18,3.21-1.37,4.5a6.52,6.52,0,0,1-9.14,0c-1.19-1.29-1.37-2.66-1.37-4.5v-9H101Z"/><path class="cls-2" d="M135.64,34.3h2.59V48.88a9.4,9.4,0,0,1-1.44,5.87,7.25,7.25,0,0,1-6,2.77,7.39,7.39,0,0,1-5.33-2,6.69,6.69,0,0,1-1.94-4.82h2.55a4.76,4.76,0,0,0,1.15,3.1,4.66,4.66,0,0,0,3.6,1.44,4.18,4.18,0,0,0,4-2.09,6.92,6.92,0,0,0,.83-3.82V47.15a6.28,6.28,0,0,1-5.11,2.52,7.15,7.15,0,0,1-5.11-2,8.09,8.09,0,0,1-2.16-5.91A7.83,7.83,0,0,1,125.42,36a7.37,7.37,0,0,1,5.11-2,6.21,6.21,0,0,1,5.11,2.49Zm-8.21,3.35a5.69,5.69,0,0,0-1.51,4.1,5.78,5.78,0,0,0,1.69,4.4,4.56,4.56,0,0,0,3.21,1.22,4.38,4.38,0,0,0,3.27-1.26,6.06,6.06,0,0,0,1.7-4.32,5.89,5.89,0,0,0-1.59-4.21,4.78,4.78,0,0,0-3.38-1.33A4.63,4.63,0,0,0,127.43,37.65Z"/><path class="cls-2" d="M144.75,26.82a1.84,1.84,0,1,1-1.84,1.83A1.84,1.84,0,0,1,144.75,26.82Zm1.3,7.48V49.24h-2.6V34.3Z"/><path class="cls-2" d="M152,34.3l4.46,10.08,4.46-10.08h2.88l-7.34,15.91L149.11,34.3Z"/><path class="cls-2" d="M180.1,45.43a9,9,0,0,1-1.84,2.41,7.23,7.23,0,0,1-5,1.83c-3.6,0-7.38-2.26-7.38-7.81,0-4.46,2.73-7.92,7.23-7.92a6.67,6.67,0,0,1,5.65,2.74,10,10,0,0,1,1.41,5.61H168.58a4.79,4.79,0,0,0,4.75,5.08,4.52,4.52,0,0,0,3.06-1.08,5.87,5.87,0,0,0,1.55-2Zm-2.56-5.3a4.46,4.46,0,0,0-4.39-3.88,4.54,4.54,0,0,0-4.39,3.88Z"/><path class="cls-2" d="M204.58,30a5.9,5.9,0,0,0-1.4-1.8,4.35,4.35,0,0,0-2.7-.82c-2.38,0-4,1.47-4,3.7a2.53,2.53,0,0,0,.89,2.09,7.73,7.73,0,0,0,2.52,1.51l2.31,1a11.67,11.67,0,0,1,3.71,2.27,5.78,5.78,0,0,1,1.72,4.35c0,4.43-3.27,7.38-7.59,7.38a7.15,7.15,0,0,1-5.22-1.94,8.65,8.65,0,0,1-2.23-4.25l2.59-.72a5.62,5.62,0,0,0,1.44,3.06,4.92,4.92,0,0,0,8.28-3.42,3.61,3.61,0,0,0-1.19-2.81,10.47,10.47,0,0,0-2.88-1.65l-2.16-1a10.61,10.61,0,0,1-3.2-2A5,5,0,0,1,193.78,31c0-3.71,2.84-6.19,6.73-6.19a6.42,6.42,0,0,1,3.85,1.08,7.15,7.15,0,0,1,2.34,2.66Z"/><path class="cls-2" d="M213.47,26.82a1.84,1.84,0,1,1-1.83,1.83A1.84,1.84,0,0,1,213.47,26.82Zm1.3,7.48V49.24h-2.59V34.3Z"/><path class="cls-2" d="M231.43,34.3H234V48.88a9.4,9.4,0,0,1-1.44,5.87,7.28,7.28,0,0,1-6,2.77,7.41,7.41,0,0,1-5.33-2,6.73,6.73,0,0,1-1.94-4.82h2.56a4.43,4.43,0,0,0,4.75,4.54,4.2,4.2,0,0,0,4-2.09,7,7,0,0,0,.82-3.82V47.15a6.28,6.28,0,0,1-5.11,2.52,7.16,7.16,0,0,1-5.11-2,8.09,8.09,0,0,1-2.16-5.91A7.83,7.83,0,0,1,221.21,36a7.39,7.39,0,0,1,5.11-2,6.19,6.19,0,0,1,5.11,2.49Zm-8.2,3.35a5.69,5.69,0,0,0-1.51,4.1,5.78,5.78,0,0,0,1.69,4.4,4.53,4.53,0,0,0,3.2,1.22,4.42,4.42,0,0,0,3.28-1.26,6.05,6.05,0,0,0,1.69-4.32A5.93,5.93,0,0,0,230,37.58a4.8,4.8,0,0,0-3.39-1.33A4.63,4.63,0,0,0,223.23,37.65Z"/><path class="cls-2" d="M239.25,34.3h2.59V36a5.28,5.28,0,0,1,4.28-2.09A5.07,5.07,0,0,1,250.41,36a6.72,6.72,0,0,1,.86,4v9.25h-2.59V40.06a4.38,4.38,0,0,0-.68-2.73,2.94,2.94,0,0,0-2.45-1.08,3.27,3.27,0,0,0-2.63,1.15,6.28,6.28,0,0,0-1.08,4v7.81h-2.59Z"/><path class="cls-2" d="M269.74,45.43a9.25,9.25,0,0,1-1.84,2.41,7.27,7.27,0,0,1-5,1.83c-3.6,0-7.38-2.26-7.38-7.81,0-4.46,2.74-7.92,7.24-7.92a6.67,6.67,0,0,1,5.65,2.74,9.91,9.91,0,0,1,1.4,5.61H258.22A4.79,4.79,0,0,0,263,47.37,4.54,4.54,0,0,0,266,46.29a6.12,6.12,0,0,0,1.55-2Zm-2.56-5.3a4.46,4.46,0,0,0-4.39-3.88,4.52,4.52,0,0,0-4.39,3.88Z"/><path class="cls-2" d="M296.09,45.43a9,9,0,0,1-1.84,2.41,7.26,7.26,0,0,1-5,1.83c-3.6,0-7.38-2.26-7.38-7.81,0-4.46,2.73-7.92,7.23-7.92a6.67,6.67,0,0,1,5.65,2.74,10,10,0,0,1,1.41,5.61H284.57a4.79,4.79,0,0,0,4.75,5.08,4.52,4.52,0,0,0,3.06-1.08,6,6,0,0,0,1.55-2Zm-2.56-5.3a4.46,4.46,0,0,0-4.39-3.88,4.54,4.54,0,0,0-4.39,3.88Z"/><path class="cls-2" d="M300.48,34.3h2.59V36a5.28,5.28,0,0,1,4.29-2.09A5.07,5.07,0,0,1,311.64,36a6.65,6.65,0,0,1,.86,4v9.25h-2.59V40.06a4.38,4.38,0,0,0-.68-2.73,2.94,2.94,0,0,0-2.45-1.08,3.27,3.27,0,0,0-2.63,1.15,6.34,6.34,0,0,0-1.08,4v7.81h-2.59Z"/><path class="cls-2" d="M329.1,36.68V49.24h-2.59V36.68h-1.58V34.3h1.58V28.9h2.59v5.4h2.59v2.38Z"/><path class="cls-2" d="M345.91,34.3h2.59V49.24h-2.59V47.15a6.28,6.28,0,0,1-5.11,2.52c-3.78,0-7.27-2.66-7.27-7.92s3.46-7.81,7.27-7.81a6.17,6.17,0,0,1,5.11,2.49Zm-9.72,7.45c0,3.21,1.8,5.62,4.9,5.62s5-2.63,5-5.58c0-3.85-2.67-5.54-5-5.54C338.53,36.25,336.19,38.12,336.19,41.75Zm5.47-16.59a3.1,3.1,0,1,1-3.09,3.1A3.12,3.12,0,0,1,341.66,25.16Zm0,4.61a1.52,1.52,0,1,0-1.51-1.51A1.57,1.57,0,0,0,341.66,29.77Z"/><path class="cls-2" d="M353.72,34.3h2.6v1.62a4.15,4.15,0,0,1,3.38-2,5.35,5.35,0,0,1,2.3.62l-1.22,2.33a2.72,2.72,0,0,0-1.51-.5,2.5,2.5,0,0,0-2.09.94c-.43.57-.86,1.58-.86,4v7.88h-2.6Z"/><path class="cls-2" d="M384.86,34.3h2.59V49.24h-2.59V47.15a6.28,6.28,0,0,1-5.11,2.52c-3.78,0-7.27-2.66-7.27-7.92s3.46-7.81,7.27-7.81a6.17,6.17,0,0,1,5.11,2.49Zm-9.72,7.45c0,3.21,1.8,5.62,4.9,5.62s5-2.63,5-5.58c0-3.85-2.67-5.54-5-5.54C377.48,36.25,375.14,38.12,375.14,41.75Z"/><path class="cls-2" d="M395.34,36.68V49.24h-2.59V36.68h-1.44V34.3h1.44V27.79c0-1.37.11-3.1,1.44-4.21a4.61,4.61,0,0,1,3-1,4.93,4.93,0,0,1,1.83.33v2.52a4.62,4.62,0,0,0-1.69-.33,1.83,1.83,0,0,0-1.66.8,4.53,4.53,0,0,0-.32,2.16V34.3H399v2.38Z"/><path class="cls-2" d="M421.8,23h2.59V49.24H421.8V47.15a6.31,6.31,0,0,1-5.11,2.52c-3.78,0-7.27-2.66-7.27-7.92s3.45-7.81,7.27-7.81a6.19,6.19,0,0,1,5.11,2.49Zm-9.72,18.75c0,3.21,1.8,5.62,4.89,5.62s5-2.63,5-5.58c0-3.85-2.66-5.54-5-5.54C414.42,36.25,412.08,38.12,412.08,41.75Z"/><path class="cls-2" d="M430.55,26.82a1.84,1.84,0,1,1-1.84,1.83A1.84,1.84,0,0,1,430.55,26.82Zm1.29,7.48V49.24h-2.59V34.3Z"/><path class="cls-2" d="M437.06,34.3h2.59V36a5.28,5.28,0,0,1,4.29-2.09A5.07,5.07,0,0,1,448.22,36a6.65,6.65,0,0,1,.86,4v9.25h-2.59V40.06a4.38,4.38,0,0,0-.68-2.73,2.94,2.94,0,0,0-2.45-1.08,3.27,3.27,0,0,0-2.63,1.15,6.34,6.34,0,0,0-1.08,4v7.81h-2.59Z"/><path class="cls-2" d="M40.6,81a2.27,2.27,0,0,0-2.08-1.51,1.65,1.65,0,0,0-1.8,1.69c0,1.08.72,1.4,2.41,2.12,2.16.9,3.17,1.59,3.74,2.31A3.51,3.51,0,0,1,43.66,88c0,3.13-2.26,4.89-5.14,4.89a5.33,5.33,0,0,1-5.22-3.81l2.23-.94a3.38,3.38,0,0,0,3,2.45A2.32,2.32,0,0,0,41,88.19c0-1.4-1-1.87-2.41-2.48A9.77,9.77,0,0,1,35,83.51a3.27,3.27,0,0,1-.68-2.19,4,4,0,0,1,4.35-4.18,4.32,4.32,0,0,1,4.11,2.7Z"/><path class="cls-2" d="M46.51,85a7.92,7.92,0,1,1,7.92,7.84A7.67,7.67,0,0,1,46.51,85Zm2.66,0a5.26,5.26,0,1,0,10.51,0c0-3.68-2.52-5.58-5.25-5.58A5.19,5.19,0,0,0,49.17,85Z"/><path class="cls-2" d="M78.08,66.2h2.59V92.44H78.08V90.35A6.31,6.31,0,0,1,73,92.87c-3.78,0-7.27-2.66-7.27-7.92s3.45-7.81,7.27-7.81a6.19,6.19,0,0,1,5.11,2.49ZM68.36,85c0,3.21,1.8,5.62,4.9,5.62s5-2.63,5-5.58c0-3.85-2.66-5.54-5-5.54C70.7,79.45,68.36,81.32,68.36,85Z"/><path class="cls-2" d="M97.34,77.5h2.59V92.44H97.34V90.35a6.31,6.31,0,0,1-5.11,2.52C88.45,92.87,85,90.21,85,85s3.45-7.81,7.27-7.81a6.19,6.19,0,0,1,5.11,2.49ZM87.62,85c0,3.21,1.8,5.62,4.89,5.62s5-2.63,5-5.58c0-3.85-2.66-5.54-5-5.54C90,79.45,87.62,81.32,87.62,85Z"/><path class="cls-2" d="M105.87,77.5l4.46,10.08L114.8,77.5h2.88l-7.35,15.91L103,77.5Z"/><path class="cls-2" d="M132.19,77.5h2.59V92.44h-2.59V90.35a6.31,6.31,0,0,1-5.12,2.52c-3.78,0-7.27-2.66-7.27-7.92s3.46-7.81,7.27-7.81a6.21,6.21,0,0,1,5.12,2.49ZM122.47,85c0,3.21,1.8,5.62,4.89,5.62s5-2.63,5-5.58c0-3.85-2.66-5.54-5-5.54C124.81,79.45,122.47,81.32,122.47,85Z"/><path class="cls-2" d="M140,77.5h2.59v1.73a5.28,5.28,0,0,1,4.28-2.09,5.06,5.06,0,0,1,4.29,2.06,6.69,6.69,0,0,1,.86,4v9.25h-2.59V83.26a4.38,4.38,0,0,0-.68-2.73,2.94,2.94,0,0,0-2.45-1.08,3.27,3.27,0,0,0-2.63,1.15,6.28,6.28,0,0,0-1.08,4v7.81H140Z"/><path class="cls-2" d="M168.69,66.2h2.59V92.44h-2.59V90.35a6.31,6.31,0,0,1-5.11,2.52c-3.78,0-7.27-2.66-7.27-7.92s3.45-7.81,7.27-7.81a6.19,6.19,0,0,1,5.11,2.49ZM159,85c0,3.21,1.8,5.62,4.89,5.62s5-2.63,5-5.58c0-3.85-2.66-5.54-5-5.54C161.31,79.45,159,81.32,159,85Z"/><path class="cls-2" d="M187.05,82a5.85,5.85,0,0,1-1.48,4.07,4.9,4.9,0,0,1-3.71,1.44,5.1,5.1,0,0,1-3.74-1.44,5.16,5.16,0,0,1-1.44-3.71,4.55,4.55,0,0,1,3-4.46,26.43,26.43,0,0,1,3-1,3.05,3.05,0,0,0,2.3-3.17,3.3,3.3,0,0,0-.93-2.52,3.15,3.15,0,0,0-2.2-.76,3.34,3.34,0,0,0-2.27.76,3.44,3.44,0,0,0-.93,2.41,5.56,5.56,0,0,0,.21,1.51h-2.66a7.2,7.2,0,0,1-.14-1.58,5.51,5.51,0,0,1,1.36-3.89,5.86,5.86,0,0,1,10.23,4.14,5,5,0,0,1-1.23,3.53,6.54,6.54,0,0,1-2.77,1.8,26.65,26.65,0,0,0-2.59.9,2.64,2.64,0,0,0-1.77,2.52,2.52,2.52,0,0,0,.72,1.87,2.47,2.47,0,0,0,1.77.65,2.43,2.43,0,0,0,1.76-.65,3.66,3.66,0,0,0,.87-2.41Zm-5.15,7.23a1.8,1.8,0,1,1-1.8,1.8A1.83,1.83,0,0,1,181.9,89.27Z"/></g></g></svg>
