<svg xmlns="http://www.w3.org/2000/svg" width="489.58" height="149.65" viewBox="0 0 489.58 149.65"><defs><style>.cls-1{fill:#f4912d;stroke:#000;stroke-width:2.5px;}.cls-2{font-size:36px;fill:#fff;font-family:Futura-Medium, Futura;}.cls-3{letter-spacing:0em;}.cls-4{letter-spacing:-0.01em;}.cls-5{letter-spacing:-0.01em;}.cls-6{letter-spacing:0.01em;}.cls-7{letter-spacing:-0.02em;}.cls-8{letter-spacing:-0.02em;}</style></defs><title>instruk1</title><g id="Lag_2" data-name="Lag 2"><g id="Lag_1-2" data-name="Lag 1"><path id="Taleboble" class="cls-1" d="M489.25,148.28s-12,1.35-21-5c-.39-.28-4.41,4.94-24,5-41.58.13-418,0-418,0s-25.15-2.37-25-30,0-92,0-92,1.32-24.92,28-25,423,0,423,0,25.53,1.08,26,22,1,112,1,112S475.9,144.63,489.25,148.28Z"/><text class="cls-2" transform="translate(19.74 43.16)"><tspan class="cls-3">F</tspan><tspan x="18.37" y="0">ind dine ting på </tspan><tspan class="cls-4" x="286.58" y="0">v</tspan><tspan x="304.22" y="0">æ</tspan><tspan class="cls-5" x="335.21" y="0">r</tspan><tspan x="348.43" y="0">els</tspan><tspan class="cls-6" x="391.92" y="0">e</tspan><tspan x="412.15" y="0">t! </tspan><tspan x="0" y="43.2">Du put</tspan><tspan class="cls-6" x="107.91" y="43.2">t</tspan><tspan x="118.07" y="43.2">er dem i </tspan><tspan class="cls-6" x="263.72" y="43.2">t</tspan><tspan x="273.88" y="43.2">as</tspan><tspan class="cls-7" x="310.08" y="43.2">k</tspan><tspan x="327.43" y="43.2">en, </tspan><tspan class="cls-8" x="389.3" y="43.2">v</tspan><tspan x="406.78" y="43.2">ed </tspan><tspan x="0" y="86.4">at klik</tspan><tspan class="cls-7" x="96.33" y="86.4">k</tspan><tspan x="113.68" y="86.4">e på dem.</tspan></text></g></g></svg>
