<svg xmlns="http://www.w3.org/2000/svg" viewBox="0 0 489.58 184.88"><defs><style>.cls-1{fill:#00b9ff;stroke:#000;stroke-width:2.5px;}.cls-2{fill:#fff;}</style></defs><title>intro1</title><g id="Layer_2" data-name="Layer 2"><g id="Layer_1-2" data-name="Layer 1"><path id="Taleboble" class="cls-1" d="M489.25,183.51s-12,1.35-21-5c-.39-.28-4.41,4.94-24,5-41.58.13-418,0-418,0s-25.15-2.37-25-30,0-92,0-92,1.32-24.92,28-25,423,0,423,0,25.53,1.08,26,22,1,112,1,112S475.9,179.86,489.25,183.51Z"/><path class="cls-2" d="M34,65H46.32V55.29H49v24H46.32V67.56H34V79.3H31.35v-24H34Z"/><path class="cls-2" d="M68.1,75.48a8.93,8.93,0,0,1-1.84,2.42,7.25,7.25,0,0,1-5,1.83c-3.6,0-7.38-2.27-7.38-7.81,0-4.46,2.73-7.92,7.23-7.92a6.67,6.67,0,0,1,5.65,2.74,10,10,0,0,1,1.41,5.61H56.58a4.79,4.79,0,0,0,4.75,5.08,4.52,4.52,0,0,0,3.06-1.08,5.87,5.87,0,0,0,1.55-2Zm-2.56-5.29a4.46,4.46,0,0,0-4.39-3.88,4.54,4.54,0,0,0-4.39,3.88Z"/><path class="cls-2" d="M73.79,56.87A1.84,1.84,0,1,1,72,58.71,1.84,1.84,0,0,1,73.79,56.87Zm1.29,7.49V87.58H72.49V64.36Z"/><path class="cls-2" d="M95.17,67.82a2.27,2.27,0,0,0-2.09-1.51A1.65,1.65,0,0,0,91.28,68c0,1.08.72,1.4,2.42,2.12,2.16.9,3.16,1.58,3.74,2.3a3.55,3.55,0,0,1,.79,2.42c0,3.13-2.27,4.89-5.15,4.89a5.34,5.34,0,0,1-5.22-3.81L90.1,75a3.37,3.37,0,0,0,3,2.45,2.32,2.32,0,0,0,2.45-2.38c0-1.4-1-1.87-2.41-2.48a9.68,9.68,0,0,1-3.64-2.2,3.21,3.21,0,0,1-.68-2.19A4,4,0,0,1,93.19,64a4.33,4.33,0,0,1,4.11,2.7Z"/><path class="cls-2" d="M102,64.36h2.59v1.73A5.28,5.28,0,0,1,108.89,64a5.07,5.07,0,0,1,4.28,2,6.65,6.65,0,0,1,.86,4V79.3h-2.59V70.12a4.43,4.43,0,0,0-.68-2.74,3,3,0,0,0-2.45-1.07,3.27,3.27,0,0,0-2.63,1.15,6.33,6.33,0,0,0-1.08,4V79.3H102Z"/><path class="cls-2" d="M121.85,73.07a5.1,5.1,0,0,0,.72,3.21,3.57,3.57,0,0,0,5.25,0,5.1,5.1,0,0,0,.72-3.21V64.36h2.59v9c0,1.84-.18,3.2-1.36,4.5a6.53,6.53,0,0,1-9.15,0c-1.18-1.3-1.36-2.66-1.36-4.5v-9h2.59Z"/><path class="cls-2" d="M142.51,67.82a2.29,2.29,0,0,0-2.09-1.51,1.65,1.65,0,0,0-1.8,1.69c0,1.08.72,1.4,2.41,2.12,2.16.9,3.17,1.58,3.75,2.3a3.55,3.55,0,0,1,.79,2.42c0,3.13-2.27,4.89-5.15,4.89a5.34,5.34,0,0,1-5.22-3.81l2.23-.94a3.4,3.4,0,0,0,3,2.45,2.32,2.32,0,0,0,2.45-2.38c0-1.4-1-1.87-2.42-2.48a9.71,9.71,0,0,1-3.63-2.2,3.22,3.22,0,0,1-.69-2.19A4,4,0,0,1,140.53,64a4.31,4.31,0,0,1,4.1,2.7Z"/><path class="cls-2" d="M151.94,53.06V69.9l5.47-5.54h3.39l-6.41,6.41L162,79.3h-3.38l-6-6.8-.65.64V79.3h-2.59V53.06Z"/><path class="cls-2" d="M177.75,75.48a9.09,9.09,0,0,1-1.83,2.42,7.27,7.27,0,0,1-5,1.83c-3.6,0-7.38-2.27-7.38-7.81,0-4.46,2.74-7.92,7.24-7.92a6.68,6.68,0,0,1,5.65,2.74,10.07,10.07,0,0,1,1.4,5.61H166.23A4.79,4.79,0,0,0,171,77.43a4.56,4.56,0,0,0,3.06-1.08,6,6,0,0,0,1.54-2Zm-2.55-5.29a4.46,4.46,0,0,0-4.39-3.88,4.54,4.54,0,0,0-4.4,3.88Z"/><path class="cls-2" d="M184.74,76.06a1.8,1.8,0,1,1-1.8,1.8A1.83,1.83,0,0,1,184.74,76.06Zm-1.3-1.62V55.29H186V74.44Z"/><path class="cls-2" d="M201.91,55.29h4.9a13,13,0,0,1,8.85,2.81,11.67,11.67,0,0,1,4.1,9.21,11.44,11.44,0,0,1-4.21,9.22c-2.19,1.87-4.5,2.77-8.78,2.77h-4.86Zm2.66,21.49h2.34a10.29,10.29,0,0,0,6.88-2.16A9.19,9.19,0,0,0,217,67.31c0-5.76-4-9.5-10.12-9.5h-2.34Z"/><path class="cls-2" d="M226.93,73.07a5.1,5.1,0,0,0,.72,3.21,3.57,3.57,0,0,0,5.25,0,5.1,5.1,0,0,0,.72-3.21V64.36h2.6v9c0,1.84-.18,3.2-1.37,4.5a6.53,6.53,0,0,1-9.15,0c-1.18-1.3-1.36-2.66-1.36-4.5v-9h2.59Z"/><path class="cls-2" d="M256.3,67.82a2.27,2.27,0,0,0-2.08-1.51,1.64,1.64,0,0,0-1.8,1.69c0,1.08.72,1.4,2.41,2.12,2.16.9,3.17,1.58,3.74,2.3a3.55,3.55,0,0,1,.79,2.42c0,3.13-2.26,4.89-5.14,4.89A5.33,5.33,0,0,1,249,75.92l2.23-.94a3.38,3.38,0,0,0,3,2.45,2.32,2.32,0,0,0,2.45-2.38c0-1.4-1-1.87-2.41-2.48a9.77,9.77,0,0,1-3.64-2.2,3.27,3.27,0,0,1-.68-2.19A4,4,0,0,1,254.32,64a4.32,4.32,0,0,1,4.11,2.7Z"/><path class="cls-2" d="M265.74,53.06V69.9l5.47-5.54h3.38l-6.41,6.41,7.56,8.53h-3.38l-6-6.8-.64.64V79.3h-2.6V53.06Z"/><path class="cls-2" d="M290.11,64.36h2.59V79.3h-2.59V77.21A6.31,6.31,0,0,1,285,79.73c-3.78,0-7.27-2.66-7.27-7.92S281.18,64,285,64a6.19,6.19,0,0,1,5.11,2.48Zm-9.72,7.45c0,3.21,1.8,5.62,4.89,5.62s5-2.63,5-5.58c0-3.85-2.66-5.54-5-5.54C282.73,66.31,280.39,68.18,280.39,71.81Z"/><path class="cls-2" d="M300.51,53.06V79.3h-2.59V53.06Z"/><path class="cls-2" d="M315.74,56.87a1.84,1.84,0,1,1-1.84,1.84A1.85,1.85,0,0,1,315.74,56.87Zm1.3,7.49V79.3h-2.6V64.36Z"/><path class="cls-2" d="M337.12,67.82A2.27,2.27,0,0,0,335,66.31,1.64,1.64,0,0,0,333.24,68c0,1.08.71,1.4,2.41,2.12,2.16.9,3.16,1.58,3.74,2.3a3.55,3.55,0,0,1,.79,2.42c0,3.13-2.27,4.89-5.15,4.89a5.33,5.33,0,0,1-5.21-3.81l2.23-.94a3.37,3.37,0,0,0,3,2.45,2.32,2.32,0,0,0,2.45-2.38c0-1.4-1-1.87-2.41-2.48a9.68,9.68,0,0,1-3.64-2.2,3.27,3.27,0,0,1-.68-2.19A4,4,0,0,1,335.14,64a4.33,4.33,0,0,1,4.11,2.7Z"/><path class="cls-2" d="M346.55,53.06V69.9L352,64.36h3.38L349,70.77l7.56,8.53h-3.38l-6-6.8-.65.64V79.3H344V53.06Z"/><path class="cls-2" d="M358,71.88a7.92,7.92,0,1,1,7.92,7.85A7.67,7.67,0,0,1,358,71.88Zm2.67,0a5.26,5.26,0,1,0,10.51,0,5.26,5.26,0,1,0-10.51,0Z"/><path class="cls-2" d="M380.72,53.06V79.3h-2.6V53.06Z"/><path class="cls-2" d="M399.18,75.48a9.09,9.09,0,0,1-1.83,2.42,7.27,7.27,0,0,1-5,1.83c-3.6,0-7.38-2.27-7.38-7.81,0-4.46,2.74-7.92,7.24-7.92a6.68,6.68,0,0,1,5.65,2.74,10.07,10.07,0,0,1,1.4,5.61H387.66a4.79,4.79,0,0,0,4.76,5.08,4.56,4.56,0,0,0,3.06-1.08,6,6,0,0,0,1.54-2Zm-2.55-5.29a4.46,4.46,0,0,0-4.39-3.88,4.54,4.54,0,0,0-4.4,3.88Z"/><path class="cls-2" d="M412.29,64.36h2.59v1.73A5.28,5.28,0,0,1,419.16,64a5.07,5.07,0,0,1,4.29,2,6.72,6.72,0,0,1,.86,4V79.3h-2.59V70.12a4.37,4.37,0,0,0-.69-2.74,2.93,2.93,0,0,0-2.44-1.07A3.27,3.27,0,0,0,416,67.46a6.26,6.26,0,0,0-1.08,4V79.3h-2.59Z"/><path class="cls-2" d="M432.12,73.07a5.1,5.1,0,0,0,.72,3.21,3.58,3.58,0,0,0,5.26,0,5.1,5.1,0,0,0,.72-3.21V64.36h2.59v9c0,1.84-.18,3.2-1.37,4.5a6.52,6.52,0,0,1-9.14,0c-1.19-1.3-1.37-2.66-1.37-4.5v-9h2.59Z"/><path class="cls-2" d="M449.22,76.06a1.8,1.8,0,1,1-1.8,1.8A1.83,1.83,0,0,1,449.22,76.06Zm-1.29-1.62V55.29h2.59V74.44Z"/><path class="cls-2" d="M42.07,103.24a5.67,5.67,0,0,0-1.4-1.8,4.32,4.32,0,0,0-2.7-.83c-2.38,0-4,1.48-4,3.71a2.51,2.51,0,0,0,.9,2.09,7.91,7.91,0,0,0,2.52,1.51l2.3,1a11.67,11.67,0,0,1,3.71,2.27,5.77,5.77,0,0,1,1.73,4.35c0,4.43-3.28,7.38-7.6,7.38A7.17,7.17,0,0,1,32.28,121a8.69,8.69,0,0,1-2.23-4.25l2.59-.72a5.7,5.7,0,0,0,1.44,3.06,4.61,4.61,0,0,0,3.46,1.33,4.54,4.54,0,0,0,4.82-4.75,3.57,3.57,0,0,0-1.19-2.81,10.22,10.22,0,0,0-2.88-1.65l-2.16-1a10.73,10.73,0,0,1-3.2-2,5,5,0,0,1-1.66-3.93c0-3.7,2.85-6.19,6.74-6.19a6.53,6.53,0,0,1,3.85,1.08,7.27,7.27,0,0,1,2.34,2.67Z"/><path class="cls-2" d="M52.26,96.26V113.1l5.47-5.54h3.39L54.71,114l7.56,8.53H58.88l-6-6.8-.65.64v6.16H49.67V96.26Z"/><path class="cls-2" d="M69.9,121.09,63,107.56h3l5.29,10.69,4.86-10.69H79L68,130.78H65.15Z"/><path class="cls-2" d="M82.07,107.56h2.59v1.73a5.28,5.28,0,0,1,4.28-2.09,5.07,5.07,0,0,1,4.29,2,6.72,6.72,0,0,1,.86,4v9.25H91.5v-9.18a4.43,4.43,0,0,0-.68-2.74,3,3,0,0,0-2.45-1.08,3.28,3.28,0,0,0-2.63,1.16,6.26,6.26,0,0,0-1.08,4v7.81H82.07Z"/><path class="cls-2" d="M110.76,96.26h2.59V122.5h-2.59v-2.09a6.29,6.29,0,0,1-5.11,2.52c-3.78,0-7.27-2.66-7.27-7.92s3.45-7.81,7.27-7.81a6.19,6.19,0,0,1,5.11,2.48ZM101,115c0,3.21,1.8,5.62,4.9,5.62s5-2.63,5-5.58c0-3.85-2.66-5.55-5-5.55C103.38,109.5,101,111.38,101,115Z"/><path class="cls-2" d="M138.73,96.26h2.59V122.5h-2.59v-2.09a6.28,6.28,0,0,1-5.11,2.52c-3.78,0-7.27-2.66-7.27-7.92s3.45-7.81,7.27-7.81a6.17,6.17,0,0,1,5.11,2.48ZM129,115c0,3.21,1.8,5.62,4.9,5.62s5-2.63,5-5.58c0-3.85-2.66-5.55-5-5.55C131.35,109.5,129,111.38,129,115Z"/><path class="cls-2" d="M147.48,100.07a1.84,1.84,0,1,1-1.84,1.84A1.84,1.84,0,0,1,147.48,100.07Zm1.3,7.49V122.5h-2.6V107.56Z"/><path class="cls-2" d="M165.44,107.56H168v14.58a9.41,9.41,0,0,1-1.44,5.87,7.25,7.25,0,0,1-6,2.77,7.39,7.39,0,0,1-5.33-2,6.73,6.73,0,0,1-1.94-4.82h2.55a4.73,4.73,0,0,0,1.15,3.09,4.62,4.62,0,0,0,3.6,1.44,4.17,4.17,0,0,0,4-2.08,6.94,6.94,0,0,0,.83-3.82v-2.16a6.28,6.28,0,0,1-5.11,2.52,7.11,7.11,0,0,1-5.11-2,8.06,8.06,0,0,1-2.16-5.9,7.83,7.83,0,0,1,2.16-5.79,7.33,7.33,0,0,1,5.11-2,6.23,6.23,0,0,1,5.11,2.48Zm-8.21,3.35a5.67,5.67,0,0,0-1.51,4.1,5.74,5.74,0,0,0,1.69,4.39,4.52,4.52,0,0,0,3.21,1.23,4.42,4.42,0,0,0,3.27-1.26,6.06,6.06,0,0,0,1.7-4.32,5.88,5.88,0,0,0-1.59-4.21,4.78,4.78,0,0,0-3.38-1.34A4.64,4.64,0,0,0,157.23,110.91Z"/><path class="cls-2" d="M193.41,107.56H196V122.5h-2.59v-2.09a6.28,6.28,0,0,1-5.11,2.52c-3.78,0-7.27-2.66-7.27-7.92s3.46-7.81,7.27-7.81a6.17,6.17,0,0,1,5.11,2.48ZM183.69,115c0,3.21,1.8,5.62,4.9,5.62s5-2.63,5-5.58c0-3.85-2.67-5.55-5-5.55C186,109.5,183.69,111.38,183.69,115Z"/><path class="cls-2" d="M203.89,109.94V122.5H201.3V109.94h-1.59v-2.38h1.59v-5.4h2.59v5.4h2.59v2.38Z"/><path class="cls-2" d="M220.56,130.78H218V107.56h2.59v2.09a6.41,6.41,0,0,1,5.11-2.45c4.68,0,7.27,3.89,7.27,7.92s-2.63,7.81-7.16,7.81a6.32,6.32,0,0,1-5.22-2.52Zm9.72-15.66c0-3.67-2.49-5.62-4.9-5.62s-5,2-5,5.58c0,3.06,2,5.55,5,5.55S230.28,118.11,230.28,115.12Z"/><path class="cls-2" d="M248.67,107.56h2.59V122.5h-2.59v-2.09a6.28,6.28,0,0,1-5.11,2.52c-3.78,0-7.27-2.66-7.27-7.92s3.45-7.81,7.27-7.81a6.17,6.17,0,0,1,5.11,2.48ZM239,115c0,3.21,1.8,5.62,4.9,5.62s5-2.63,5-5.58c0-3.85-2.67-5.55-5-5.55C241.29,109.5,239,111.38,239,115Z"/><path class="cls-2" d="M259.08,96.26V113.1l5.47-5.54h3.38L261.52,114l7.56,8.53H265.7l-6-6.8-.64.64v6.16h-2.6V96.26Z"/><path class="cls-2" d="M274.59,96.26V113.1l5.47-5.54h3.39L277,114l7.56,8.53h-3.38l-6-6.8-.65.64v6.16H272V96.26Z"/><path class="cls-2" d="M300.4,118.68a8.89,8.89,0,0,1-1.83,2.41,7.23,7.23,0,0,1-5,1.84c-3.6,0-7.38-2.27-7.38-7.81,0-4.46,2.74-7.92,7.24-7.92a6.68,6.68,0,0,1,5.65,2.74,10.07,10.07,0,0,1,1.4,5.61H288.88a4.79,4.79,0,0,0,4.76,5.08,4.56,4.56,0,0,0,3.06-1.08,6,6,0,0,0,1.54-2Zm-2.55-5.29a4.48,4.48,0,0,0-4.39-3.89,4.55,4.55,0,0,0-4.4,3.89Z"/><path class="cls-2" d="M325,96.26h2.6V122.5H325v-2.09a6.28,6.28,0,0,1-5.11,2.52c-3.78,0-7.27-2.66-7.27-7.92s3.46-7.81,7.27-7.81a6.17,6.17,0,0,1,5.11,2.48ZM315.24,115c0,3.21,1.8,5.62,4.89,5.62s5-2.63,5-5.58c0-3.85-2.66-5.55-5-5.55C317.58,109.5,315.24,111.38,315.24,115Z"/><path class="cls-2" d="M333.7,100.07a1.84,1.84,0,1,1-1.83,1.84A1.85,1.85,0,0,1,333.7,100.07Zm1.3,7.49V122.5h-2.59V107.56Z"/><path class="cls-2" d="M340.22,107.56h2.59v1.73a5.28,5.28,0,0,1,4.28-2.09,5.07,5.07,0,0,1,4.29,2,6.72,6.72,0,0,1,.86,4v9.25h-2.59v-9.18a4.43,4.43,0,0,0-.68-2.74,3,3,0,0,0-2.45-1.08,3.28,3.28,0,0,0-2.63,1.16,6.26,6.26,0,0,0-1.08,4v7.81h-2.59Z"/><path class="cls-2" d="M368.84,109.94V122.5h-2.59V109.94h-1.59v-2.38h1.59v-5.4h2.59v5.4h2.59v2.38Z"/><path class="cls-2" d="M385.65,107.56h2.59V122.5h-2.59v-2.09a6.31,6.31,0,0,1-5.11,2.52c-3.78,0-7.27-2.66-7.27-7.92s3.45-7.81,7.27-7.81a6.19,6.19,0,0,1,5.11,2.48ZM375.93,115c0,3.21,1.8,5.62,4.9,5.62s5-2.63,5-5.58c0-3.85-2.66-5.55-5-5.55C378.27,109.5,375.93,111.38,375.93,115Z"/><path class="cls-2" d="M399.62,111a2.29,2.29,0,0,0-2.09-1.52,1.65,1.65,0,0,0-1.8,1.7c0,1.08.72,1.4,2.41,2.12,2.16.9,3.17,1.58,3.74,2.3a3.56,3.56,0,0,1,.8,2.41c0,3.14-2.27,4.9-5.15,4.9a5.34,5.34,0,0,1-5.22-3.82l2.23-.93a3.38,3.38,0,0,0,3,2.45,2.32,2.32,0,0,0,2.45-2.38c0-1.4-1-1.87-2.41-2.48a9.77,9.77,0,0,1-3.64-2.2,3.27,3.27,0,0,1-.68-2.19,4,4,0,0,1,4.36-4.18,4.3,4.3,0,0,1,4.1,2.7Z"/><path class="cls-2" d="M409.05,96.26V113.1l5.47-5.54h3.38L411.5,114l7.56,8.53h-3.39l-6-6.8-.65.64v6.16h-2.59V96.26Z"/><path class="cls-2" d="M434.86,118.68a8.74,8.74,0,0,1-1.84,2.41,7.22,7.22,0,0,1-5,1.84c-3.6,0-7.38-2.27-7.38-7.81,0-4.46,2.73-7.92,7.23-7.92a6.67,6.67,0,0,1,5.65,2.74,10,10,0,0,1,1.41,5.61H423.34a4.79,4.79,0,0,0,4.75,5.08,4.52,4.52,0,0,0,3.06-1.08,6.12,6.12,0,0,0,1.55-2Zm-2.56-5.29a4.47,4.47,0,0,0-4.39-3.89,4.55,4.55,0,0,0-4.39,3.89Z"/><path class="cls-2" d="M441.84,119.26a1.8,1.8,0,1,1-1.8,1.8A1.83,1.83,0,0,1,441.84,119.26Zm-1.29-1.62V98.49h2.59v19.15Z"/><path d="M33.27,25.38,37.26,0,46.48,20.3,55.87,0l3.75,25.38H56.88L54.61,8.68l-8.17,17.7L38.38,8.68,36,25.38Z"/><path d="M63.58,18a7.92,7.92,0,0,1,15.84,0,7.92,7.92,0,0,1-15.84,0Zm2.66,0a5.26,5.26,0,1,0,10.51,0c0-3.67-2.51-5.58-5.25-5.58A5.2,5.2,0,0,0,66.24,18Z"/><path d="M83.38,10.44H86v1.62a4.15,4.15,0,0,1,3.39-2,5.53,5.53,0,0,1,2.3.61L90.44,13a2.65,2.65,0,0,0-1.52-.5,2.5,2.5,0,0,0-2.08.93c-.44.58-.87,1.59-.87,4v7.89H83.38Z"/><path d="M95.69,10.08a1.8,1.8,0,1,1-1.8,1.8A1.83,1.83,0,0,1,95.69,10.08Zm0,12.13a1.8,1.8,0,1,1-1.8,1.8A1.83,1.83,0,0,1,95.69,22.21Z"/></g></g></svg>
