<svg xmlns="http://www.w3.org/2000/svg" width="489.58" height="188.75" viewBox="0 0 489.58 188.75"><defs><style>.cls-1{fill:#00b9ff;stroke:#000;stroke-width:2.5px;}.cls-2,.cls-7{font-size:36px;font-family:Futura-Medium, Futura;}.cls-2{fill:#fff;}.cls-3{letter-spacing:-0.02em;}.cls-4{letter-spacing:-0.02em;}.cls-5{letter-spacing:-0.02em;}.cls-6{letter-spacing:0.01em;}.cls-8{letter-spacing:0.02em;}</style></defs><title>intro1</title><g id="Lag_2" data-name="Lag 2"><g id="Lag_1-2" data-name="Lag 1"><path id="Taleboble" class="cls-1" d="M489.25,187.38s-12,1.35-21-5c-.39-.28-4.41,4.94-24,5-41.58.13-418,0-418,0s-25.15-2.37-25-30,0-92,0-92,1.32-24.92,28-25,423,0,423,0,25.53,1.08,26,22,1,112,1,112S475.9,183.73,489.25,187.38Z"/><text class="cls-2" transform="translate(19.74 82.26)">Hej snus<tspan class="cls-3" x="134.96" y="0">k</tspan><tspan x="152.31" y="0">e! Du s</tspan><tspan class="cls-4" x="266.75" y="0">k</tspan><tspan x="284.06" y="0">al i s</tspan><tspan class="cls-5" x="360.4" y="0">k</tspan><tspan x="377.61" y="0">ole </tspan><tspan x="0" y="43.2">nu! Skynd dig at pak</tspan><tspan class="cls-3" x="340.17" y="43.2">k</tspan><tspan x="357.52" y="43.2">e </tspan><tspan x="0" y="86.4">din </tspan><tspan class="cls-6" x="61.4" y="86.4">t</tspan><tspan x="71.56" y="86.4">as</tspan><tspan class="cls-3" x="107.75" y="86.4">k</tspan><tspan x="125.1" y="86.4">e!</tspan></text><text class="cls-7" transform="translate(35.42 31.7)">Mo<tspan class="cls-8" x="56.25" y="0">r</tspan><tspan x="70.26" y="0">:</tspan></text></g></g></svg>
