<svg xmlns="http://www.w3.org/2000/svg" viewBox="0 0 489.58 182.24"><defs><style>.cls-1{fill:#00b9ff;stroke:#000;stroke-width:2.5px;}.cls-2{fill:#fff;}</style></defs><title>intro2</title><g id="Layer_2" data-name="Layer 2"><g id="Layer_1-2" data-name="Layer 1"><path id="Taleboble" class="cls-1" d="M489.25,180.87s-12,1.35-21-5c-.39-.28-4.41,4.94-24,5-41.58.13-418,0-418,0s-25.15-2.37-25-30,0-92,0-92,1.32-24.92,28-25,423,0,423,0,25.53,1.08,26,22,1,112,1,112S475.9,177.21,489.25,180.87Z"/><path class="cls-2" d="M42.07,62a5.67,5.67,0,0,0-1.4-1.8,4.32,4.32,0,0,0-2.7-.83c-2.38,0-4,1.48-4,3.71a2.51,2.51,0,0,0,.9,2.09,7.73,7.73,0,0,0,2.52,1.51l2.3,1A11.67,11.67,0,0,1,43.37,70a5.77,5.77,0,0,1,1.73,4.35c0,4.43-3.28,7.38-7.6,7.38a7.17,7.17,0,0,1-5.22-1.94,8.65,8.65,0,0,1-2.23-4.25l2.59-.72a5.7,5.7,0,0,0,1.44,3.06,4.61,4.61,0,0,0,3.46,1.33,4.54,4.54,0,0,0,4.82-4.75,3.57,3.57,0,0,0-1.19-2.81A10.22,10.22,0,0,0,38.29,70l-2.16-1a10.73,10.73,0,0,1-3.2-2,5,5,0,0,1-1.66-3.92c0-3.71,2.85-6.2,6.74-6.2A6.53,6.53,0,0,1,41.86,58a7.27,7.27,0,0,1,2.34,2.67Z"/><path class="cls-2" d="M52.26,55.06V71.9l5.47-5.54h3.39l-6.41,6.41,7.56,8.53H58.88l-6-6.8-.65.64V81.3H49.67V55.06Z"/><path class="cls-2" d="M76.63,66.36h2.59V81.3H76.63V79.21a6.28,6.28,0,0,1-5.11,2.52c-3.78,0-7.27-2.66-7.27-7.92S67.7,66,71.52,66a6.17,6.17,0,0,1,5.11,2.48Zm-9.72,7.45c0,3.21,1.8,5.62,4.9,5.62s5-2.63,5-5.58c0-3.85-2.67-5.54-5-5.54C69.25,68.31,66.91,70.18,66.91,73.81Z"/><path class="cls-2" d="M87,55.06V81.3H84.45V55.06Z"/><path class="cls-2" d="M101.69,66.36l4.46,10.08,4.47-10.08h2.87l-7.34,15.91L98.81,66.36Z"/><path class="cls-2" d="M117.85,58.87A1.84,1.84,0,1,1,116,60.71,1.85,1.85,0,0,1,117.85,58.87Zm1.3,7.49V81.3h-2.59V66.36Z"/><path class="cls-2" d="M133.08,55.06h2.59v13A5.28,5.28,0,0,1,140,66a5.07,5.07,0,0,1,4.29,2,6.72,6.72,0,0,1,.86,4V81.3h-2.59V72.12a4.43,4.43,0,0,0-.68-2.74,3,3,0,0,0-2.45-1.07,3.27,3.27,0,0,0-2.63,1.15,6.26,6.26,0,0,0-1.08,4V81.3h-2.59Z"/><path class="cls-2" d="M174,77.56a7.3,7.3,0,0,1-6.73,4.17,6.68,6.68,0,0,1-5.86-3,6,6,0,0,1-5.62,3c-3.49,0-6.44-1.58-6.44-4.86s2.77-4.93,6.22-4.93a7,7,0,0,1,4.29,1.26,6.15,6.15,0,0,0-.69-3.17,3.73,3.73,0,0,0-3.56-1.72,15.3,15.3,0,0,0-4.61.93V66.79a14.51,14.51,0,0,1,4.65-.79c1.65,0,4.35.29,5.65,3a6.54,6.54,0,0,1,5.76-3c4.35,0,7.12,3.21,7.12,8.1v.25H162.56c.11,3,2.16,5.08,4.72,5.08a5.31,5.31,0,0,0,4.6-3.17ZM152,76.87c0,1.08.79,2.56,3.78,2.56s4-1.51,4-2.67-1-2.52-3.92-2.52C153.27,74.24,152,75.43,152,76.87Zm19.58-4.68a4.45,4.45,0,0,0-8.82,0Z"/><path class="cls-2" d="M178.51,66.36h2.59v1.73A5.28,5.28,0,0,1,185.39,66a5.07,5.07,0,0,1,4.28,2,6.72,6.72,0,0,1,.86,4V81.3h-2.59V72.12a4.43,4.43,0,0,0-.68-2.74,3,3,0,0,0-2.45-1.07,3.27,3.27,0,0,0-2.63,1.15,6.26,6.26,0,0,0-1.08,4V81.3h-2.59Z"/><path class="cls-2" d="M207.2,66.36h2.59V80.94a9.41,9.41,0,0,1-1.44,5.87,7.26,7.26,0,0,1-6,2.77,7.39,7.39,0,0,1-5.33-2,6.71,6.71,0,0,1-1.94-4.82h2.55a4.73,4.73,0,0,0,1.15,3.09,4.62,4.62,0,0,0,3.6,1.44,4.17,4.17,0,0,0,4-2.08,6.94,6.94,0,0,0,.83-3.82V79.21a6.28,6.28,0,0,1-5.11,2.52,7.15,7.15,0,0,1-5.11-2,8.09,8.09,0,0,1-2.16-5.91A7.83,7.83,0,0,1,197,68a7.33,7.33,0,0,1,5.11-2,6.24,6.24,0,0,1,5.11,2.48ZM199,69.71a5.67,5.67,0,0,0-1.51,4.1,5.74,5.74,0,0,0,1.69,4.39,4.52,4.52,0,0,0,3.21,1.23,4.42,4.42,0,0,0,3.27-1.26,6.05,6.05,0,0,0,1.69-4.32,5.87,5.87,0,0,0-1.58-4.21,4.78,4.78,0,0,0-3.38-1.33A4.63,4.63,0,0,0,199,69.71Z"/><path class="cls-2" d="M228.26,77.48a8.93,8.93,0,0,1-1.84,2.42,7.25,7.25,0,0,1-5,1.83c-3.6,0-7.38-2.27-7.38-7.81,0-4.46,2.73-7.92,7.23-7.92A6.67,6.67,0,0,1,227,68.74a10,10,0,0,1,1.41,5.61H216.74a4.79,4.79,0,0,0,4.75,5.08,4.52,4.52,0,0,0,3.06-1.08,5.87,5.87,0,0,0,1.55-2Zm-2.56-5.29a4.46,4.46,0,0,0-4.39-3.88,4.54,4.54,0,0,0-4.39,3.88Z"/><path class="cls-2" d="M244,75.07a5.1,5.1,0,0,0,.72,3.21,3.57,3.57,0,0,0,5.25,0,5.1,5.1,0,0,0,.72-3.21V66.36h2.59v9c0,1.84-.18,3.2-1.36,4.5a6.53,6.53,0,0,1-9.15,0c-1.19-1.3-1.37-2.66-1.37-4.5v-9H244Z"/><path class="cls-2" d="M269.91,55.06h2.59V81.3h-2.59V79.21a6.28,6.28,0,0,1-5.11,2.52c-3.78,0-7.27-2.66-7.27-7.92S261,66,264.8,66a6.17,6.17,0,0,1,5.11,2.48Zm-9.72,18.75c0,3.21,1.8,5.62,4.9,5.62s5-2.63,5-5.58c0-3.85-2.67-5.54-5-5.54C262.53,68.31,260.19,70.18,260.19,73.81Z"/><path class="cls-2" d="M287.73,58.87a1.84,1.84,0,1,1-1.83,1.84A1.85,1.85,0,0,1,287.73,58.87Zm1.3,7.49V81.3h-2.59V66.36Z"/><path class="cls-2" d="M33.36,111.94V124.5H30.77V111.94H29.33v-2.38h1.44v-6.51c0-1.37.11-3.1,1.44-4.22a4.66,4.66,0,0,1,3-1,4.88,4.88,0,0,1,1.83.33v2.52a4.62,4.62,0,0,0-1.69-.33,1.82,1.82,0,0,0-1.65.79,4.42,4.42,0,0,0-.33,2.16v6.23H37v2.38Z"/><path class="cls-2" d="M39.66,109.56h2.59v1.62a4.16,4.16,0,0,1,3.39-2,5.53,5.53,0,0,1,2.3.61l-1.22,2.34a2.72,2.72,0,0,0-1.51-.5,2.5,2.5,0,0,0-2.09.93c-.43.58-.87,1.59-.87,4v7.88H39.66Z"/><path class="cls-2" d="M51.94,102.07a1.84,1.84,0,1,1-1.84,1.84A1.84,1.84,0,0,1,51.94,102.07Zm1.29,7.49V124.5H50.64V109.56Z"/><path class="cls-2" d="M61.05,98.26V115.1l5.47-5.54H69.9L63.49,116l7.56,8.53H67.67l-6-6.8-.64.64v6.16h-2.6V98.26Z"/><path class="cls-2" d="M74.69,109.56l4.46,10.08,4.47-10.08H86.5l-7.35,15.91-7.34-15.91Z"/><path class="cls-2" d="M101,109.56h2.59V124.5H101v-2.09a6.28,6.28,0,0,1-5.11,2.52c-3.78,0-7.27-2.66-7.27-7.92s3.46-7.81,7.27-7.81a6.17,6.17,0,0,1,5.11,2.48ZM91.28,117c0,3.21,1.8,5.62,4.9,5.62s5-2.63,5-5.58c0-3.85-2.67-5.55-5-5.55C93.62,111.5,91.28,113.38,91.28,117Z"/><path class="cls-2" d="M108.82,109.56h2.59v1.62a4.14,4.14,0,0,1,3.38-2,5.49,5.49,0,0,1,2.3.61l-1.22,2.34a2.68,2.68,0,0,0-1.51-.5,2.53,2.53,0,0,0-2.09.93c-.43.58-.86,1.59-.86,4v7.88h-2.59Z"/><path class="cls-2" d="M123.18,111.94V124.5h-2.59V111.94H119v-2.38h1.59v-5.4h2.59v5.4h2.59v2.38Z"/><path class="cls-2" d="M141.79,120.68a8.74,8.74,0,0,1-1.84,2.41,7.21,7.21,0,0,1-5,1.84c-3.6,0-7.38-2.27-7.38-7.81,0-4.46,2.73-7.92,7.23-7.92a6.67,6.67,0,0,1,5.65,2.74,10,10,0,0,1,1.41,5.61H130.27a4.79,4.79,0,0,0,4.75,5.08,4.52,4.52,0,0,0,3.06-1.08,5.87,5.87,0,0,0,1.55-2Zm-2.56-5.29a4.47,4.47,0,0,0-4.39-3.89,4.55,4.55,0,0,0-4.39,3.89Z"/><path class="cls-2" d="M146.18,109.56h2.59v1.62a4.16,4.16,0,0,1,3.39-2,5.53,5.53,0,0,1,2.3.61l-1.22,2.34a2.72,2.72,0,0,0-1.51-.5,2.5,2.5,0,0,0-2.09.93c-.43.58-.87,1.59-.87,4v7.88h-2.59Z"/><path class="cls-2" d="M169.55,120.68a8.94,8.94,0,0,1-1.84,2.41,7.23,7.23,0,0,1-5,1.84c-3.6,0-7.38-2.27-7.38-7.81,0-4.46,2.74-7.92,7.24-7.92a6.68,6.68,0,0,1,5.65,2.74,9.91,9.91,0,0,1,1.4,5.61H158a4.78,4.78,0,0,0,4.75,5.08,4.56,4.56,0,0,0,3.06-1.08,6.12,6.12,0,0,0,1.55-2ZM167,115.39a4.47,4.47,0,0,0-4.39-3.89,4.53,4.53,0,0,0-4.39,3.89Z"/><path class="cls-2" d="M176.6,111.94V124.5H174V111.94h-1.58v-2.38H174v-5.4h2.59v5.4h2.59v2.38Z"/><path class="cls-2" d="M192.51,114.1a5.81,5.81,0,0,1-1.47,4.06,4.92,4.92,0,0,1-3.71,1.44,4.93,4.93,0,0,1-5.18-5.14,4.56,4.56,0,0,1,3-4.47c1.26-.57,2.27-.72,3-1a3,3,0,0,0,2.31-3.16,3.26,3.26,0,0,0-.94-2.52,3.12,3.12,0,0,0-2.19-.76,3.32,3.32,0,0,0-2.27.76,3.45,3.45,0,0,0-.94,2.41,5.26,5.26,0,0,0,.22,1.51h-2.67a7.94,7.94,0,0,1-.14-1.58,5.49,5.49,0,0,1,1.37-3.89,5.85,5.85,0,0,1,10.22,4.14,5.07,5.07,0,0,1-1.22,3.53,6.66,6.66,0,0,1-2.77,1.8,25.16,25.16,0,0,0-2.6.9,2.62,2.62,0,0,0-1.76,2.52,2.52,2.52,0,0,0,.72,1.87,2.44,2.44,0,0,0,1.76.65,2.49,2.49,0,0,0,1.77-.65,3.65,3.65,0,0,0,.86-2.41Zm-5.14,7.23a1.8,1.8,0,1,1-1.8,1.8A1.83,1.83,0,0,1,187.37,121.33Z"/><path d="M33.27,25.38,37.26,0,46.48,20.3,55.87,0l3.75,25.38H56.88L54.61,8.68l-8.17,17.7L38.38,8.68,36,25.38Z"/><path d="M63.58,18a7.92,7.92,0,0,1,15.84,0,7.92,7.92,0,0,1-15.84,0Zm2.66,0a5.26,5.26,0,1,0,10.51,0c0-3.67-2.51-5.58-5.25-5.58A5.2,5.2,0,0,0,66.24,18Z"/><path d="M83.38,10.44H86v1.62a4.15,4.15,0,0,1,3.39-2,5.53,5.53,0,0,1,2.3.61L90.44,13a2.65,2.65,0,0,0-1.52-.5,2.5,2.5,0,0,0-2.08.93c-.44.58-.87,1.59-.87,4v7.89H83.38Z"/><path d="M95.69,10.08a1.8,1.8,0,1,1-1.8,1.8A1.83,1.83,0,0,1,95.69,10.08Zm0,12.13a1.8,1.8,0,1,1-1.8,1.8A1.83,1.83,0,0,1,95.69,22.21Z"/></g></g></svg>
