<svg xmlns="http://www.w3.org/2000/svg" viewBox="0 0 533.98 223.38"><defs><style>.cls-1{fill:#89cce5;stroke:#000;stroke-width:2.5px;}.cls-2{fill:#fff;}</style></defs><title>intro7</title><g id="Layer_2" data-name="Layer 2"><g id="Layer_1-2" data-name="Layer 1"><g id="Tegnebræt_1" data-name="Tegnebræt 1"><path id="Form_2" data-name="Form 2" class="cls-1" d="M533.44,192.13s-20.93,2.26-24-6c-.1-.26-3.85,13-31,6-.4-.1-44.91,18.39-93,1-.48-.17-97.52,25.45-157-1-.33-.15-15.66,9.37-30,0-.27-.18-60,19.47-107,0-.21-.09-23.74,15-36-8-.12-.23-28.45-5.77-11-29,.25-.33-14.78-24.15,0-49,.23-.39-12.81-31.2,1-41,.69-.49-5.62-28.38,25-19,.18.06,39.85-21.07,74,1,.25.16,91.49-31.93,159,1,.41.2,44.08-30.08,91-2,.71.42,36.25-25.43,74,0,.93.62,16.44-15.33,29,1,.44.57,27-2,23,24-.05.32,17.44,22.18-1,53-.41.68,11.81,13.9,2,33-.09.17,9.95,11.19,0,24C520.23,182.69,526.1,195.66,533.44,192.13Z"/><path id="Form_3" data-name="Form 3" class="cls-1" d="M39.44,93.13s21.59-8.13,1-20c0,0-6.51-19.78-21-6-.06.06-11.54-4.21-10,8,0,.06-21.93,10.81,6,19C15.51,94.15,39.44,93.13,39.44,93.13Z"/><path id="Form_3_kopier" data-name="Form 3 kopier" class="cls-1" d="M275.44,221.13s21.59-8.13,1-20c0,0-6.51-19.78-21-6-.06.06-11.55-4.21-10,8,0,.06-21.93,10.81,6,19C251.51,222.15,275.44,221.13,275.44,221.13Z"/><path id="Form_3_kopier_2" data-name="Form 3 kopier 2" class="cls-1" d="M521.44,32.13s21.59-8.13,1-20c0,0-6.51-19.78-21-6-.06.06-11.55-4.21-10,8,0,.06-21.93,10.81,6,19C497.51,33.15,521.44,32.13,521.44,32.13Z"/></g><path class="cls-2" d="M97,82.94H87.2v7.13h9.5v2.52H87.2v9.32H97v2.52H84.53v-24H97Z"/><path class="cls-2" d="M107.75,80.42V97.7c0,2,0,4.14-1.48,5.65a4.92,4.92,0,0,1-3.81,1.52,5.42,5.42,0,0,1-4.28-1.77L99.65,101a3.88,3.88,0,0,0,2.74,1.34,2.56,2.56,0,0,0,1.8-.69c.9-.9.9-2.41.9-3.89V80.42Z"/><path class="cls-2" d="M123.12,80.42l6.34,18L137,79.2l7.13,19.22,7-18h3L144,105.69,137,86.47l-7.56,19.22-9.22-25.27Z"/><path class="cls-2" d="M160.45,90.18h12.31V80.42h2.67v24h-2.67V92.7H160.45v11.73h-2.66v-24h2.66Z"/><path class="cls-2" d="M195.19,97.67H185l-2.88,6.76h-3l11.05-25.16L201,104.43H198Zm-1-2.52-4-9.61L186,95.15Z"/><path class="cls-2" d="M208.94,82.94v21.49h-2.66V82.94h-5.83V80.42h14.33v2.52Z"/><path class="cls-2" d="M228.6,94a5.85,5.85,0,0,1-1.48,4.07,4.88,4.88,0,0,1-3.7,1.44,4.94,4.94,0,0,1-5.19-5.15,4.55,4.55,0,0,1,3-4.46,28.54,28.54,0,0,1,3-1,3.05,3.05,0,0,0,2.3-3.17,3.26,3.26,0,0,0-.93-2.52,3.15,3.15,0,0,0-2.2-.75,3.33,3.33,0,0,0-2.27.75,3.48,3.48,0,0,0-.93,2.41,5.32,5.32,0,0,0,.22,1.52H217.8a7.35,7.35,0,0,1-.14-1.59A5.48,5.48,0,0,1,219,81.68,5.72,5.72,0,0,1,223.42,80a5.41,5.41,0,0,1,5.83,5.79A5,5,0,0,1,228,89.35a6.36,6.36,0,0,1-2.77,1.8c-.83.29-1.73.51-2.59.9a2.63,2.63,0,0,0-1.76,2.52,2.51,2.51,0,0,0,.72,1.87,2.71,2.71,0,0,0,3.52,0A3.64,3.64,0,0,0,226,94Zm-5.15,7.24a1.8,1.8,0,1,1-1.8,1.8A1.83,1.83,0,0,1,223.45,101.27Z"/><path class="cls-2" d="M236.66,101.19a1.8,1.8,0,1,1-1.8,1.8A1.83,1.83,0,0,1,236.66,101.19Zm-1.29-1.62V80.42H238V99.57Z"/><path class="cls-2" d="M256.5,90.18h12.31V80.42h2.66v24h-2.66V92.7H256.5v11.73h-2.66v-24h2.66Z"/><path class="cls-2" d="M279.94,98.21a5.09,5.09,0,0,0,.72,3.2,3.57,3.57,0,0,0,5.25,0,5.09,5.09,0,0,0,.72-3.2V89.5h2.59v9c0,1.84-.18,3.21-1.36,4.5a6.51,6.51,0,0,1-9.15,0c-1.19-1.29-1.37-2.66-1.37-4.5v-9h2.6Z"/><path class="cls-2" d="M294.44,89.5H297v1.72a5.26,5.26,0,0,1,4.28-2.08,5.07,5.07,0,0,1,4.28,2,6.62,6.62,0,0,1,.87,4v9.25h-2.6V95.25a4.4,4.4,0,0,0-.68-2.73,2.91,2.91,0,0,0-2.45-1.08,3.27,3.27,0,0,0-2.63,1.15,6.33,6.33,0,0,0-1.07,4v7.81h-2.6Z"/><path class="cls-2" d="M323.06,91.87v12.56h-2.59V91.87h-1.58V89.5h1.58V84.1h2.59v5.4h2.59v2.37Z"/><path class="cls-2" d="M327.49,97a7.92,7.92,0,1,1,7.92,7.85A7.67,7.67,0,0,1,327.49,97Zm2.66,0a5.27,5.27,0,1,0,5.26-5.58A5.18,5.18,0,0,0,330.15,97Z"/><path class="cls-2" d="M359.06,89.5h2.59v14.57a9.4,9.4,0,0,1-1.44,5.87,7.26,7.26,0,0,1-6,2.77,7.43,7.43,0,0,1-5.33-2,6.73,6.73,0,0,1-1.94-4.83h2.55a4.76,4.76,0,0,0,1.15,3.1,4.62,4.62,0,0,0,3.6,1.44,4.18,4.18,0,0,0,4-2.09,6.89,6.89,0,0,0,.83-3.81v-2.16a6.3,6.3,0,0,1-5.11,2.52,7.15,7.15,0,0,1-5.11-2,8.08,8.08,0,0,1-2.16-5.9,7.84,7.84,0,0,1,2.16-5.8,7.37,7.37,0,0,1,5.11-2,6.21,6.21,0,0,1,5.11,2.48Zm-8.21,3.34A5.7,5.7,0,0,0,349.34,97a5.76,5.76,0,0,0,1.69,4.39,4.56,4.56,0,0,0,3.21,1.22,4.42,4.42,0,0,0,3.27-1.26A6,6,0,0,0,359.2,97a5.89,5.89,0,0,0-1.58-4.21,4.78,4.78,0,0,0-3.38-1.33A4.63,4.63,0,0,0,350.85,92.84Z"/><path class="cls-2" d="M375.58,89.5h2.6v1.58a4.33,4.33,0,0,1,3.7-1.94A4.47,4.47,0,0,1,386,91.55a5,5,0,0,1,4.5-2.41c4.43,0,4.86,3.7,4.86,5.83v9.46h-2.59V95.36c0-1.69-.22-3.92-2.66-3.92-3,0-3.32,2.88-3.32,4.68v8.31h-2.59V95.58c0-1,0-4.14-2.7-4.14-2.95,0-3.27,3.06-3.27,4.86v8.13h-2.6Z"/><path class="cls-2" d="M401.86,82A1.84,1.84,0,1,1,400,83.84,1.85,1.85,0,0,1,401.86,82Zm1.3,7.49v14.93h-2.59V89.5Z"/><path class="cls-2" d="M408.38,89.5H411v1.72a5.28,5.28,0,0,1,4.29-2.08,5.07,5.07,0,0,1,4.28,2,6.61,6.61,0,0,1,.86,4v9.25h-2.59V95.25a4.4,4.4,0,0,0-.68-2.73,2.94,2.94,0,0,0-2.45-1.08,3.27,3.27,0,0,0-2.63,1.15,6.28,6.28,0,0,0-1.08,4v7.81h-2.59Z"/><path class="cls-2" d="M86.55,135.07v12.56H84V135.07H82.37V132.7H84v-5.4h2.59v5.4h2.59v2.37Z"/><path class="cls-2" d="M105.16,143.82a8.74,8.74,0,0,1-1.84,2.41,7.28,7.28,0,0,1-5,1.84c-3.59,0-7.37-2.27-7.37-7.82,0-4.46,2.73-7.91,7.23-7.91a6.69,6.69,0,0,1,5.65,2.73,10,10,0,0,1,1.41,5.62H93.64a4.78,4.78,0,0,0,4.75,5.07,4.54,4.54,0,0,0,3.06-1.08,6,6,0,0,0,1.55-2.05Zm-2.56-5.29a4.47,4.47,0,0,0-4.39-3.89,4.54,4.54,0,0,0-4.39,3.89Z"/><path class="cls-2" d="M112.14,121.39v26.24h-2.59V121.39Z"/><path class="cls-2" d="M130.61,143.82a8.74,8.74,0,0,1-1.84,2.41,7.27,7.27,0,0,1-5,1.84c-3.6,0-7.38-2.27-7.38-7.82,0-4.46,2.73-7.91,7.23-7.91a6.69,6.69,0,0,1,5.65,2.73,10,10,0,0,1,1.41,5.62H119.09a4.79,4.79,0,0,0,4.75,5.07,4.52,4.52,0,0,0,3.06-1.08,5.78,5.78,0,0,0,1.55-2.05Zm-2.56-5.29a4.47,4.47,0,0,0-4.39-3.89,4.55,4.55,0,0,0-4.39,3.89Z"/><path class="cls-2" d="M137.67,135.07v12.56h-2.6V135.07h-1.44V132.7h1.44v-6.52c0-1.37.11-3.09,1.44-4.21a4.66,4.66,0,0,1,3-1,5,5,0,0,1,1.84.32v2.52a4.86,4.86,0,0,0-1.69-.32,1.81,1.81,0,0,0-1.66.79,4.55,4.55,0,0,0-.32,2.16v6.23h3.67v2.37Z"/><path class="cls-2" d="M143,140.22a7.92,7.92,0,1,1,7.92,7.85A7.67,7.67,0,0,1,143,140.22Zm2.66,0a5.26,5.26,0,1,0,10.51,0c0-3.67-2.52-5.58-5.25-5.58A5.19,5.19,0,0,0,145.69,140.22Z"/><path class="cls-2" d="M163.15,132.7h2.59v1.72a5.28,5.28,0,0,1,4.29-2.08,5.07,5.07,0,0,1,4.28,2,6.61,6.61,0,0,1,.86,4v9.25h-2.59v-9.17a4.39,4.39,0,0,0-.68-2.74,2.93,2.93,0,0,0-2.45-1.08,3.27,3.27,0,0,0-2.63,1.15,6.34,6.34,0,0,0-1.08,4v7.81h-2.59Z"/><path class="cls-2" d="M183,144.39a1.8,1.8,0,1,1-1.8,1.8A1.83,1.83,0,0,1,183,144.39Zm-1.3-1.62V123.63h2.59v19.14Z"/><path class="cls-2" d="M193.39,144.39a1.8,1.8,0,1,1-1.8,1.8A1.83,1.83,0,0,1,193.39,144.39Zm-1.29-1.62V123.63h2.59v19.14Z"/><path class="cls-2" d="M203.8,144.39a1.8,1.8,0,1,1-1.8,1.8A1.83,1.83,0,0,1,203.8,144.39Zm-1.3-1.62V123.63h2.59v19.14Z"/></g></g></svg>
