<svg xmlns="http://www.w3.org/2000/svg" width="489.58" height="189.11" viewBox="0 0 489.58 189.11"><defs><style>.cls-1{fill:#00b9ff;stroke:#000;stroke-width:2.5px;}.cls-2,.cls-4{font-size:36px;font-family:Futura-Medium, Futura;}.cls-3{letter-spacing:0.02em;}.cls-4{fill:#fff;}.cls-5{letter-spacing:-0.02em;}.cls-6{letter-spacing:0.04em;}.cls-7{letter-spacing:0.01em;}.cls-8{letter-spacing:-0.01em;}</style></defs><title>intro2</title><g id="Lag_2" data-name="Lag 2"><g id="Lag_1-2" data-name="Lag 1"><path id="Taleboble" class="cls-1" d="M489.25,187.74s-12,1.35-21-5c-.39-.28-4.41,4.94-24,5-41.58.13-418,0-418,0s-25.15-2.37-25-30,0-92,0-92,1.32-24.92,28-25,423,0,423,0,25.53,1.08,26,22,1,112,1,112S475.9,184.08,489.25,187.74Z"/><text class="cls-2" transform="translate(27 31.7)">K<tspan class="cls-3" x="23.85" y="0">r</tspan><tspan x="37.86" y="0">istian:</tspan></text><text class="cls-4" transform="translate(27 89.78)">S<tspan class="cls-5" x="20.99" y="0">k</tspan><tspan x="38.3" y="0">al vi hænge ud i</tspan><tspan x="0" y="43.2">f</tspan><tspan class="cls-3" x="10.69" y="43.2">r</tspan><tspan x="24.7" y="43.2">ik</tspan><tspan class="cls-5" x="51.59" y="43.2">v</tspan><tspan x="69.06" y="43.2">a</tspan><tspan class="cls-6" x="90.65" y="43.2">r</tspan><tspan class="cls-7" x="105.42" y="43.2">t</tspan><tspan x="115.58" y="43.2">e</tspan><tspan class="cls-8" x="135.49" y="43.2">r</tspan><tspan class="cls-7" x="148.71" y="43.2">e</tspan><tspan x="168.94" y="43.2">t?</tspan></text></g></g></svg>
