<svg xmlns="http://www.w3.org/2000/svg" viewBox="0 0 533.98 223.38"><defs><style>.cls-1{fill:#89cce5;stroke:#000;stroke-width:2.5px;}.cls-2{fill:#fff;}</style></defs><title>intro5</title><g id="Layer_2" data-name="Layer 2"><g id="Layer_1-2" data-name="Layer 1"><g id="Tegnebræt_1" data-name="Tegnebræt 1"><path id="Form_2" data-name="Form 2" class="cls-1" d="M533.44,192.13s-20.93,2.26-24-6c-.1-.26-3.85,13-31,6-.4-.1-44.91,18.39-93,1-.48-.17-97.52,25.45-157-1-.33-.15-15.66,9.37-30,0-.27-.18-60,19.47-107,0-.21-.09-23.74,15-36-8-.12-.23-28.45-5.77-11-29,.25-.33-14.78-24.15,0-49,.23-.39-12.81-31.2,1-41,.69-.49-5.62-28.38,25-19,.18.06,39.85-21.07,74,1,.25.16,91.49-31.93,159,1,.41.2,44.08-30.08,91-2,.71.42,36.25-25.43,74,0,.93.62,16.44-15.33,29,1,.44.57,27-2,23,24-.05.32,17.44,22.18-1,53-.41.68,11.81,13.9,2,33-.09.17,9.95,11.19,0,24C520.23,182.69,526.1,195.66,533.44,192.13Z"/><path id="Form_3" data-name="Form 3" class="cls-1" d="M39.44,93.13s21.59-8.13,1-20c0,0-6.51-19.78-21-6-.06.06-11.54-4.21-10,8,0,.06-21.93,10.81,6,19C15.51,94.15,39.44,93.13,39.44,93.13Z"/><path id="Form_3_kopier" data-name="Form 3 kopier" class="cls-1" d="M275.44,221.13s21.59-8.13,1-20c0,0-6.51-19.78-21-6-.06.06-11.55-4.21-10,8,0,.06-21.93,10.81,6,19C251.51,222.15,275.44,221.13,275.44,221.13Z"/><path id="Form_3_kopier_2" data-name="Form 3 kopier 2" class="cls-1" d="M521.44,32.13s21.59-8.13,1-20c0,0-6.51-19.78-21-6-.06.06-11.55-4.21-10,8,0,.06-21.93,10.81,6,19C497.51,33.15,521.44,32.13,521.44,32.13Z"/></g><path class="cls-2" d="M75.17,81.16V98.44c0,1.94,0,4.13-1.47,5.65a4.94,4.94,0,0,1-3.82,1.51,5.42,5.42,0,0,1-4.28-1.77l1.47-2.08a3.92,3.92,0,0,0,2.74,1.33,2.5,2.5,0,0,0,1.8-.69c.9-.9.9-2.41.9-3.88V81.16Z"/><path class="cls-2" d="M94.29,101.35a8.74,8.74,0,0,1-1.84,2.41,7.21,7.21,0,0,1-5,1.84c-3.6,0-7.38-2.27-7.38-7.81,0-4.47,2.73-7.92,7.23-7.92A6.69,6.69,0,0,1,93,92.6a10,10,0,0,1,1.41,5.62H82.77a4.79,4.79,0,0,0,4.75,5.07,4.52,4.52,0,0,0,3.06-1.08,5.78,5.78,0,0,0,1.55-2Zm-2.56-5.29a4.47,4.47,0,0,0-4.39-3.89A4.55,4.55,0,0,0,83,96.06Z"/><path class="cls-2" d="M110.13,90.23h2.59v14.58a9.37,9.37,0,0,1-1.44,5.86,7.25,7.25,0,0,1-6,2.77,7.39,7.39,0,0,1-5.33-2,6.73,6.73,0,0,1-2-4.82h2.56a4.68,4.68,0,0,0,1.15,3.09,4.62,4.62,0,0,0,3.6,1.44,4.18,4.18,0,0,0,4-2.09,6.89,6.89,0,0,0,.83-3.81v-2.16A6.32,6.32,0,0,1,105,105.6a7.15,7.15,0,0,1-5.11-2,8.08,8.08,0,0,1-2.16-5.9,7.84,7.84,0,0,1,2.16-5.8,7.37,7.37,0,0,1,5.11-2,6.21,6.21,0,0,1,5.11,2.48Zm-8.21,3.35a5.67,5.67,0,0,0-1.51,4.1,5.76,5.76,0,0,0,1.69,4.39,4.52,4.52,0,0,0,3.21,1.22,4.42,4.42,0,0,0,3.27-1.26,6,6,0,0,0,1.69-4.32,5.93,5.93,0,0,0-1.58-4.21,4.82,4.82,0,0,0-3.38-1.33A4.64,4.64,0,0,0,101.92,93.58Z"/><path class="cls-2" d="M139.9,101.35a8.74,8.74,0,0,1-1.84,2.41,7.21,7.21,0,0,1-5,1.84c-3.6,0-7.38-2.27-7.38-7.81,0-4.47,2.73-7.92,7.23-7.92a6.69,6.69,0,0,1,5.65,2.73A10,10,0,0,1,140,98.22H128.38a4.79,4.79,0,0,0,4.75,5.07,4.52,4.52,0,0,0,3.06-1.08,5.78,5.78,0,0,0,1.55-2Zm-2.56-5.29A4.47,4.47,0,0,0,133,92.17a4.55,4.55,0,0,0-4.39,3.89Z"/><path class="cls-2" d="M144.29,90.23h2.59v1.62a4.16,4.16,0,0,1,3.39-2,5.53,5.53,0,0,1,2.3.61l-1.22,2.34a2.64,2.64,0,0,0-1.51-.5,2.5,2.5,0,0,0-2.09.93c-.43.58-.87,1.59-.87,4v7.89h-2.59Z"/><path class="cls-2" d="M166.58,78.93V95.77l5.47-5.54h3.38L169,96.64l7.56,8.53H173.2l-6-6.81-.64.65v6.16H164V78.93Z"/><path class="cls-2" d="M178,97.75a7.92,7.92,0,1,1,7.92,7.85A7.67,7.67,0,0,1,178,97.75Zm2.67,0a5.26,5.26,0,1,0,5.25-5.58A5.17,5.17,0,0,0,180.69,97.75Z"/><path class="cls-2" d="M198.15,90.23h2.59v1.58a4.34,4.34,0,0,1,3.71-1.94,4.45,4.45,0,0,1,4.06,2.41,5,5,0,0,1,4.5-2.41c4.43,0,4.86,3.71,4.86,5.83v9.47h-2.59V96.1c0-1.7-.21-3.93-2.66-3.93-3,0-3.31,2.88-3.31,4.68v8.32h-2.59V96.31c0-1,0-4.14-2.7-4.14-3,0-3.28,3.06-3.28,4.86v8.14h-2.59Z"/><path class="cls-2" d="M223.13,90.23h2.59v1.58a4.36,4.36,0,0,1,3.71-1.94,4.49,4.49,0,0,1,4.07,2.41,5,5,0,0,1,4.5-2.41c4.43,0,4.86,3.71,4.86,5.83v9.47h-2.59V96.1c0-1.7-.22-3.93-2.67-3.93-3,0-3.31,2.88-3.31,4.68v8.32H231.7V96.31c0-1,0-4.14-2.7-4.14-2.95,0-3.28,3.06-3.28,4.86v8.14h-2.59Z"/><path class="cls-2" d="M261.36,101.35a8.89,8.89,0,0,1-1.83,2.41,7.23,7.23,0,0,1-5,1.84c-3.6,0-7.38-2.27-7.38-7.81,0-4.47,2.74-7.92,7.24-7.92a6.7,6.7,0,0,1,5.65,2.73,10.13,10.13,0,0,1,1.4,5.62H249.84a4.79,4.79,0,0,0,4.76,5.07,4.52,4.52,0,0,0,3-1.08,5.78,5.78,0,0,0,1.55-2Zm-2.55-5.29a4.47,4.47,0,0,0-4.39-3.89,4.55,4.55,0,0,0-4.4,3.89Z"/><path class="cls-2" d="M268.42,92.6v12.57h-2.59V92.6h-1.59V90.23h1.59v-5.4h2.59v5.4H271V92.6Z"/><path class="cls-2" d="M285.16,92.6v12.57h-2.59V92.6H281V90.23h1.59v-5.4h2.59v5.4h2.59V92.6Z"/><path class="cls-2" d="M291.82,82.74A1.84,1.84,0,1,1,290,84.58,1.84,1.84,0,0,1,291.82,82.74Zm1.29,7.49v14.94h-2.59V90.23Z"/><path class="cls-2" d="M300.93,78.93v26.24h-2.6V78.93Z"/><path class="cls-2" d="M326.3,90.23h2.6v14.94h-2.6v-2.09a6.3,6.3,0,0,1-5.11,2.52c-3.78,0-7.27-2.67-7.27-7.92s3.46-7.81,7.27-7.81a6.17,6.17,0,0,1,5.11,2.48Zm-9.71,7.45c0,3.2,1.8,5.61,4.89,5.61s5-2.62,5-5.58c0-3.85-2.67-5.54-5-5.54C318.93,92.17,316.59,94,316.59,97.68Z"/><path class="cls-2" d="M336.78,92.6v12.57h-2.59V92.6h-1.58V90.23h1.58v-5.4h2.59v5.4h2.59V92.6Z"/><path class="cls-2" d="M353.52,92.6v12.57h-2.59V92.6h-1.59V90.23h1.59v-5.4h2.59v5.4h2.59V92.6Z"/><path class="cls-2" d="M370.33,90.23h2.59v14.94h-2.59v-2.09a6.3,6.3,0,0,1-5.11,2.52c-3.78,0-7.27-2.67-7.27-7.92s3.45-7.81,7.27-7.81a6.17,6.17,0,0,1,5.11,2.48Zm-9.72,7.45c0,3.2,1.8,5.61,4.9,5.61s5-2.62,5-5.58c0-3.85-2.67-5.54-5-5.54C363,92.17,360.61,94,360.61,97.68Z"/><path class="cls-2" d="M389.59,90.23h2.59v14.58a9.37,9.37,0,0,1-1.44,5.86,7.22,7.22,0,0,1-6,2.77,7.39,7.39,0,0,1-5.33-2,6.73,6.73,0,0,1-1.94-4.82h2.55a4.73,4.73,0,0,0,1.15,3.09,4.62,4.62,0,0,0,3.6,1.44,4.18,4.18,0,0,0,4-2.09,6.89,6.89,0,0,0,.83-3.81v-2.16a6.3,6.3,0,0,1-5.11,2.52,7.15,7.15,0,0,1-5.11-2,8.08,8.08,0,0,1-2.16-5.9,7.84,7.84,0,0,1,2.16-5.8,7.37,7.37,0,0,1,5.11-2,6.2,6.2,0,0,1,5.11,2.48Zm-8.21,3.35a5.67,5.67,0,0,0-1.51,4.1,5.76,5.76,0,0,0,1.69,4.39,4.52,4.52,0,0,0,3.21,1.22A4.38,4.38,0,0,0,388,102a6,6,0,0,0,1.7-4.32,5.89,5.89,0,0,0-1.59-4.21,4.82,4.82,0,0,0-3.38-1.33A4.64,4.64,0,0,0,381.38,93.58Z"/><path class="cls-2" d="M410.65,101.35a8.89,8.89,0,0,1-1.83,2.41,7.23,7.23,0,0,1-5,1.84c-3.6,0-7.38-2.27-7.38-7.81,0-4.47,2.73-7.92,7.23-7.92a6.72,6.72,0,0,1,5.66,2.73,10.13,10.13,0,0,1,1.4,5.62H399.13a4.79,4.79,0,0,0,4.75,5.07,4.52,4.52,0,0,0,3.06-1.08,5.78,5.78,0,0,0,1.55-2Zm-2.55-5.29a4.48,4.48,0,0,0-4.4-3.89,4.55,4.55,0,0,0-4.39,3.89Z"/><path class="cls-2" d="M423.75,90.23h2.6v1.58a4.33,4.33,0,0,1,3.7-1.94,4.49,4.49,0,0,1,4.07,2.41,5,5,0,0,1,4.5-2.41c4.43,0,4.86,3.71,4.86,5.83v9.47h-2.59V96.1c0-1.7-.22-3.93-2.66-3.93-3,0-3.32,2.88-3.32,4.68v8.32h-2.59V96.31c0-1,0-4.14-2.7-4.14-2.95,0-3.27,3.06-3.27,4.86v8.14h-2.6Z"/><path class="cls-2" d="M450,82.74a1.84,1.84,0,1,1-1.83,1.84A1.85,1.85,0,0,1,450,82.74Zm1.3,7.49v14.94h-2.59V90.23Z"/><path class="cls-2" d="M456.55,90.23h2.59V92a5.26,5.26,0,0,1,4.29-2.09,5.07,5.07,0,0,1,4.28,2,6.65,6.65,0,0,1,.86,4v9.25H466V96a4.41,4.41,0,0,0-.68-2.74,2.94,2.94,0,0,0-2.45-1.08,3.27,3.27,0,0,0-2.63,1.15,6.31,6.31,0,0,0-1.08,4v7.81h-2.59Z"/><path class="cls-2" d="M487,101.35a8.89,8.89,0,0,1-1.83,2.41,7.23,7.23,0,0,1-5,1.84c-3.6,0-7.38-2.27-7.38-7.81,0-4.47,2.73-7.92,7.23-7.92a6.71,6.71,0,0,1,5.66,2.73,10.13,10.13,0,0,1,1.4,5.62H475.52a4.79,4.79,0,0,0,4.75,5.07,4.52,4.52,0,0,0,3.06-1.08,5.78,5.78,0,0,0,1.55-2Zm-2.55-5.29a4.48,4.48,0,0,0-4.4-3.89,4.55,4.55,0,0,0-4.39,3.89Z"/><path class="cls-2" d="M75.86,136.88a2.3,2.3,0,0,0-2.09-1.51,1.65,1.65,0,0,0-1.8,1.69c0,1.08.72,1.41,2.41,2.13,2.16.9,3.17,1.58,3.75,2.3a3.56,3.56,0,0,1,.79,2.41c0,3.13-2.27,4.9-5.15,4.9A5.34,5.34,0,0,1,68.55,145l2.23-.93a3.38,3.38,0,0,0,3,2.44,2.31,2.31,0,0,0,2.44-2.37c0-1.41-1-1.87-2.41-2.49a9.63,9.63,0,0,1-3.63-2.19,3.23,3.23,0,0,1-.69-2.2,4,4,0,0,1,4.36-4.17,4.3,4.3,0,0,1,4.1,2.7Z"/><path class="cls-2" d="M85.29,142.14a5.07,5.07,0,0,0,.72,3.2,3.58,3.58,0,0,0,5.26,0,5.07,5.07,0,0,0,.72-3.2v-8.71h2.59v9c0,1.83-.18,3.2-1.37,4.5a6.52,6.52,0,0,1-9.14,0c-1.19-1.3-1.37-2.67-1.37-4.5v-9h2.59Z"/><path class="cls-2" d="M99.8,133.43h2.59v1.62a4.14,4.14,0,0,1,3.38-2,5.54,5.54,0,0,1,2.31.61L106.85,136a2.62,2.62,0,0,0-1.51-.51,2.54,2.54,0,0,0-2.09.94c-.43.58-.86,1.58-.86,4v7.89H99.8Z"/><path class="cls-2" d="M123.16,144.55a8.74,8.74,0,0,1-1.84,2.41,7.19,7.19,0,0,1-5,1.84c-3.6,0-7.38-2.27-7.38-7.81,0-4.47,2.73-7.92,7.23-7.92a6.67,6.67,0,0,1,5.65,2.73,10,10,0,0,1,1.41,5.62H111.64a4.79,4.79,0,0,0,4.75,5.07,4.52,4.52,0,0,0,3.06-1.08,5.78,5.78,0,0,0,1.55-2Zm-2.56-5.29a4.47,4.47,0,0,0-4.39-3.89,4.55,4.55,0,0,0-4.39,3.89Z"/><path class="cls-2" d="M142.42,136.88a2.3,2.3,0,0,0-2.09-1.51,1.65,1.65,0,0,0-1.8,1.69c0,1.08.72,1.41,2.41,2.13,2.16.9,3.17,1.58,3.75,2.3a3.51,3.51,0,0,1,.79,2.41c0,3.13-2.27,4.9-5.15,4.9a5.34,5.34,0,0,1-5.22-3.82l2.23-.93a3.39,3.39,0,0,0,3,2.44,2.32,2.32,0,0,0,2.45-2.37c0-1.41-1-1.87-2.42-2.49a9.71,9.71,0,0,1-3.63-2.19,3.22,3.22,0,0,1-.68-2.2,4,4,0,0,1,4.35-4.17,4.29,4.29,0,0,1,4.1,2.7Z"/><path class="cls-2" d="M148.32,141a7.92,7.92,0,1,1,7.92,7.85A7.67,7.67,0,0,1,148.32,141Zm2.67,0a5.26,5.26,0,1,0,5.25-5.58A5.17,5.17,0,0,0,151,141Z"/><path class="cls-2" d="M171,122.13V139l5.47-5.54h3.38l-6.4,6.4,7.56,8.54h-3.39l-6-6.81-.65.65v6.16h-2.59V122.13Z"/><path class="cls-2" d="M186.56,122.13V139l5.47-5.54h3.38l-6.41,6.4,7.56,8.54h-3.38l-6-6.81-.64.65v6.16H184V122.13Z"/><path class="cls-2" d="M212.37,144.55a8.94,8.94,0,0,1-1.84,2.41,7.23,7.23,0,0,1-5,1.84c-3.6,0-7.38-2.27-7.38-7.81,0-4.47,2.74-7.92,7.24-7.92a6.69,6.69,0,0,1,5.65,2.73,9.94,9.94,0,0,1,1.4,5.62H200.85a4.78,4.78,0,0,0,4.75,5.07,4.54,4.54,0,0,0,3.06-1.08,6,6,0,0,0,1.55-2Zm-2.56-5.29a4.47,4.47,0,0,0-4.39-3.89,4.53,4.53,0,0,0-4.39,3.89Z"/><path class="cls-2" d="M216.76,133.43h2.59v1.62a4.15,4.15,0,0,1,3.39-2,5.53,5.53,0,0,1,2.3.61L223.82,136a2.67,2.67,0,0,0-1.52-.51,2.5,2.5,0,0,0-2.08.94c-.44.58-.87,1.58-.87,4v7.89h-2.59Z"/><path class="cls-2" d="M236.45,133.43H239V135a4.36,4.36,0,0,1,3.71-1.94,4.49,4.49,0,0,1,4.07,2.41,5,5,0,0,1,4.5-2.41c4.42,0,4.86,3.71,4.86,5.83v9.47h-2.59v-9.08c0-1.69-.22-3.92-2.67-3.92-3,0-3.31,2.88-3.31,4.68v8.32H245v-8.86c0-1,0-4.14-2.7-4.14-2.95,0-3.28,3.06-3.28,4.86v8.14h-2.59Z"/><path class="cls-2" d="M274.68,144.55a8.89,8.89,0,0,1-1.83,2.41,7.23,7.23,0,0,1-5,1.84c-3.6,0-7.38-2.27-7.38-7.81,0-4.47,2.73-7.92,7.23-7.92a6.71,6.71,0,0,1,5.66,2.73,10.1,10.1,0,0,1,1.4,5.62H263.16a4.79,4.79,0,0,0,4.75,5.07,4.52,4.52,0,0,0,3.06-1.08,5.78,5.78,0,0,0,1.55-2Zm-2.55-5.29a4.48,4.48,0,0,0-4.4-3.89,4.55,4.55,0,0,0-4.39,3.89Z"/><path class="cls-2" d="M290.52,122.13h2.59v26.24h-2.59v-2.09a6.3,6.3,0,0,1-5.11,2.52c-3.78,0-7.27-2.67-7.27-7.92s3.45-7.81,7.27-7.81a6.17,6.17,0,0,1,5.11,2.48Zm-9.72,18.75c0,3.2,1.8,5.61,4.9,5.61s5-2.62,5-5.58c0-3.85-2.67-5.54-5-5.54C283.14,135.37,280.8,137.24,280.8,140.88Z"/><path class="cls-2" d="M308.34,125.94a1.84,1.84,0,1,1-1.83,1.84A1.85,1.85,0,0,1,308.34,125.94Zm1.3,7.49v14.94H307V133.43Z"/><path class="cls-2" d="M329.72,136.88a2.29,2.29,0,0,0-2.08-1.51,1.65,1.65,0,0,0-1.8,1.69c0,1.08.72,1.41,2.41,2.13,2.16.9,3.17,1.58,3.74,2.3a3.51,3.51,0,0,1,.79,2.41c0,3.13-2.26,4.9-5.14,4.9a5.33,5.33,0,0,1-5.22-3.82l2.23-.93a3.38,3.38,0,0,0,3,2.44,2.32,2.32,0,0,0,2.45-2.37c0-1.41-1-1.87-2.41-2.49a9.77,9.77,0,0,1-3.64-2.19,3.28,3.28,0,0,1-.68-2.2,4,4,0,0,1,4.35-4.17,4.3,4.3,0,0,1,4.11,2.7Z"/><path class="cls-2" d="M339.16,122.13V139l5.47-5.54H348l-6.41,6.4,7.56,8.54h-3.38l-6-6.81-.64.65v6.16h-2.6V122.13Z"/><path class="cls-2" d="M350.61,141a7.92,7.92,0,1,1,7.91,7.85A7.66,7.66,0,0,1,350.61,141Zm2.66,0a5.26,5.26,0,1,0,5.25-5.58A5.17,5.17,0,0,0,353.27,141Z"/><path class="cls-2" d="M373.32,122.13v26.24h-2.59V122.13Z"/><path class="cls-2" d="M391.79,144.55A8.94,8.94,0,0,1,390,147a7.23,7.23,0,0,1-5,1.84c-3.6,0-7.38-2.27-7.38-7.81,0-4.47,2.74-7.92,7.24-7.92a6.7,6.7,0,0,1,5.65,2.73,9.94,9.94,0,0,1,1.4,5.62H380.27a4.78,4.78,0,0,0,4.75,5.07,4.56,4.56,0,0,0,3.06-1.08,6,6,0,0,0,1.55-2Zm-2.56-5.29a4.47,4.47,0,0,0-4.39-3.89,4.53,4.53,0,0,0-4.39,3.89Z"/><path class="cls-2" d="M397.83,145.13a1.8,1.8,0,1,1-1.8,1.8A1.82,1.82,0,0,1,397.83,145.13Z"/><path class="cls-2" d="M406.37,145.13a1.8,1.8,0,1,1-1.8,1.8A1.83,1.83,0,0,1,406.37,145.13Z"/><path class="cls-2" d="M414.9,145.13a1.8,1.8,0,1,1-1.8,1.8A1.83,1.83,0,0,1,414.9,145.13Z"/></g></g></svg>
