<svg xmlns="http://www.w3.org/2000/svg" viewBox="0 0 489.58 184.53"><defs><style>.cls-1{fill:#00b9ff;stroke:#000;stroke-width:2.5px;}.cls-2{fill:#fff;}</style></defs><title>intro4</title><g id="Layer_2" data-name="Layer 2"><g id="Layer_1-2" data-name="Layer 1"><path id="Taleboble" class="cls-1" d="M489.25,183.16s-12,1.35-21-5c-.39-.28-4.41,4.94-24,5-41.58.13-418,0-418,0s-25.15-2.37-25-30,0-92,0-92,1.32-24.92,28-25,423,0,423,0,25.53,1.08,26,22,1,112,1,112S475.9,179.49,489.25,183.16Z"/><path class="cls-2" d="M39.8,61.84H30V69h9.5v2.52H30v9.33H39.8v2.52H27.35v-24H39.8Z"/><path class="cls-2" d="M45.67,60.9a1.84,1.84,0,1,1-1.84,1.84A1.85,1.85,0,0,1,45.67,60.9ZM47,68.39V91.61h-2.6V68.39Z"/><path class="cls-2" d="M53.05,79.8l2.37.86L51.79,88.8l-1.69-.69Z"/><path class="cls-2" d="M70.15,68.39l4.46,10.08,4.47-10.08H82L74.61,84.3,67.27,68.39Z"/><path class="cls-2" d="M96.46,68.39h2.59V83.33H96.46V81.24a6.28,6.28,0,0,1-5.11,2.52c-3.78,0-7.27-2.66-7.27-7.92S87.54,68,91.35,68a6.17,6.17,0,0,1,5.11,2.48Zm-9.72,7.45c0,3.2,1.8,5.62,4.9,5.62s5-2.63,5-5.58c0-3.86-2.67-5.55-5-5.55C89.08,70.33,86.74,72.2,86.74,75.84Z"/><path class="cls-2" d="M104.28,68.39h2.59V70a4.14,4.14,0,0,1,3.38-2,5.49,5.49,0,0,1,2.3.61L111.33,71a2.6,2.6,0,0,0-1.51-.5,2.53,2.53,0,0,0-2.09.93c-.43.58-.86,1.59-.86,4v7.89h-2.59Z"/><path class="cls-2" d="M135.41,57.09H138V83.33h-2.6V81.24a6.28,6.28,0,0,1-5.11,2.52c-3.78,0-7.27-2.66-7.27-7.92S126.49,68,130.3,68a6.17,6.17,0,0,1,5.11,2.48ZM125.7,75.84c0,3.2,1.79,5.62,4.89,5.62s5-2.63,5-5.58c0-3.86-2.67-5.55-5-5.55C128,70.33,125.7,72.2,125.7,75.84Z"/><path class="cls-2" d="M156.47,79.51a8.89,8.89,0,0,1-1.83,2.41,7.23,7.23,0,0,1-5,1.84c-3.6,0-7.38-2.27-7.38-7.81,0-4.47,2.74-7.92,7.24-7.92a6.7,6.7,0,0,1,5.65,2.73,10.13,10.13,0,0,1,1.4,5.62H145a4.79,4.79,0,0,0,4.76,5.08,4.56,4.56,0,0,0,3.06-1.08,6,6,0,0,0,1.54-2.06Zm-2.55-5.29a4.47,4.47,0,0,0-4.39-3.89,4.55,4.55,0,0,0-4.4,3.89Z"/><path class="cls-2" d="M163.53,70.76V83.33h-2.59V70.76h-1.58V68.39h1.58V63h2.59v5.4h2.59v2.37Z"/><path class="cls-2" d="M190.85,79.51A8.89,8.89,0,0,1,189,81.92a7.23,7.23,0,0,1-5,1.84c-3.6,0-7.38-2.27-7.38-7.81,0-4.47,2.74-7.92,7.24-7.92a6.7,6.7,0,0,1,5.65,2.73,10.13,10.13,0,0,1,1.4,5.62H179.33a4.79,4.79,0,0,0,4.76,5.08,4.52,4.52,0,0,0,3-1.08,5.9,5.9,0,0,0,1.55-2.06Zm-2.55-5.29a4.48,4.48,0,0,0-4.39-3.89,4.55,4.55,0,0,0-4.4,3.89Z"/><path class="cls-2" d="M195.25,68.39h2.59v1.73A5.23,5.23,0,0,1,202.12,68a5.07,5.07,0,0,1,4.28,2,6.65,6.65,0,0,1,.87,4v9.25h-2.59V74.15a4.42,4.42,0,0,0-.69-2.74,2.91,2.91,0,0,0-2.45-1.08,3.24,3.24,0,0,0-2.62,1.15,6.31,6.31,0,0,0-1.08,4v7.81h-2.59Z"/><path class="cls-2" d="M227.36,71.84a2.3,2.3,0,0,0-2.09-1.51,1.65,1.65,0,0,0-1.8,1.69c0,1.08.72,1.41,2.41,2.13,2.16.9,3.17,1.58,3.74,2.3a3.54,3.54,0,0,1,.8,2.41c0,3.14-2.27,4.9-5.15,4.9a5.34,5.34,0,0,1-5.22-3.82l2.23-.93a3.38,3.38,0,0,0,3,2.45,2.32,2.32,0,0,0,2.45-2.38c0-1.4-1-1.87-2.41-2.48a9.9,9.9,0,0,1-3.64-2.2,3.28,3.28,0,0,1-.68-2.2A4,4,0,0,1,225.38,68a4.3,4.3,0,0,1,4.1,2.7Z"/><path class="cls-2" d="M233.26,75.91a7.92,7.92,0,1,1,7.92,7.85A7.67,7.67,0,0,1,233.26,75.91Zm2.66,0a5.27,5.27,0,1,0,10.52,0,5.27,5.27,0,1,0-10.52,0Z"/><path class="cls-2" d="M264.83,57.09h2.59V83.33h-2.59V81.24a6.28,6.28,0,0,1-5.11,2.52c-3.78,0-7.27-2.66-7.27-7.92S255.9,68,259.72,68a6.17,6.17,0,0,1,5.11,2.48Zm-9.72,18.75c0,3.2,1.8,5.62,4.9,5.62s5-2.63,5-5.58c0-3.86-2.66-5.55-5-5.55C257.45,70.33,255.11,72.2,255.11,75.84Z"/><path class="cls-2" d="M284.09,68.39h2.59V83.33h-2.59V81.24A6.28,6.28,0,0,1,279,83.76c-3.78,0-7.27-2.66-7.27-7.92S275.16,68,279,68a6.17,6.17,0,0,1,5.11,2.48Zm-9.72,7.45c0,3.2,1.8,5.62,4.9,5.62s5-2.63,5-5.58c0-3.86-2.66-5.55-5-5.55C276.71,70.33,274.37,72.2,274.37,75.84Z"/><path class="cls-2" d="M292.62,68.39l4.47,10.08,4.46-10.08h2.88L297.09,84.3l-7.35-15.91Z"/><path class="cls-2" d="M318.94,68.39h2.59V83.33h-2.59V81.24a6.31,6.31,0,0,1-5.11,2.52c-3.78,0-7.27-2.66-7.27-7.92S310,68,313.83,68a6.19,6.19,0,0,1,5.11,2.48Zm-9.72,7.45c0,3.2,1.8,5.62,4.89,5.62s5-2.63,5-5.58c0-3.86-2.66-5.55-5-5.55C311.56,70.33,309.22,72.2,309.22,75.84Z"/><path class="cls-2" d="M326.75,68.39h2.59v1.73A5.26,5.26,0,0,1,333.63,68a5.07,5.07,0,0,1,4.28,2,6.72,6.72,0,0,1,.86,4v9.25h-2.59V74.15a4.41,4.41,0,0,0-.68-2.74,2.94,2.94,0,0,0-2.45-1.08,3.27,3.27,0,0,0-2.63,1.15,6.31,6.31,0,0,0-1.08,4v7.81h-2.59Z"/><path class="cls-2" d="M355.44,57.09H358V83.33h-2.59V81.24a6.28,6.28,0,0,1-5.11,2.52c-3.78,0-7.27-2.66-7.27-7.92S346.51,68,350.33,68a6.17,6.17,0,0,1,5.11,2.48Zm-9.72,18.75c0,3.2,1.8,5.62,4.9,5.62s5-2.63,5-5.58c0-3.86-2.66-5.55-5-5.55C348.06,70.33,345.72,72.2,345.72,75.84Z"/><path class="cls-2" d="M373.26,60.9a1.84,1.84,0,1,1-1.83,1.84A1.85,1.85,0,0,1,373.26,60.9Zm1.3,7.49V83.33H372V68.39Z"/><path class="cls-2" d="M399.94,57.09h2.59V83.33h-2.59V81.24a6.31,6.31,0,0,1-5.12,2.52c-3.78,0-7.27-2.66-7.27-7.92S391,68,394.82,68a6.21,6.21,0,0,1,5.12,2.48Zm-9.72,18.75c0,3.2,1.8,5.62,4.89,5.62s5-2.63,5-5.58c0-3.86-2.66-5.55-5-5.55C392.56,70.33,390.22,72.2,390.22,75.84Z"/><path class="cls-2" d="M408.68,60.9a1.84,1.84,0,1,1-1.83,1.84A1.85,1.85,0,0,1,408.68,60.9Zm1.3,7.49V83.33h-2.59V68.39Z"/><path class="cls-2" d="M415.2,68.39h2.59v1.73A5.26,5.26,0,0,1,422.08,68a5.07,5.07,0,0,1,4.28,2,6.72,6.72,0,0,1,.86,4v9.25h-2.59V74.15a4.41,4.41,0,0,0-.68-2.74,2.94,2.94,0,0,0-2.45-1.08,3.27,3.27,0,0,0-2.63,1.15,6.31,6.31,0,0,0-1.08,4v7.81H415.2Z"/><path class="cls-2" d="M29.36,114v12.57H26.77V114H25.19v-2.37h1.58v-5.4h2.59v5.4H32V114Z"/><path class="cls-2" d="M46.17,111.59h2.59v14.94H46.17v-2.09A6.3,6.3,0,0,1,41.06,127c-3.78,0-7.27-2.67-7.27-7.92s3.46-7.81,7.27-7.81a6.17,6.17,0,0,1,5.11,2.48ZM36.45,119c0,3.2,1.8,5.61,4.9,5.61s5-2.62,5-5.57c0-3.86-2.67-5.55-5-5.55C38.79,113.53,36.45,115.4,36.45,119Z"/><path class="cls-2" d="M60.14,115a2.3,2.3,0,0,0-2.09-1.51,1.65,1.65,0,0,0-1.8,1.69c0,1.08.72,1.41,2.41,2.13,2.16.9,3.17,1.58,3.75,2.3a3.53,3.53,0,0,1,.79,2.41c0,3.13-2.27,4.9-5.15,4.9a5.34,5.34,0,0,1-5.22-3.82l2.23-.93a3.39,3.39,0,0,0,3,2.44,2.32,2.32,0,0,0,2.45-2.37c0-1.4-1-1.87-2.42-2.49a9.63,9.63,0,0,1-3.63-2.19,3.23,3.23,0,0,1-.69-2.2,4,4,0,0,1,4.36-4.17,4.29,4.29,0,0,1,4.1,2.7Z"/><path class="cls-2" d="M69.57,100.29v16.84L75,111.59h3.39L72,118l7.56,8.53H76.2l-6-6.81-.65.65v6.16H67V100.29Z"/><path class="cls-2" d="M95.38,122.71a8.89,8.89,0,0,1-1.83,2.41,7.23,7.23,0,0,1-5,1.84c-3.6,0-7.38-2.27-7.38-7.81,0-4.47,2.74-7.92,7.24-7.92A6.7,6.7,0,0,1,94.09,114a10.13,10.13,0,0,1,1.4,5.62H83.86a4.79,4.79,0,0,0,4.76,5.07,4.56,4.56,0,0,0,3-1.07,5.9,5.9,0,0,0,1.55-2.06Zm-2.55-5.29a4.47,4.47,0,0,0-4.39-3.89,4.55,4.55,0,0,0-4.4,3.89Z"/><path class="cls-2" d="M110.32,116.12a5.83,5.83,0,0,1-1.47,4.07,4.92,4.92,0,0,1-3.71,1.44,4.94,4.94,0,0,1-5.18-5.15,4.55,4.55,0,0,1,3-4.46,29.32,29.32,0,0,1,3-1,3,3,0,0,0,2.31-3.17,3.26,3.26,0,0,0-.94-2.51,3.08,3.08,0,0,0-2.19-.76,3.32,3.32,0,0,0-2.27.76,3.45,3.45,0,0,0-.94,2.41,5.26,5.26,0,0,0,.22,1.51H99.52a7.94,7.94,0,0,1-.14-1.58,5.49,5.49,0,0,1,1.37-3.89A5.85,5.85,0,0,1,111,107.92a5.06,5.06,0,0,1-1.22,3.52,6.47,6.47,0,0,1-2.77,1.8c-.83.29-1.73.51-2.6.9a2.64,2.64,0,0,0-1.76,2.52,2.53,2.53,0,0,0,.72,1.88,2.44,2.44,0,0,0,1.76.64,2.49,2.49,0,0,0,1.77-.64,3.66,3.66,0,0,0,.86-2.42Zm-5.14,7.24a1.8,1.8,0,1,1-1.8,1.8A1.83,1.83,0,0,1,105.18,123.36Z"/><path class="cls-2" d="M124.33,126.53l4-25.34,9.22,20.26,9.39-20.3,3.75,25.38h-2.74l-2.27-16.71-8.17,17.71-8.06-17.71-2.38,16.71Z"/><path class="cls-2" d="M167.35,111.59h2.59v14.94h-2.59v-2.09a6.34,6.34,0,0,1-5.12,2.52c-3.78,0-7.27-2.67-7.27-7.92s3.46-7.81,7.27-7.81a6.21,6.21,0,0,1,5.12,2.48ZM157.63,119c0,3.2,1.8,5.61,4.89,5.61s5-2.62,5-5.57c0-3.86-2.66-5.55-5-5.55C160,113.53,157.63,115.4,157.63,119Zm5.47-16.59a3.1,3.1,0,1,1-3.1,3.09A3.11,3.11,0,0,1,163.1,102.45Zm0,4.6a1.51,1.51,0,1,0-1.51-1.51A1.57,1.57,0,0,0,163.1,107.05Z"/><path class="cls-2" d="M185.17,104.1a1.84,1.84,0,1,1-1.84,1.84A1.85,1.85,0,0,1,185.17,104.1Zm1.29,7.49v23.22h-2.59V111.59Z"/><path class="cls-2" d="M204.93,122.71a8.74,8.74,0,0,1-1.84,2.41,7.22,7.22,0,0,1-5,1.84c-3.6,0-7.38-2.27-7.38-7.81,0-4.47,2.73-7.92,7.23-7.92a6.69,6.69,0,0,1,5.65,2.73,10,10,0,0,1,1.41,5.62H193.41a4.79,4.79,0,0,0,4.75,5.07,4.57,4.57,0,0,0,3.06-1.07,6,6,0,0,0,1.55-2.06Zm-2.56-5.29a4.47,4.47,0,0,0-4.39-3.89,4.55,4.55,0,0,0-4.39,3.89Z"/><path class="cls-2" d="M220.77,111.59h2.59v14.58a9.37,9.37,0,0,1-1.44,5.86,7.26,7.26,0,0,1-6,2.78,7.39,7.39,0,0,1-5.33-2,6.73,6.73,0,0,1-2-4.82h2.56a4.68,4.68,0,0,0,1.15,3.09,4.62,4.62,0,0,0,3.6,1.44,4.18,4.18,0,0,0,4-2.09,6.89,6.89,0,0,0,.83-3.81v-2.16a6.34,6.34,0,0,1-5.11,2.52,7.15,7.15,0,0,1-5.11-2,8.08,8.08,0,0,1-2.16-5.9,7.84,7.84,0,0,1,2.16-5.8,7.37,7.37,0,0,1,5.11-2,6.21,6.21,0,0,1,5.11,2.48Zm-8.21,3.35a5.67,5.67,0,0,0-1.51,4.1,5.76,5.76,0,0,0,1.69,4.39,4.52,4.52,0,0,0,3.21,1.22,4.42,4.42,0,0,0,3.27-1.26,6,6,0,0,0,1.69-4.31,5.94,5.94,0,0,0-1.58-4.22,4.82,4.82,0,0,0-3.38-1.33A4.64,4.64,0,0,0,212.56,114.94Z"/><path class="cls-2" d="M240,114v12.57h-2.6V114h-1.43v-2.37h1.43v-6.52c0-1.36.11-3.09,1.44-4.21a4.66,4.66,0,0,1,3-1,5.24,5.24,0,0,1,1.84.32v2.52a4.82,4.82,0,0,0-1.69-.32,1.82,1.82,0,0,0-1.66.79,4.55,4.55,0,0,0-.32,2.16v6.23h3.67V114Z"/><path class="cls-2" d="M257.7,111.59h2.6v14.94h-2.6v-2.09a6.3,6.3,0,0,1-5.11,2.52c-3.78,0-7.27-2.67-7.27-7.92s3.46-7.81,7.27-7.81a6.17,6.17,0,0,1,5.11,2.48ZM248,119c0,3.2,1.79,5.61,4.89,5.61s5-2.62,5-5.57c0-3.86-2.67-5.55-5-5.55C250.32,113.53,248,115.4,248,119Zm5.47-16.59a3.1,3.1,0,1,1-3.1,3.09A3.11,3.11,0,0,1,253.46,102.45Zm0,4.6a1.51,1.51,0,1,0-1.52-1.51A1.57,1.57,0,0,0,253.46,107.05Z"/><path class="cls-2" d="M287.48,122.71a8.94,8.94,0,0,1-1.84,2.41,7.23,7.23,0,0,1-5,1.84c-3.6,0-7.38-2.27-7.38-7.81,0-4.47,2.74-7.92,7.24-7.92a6.7,6.7,0,0,1,5.65,2.73,10.13,10.13,0,0,1,1.4,5.62H276a4.78,4.78,0,0,0,4.75,5.07,4.6,4.6,0,0,0,3.06-1.07,6.15,6.15,0,0,0,1.55-2.06Zm-2.56-5.29a4.47,4.47,0,0,0-4.39-3.89,4.53,4.53,0,0,0-4.39,3.89Z"/><path class="cls-2" d="M291.87,111.59h2.59v1.73a5.25,5.25,0,0,1,4.28-2.09,5.07,5.07,0,0,1,4.29,2,6.72,6.72,0,0,1,.86,4v9.25H301.3v-9.18a4.35,4.35,0,0,0-.69-2.74,2.91,2.91,0,0,0-2.44-1.08,3.27,3.27,0,0,0-2.63,1.15,6.31,6.31,0,0,0-1.08,4v7.81h-2.59Z"/><path class="cls-2" d="M320.49,114v12.57H317.9V114h-1.59v-2.37h1.59v-5.4h2.59v5.4h2.59V114Z"/><path class="cls-2" d="M337.3,111.59h2.59v14.94H337.3v-2.09a6.34,6.34,0,0,1-5.11,2.52c-3.78,0-7.27-2.67-7.27-7.92s3.45-7.81,7.27-7.81a6.19,6.19,0,0,1,5.11,2.48ZM327.58,119c0,3.2,1.8,5.61,4.9,5.61s5-2.62,5-5.57c0-3.86-2.66-5.55-5-5.55C329.92,113.53,327.58,115.4,327.58,119Zm5.47-16.59a3.1,3.1,0,1,1-3.1,3.09A3.12,3.12,0,0,1,333.05,102.45Zm0,4.6a1.51,1.51,0,1,0-1.51-1.51A1.57,1.57,0,0,0,333.05,107.05Z"/><path class="cls-2" d="M345.11,111.59h2.59v1.62a4.15,4.15,0,0,1,3.39-2,5.53,5.53,0,0,1,2.3.61l-1.22,2.34a2.65,2.65,0,0,0-1.52-.5,2.5,2.5,0,0,0-2.08.93c-.43.58-.87,1.59-.87,4v7.89h-2.59Z"/><path class="cls-2" d="M366.64,116.12a5.84,5.84,0,0,1-1.48,4.07,4.9,4.9,0,0,1-3.71,1.44,4.94,4.94,0,0,1-5.18-5.15,4.55,4.55,0,0,1,3-4.46,28.57,28.57,0,0,1,3-1,3,3,0,0,0,2.3-3.17,3.28,3.28,0,0,0-.93-2.51,3.1,3.1,0,0,0-2.2-.76,3.34,3.34,0,0,0-2.27.76,3.44,3.44,0,0,0-.93,2.41,5.61,5.61,0,0,0,.21,1.51h-2.66a7.26,7.26,0,0,1-.14-1.58,5.48,5.48,0,0,1,1.36-3.89,5.86,5.86,0,0,1,10.23,4.14,5,5,0,0,1-1.23,3.52,6.36,6.36,0,0,1-2.77,1.8c-.83.29-1.73.51-2.59.9a2.65,2.65,0,0,0-1.77,2.52,2.53,2.53,0,0,0,.72,1.88,2.75,2.75,0,0,0,3.53,0,3.67,3.67,0,0,0,.87-2.42Zm-5.15,7.24a1.8,1.8,0,1,1-1.8,1.8A1.83,1.83,0,0,1,361.49,123.36Z"/><path d="M40.82,5.15a5.67,5.67,0,0,0-1.4-1.8,4.32,4.32,0,0,0-2.7-.83c-2.38,0-4,1.48-4,3.71a2.5,2.5,0,0,0,.9,2.08,7.94,7.94,0,0,0,2.52,1.52l2.3,1a11.74,11.74,0,0,1,3.71,2.27,5.81,5.81,0,0,1,1.73,4.36c0,4.43-3.28,7.38-7.6,7.38A7.18,7.18,0,0,1,31,22.89a8.62,8.62,0,0,1-2.23-4.24l2.59-.72A5.7,5.7,0,0,0,32.83,21a4.61,4.61,0,0,0,3.46,1.33,4.54,4.54,0,0,0,4.82-4.75,3.57,3.57,0,0,0-1.19-2.81A10.47,10.47,0,0,0,37,13.1l-2.16-1a10.53,10.53,0,0,1-3.2-2A5,5,0,0,1,30,6.19C30,2.48,32.87,0,36.76,0a6.53,6.53,0,0,1,3.85,1.08A7.32,7.32,0,0,1,43,3.74Z"/><path d="M49.39,2a1.84,1.84,0,1,1-1.83,1.84A1.85,1.85,0,0,1,49.39,2Zm1.3,7.49V24.4H48.1V9.47Z"/><path d="M67,9.47h2.59V24a9.4,9.4,0,0,1-1.44,5.87,7.26,7.26,0,0,1-6,2.77,7.39,7.39,0,0,1-5.33-2,6.73,6.73,0,0,1-1.94-4.83h2.55a4.76,4.76,0,0,0,1.15,3.1,4.62,4.62,0,0,0,3.6,1.44,4.18,4.18,0,0,0,4-2.09A6.89,6.89,0,0,0,67,24.48V22.32a6.3,6.3,0,0,1-5.11,2.52,7.15,7.15,0,0,1-5.11-2,8.08,8.08,0,0,1-2.16-5.9,7.84,7.84,0,0,1,2.16-5.8,7.37,7.37,0,0,1,5.11-2A6.21,6.21,0,0,1,67,11.59Zm-8.21,3.34a5.7,5.7,0,0,0-1.51,4.11A5.76,5.76,0,0,0,59,21.31a4.56,4.56,0,0,0,3.21,1.22,4.42,4.42,0,0,0,3.27-1.26A6,6,0,0,0,67.17,17a5.89,5.89,0,0,0-1.58-4.21,4.78,4.78,0,0,0-3.38-1.33A4.63,4.63,0,0,0,58.82,12.81Z"/><path d="M74.52,9.47h2.59v1.72a5.28,5.28,0,0,1,4.28-2.08,5.07,5.07,0,0,1,4.29,2.05,6.69,6.69,0,0,1,.86,4V24.4H84V15.23a4.41,4.41,0,0,0-.68-2.74,2.94,2.94,0,0,0-2.45-1.08,3.27,3.27,0,0,0-2.63,1.15,6.28,6.28,0,0,0-1.08,4V24.4H74.52Z"/><path d="M104.68,20.59A8.7,8.7,0,0,1,102.85,23a7.28,7.28,0,0,1-5,1.84c-3.6,0-7.38-2.27-7.38-7.81,0-4.47,2.74-7.92,7.24-7.92a6.7,6.7,0,0,1,5.65,2.73,10.1,10.1,0,0,1,1.4,5.62H93.17a4.78,4.78,0,0,0,4.75,5.07A4.56,4.56,0,0,0,101,21.45a6,6,0,0,0,1.55-2.05Zm-2.55-5.29a4.47,4.47,0,0,0-4.39-3.89,4.53,4.53,0,0,0-4.39,3.89Z"/><path d="M110.41,9.11a1.8,1.8,0,1,1-1.8,1.8A1.83,1.83,0,0,1,110.41,9.11Zm0,12.13a1.8,1.8,0,1,1-1.8,1.8A1.83,1.83,0,0,1,110.41,21.24Z"/></g></g></svg>
