<svg xmlns="http://www.w3.org/2000/svg" viewBox="0 0 533.98 223.38"><defs><style>.cls-1{fill:#89cce5;stroke:#000;stroke-width:2.5px;}.cls-2{fill:#fff;}</style></defs><title>intro3</title><g id="Layer_2" data-name="Layer 2"><g id="Layer_1-2" data-name="Layer 1"><g id="Tegnebræt_1" data-name="Tegnebræt 1"><path id="Form_2" data-name="Form 2" class="cls-1" d="M533.44,192.13s-20.93,2.26-24-6c-.1-.26-3.85,13-31,6-.4-.1-44.91,18.39-93,1-.48-.17-97.52,25.45-157-1-.33-.15-15.66,9.37-30,0-.27-.18-60,19.47-107,0-.21-.09-23.74,15-36-8-.12-.23-28.45-5.77-11-29,.25-.33-14.78-24.15,0-49,.23-.39-12.81-31.2,1-41,.69-.49-5.62-28.38,25-19,.18.06,39.85-21.07,74,1,.25.16,91.49-31.93,159,1,.41.2,44.08-30.08,91-2,.71.42,36.25-25.43,74,0,.93.62,16.44-15.33,29,1,.44.57,27-2,23,24-.05.32,17.44,22.18-1,53-.41.68,11.81,13.9,2,33-.09.17,9.95,11.19,0,24C520.23,182.69,526.1,195.66,533.44,192.13Z"/><path id="Form_3" data-name="Form 3" class="cls-1" d="M39.44,93.13s21.59-8.13,1-20c0,0-6.51-19.78-21-6-.06.06-11.54-4.21-10,8,0,.06-21.93,10.81,6,19C15.51,94.15,39.44,93.13,39.44,93.13Z"/><path id="Form_3_kopier" data-name="Form 3 kopier" class="cls-1" d="M275.44,221.13s21.59-8.13,1-20c0,0-6.51-19.78-21-6-.06.06-11.55-4.21-10,8,0,.06-21.93,10.81,6,19C251.51,222.15,275.44,221.13,275.44,221.13Z"/><path id="Form_3_kopier_2" data-name="Form 3 kopier 2" class="cls-1" d="M521.44,32.13s21.59-8.13,1-20c0,0-6.51-19.78-21-6-.06.06-11.55-4.21-10,8,0,.06-21.93,10.81,6,19C497.51,33.15,521.44,32.13,521.44,32.13Z"/></g><path class="cls-2" d="M76.25,77.16V94.44c0,1.94,0,4.13-1.47,5.65A4.94,4.94,0,0,1,71,101.6a5.42,5.42,0,0,1-4.28-1.77l1.47-2.08a3.92,3.92,0,0,0,2.74,1.33,2.5,2.5,0,0,0,1.8-.69c.9-.9.9-2.41.9-3.88V77.16Z"/><path class="cls-2" d="M95.37,97.35a8.74,8.74,0,0,1-1.84,2.41,7.22,7.22,0,0,1-5,1.84c-3.6,0-7.38-2.27-7.38-7.81,0-4.47,2.73-7.92,7.23-7.92a6.69,6.69,0,0,1,5.65,2.73,10,10,0,0,1,1.41,5.62H83.85a4.79,4.79,0,0,0,4.75,5.07,4.52,4.52,0,0,0,3.06-1.08,6,6,0,0,0,1.55-2Zm-2.56-5.29a4.47,4.47,0,0,0-4.39-3.89A4.55,4.55,0,0,0,84,92.06Z"/><path class="cls-2" d="M111.21,86.23h2.59v14.58a9.37,9.37,0,0,1-1.44,5.86,7.26,7.26,0,0,1-6,2.77,7.38,7.38,0,0,1-5.32-2,6.73,6.73,0,0,1-2-4.82h2.56a4.68,4.68,0,0,0,1.15,3.09,4.62,4.62,0,0,0,3.6,1.44,4.18,4.18,0,0,0,4-2.09,6.89,6.89,0,0,0,.83-3.81V99.08a6.34,6.34,0,0,1-5.11,2.52,7.15,7.15,0,0,1-5.11-2,8.08,8.08,0,0,1-2.16-5.9,7.84,7.84,0,0,1,2.16-5.8,7.35,7.35,0,0,1,5.11-2,6.21,6.21,0,0,1,5.11,2.48ZM103,89.58a5.67,5.67,0,0,0-1.51,4.1,5.76,5.76,0,0,0,1.69,4.39,4.51,4.51,0,0,0,3.2,1.22A4.42,4.42,0,0,0,109.66,98a6,6,0,0,0,1.69-4.32,5.93,5.93,0,0,0-1.58-4.21,4.83,4.83,0,0,0-3.39-1.33A4.63,4.63,0,0,0,103,89.58Z"/><path class="cls-2" d="M127.73,74.93h2.59V88a5.26,5.26,0,0,1,4.29-2.09,5.07,5.07,0,0,1,4.28,2,6.65,6.65,0,0,1,.87,4v9.25h-2.6V92a4.41,4.41,0,0,0-.68-2.74A2.93,2.93,0,0,0,134,88.17a3.27,3.27,0,0,0-2.63,1.15,6.37,6.37,0,0,0-1.08,4v7.81h-2.59Z"/><path class="cls-2" d="M156.42,86.23H159v14.94h-2.59V99.08a6.3,6.3,0,0,1-5.11,2.52c-3.78,0-7.27-2.67-7.27-7.92s3.46-7.81,7.27-7.81a6.17,6.17,0,0,1,5.11,2.48Zm-9.72,7.45c0,3.2,1.8,5.61,4.9,5.61s5-2.62,5-5.58c0-3.85-2.67-5.54-5-5.54C149,88.17,146.7,90,146.7,93.68Z"/><path class="cls-2" d="M164.24,86.23h2.59v1.62a4.14,4.14,0,0,1,3.38-2,5.49,5.49,0,0,1,2.3.61l-1.22,2.34a2.64,2.64,0,0,0-1.51-.5,2.53,2.53,0,0,0-2.09.93c-.43.58-.86,1.59-.86,4v7.89h-2.59Z"/><path class="cls-2" d="M186.52,74.93v26.24h-2.59V74.93Z"/><path class="cls-2" d="M196.45,99.76l-6.87-13.53h2.95l5.29,10.69,4.86-10.69h2.88l-11,23.21H191.7Z"/><path class="cls-2" d="M214.42,89.68a2.3,2.3,0,0,0-2.09-1.51,1.65,1.65,0,0,0-1.8,1.69c0,1.08.72,1.41,2.41,2.13,2.16.9,3.17,1.58,3.75,2.3a3.56,3.56,0,0,1,.79,2.41c0,3.13-2.27,4.9-5.15,4.9a5.34,5.34,0,0,1-5.22-3.82l2.23-.93a3.38,3.38,0,0,0,3,2.44,2.31,2.31,0,0,0,2.44-2.37c0-1.41-1-1.87-2.41-2.48a9.75,9.75,0,0,1-3.63-2.2,3.23,3.23,0,0,1-.69-2.2,4,4,0,0,1,4.36-4.17,4.3,4.3,0,0,1,4.1,2.7Z"/><path class="cls-2" d="M223.92,88.6v12.57h-2.59V88.6h-1.58V86.23h1.58v-5.4h2.59v5.4h2.59V88.6Z"/><path class="cls-2" d="M240.66,88.6v12.57h-2.59V88.6h-1.58V86.23h1.58v-5.4h2.59v5.4h2.59V88.6Z"/><path class="cls-2" d="M247.32,78.74a1.84,1.84,0,1,1-1.83,1.84A1.85,1.85,0,0,1,247.32,78.74Zm1.3,7.49v14.94H246V86.23Z"/><path class="cls-2" d="M256.43,74.93v26.24h-2.59V74.93Z"/><path class="cls-2" d="M273,88.6v12.57h-2.59V88.6h-1.58V86.23h1.58v-5.4H273v5.4h2.6V88.6Z"/><path class="cls-2" d="M284.18,99.76l-6.87-13.53h2.95l5.29,10.69,4.86-10.69h2.88l-11,23.21h-2.88Z"/><path class="cls-2" d="M307.8,86.23h2.59v14.58a9.37,9.37,0,0,1-1.44,5.86,7.24,7.24,0,0,1-6,2.77,7.39,7.39,0,0,1-5.33-2,6.73,6.73,0,0,1-1.95-4.82h2.56a4.68,4.68,0,0,0,1.15,3.09,4.62,4.62,0,0,0,3.6,1.44,4.18,4.18,0,0,0,4-2.09,6.89,6.89,0,0,0,.83-3.81V99.08a6.3,6.3,0,0,1-5.11,2.52,7.15,7.15,0,0,1-5.11-2,8.08,8.08,0,0,1-2.16-5.9,7.84,7.84,0,0,1,2.16-5.8,7.37,7.37,0,0,1,5.11-2,6.21,6.21,0,0,1,5.11,2.48Zm-8.21,3.35a5.67,5.67,0,0,0-1.51,4.1,5.76,5.76,0,0,0,1.69,4.39A4.52,4.52,0,0,0,303,99.29,4.42,4.42,0,0,0,306.25,98a6,6,0,0,0,1.69-4.32,5.89,5.89,0,0,0-1.58-4.21A4.82,4.82,0,0,0,303,88.17,4.64,4.64,0,0,0,299.59,89.58Z"/><path class="cls-2" d="M327.06,86.23h2.59v14.58a9.37,9.37,0,0,1-1.44,5.86,7.25,7.25,0,0,1-6,2.77,7.37,7.37,0,0,1-5.33-2,6.73,6.73,0,0,1-2-4.82h2.56a4.68,4.68,0,0,0,1.15,3.09,4.62,4.62,0,0,0,3.6,1.44,4.18,4.18,0,0,0,4-2.09,6.89,6.89,0,0,0,.83-3.81V99.08A6.34,6.34,0,0,1,322,101.6a7.15,7.15,0,0,1-5.11-2,8.08,8.08,0,0,1-2.16-5.9,7.84,7.84,0,0,1,2.16-5.8,7.37,7.37,0,0,1,5.11-2,6.21,6.21,0,0,1,5.11,2.48Zm-8.21,3.35a5.67,5.67,0,0,0-1.51,4.1A5.76,5.76,0,0,0,319,98.07a4.52,4.52,0,0,0,3.21,1.22A4.42,4.42,0,0,0,325.51,98a6,6,0,0,0,1.69-4.32,5.93,5.93,0,0,0-1.58-4.21,4.82,4.82,0,0,0-3.38-1.33A4.64,4.64,0,0,0,318.85,89.58Z"/><path class="cls-2" d="M348.12,97.35a8.94,8.94,0,0,1-1.84,2.41,7.23,7.23,0,0,1-5,1.84c-3.6,0-7.38-2.27-7.38-7.81,0-4.47,2.74-7.92,7.24-7.92a6.7,6.7,0,0,1,5.65,2.73,10,10,0,0,1,1.4,5.62H336.6a4.78,4.78,0,0,0,4.75,5.07,4.54,4.54,0,0,0,3.06-1.08,6,6,0,0,0,1.55-2Zm-2.56-5.29a4.47,4.47,0,0,0-4.39-3.89,4.53,4.53,0,0,0-4.39,3.89Z"/><path class="cls-2" d="M364,86.23h2.59v14.58a9.37,9.37,0,0,1-1.44,5.86,7.26,7.26,0,0,1-6,2.77,7.36,7.36,0,0,1-5.32-2,6.73,6.73,0,0,1-1.95-4.82h2.56a4.68,4.68,0,0,0,1.15,3.09,4.62,4.62,0,0,0,3.6,1.44,4.2,4.2,0,0,0,4-2.09,7,7,0,0,0,.83-3.81V99.08a6.34,6.34,0,0,1-5.11,2.52,7.19,7.19,0,0,1-5.12-2,8.12,8.12,0,0,1-2.16-5.9,7.84,7.84,0,0,1,2.16-5.8,7.39,7.39,0,0,1,5.12-2A6.21,6.21,0,0,1,364,88.35Zm-8.21,3.35a5.67,5.67,0,0,0-1.51,4.1,5.76,5.76,0,0,0,1.69,4.39,4.51,4.51,0,0,0,3.2,1.22A4.42,4.42,0,0,0,362.41,98a6,6,0,0,0,1.69-4.32,5.93,5.93,0,0,0-1.58-4.21,4.85,4.85,0,0,0-3.39-1.33A4.63,4.63,0,0,0,355.75,89.58Z"/><path class="cls-2" d="M374.36,94.94a5.07,5.07,0,0,0,.72,3.2,3.58,3.58,0,0,0,5.26,0,5.07,5.07,0,0,0,.72-3.2V86.23h2.59v9c0,1.83-.18,3.2-1.37,4.5a6.52,6.52,0,0,1-9.14,0c-1.19-1.3-1.37-2.67-1.37-4.5v-9h2.59Z"/><path class="cls-2" d="M388.87,86.23h2.59v1.58a4.34,4.34,0,0,1,3.71-1.94,4.49,4.49,0,0,1,4.07,2.41,5,5,0,0,1,4.5-2.41c4.42,0,4.85,3.71,4.85,5.83v9.47H406V92.1c0-1.7-.21-3.93-2.66-3.93-3,0-3.31,2.88-3.31,4.68v8.32h-2.59V92.31c0-1,0-4.14-2.7-4.14-3,0-3.28,3.06-3.28,4.86v8.14h-2.59Z"/><path class="cls-2" d="M413.85,86.23h2.59v1.58a4.36,4.36,0,0,1,3.71-1.94,4.49,4.49,0,0,1,4.07,2.41,5,5,0,0,1,4.5-2.41c4.43,0,4.86,3.71,4.86,5.83v9.47H431V92.1c0-1.7-.22-3.93-2.67-3.93-3,0-3.31,2.88-3.31,4.68v8.32h-2.59V92.31c0-1,0-4.14-2.7-4.14-3,0-3.28,3.06-3.28,4.86v8.14h-2.59Z"/><path class="cls-2" d="M440.13,78.74a1.84,1.84,0,1,1-1.83,1.84A1.85,1.85,0,0,1,440.13,78.74Zm1.3,7.49v14.94h-2.59V86.23Z"/><path class="cls-2" d="M448.3,97.93a1.8,1.8,0,1,1-1.8,1.8A1.82,1.82,0,0,1,448.3,97.93Z"/><path class="cls-2" d="M456.84,97.93a1.8,1.8,0,1,1-1.8,1.8A1.83,1.83,0,0,1,456.84,97.93Z"/><path class="cls-2" d="M465.37,97.93a1.8,1.8,0,1,1-1.8,1.8A1.83,1.83,0,0,1,465.37,97.93Z"/></g></g></svg>
