<svg xmlns="http://www.w3.org/2000/svg" viewBox="0 0 533.98 223.38"><defs><style>.cls-1{fill:#89cce5;stroke:#000;stroke-width:2.5px;}.cls-2{fill:#fff;}</style></defs><title>intro6</title><g id="Layer_2" data-name="Layer 2"><g id="Layer_1-2" data-name="Layer 1"><g id="Tegnebræt_1" data-name="Tegnebræt 1"><path id="Form_2" data-name="Form 2" class="cls-1" d="M533.44,192.13s-20.93,2.26-24-6c-.1-.26-3.85,13-31,6-.4-.1-44.91,18.39-93,1-.48-.17-97.52,25.45-157-1-.33-.15-15.66,9.37-30,0-.27-.18-60,19.47-107,0-.21-.09-23.74,15-36-8-.12-.23-28.45-5.77-11-29,.25-.33-14.78-24.15,0-49,.23-.39-12.81-31.2,1-41,.69-.49-5.62-28.38,25-19,.18.06,39.85-21.07,74,1,.25.16,91.49-31.93,159,1,.41.2,44.08-30.08,91-2,.71.42,36.25-25.43,74,0,.93.62,16.44-15.33,29,1,.44.57,27-2,23,24-.05.32,17.44,22.18-1,53-.41.68,11.81,13.9,2,33-.09.17,9.95,11.19,0,24C520.23,182.69,526.1,195.66,533.44,192.13Z"/><path id="Form_3" data-name="Form 3" class="cls-1" d="M39.44,93.13s21.59-8.13,1-20c0,0-6.51-19.78-21-6-.06.06-11.54-4.21-10,8,0,.06-21.93,10.81,6,19C15.51,94.15,39.44,93.13,39.44,93.13Z"/><path id="Form_3_kopier" data-name="Form 3 kopier" class="cls-1" d="M275.44,221.13s21.59-8.13,1-20c0,0-6.51-19.78-21-6-.06.06-11.55-4.21-10,8,0,.06-21.93,10.81,6,19C251.51,222.15,275.44,221.13,275.44,221.13Z"/><path id="Form_3_kopier_2" data-name="Form 3 kopier 2" class="cls-1" d="M521.44,32.13s21.59-8.13,1-20c0,0-6.51-19.78-21-6-.06.06-11.55-4.21-10,8,0,.06-21.93,10.81,6,19C497.51,33.15,521.44,32.13,521.44,32.13Z"/></g><path class="cls-2" d="M89.69,86.11h10v.57a13.24,13.24,0,0,1-2.3,7.6,10.78,10.78,0,0,1-8.93,4.32,12.42,12.42,0,1,1,.07-24.84,11.92,11.92,0,0,1,7.34,2.38A14.57,14.57,0,0,1,98.66,79l-2,1.8a12.74,12.74,0,0,0-2.27-2.48,8.78,8.78,0,0,0-5.83-2,9.9,9.9,0,0,0-.07,19.8,8.36,8.36,0,0,0,7.34-4,7.62,7.62,0,0,0,1-3.42H89.69Z"/><path class="cls-2" d="M115.72,83.23h2.59V98.17h-2.59V96.08a6.3,6.3,0,0,1-5.11,2.52c-3.78,0-7.27-2.67-7.27-7.92s3.46-7.81,7.27-7.81a6.17,6.17,0,0,1,5.11,2.48ZM106,90.68c0,3.2,1.8,5.61,4.9,5.61s5-2.62,5-5.58c0-3.85-2.67-5.54-5-5.54C108.34,85.17,106,87,106,90.68Z"/><path class="cls-2" d="M135,71.93h2.59V98.17H135V96.08a6.3,6.3,0,0,1-5.11,2.52c-3.78,0-7.27-2.67-7.27-7.92s3.45-7.81,7.27-7.81A6.17,6.17,0,0,1,135,85.35Zm-9.72,18.75c0,3.2,1.8,5.61,4.9,5.61s5-2.62,5-5.58c0-3.85-2.67-5.54-5-5.54C127.6,85.17,125.26,87,125.26,90.68Z"/><path class="cls-2" d="M152.23,83.23l4.46,10.08,4.46-10.08H164l-7.34,15.91-7.34-15.91Z"/><path class="cls-2" d="M168.39,75.74a1.84,1.84,0,1,1-1.84,1.84A1.85,1.85,0,0,1,168.39,75.74Zm1.3,7.49V98.17h-2.6V83.23Z"/><path class="cls-2" d="M186.35,71.93h2.59V98.17h-2.59V96.08a6.3,6.3,0,0,1-5.11,2.52c-3.78,0-7.27-2.67-7.27-7.92s3.45-7.81,7.27-7.81a6.17,6.17,0,0,1,5.11,2.48Zm-9.72,18.75c0,3.2,1.8,5.61,4.9,5.61s5-2.62,5-5.58c0-3.85-2.67-5.54-5-5.54C179,85.17,176.63,87,176.63,90.68Z"/><path class="cls-2" d="M207.41,94.35a8.89,8.89,0,0,1-1.83,2.41,7.23,7.23,0,0,1-5,1.84c-3.6,0-7.38-2.27-7.38-7.81,0-4.47,2.74-7.92,7.23-7.92a6.71,6.71,0,0,1,5.66,2.73,10.13,10.13,0,0,1,1.4,5.62H195.89a4.79,4.79,0,0,0,4.75,5.07,4.52,4.52,0,0,0,3.06-1.08,5.78,5.78,0,0,0,1.55-2Zm-2.55-5.29a4.48,4.48,0,0,0-4.4-3.89,4.55,4.55,0,0,0-4.39,3.89Z"/><path class="cls-2" d="M219.58,90.75a7.92,7.92,0,1,1,7.92,7.85A7.67,7.67,0,0,1,219.58,90.75Zm2.66,0a5.26,5.26,0,1,0,10.51,0c0-3.67-2.51-5.58-5.25-5.58A5.2,5.2,0,0,0,222.24,90.75Z"/><path class="cls-2" d="M239.7,83.23h2.6v1.58a4.33,4.33,0,0,1,3.7-1.94,4.49,4.49,0,0,1,4.07,2.41,5,5,0,0,1,4.5-2.41c4.43,0,4.86,3.71,4.86,5.83v9.47h-2.59V89.1c0-1.7-.22-3.93-2.67-3.93-3,0-3.31,2.88-3.31,4.68v8.32h-2.59V89.31c0-1,0-4.14-2.7-4.14-2.95,0-3.27,3.06-3.27,4.86v8.14h-2.6Z"/><path class="cls-2" d="M284.85,71.93h2.59V98.17h-2.59V96.08a6.34,6.34,0,0,1-5.11,2.52c-3.78,0-7.28-2.67-7.28-7.92s3.46-7.81,7.28-7.81a6.2,6.2,0,0,1,5.11,2.48Zm-9.72,18.75c0,3.2,1.8,5.61,4.89,5.61s5-2.62,5-5.58c0-3.85-2.66-5.54-5-5.54C277.47,85.17,275.13,87,275.13,90.68Z"/><path class="cls-2" d="M305.91,94.35a8.94,8.94,0,0,1-1.84,2.41,7.23,7.23,0,0,1-5,1.84c-3.6,0-7.38-2.27-7.38-7.81,0-4.47,2.74-7.92,7.24-7.92a6.7,6.7,0,0,1,5.65,2.73,10,10,0,0,1,1.4,5.62H294.39a4.78,4.78,0,0,0,4.75,5.07,4.56,4.56,0,0,0,3.06-1.08,6,6,0,0,0,1.55-2Zm-2.56-5.29A4.47,4.47,0,0,0,299,85.17a4.53,4.53,0,0,0-4.39,3.89Z"/><path class="cls-2" d="M310.3,83.23h2.59v1.62a4.14,4.14,0,0,1,3.38-2,5.54,5.54,0,0,1,2.31.61l-1.23,2.34a2.6,2.6,0,0,0-1.51-.5,2.53,2.53,0,0,0-2.09.93c-.43.58-.86,1.59-.86,4v7.89H310.3Z"/><path class="cls-2" d="M343.24,94.35a8.94,8.94,0,0,1-1.84,2.41,7.23,7.23,0,0,1-5,1.84c-3.6,0-7.38-2.27-7.38-7.81,0-4.47,2.74-7.92,7.24-7.92a6.7,6.7,0,0,1,5.65,2.73,10,10,0,0,1,1.4,5.62H331.72a4.78,4.78,0,0,0,4.75,5.07,4.56,4.56,0,0,0,3.06-1.08,6,6,0,0,0,1.55-2Zm-2.56-5.29a4.47,4.47,0,0,0-4.39-3.89,4.53,4.53,0,0,0-4.39,3.89Z"/><path class="cls-2" d="M347.63,83.23h2.59v1.62a4.14,4.14,0,0,1,3.38-2,5.54,5.54,0,0,1,2.31.61l-1.23,2.34a2.6,2.6,0,0,0-1.51-.5,2.53,2.53,0,0,0-2.09.93c-.43.58-.86,1.59-.86,4v7.89h-2.59Z"/><path class="cls-2" d="M369.91,71.93V88.77l5.47-5.54h3.39l-6.41,6.41,7.56,8.53h-3.39l-6-6.81-.65.65v6.16h-2.59V71.93Z"/><path class="cls-2" d="M381.36,90.75a7.92,7.92,0,1,1,7.92,7.85A7.67,7.67,0,0,1,381.36,90.75Zm2.67,0a5.26,5.26,0,1,0,5.25-5.58A5.17,5.17,0,0,0,384,90.75Z"/><path class="cls-2" d="M401.48,83.23h2.59v1.58a4.36,4.36,0,0,1,3.71-1.94,4.49,4.49,0,0,1,4.07,2.41,5,5,0,0,1,4.5-2.41c4.43,0,4.86,3.71,4.86,5.83v9.47h-2.59V89.1c0-1.7-.22-3.93-2.67-3.93-3,0-3.31,2.88-3.31,4.68v8.32h-2.59V89.31c0-1,0-4.14-2.7-4.14-3,0-3.28,3.06-3.28,4.86v8.14h-2.59Z"/><path class="cls-2" d="M426.47,83.23h2.59v1.58a4.34,4.34,0,0,1,3.71-1.94,4.45,4.45,0,0,1,4.06,2.41,5,5,0,0,1,4.5-2.41c4.43,0,4.86,3.71,4.86,5.83v9.47H443.6V89.1c0-1.7-.21-3.93-2.66-3.93-3,0-3.31,2.88-3.31,4.68v8.32H435V89.31c0-1,0-4.14-2.69-4.14-3,0-3.28,3.06-3.28,4.86v8.14h-2.59Z"/><path class="cls-2" d="M464.7,94.35a8.74,8.74,0,0,1-1.84,2.41,7.22,7.22,0,0,1-5,1.84c-3.6,0-7.38-2.27-7.38-7.81,0-4.47,2.73-7.92,7.23-7.92a6.69,6.69,0,0,1,5.65,2.73,10,10,0,0,1,1.41,5.62H453.18a4.79,4.79,0,0,0,4.75,5.07A4.54,4.54,0,0,0,461,95.21a6,6,0,0,0,1.55-2Zm-2.56-5.29a4.47,4.47,0,0,0-4.39-3.89,4.55,4.55,0,0,0-4.39,3.89Z"/><path class="cls-2" d="M471.76,85.6V98.17h-2.6V85.6h-1.58V83.23h1.58v-5.4h2.6v5.4h2.59V85.6Z"/><path class="cls-2" d="M76.66,126.43h2.6v1.73a5.22,5.22,0,0,1,4.28-2.09,5.07,5.07,0,0,1,4.28,2.05,6.63,6.63,0,0,1,.87,4v9.26h-2.6v-9.18a4.41,4.41,0,0,0-.68-2.74A2.93,2.93,0,0,0,83,128.37a3.27,3.27,0,0,0-2.63,1.15,6.33,6.33,0,0,0-1.07,4v7.82h-2.6Z"/><path class="cls-2" d="M93,134a7.92,7.92,0,1,1,7.92,7.85A7.67,7.67,0,0,1,93,134Zm2.66,0a5.27,5.27,0,1,0,5.26-5.58A5.18,5.18,0,0,0,95.63,134Z"/><path class="cls-2" d="M124.54,126.43h2.59V141a9.39,9.39,0,0,1-1.44,5.87,7.25,7.25,0,0,1-6,2.77,7.39,7.39,0,0,1-5.33-2,6.73,6.73,0,0,1-1.94-4.83H115a4.76,4.76,0,0,0,1.15,3.1,4.62,4.62,0,0,0,3.6,1.44,4.18,4.18,0,0,0,4-2.09,6.89,6.89,0,0,0,.83-3.81v-2.16a6.3,6.3,0,0,1-5.11,2.52,7.15,7.15,0,0,1-5.11-2,8.08,8.08,0,0,1-2.16-5.9,7.84,7.84,0,0,1,2.16-5.8,7.37,7.37,0,0,1,5.11-2,6.2,6.2,0,0,1,5.11,2.48Zm-8.21,3.35a5.66,5.66,0,0,0-1.51,4.1,5.76,5.76,0,0,0,1.69,4.39,4.52,4.52,0,0,0,3.21,1.22,4.38,4.38,0,0,0,3.27-1.26,6,6,0,0,0,1.69-4.32,5.89,5.89,0,0,0-1.58-4.21,4.82,4.82,0,0,0-3.38-1.33A4.6,4.6,0,0,0,116.33,129.78Z"/><path class="cls-2" d="M145.6,137.55a8.74,8.74,0,0,1-1.84,2.41,7.19,7.19,0,0,1-5,1.84c-3.6,0-7.38-2.27-7.38-7.81,0-4.47,2.73-7.92,7.23-7.92a6.69,6.69,0,0,1,5.65,2.73,10,10,0,0,1,1.41,5.62H134.08a4.79,4.79,0,0,0,4.75,5.07,4.52,4.52,0,0,0,3.06-1.08,5.78,5.78,0,0,0,1.55-2ZM143,132.26a4.47,4.47,0,0,0-4.39-3.89,4.55,4.55,0,0,0-4.39,3.89Z"/><path class="cls-2" d="M152.66,128.8v12.57h-2.59V128.8h-1.59v-2.37h1.59V121h2.59v5.4h2.59v2.37Z"/><path class="cls-2" d="M166.73,126.43h2.59v1.73a5.26,5.26,0,0,1,4.29-2.09,5.07,5.07,0,0,1,4.28,2.05,6.63,6.63,0,0,1,.87,4v9.26h-2.6v-9.18a4.41,4.41,0,0,0-.68-2.74,2.93,2.93,0,0,0-2.45-1.08,3.27,3.27,0,0,0-2.63,1.15,6.34,6.34,0,0,0-1.08,4v7.82h-2.59Z"/><path class="cls-2" d="M188.69,140l-6.87-13.53h3l5.29,10.69,4.86-10.69h2.88l-11,23.21h-2.88Z"/><path class="cls-2" d="M203.52,128.8v12.57h-2.59V128.8h-1.58v-2.37h1.58V121h2.59v5.4h2.59v2.37Z"/><path class="cls-2" d="M220.19,149.64H217.6V126.43h2.59v2.08a6.42,6.42,0,0,1,5.11-2.44c4.68,0,7.27,3.89,7.27,7.92s-2.62,7.81-7.16,7.81a6.35,6.35,0,0,1-5.22-2.52ZM229.91,134c0-3.68-2.48-5.62-4.9-5.62s-5,2-5,5.58c0,3.06,1.94,5.54,5,5.54S229.91,137,229.91,134Z"/><path class="cls-2" d="M248.3,126.43h2.6v14.94h-2.6v-2.09a6.3,6.3,0,0,1-5.11,2.52c-3.78,0-7.27-2.67-7.27-7.92s3.46-7.81,7.27-7.81a6.17,6.17,0,0,1,5.11,2.48Zm-9.71,7.45c0,3.2,1.8,5.61,4.89,5.61s5-2.62,5-5.58c0-3.85-2.66-5.54-5-5.54C240.93,128.37,238.59,130.24,238.59,133.88Zm5.47-16.6a3.1,3.1,0,1,1-3.1,3.1A3.12,3.12,0,0,1,244.06,117.28Zm0,4.61a1.51,1.51,0,1,0-1.51-1.51A1.57,1.57,0,0,0,244.06,121.89Z"/><path class="cls-2" d="M266.13,118.94a1.84,1.84,0,1,1-1.84,1.84A1.85,1.85,0,0,1,266.13,118.94Zm1.29,7.49v14.94h-2.59V126.43Z"/><path class="cls-2" d="M272.64,126.43h2.59v1.73a5.26,5.26,0,0,1,4.29-2.09,5.07,5.07,0,0,1,4.28,2.05,6.63,6.63,0,0,1,.86,4v9.26h-2.59v-9.18a4.41,4.41,0,0,0-.68-2.74,2.94,2.94,0,0,0-2.45-1.08,3.27,3.27,0,0,0-2.63,1.15,6.34,6.34,0,0,0-1.08,4v7.82h-2.59Z"/><path class="cls-2" d="M296,129.88a2.3,2.3,0,0,0-2.09-1.51,1.65,1.65,0,0,0-1.8,1.69c0,1.08.72,1.41,2.41,2.13,2.16.9,3.17,1.58,3.75,2.3a3.51,3.51,0,0,1,.79,2.41c0,3.13-2.27,4.9-5.15,4.9a5.34,5.34,0,0,1-5.22-3.82l2.23-.93a3.39,3.39,0,0,0,3,2.44,2.32,2.32,0,0,0,2.45-2.37c0-1.41-1-1.87-2.41-2.49a9.6,9.6,0,0,1-3.64-2.19,3.23,3.23,0,0,1-.69-2.2,4,4,0,0,1,4.36-4.17,4.29,4.29,0,0,1,4.1,2.7Z"/><path class="cls-2" d="M305.54,128.8v12.57H303V128.8h-1.58v-2.37H303V121h2.59v5.4h2.6v2.37Z"/><path class="cls-2" d="M322.35,126.43H325v14.94h-2.6v-2.09a6.3,6.3,0,0,1-5.11,2.52c-3.78,0-7.27-2.67-7.27-7.92s3.46-7.81,7.27-7.81a6.17,6.17,0,0,1,5.11,2.48Zm-9.71,7.45c0,3.2,1.8,5.61,4.89,5.61s5-2.62,5-5.58c0-3.85-2.67-5.54-5-5.54C315,128.37,312.64,130.24,312.64,133.88Z"/><path class="cls-2" d="M331.82,138.13a1.8,1.8,0,1,1-1.8,1.8A1.83,1.83,0,0,1,331.82,138.13Z"/><path class="cls-2" d="M340.36,138.13a1.8,1.8,0,1,1-1.8,1.8A1.82,1.82,0,0,1,340.36,138.13Z"/><path class="cls-2" d="M348.89,138.13a1.8,1.8,0,1,1-1.8,1.8A1.83,1.83,0,0,1,348.89,138.13Z"/></g></g></svg>
