<svg xmlns="http://www.w3.org/2000/svg" width="533.97" height="223.38" viewBox="0 0 533.97 223.38"><defs><style>.cls-1{fill:#89cce5;stroke:#000;stroke-width:2.5px;}.cls-2{font-size:36px;fill:#fff;font-family:Futura-Medium, Futura;}.cls-3{letter-spacing:0.01em;}</style></defs><title>intro3</title><g id="Lag_2" data-name="Lag 2"><g id="Lag_1-2" data-name="Lag 1"><g id="Tegnebræt_1" data-name="Tegnebræt 1"><path id="Form_2" data-name="Form 2" class="cls-1" d="M533.43,192.13s-20.93,2.26-24-6c-.1-.26-3.85,13-31,6-.4-.1-44.91,18.39-93,1-.48-.17-97.52,25.45-157-1-.33-.15-15.66,9.37-30,0-.27-.18-60,19.47-107,0-.21-.09-23.74,14.95-36-8-.12-.23-28.45-5.77-11-29,.25-.33-14.78-24.15,0-49,.23-.39-12.81-31.2,1-41,.69-.49-5.62-28.38,25-19,.18.06,39.85-21.07,74,1,.25.16,91.49-31.93,159,1,.41.2,44.08-30.08,91-2,.71.42,36.25-25.43,74,0,.93.62,16.44-15.33,29,1,.44.57,27-2,23,24-.05.32,17.44,22.18-1,53-.41.68,11.81,13.9,2,33-.09.17,9.95,11.19,0,24C520.22,182.69,526.09,195.66,533.43,192.13Z"/><path id="Form_3" data-name="Form 3" class="cls-1" d="M39.43,93.13s21.59-8.13,1-20c0,0-6.51-19.78-21-6-.06.06-11.54-4.21-10,8,0,.06-21.93,10.81,6,19C15.5,94.15,39.43,93.13,39.43,93.13Z"/><path id="Form_3_kopier" data-name="Form 3 kopier" class="cls-1" d="M275.43,221.13s21.59-8.13,1-20c0,0-6.51-19.78-21-6-.06.06-11.55-4.21-10,8,0,.06-21.93,10.81,6,19C251.5,222.15,275.43,221.13,275.43,221.13Z"/><path id="Form_3_kopier_2" data-name="Form 3 kopier 2" class="cls-1" d="M521.43,32.13s21.59-8.13,1-20c0,0-6.51-19.78-21-6-.06.06-11.55-4.21-10,8,0,.06-21.93,10.81,6,19C497.5,33.15,521.43,32.13,521.43,32.13Z"/></g><text class="cls-2" transform="translate(76.43 90.13)">Jeg har <tspan class="cls-3" x="133.24" y="0">l</tspan><tspan x="142.52" y="0">yst til </tspan><tspan x="0" y="43.2">tyggegummi...</tspan></text></g></g></svg>
