<svg xmlns="http://www.w3.org/2000/svg" width="489.58" height="189.35" viewBox="0 0 489.58 189.35"><defs><style>.cls-1{fill:#00b9ff;stroke:#000;stroke-width:2.5px;}.cls-2,.cls-7{font-size:36px;font-family:Futura-Medium, Futura;}.cls-2{fill:#fff;}.cls-3{letter-spacing:-0.02em;}.cls-4{letter-spacing:0.01em;}.cls-5{letter-spacing:-0.02em;}.cls-6{letter-spacing:0.02em;}</style></defs><title>intro2</title><g id="Lag_2" data-name="Lag 2"><g id="Lag_1-2" data-name="Lag 1"><path id="Taleboble" class="cls-1" d="M489.25,188s-12,1.35-21-5c-.39-.28-4.41,4.94-24,5-41.58.13-418,0-418,0s-25.15-2.37-25-30,0-92,0-92,1.32-24.92,28-25,423,0,423,0,25.53,1.08,26,22,1,112,1,112S475.9,184.33,489.25,188Z"/><text class="cls-2" transform="translate(25 81.03)">Ej, <tspan class="cls-3" x="51.54" y="0">v</tspan><tspan x="69.01" y="0">ar d</tspan><tspan class="cls-4" x="136.76" y="0">e</tspan><tspan x="156.99" y="0">t en sod</tspan><tspan class="cls-4" x="286.54" y="0">a</tspan><tspan class="cls-3" x="308.44" y="0">v</tspan><tspan x="325.92" y="0">and i </tspan><tspan x="0" y="43.2">din </tspan><tspan class="cls-4" x="61.4" y="43.2">t</tspan><tspan x="71.56" y="43.2">as</tspan><tspan class="cls-5" x="107.75" y="43.2">k</tspan><tspan x="125.1" y="43.2">e? Må jeg </tspan><tspan class="cls-6" x="302.59" y="43.2">f</tspan><tspan x="313.82" y="43.2">å en </tspan><tspan class="cls-4" x="0" y="86.4">t</tspan><tspan x="10.16" y="86.4">år?</tspan></text><text class="cls-7" transform="translate(25 31.7)">Signe:</text></g></g></svg>
