<svg xmlns="http://www.w3.org/2000/svg" viewBox="0 0 168.99 90.57"><defs><style>.cls-1{fill:#f4912d;stroke:#000;stroke-width:2.5px;}.cls-2{fill:#fff;}</style></defs><title>JA</title><g id="Layer_2" data-name="Layer 2"><g id="Layer_1-2" data-name="Layer 1"><path id="Taleboble" class="cls-1" d="M168.65,89.19s-12,1.4-21-5c-.4-.3-4.4,4.9-24,5-41.6.1-97.4,0-97.4,0s-25.2-2.4-25-30,0-32.9,0-32.9,1.3-24.9,28-25,102.4,0,102.4,0,25.5,1.1,26,22,1,52.9,1,52.9S155.35,85.49,168.65,89.19Z"/><path class="cls-2" d="M64.17,31.73V49c0,1.94,0,4.14-1.48,5.65a4.91,4.91,0,0,1-3.81,1.51,5.47,5.47,0,0,1-4.29-1.76l1.48-2.09a3.86,3.86,0,0,0,2.74,1.33,2.55,2.55,0,0,0,1.8-.68c.9-.9.9-2.41.9-3.89V31.73Z"/><path class="cls-2" d="M83.93,49H73.71l-2.88,6.76h-3L78.93,30.58,89.69,55.74h-3Zm-1-2.52-4-9.62-4.11,9.62Z"/><path class="cls-2" d="M95.35,52.5a1.8,1.8,0,1,1-1.8,1.8A1.83,1.83,0,0,1,95.35,52.5Zm-1.3-1.62V31.73h2.59V50.88Z"/></g></g></svg>
