<svg xmlns="http://www.w3.org/2000/svg" viewBox="0 0 168.98 90.58"><defs><style>.cls-1{fill:#f4912d;stroke:#000;stroke-width:2.5px;}.cls-2{fill:#fff;}</style></defs><title>NEJ</title><g id="Layer_2" data-name="Layer 2"><g id="Layer_1-2" data-name="Layer 1"><path id="Taleboble" class="cls-1" d="M168.65,89.21s-12,1.35-21-5c-.39-.28-4.41,4.94-24,5-41.58.13-97.4,0-97.4,0s-25.15-2.37-25-30,0-32.92,0-32.92,1.32-24.92,28-25,102.4,0,102.4,0,25.53,1.08,26,22,1,52.92,1,52.92S155.3,85.56,168.65,89.21Z"/><path class="cls-2" d="M49.34,56.16v-25L68.05,50.76V32.15h2.67V57.24L52,37.62V56.16Z"/><path class="cls-2" d="M89.69,34.67H79.9V41.8h9.5v2.52H79.9v9.32h9.79v2.52H77.24v-24H89.69Z"/><path class="cls-2" d="M100.45,32.15V49.43c0,1.94,0,4.14-1.47,5.65a4.94,4.94,0,0,1-3.82,1.51,5.46,5.46,0,0,1-4.28-1.76l1.48-2.09a3.88,3.88,0,0,0,2.73,1.33,2.53,2.53,0,0,0,1.8-.68c.9-.9.9-2.41.9-3.89V32.15Z"/><path class="cls-2" d="M108.92,52.92a1.8,1.8,0,1,1-1.8,1.8A1.83,1.83,0,0,1,108.92,52.92Zm-1.3-1.62V32.15h2.59V51.3Z"/></g></g></svg>
