<svg xmlns="http://www.w3.org/2000/svg" width="818" height="503" viewBox="0 0 818 503"><defs><style>.a{fill:#274441;}.a,.b,.c,.e{stroke:#000;stroke-miterlimit:10;}.b{fill:#020505;}.c{fill:#777575;}.d{fill:#a3a3a3;}.e{fill:#f9f9f9;}</style></defs><title>objekter</title><path class="a" d="M397.5,207.5c1.12-.07,74-38.55,156.57-3.22,0,0,39.76,21.86,34.43,4.22-14.43-47.73-177.36-63.69-234,5C354.5,213.5,389.16,223.12,397.5,207.5Z"/><path class="a" d="M241.5,502.5s-13-52-12.06-112.06c.95-60.6-10.52-125.19-5.94-138.94,9-27,394-109,502,10,0,0-3.89,133-6,148-9,64,0,93,0,93Z"/><path class="b" d="M230.5,275.5s88,173,226,180,247-150,260-181c0,0-135-58-261-46C308.93,242.46,223.5,267.5,230.5,275.5Z"/><path class="c" d="M231.5,276.5s265-97,480,0c0,0,7-1,5-6s-165-97-491-3C225.5,267.5,213.5,282.5,231.5,276.5Z"/><path class="c" d="M720.72,277s-229.54,416-504-4.68c0,0,7.77-18.85,21.77,9.15s230,362,464,2C702.5,283.5,723.93,254.57,720.72,277Z"/><path d="M338.4,242.22l1.24,4.82a1.51,1.51,0,0,0,2.9-.8l-1.25-4.82c-.48-1.87-3.38-1.07-2.89.8Z"/><path d="M228,269.84a1.5,1.5,0,0,0,0-3,1.5,1.5,0,0,0,0,3Z"/><path d="M231.6,275.32q-1-3.81-2.35-7.52c-.65-1.8-3.55-1-2.89.8q1.33,3.7,2.34,7.52a1.51,1.51,0,0,0,2.9-.8Z"/><path d="M235,266.59c.87,2,1.65,4.08,2.37,6.16.62,1.82,3.52,1,2.89-.8-.8-2.33-1.7-4.61-2.67-6.88-.76-1.77-3.35-.24-2.59,1.52Z"/><path d="M275.11,256a18.69,18.69,0,0,1,2.15,5,1.5,1.5,0,0,0,2.89-.8,21.3,21.3,0,0,0-2.45-5.67c-1-1.64-3.61-.14-2.59,1.51Z"/><path d="M283.81,254.15c1.21,1.31,1.15,3.46,1.78,5,.71,1.78,3.61,1,2.9-.79-.88-2.2-.87-4.56-2.56-6.38-1.31-1.42-3.43.7-2.12,2.12Z"/><path d="M292.63,252a12.9,12.9,0,0,1,1.93,4.45c.42,1.88,3.32,1.08,2.89-.8a15,15,0,0,0-2.23-5.16c-1.08-1.59-3.68-.09-2.59,1.51Z"/><path d="M300.22,249.75a43.61,43.61,0,0,1,1.71,5.22,1.51,1.51,0,0,0,2.9-.8,42.88,42.88,0,0,0-1.71-5.21,1.56,1.56,0,0,0-1.85-1.05,1.5,1.5,0,0,0-1,1.84Z"/><path d="M308.29,248.53a10.52,10.52,0,0,1,1.57,4.44,1.54,1.54,0,0,0,1.5,1.5,1.51,1.51,0,0,0,1.5-1.5,14.07,14.07,0,0,0-2-6c-1-1.64-3.61-.13-2.6,1.52Z"/><path d="M315.58,246.87a12.29,12.29,0,0,1,1.89,4.65c.35,1.9,3.24,1.1,2.89-.79a14.52,14.52,0,0,0-2.19-5.37c-1.07-1.6-3.67-.1-2.59,1.51Z"/><path d="M296.28,258.17a1.5,1.5,0,0,0,0-3,1.5,1.5,0,0,0,0,3Z"/><path d="M323.68,245.15a26.08,26.08,0,0,0,1.69,4.75,1.53,1.53,0,0,0,2.06.54,1.55,1.55,0,0,0,.53-2.06,21.81,21.81,0,0,1-1.39-4c-.46-1.87-3.35-1.08-2.89.8Z"/><path d="M330.89,243.69a9.33,9.33,0,0,1,1.7,4.33,1.55,1.55,0,0,0,1.5,1.5,1.52,1.52,0,0,0,1.5-1.5,12.4,12.4,0,0,0-2.11-5.84c-1.09-1.58-3.69-.08-2.59,1.51Z"/><path d="M397,233.47a20.81,20.81,0,0,1,.51,4.23c0,1.93,3,1.94,3,0a25.16,25.16,0,0,0-.62-5c-.42-1.88-3.31-1.08-2.89.8Z"/><path d="M404.77,233a8.13,8.13,0,0,1,1.1,3.72c.09,1.92,3.09,1.93,3,0a11.56,11.56,0,0,0-1.51-5.23,1.5,1.5,0,0,0-2.59,1.51Z"/><path d="M412.58,232.27a4.83,4.83,0,0,1,1,3.63,1.51,1.51,0,0,0,1.5,1.5,1.54,1.54,0,0,0,1.5-1.5,7.35,7.35,0,0,0-1.37-5.15,1.53,1.53,0,0,0-2.05-.53,1.51,1.51,0,0,0-.54,2.05Z"/><path d="M420.62,231.35a7.49,7.49,0,0,1,.93,4.12c-.1,1.93,2.9,1.92,3,0a10.49,10.49,0,0,0-1.34-5.64c-.94-1.68-3.54-.17-2.59,1.52Z"/><path d="M428.93,230.31a10.63,10.63,0,0,1,.51,4.3c-.16,1.92,2.84,1.91,3,0a13.17,13.17,0,0,0-.62-5.1c-.6-1.82-3.5-1-2.89.8Z"/><path d="M437.2,229.7a19,19,0,0,1,.76,4.23c.12,1.92,3.12,1.93,3,0a22.55,22.55,0,0,0-.87-5c-.54-1.85-3.44-1.06-2.89.8Z"/><path d="M445.37,229.18a17.23,17.23,0,0,1,1.1,4.23,1.54,1.54,0,0,0,1.5,1.5,1.52,1.52,0,0,0,1.5-1.5,20.19,20.19,0,0,0-1.21-5,1.54,1.54,0,0,0-1.84-1,1.51,1.51,0,0,0-1.05,1.84Z"/><path d="M251.34,262.3a23.64,23.64,0,0,1,2.77,5.44c.63,1.81,3.53,1,2.89-.8a26.2,26.2,0,0,0-3.07-6.15c-1.08-1.59-3.68-.09-2.59,1.51Z"/><path d="M258.89,260.12a25,25,0,0,1,2.57,5.05c.67,1.8,3.57,1,2.9-.8a29.33,29.33,0,0,0-2.88-5.77c-1.05-1.61-3.65-.11-2.59,1.52Z"/><path d="M266.77,258.24c1.24,1.49,1.87,3.68,2.63,5.43s3.35.24,2.59-1.51c-.9-2.07-1.64-4.29-3.1-6-1.23-1.48-3.35.65-2.12,2.12Z"/><path d="M534.46,227.93a16.93,16.93,0,0,0,.54,2.75,13.45,13.45,0,0,1,.28,2.9,1.5,1.5,0,0,0,3,0,18.54,18.54,0,0,0-.23-2.88,26.78,26.78,0,0,1-.59-2.77c-.09-1.92-3.09-1.93-3,0Z"/><path d="M544.5,228.24c-.07,2.08-.16,4.17-.29,6.25-.12,1.93,2.88,1.92,3,0,.13-2.08.22-4.17.29-6.25s-3-1.93-3,0Z"/><path d="M555.05,229.35v5.75a1.5,1.5,0,0,0,3,0v-5.75a1.5,1.5,0,0,0-3,0Z"/><path d="M564.57,230.06a56.52,56.52,0,0,1-.67,5.65c-.33,1.89,2.56,2.7,2.89.8a63.76,63.76,0,0,0,.78-6.45c.13-1.93-2.87-1.92-3,0Z"/><path d="M346.89,241.19a8.38,8.38,0,0,1,1.66,3.9,1.54,1.54,0,0,0,1.5,1.5,1.51,1.51,0,0,0,1.5-1.5,11.3,11.3,0,0,0-2.07-5.41,1.55,1.55,0,0,0-2.06-.54,1.5,1.5,0,0,0-.53,2.05Z"/><path d="M355.05,240c1,1.06,1.16,2.61,1.39,4a1.51,1.51,0,0,0,1.84,1,1.55,1.55,0,0,0,1.05-1.85,9.87,9.87,0,0,0-2.15-5.31c-1.3-1.43-3.42.7-2.13,2.13Z"/><path d="M363.57,238.11c.43,1.35,1.63,2.69,1.52,4.15-.14,1.93,2.86,1.92,3,0s-1.08-3.25-1.63-4.95-3.49-1.05-2.89.8Z"/><path d="M372.15,237.49a6.19,6.19,0,0,1,1.29,3.39c.12,1.92,3.12,1.93,3,0a9.71,9.71,0,0,0-2.16-5.51,1.53,1.53,0,0,0-2.13,0,1.55,1.55,0,0,0,0,2.12Z"/><path d="M380.68,235.81a12.11,12.11,0,0,1,1.1,4,1.54,1.54,0,0,0,1.5,1.5,1.51,1.51,0,0,0,1.5-1.5,16.39,16.39,0,0,0-1.51-5.48c-.82-1.74-3.41-.22-2.59,1.52Z"/><path d="M388.67,234.86a11.81,11.81,0,0,1,.95,3.88c.13,1.91,3.13,1.93,3,0a15.91,15.91,0,0,0-1.36-5.39,1.5,1.5,0,0,0-2.59,1.51Z"/><path d="M692,259.81a13.32,13.32,0,0,1-2.15,6.06c-1.06,1.62,1.54,3.13,2.59,1.51a16.5,16.5,0,0,0,2.56-7.57c.18-1.92-2.82-1.91-3,0Z"/><path d="M454.2,228.4c.22,1.59.49,3.16.8,4.73.38,1.89,3.27,1.09,2.89-.8-.31-1.57-.58-3.14-.8-4.72a1.5,1.5,0,0,0-1.84-1.05,1.54,1.54,0,0,0-1.05,1.84Z"/><path d="M462.6,228.91c1,.62.74,2.8.68,3.73-.12,1.92,2.88,1.92,3,0,.14-2.27-.08-5-2.17-6.32-1.63-1-3.13,1.55-1.51,2.59Z"/><path d="M473.19,227.13a27.49,27.49,0,0,0,.14,5.05,1.55,1.55,0,0,0,1.5,1.5,1.51,1.51,0,0,0,1.5-1.5,27.49,27.49,0,0,1-.14-5.05c.13-1.93-2.87-1.92-3,0Z"/><path d="M481.46,226.83a34.1,34.1,0,0,0,.11,5.25c.18,1.9,3.18,1.92,3,0a34.1,34.1,0,0,1-.11-5.25c.1-1.93-2.9-1.92-3,0Z"/><path d="M489.84,226.73a22.62,22.62,0,0,0,.29,5.75c.32,1.9,3.21,1.09,2.89-.8a20,20,0,0,1-.18-5c.16-1.92-2.85-1.91-3,0Z"/><path d="M498.19,227a34,34,0,0,0,.19,5.24,1.54,1.54,0,0,0,1.5,1.5,1.5,1.5,0,0,0,1.5-1.5,34,34,0,0,1-.19-5.24c.08-1.93-2.92-1.93-3,0Z"/><path d="M507,227a17.42,17.42,0,0,0,.23,2.39,7.79,7.79,0,0,1,.29,2.34c-.31,1.89,2.58,2.7,2.9.8S510,228.9,510,227s-3.06-1.94-3,0Z"/><path d="M516.77,227l.09,5.65c0,1.92,3,1.93,3,0l-.09-5.65c0-1.93-3-1.94-3,0Z"/><path d="M525.92,227.74a16.53,16.53,0,0,1,.36,5.34c-.17,1.92,2.83,1.91,3,0a19.51,19.51,0,0,0-.46-6.14c-.44-1.88-3.34-1.08-2.9.8Z"/><path d="M590.87,233.79a25.07,25.07,0,0,1,.06,6.06c-.2,1.91,2.8,1.9,3,0a28.62,28.62,0,0,0-.16-6.86c-.26-1.91-3.16-1.1-2.9.8Z"/><path d="M601.34,234.79a22.86,22.86,0,0,1-.09,6.76c-.31,1.89,2.58,2.7,2.9.8a25.56,25.56,0,0,0,.19-7.56c-.24-1.89-3.24-1.91-3,0Z"/><path d="M610.36,237a14.3,14.3,0,0,1,.11,6c-.36,1.88,2.53,2.69,2.9.8a18.39,18.39,0,0,0-.11-7.64c-.43-1.88-3.32-1.08-2.9.8Z"/><path d="M621.07,238.83a35.25,35.25,0,0,1-1.12,6,1.5,1.5,0,0,0,2.89.8,39.84,39.84,0,0,0,1.23-6.85c.18-1.92-2.82-1.91-3,0Z"/><path d="M631.41,240.74a21.19,21.19,0,0,1-1.12,6.65c-.61,1.84,2.29,2.62,2.9.8a24.17,24.17,0,0,0,1.22-7.45,1.5,1.5,0,0,0-3,0Z"/><path d="M642.24,243.57a22.61,22.61,0,0,1-1.44,6.65c-.67,1.81,2.22,2.59,2.9.8a25.69,25.69,0,0,0,1.54-7.45c.12-1.93-2.88-1.92-3,0Z"/><path d="M652.18,246.28a19.58,19.58,0,0,1-1.59,6.58c-.67,1.81,2.23,2.6,2.89.8a21.74,21.74,0,0,0,1.7-7.38,1.5,1.5,0,0,0-3,0Z"/><path d="M661.89,249.21a20.79,20.79,0,0,1-1.2,6.67c-.64,1.82,2.26,2.61,2.89.79a23.1,23.1,0,0,0,1.31-7.46,1.5,1.5,0,0,0-3,0Z"/><path d="M672.72,252.44c.2,2.21-1.22,4.63-2,6.63-.7,1.8,2.2,2.58,2.9.8.9-2.32,2.35-4.87,2.11-7.43-.19-1.9-3.19-1.92-3,0Z"/><path d="M682.45,256a14.77,14.77,0,0,1-1.61,6.42c-.87,1.72,1.72,3.24,2.59,1.52a18.29,18.29,0,0,0,2-7.94c0-1.93-3-1.93-3,0Z"/><path d="M230.2,289.87q4.34-2.58,8.55-5.35c1.61-1.06.11-3.66-1.51-2.59q-4.23,2.76-8.56,5.35a1.5,1.5,0,0,0,1.52,2.59Z"/><path d="M234.77,298.17a9,9,0,0,0,4.09-1.82l4.83-3.23c1.6-1.07.1-3.67-1.51-2.59l-3.81,2.55c-1,.69-2.34,1.94-3.6,2.09-1.9.22-1.92,3.22,0,3Z"/><path d="M241.26,307c1.65-.18,2.85-1.21,4.2-2.12a38.94,38.94,0,0,0,4.27-3.2c1.43-1.3-.7-3.41-2.12-2.12a27.56,27.56,0,0,1-3.25,2.44c-.8.55-2.13,1.89-3.1,2-1.9.21-1.92,3.21,0,3Z"/><path d="M247.63,315.35c3.25-.33,5.53-3.49,7.72-5.63,1.38-1.35-.74-3.47-2.12-2.12l-3,2.91c-.71.69-1.55,1.74-2.61,1.84-1.9.2-1.92,3.2,0,3Z"/><path d="M253.8,323.48a28.33,28.33,0,0,0,4.24-1.91,29.44,29.44,0,0,0,3.67-3.11c1.45-1.29-.68-3.41-2.12-2.12a28.4,28.4,0,0,1-3.06,2.64,21.62,21.62,0,0,1-3.53,1.61c-1.76.73-1,3.64.8,2.89Z"/><path d="M260.29,331.73a14.6,14.6,0,0,0,7.93-4.91c1.22-1.48-.89-3.62-2.12-2.12a12,12,0,0,1-6.61,4.14c-1.87.44-1.08,3.34.8,2.89Z"/><path d="M272,332.89a22.41,22.41,0,0,1-5.31,5.11c-1.58,1.09-.08,3.69,1.51,2.59a26.46,26.46,0,0,0,6.39-6.19c1.15-1.55-1.46-3-2.59-1.51Z"/><path d="M274,348.45a12,12,0,0,0,7.13-6.84,1.52,1.52,0,0,0-1.05-1.85,1.54,1.54,0,0,0-1.85,1.05,8.55,8.55,0,0,1-5,4.74c-1.8.65-1,3.55.8,2.9Z"/><path d="M573.27,231.17a17.2,17.2,0,0,1-.42,5.54c-.46,1.88,2.44,2.68,2.89.8a19.89,19.89,0,0,0,.53-6.34c-.15-1.92-3.15-1.93-3,0Z"/><path d="M582.71,232.68a12.34,12.34,0,0,1-.12,5.44c-.45,1.87,2.44,2.67,2.9.79a16,16,0,0,0,.11-7c-.39-1.89-3.28-1.09-2.89.8Z"/><path d="M328.93,392c-.11,1.06-1.28,2.37-1.91,3.18a22.53,22.53,0,0,1-2.56,2.7c-1.43,1.3.7,3.42,2.12,2.12,2.19-2,5-4.93,5.35-8,.2-1.91-2.8-1.9-3,0Z"/><path d="M335.78,396.74a8.67,8.67,0,0,1-2.23,2.95,26,26,0,0,1-3,2.67c-1.5,1.17,0,3.78,1.52,2.59,2.46-1.9,5.57-4.35,6.57-7.42.61-1.83-2.29-2.62-2.89-.79Z"/><path d="M342.35,401.78c-.88,2.62-2.81,4.63-4.71,6.58-1.35,1.38.77,3.5,2.12,2.12,2.28-2.34,4.42-4.76,5.48-7.91.62-1.83-2.28-2.62-2.89-.79Z"/><path d="M349.2,406.42a27.46,27.46,0,0,1-4.95,6.91c-1.35,1.38.77,3.5,2.12,2.12a30,30,0,0,0,5.42-7.52c.87-1.72-1.72-3.24-2.59-1.51Z"/><path d="M355.75,411.17a18.32,18.32,0,0,1-4.45,7.23,1.5,1.5,0,0,0,2.12,2.12,21.66,21.66,0,0,0,5.22-8.55c.61-1.84-2.29-2.62-2.89-.8Z"/><path d="M362.75,415.4c-1.43,2.57-2.43,5.44-4.49,7.59-1.34,1.4.78,3.52,2.12,2.12,2.26-2.36,3.39-5.38,5-8.19.94-1.69-1.65-3.2-2.59-1.52Z"/><path d="M701.08,263.55a20.53,20.53,0,0,1-1.91,5.69c-.88,1.71,1.71,3.23,2.59,1.51a23.16,23.16,0,0,0,2.22-6.4c.34-1.89-2.55-2.7-2.9-.8Z"/><path d="M710,268.26c.13,1.85-1.35,3.31-2.09,4.9s1.77,3.26,2.59,1.51c1-2.12,2.67-3.91,2.5-6.41-.13-1.92-3.14-1.93-3,0Z"/><path d="M219.71,275.05a24.72,24.72,0,0,0,8.89-5.34c1.41-1.32-.71-3.44-2.12-2.12a21.05,21.05,0,0,1-7.57,4.57c-1.81.62-1,3.52.8,2.89Z"/><path d="M223.78,281.89c1.83-.18,3.15-1.15,4.66-2.14l5.47-3.57c1.61-1.05.11-3.65-1.52-2.59l-4.31,2.82c-1.2.78-2.82,2.33-4.3,2.48-1.91.18-1.92,3.18,0,3Z"/><path d="M451.32,449.44c-.15,2.91-.41,5.81-.8,8.7-.25,1.9,2.75,1.89,3,0,.39-2.89.65-5.79.8-8.7.09-1.93-2.91-1.93-3,0Z"/><path d="M460.24,449.9a28.5,28.5,0,0,0-.69,9.11c.17,1.91,3.18,1.93,3,0a25.81,25.81,0,0,1,.58-8.31c.45-1.88-2.44-2.68-2.89-.8Z"/><path d="M468.69,450.49l-.17,8.83c0,1.94,3,1.94,3,0l.17-8.83c0-1.93-3-1.93-3,0Z"/><path d="M280.38,355.37a7.85,7.85,0,0,0,3.69-2.38,18.68,18.68,0,0,0,3.07-4c.91-1.71-1.68-3.22-2.59-1.52a14.86,14.86,0,0,1-2.36,3.1,5.44,5.44,0,0,1-2.6,1.87,1.5,1.5,0,0,0,.79,2.89Z"/><path d="M287.15,362.29a45.05,45.05,0,0,0,3.86-2.54,14,14,0,0,0,2.67-3.4c1.11-1.59-1.49-3.09-2.59-1.52a9.84,9.84,0,0,1-2.21,2.79c-1,.75-2.16,1.39-3.24,2.08-1.63,1-.13,3.62,1.51,2.59Z"/><path d="M293.84,369.47a15,15,0,0,0,3.35-2.3,12.77,12.77,0,0,0,1.33-1.42,6.54,6.54,0,0,1,1.35-1.56c1.65-1,.14-3.6-1.51-2.59-1.17.72-1.79,1.94-2.73,2.9a12,12,0,0,1-3.31,2.38c-1.72.87-.21,3.46,1.52,2.59Z"/><path d="M300.12,376.62c1.73-.2,2.93-1.47,4.24-2.53a13.49,13.49,0,0,0,3.18-3.43,1.5,1.5,0,0,0-2.59-1.51,9.65,9.65,0,0,1-2.1,2.32c-.43.36-.87.7-1.3,1s-1,1.05-1.43,1.1c-1.9.21-1.92,3.21,0,3Z"/><path d="M312.5,376.08c-1.52,2.11-4.05,3.24-6.14,4.69-1.57,1.09-.08,3.69,1.52,2.59,2.57-1.78,5.34-3.16,7.21-5.76,1.13-1.57-1.47-3.07-2.59-1.52Z"/><path d="M318.52,381.62c-.34.9-1.86,2-2.58,2.59a26.44,26.44,0,0,1-3.33,2.42c-1.63,1-.13,3.62,1.52,2.59a31.06,31.06,0,0,0,4.1-3,10.58,10.58,0,0,0,3.18-3.77c.69-1.8-2.2-2.58-2.89-.79Z"/><path d="M323.17,386.65c-.89,2.18-2.92,3.66-4.76,5-1.55,1.12-.05,3.73,1.51,2.59,2.57-1.86,4.91-3.78,6.14-6.78a1.51,1.51,0,0,0-1.05-1.84,1.53,1.53,0,0,0-1.84,1Z"/><path d="M369.46,419.34a39.68,39.68,0,0,1-4.9,7.59c-1.21,1.48.9,3.61,2.13,2.12a43.42,43.42,0,0,0,5.36-8.19c.87-1.72-1.72-3.24-2.59-1.52Z"/><path d="M375.69,423.93c0,2.51-2.7,5.12-4.38,6.76-1.39,1.35.73,3.47,2.12,2.12,2.34-2.28,5.2-5.43,5.26-8.88,0-1.93-3-1.93-3,0Z"/><path d="M382.87,427.15a22.68,22.68,0,0,1-1.78,4.36A12.93,12.93,0,0,1,379,435c-1.43,1.32.7,3.43,2.12,2.13a14.78,14.78,0,0,0,2.57-4.13,27,27,0,0,0,2.08-5.07,1.5,1.5,0,0,0-2.89-.8Z"/><path d="M391.08,431.39a23.85,23.85,0,0,1-3.73,8c-1.12,1.58,1.48,3.08,2.59,1.52a26.28,26.28,0,0,0,4-8.7,1.5,1.5,0,0,0-2.9-.79Z"/><path d="M399.17,435.32c0,1.35-1.14,2.89-1.73,4.06l-1.9,3.8c-.86,1.72,1.73,3.24,2.59,1.51l2.49-5a10.51,10.51,0,0,0,1.55-4.41c.05-1.93-2.95-1.93-3,0Z"/><path d="M408.24,438.45c-.69,3-2.37,5.61-3.81,8.28-.92,1.69,1.67,3.21,2.59,1.51,1.56-2.89,3.36-5.76,4.12-9,.44-1.88-2.46-2.68-2.9-.8Z"/><path d="M417.7,441.71a41,41,0,0,1-3.4,8.26c-.93,1.69,1.66,3.21,2.59,1.51a44.14,44.14,0,0,0,3.7-9,1.5,1.5,0,0,0-2.89-.8Z"/><path d="M426.4,444.58c-.15,2.93-1.7,6-2.66,8.72-.63,1.83,2.27,2.62,2.9.8,1.06-3.05,2.59-6.26,2.76-9.52.1-1.93-2.9-1.92-3,0Z"/><path d="M435.17,446.12l-1.78,9c-.37,1.89,2.52,2.69,2.9.8l1.78-9c.37-1.89-2.52-2.69-2.9-.8Z"/><path d="M443.23,448.26q-.24,4.38-.91,8.72c-.29,1.89,2.6,2.71,2.89.8a95.14,95.14,0,0,0,1-9.52c.11-1.93-2.89-1.93-3,0Z"/><path d="M502.72,448.07a21.27,21.27,0,0,0,2.92,8.64,1.5,1.5,0,0,0,2.59-1.51,17.66,17.66,0,0,1-2.51-7.13c-.23-1.89-3.24-1.92-3,0Z"/><path d="M510.78,446.26a9.26,9.26,0,0,0,1,4.28,20.5,20.5,0,0,0,2.06,4.14c1.15,1.52,3.76,0,2.59-1.51a16.69,16.69,0,0,1-1.6-3.12,8.22,8.22,0,0,1-1.09-3.79c.09-1.93-2.91-1.92-3,0Z"/><path d="M518.74,444.52c.27,2.93.69,5.73,2.68,8,1.26,1.46,3.38-.67,2.12-2.12-1.41-1.63-1.61-3.86-1.8-5.91s-3.18-1.93-3,0Z"/><path d="M527.44,442.37a27.33,27.33,0,0,0,3.89,7.31c1.14,1.53,3.75,0,2.59-1.51a25,25,0,0,1-3.59-6.6c-.65-1.8-3.55-1-2.89.8Z"/><path d="M536.46,439.09c.85,2.51,1.84,5.8,3.79,7.69,1.38,1.34,3.51-.78,2.12-2.13-1.55-1.5-2.34-4.37-3-6.36-.62-1.82-3.52-1-2.9.8Z"/><path d="M545.07,435.63a30,30,0,0,0,3.94,7.42c1.18,1.53,3.29-.61,2.12-2.12a25.27,25.27,0,0,1-3.17-6.1c-.71-1.76-3.62-1-2.89.8Z"/><path d="M552.48,432.05a28.49,28.49,0,0,0,3.81,7.47c1.05,1.61,3.65.11,2.59-1.51a25.55,25.55,0,0,1-3.5-6.76c-.54-1.85-3.44-1.06-2.9.8Z"/><path d="M560.51,428.63a48,48,0,0,0,4.5,6.51c1.31,1.43,3.42-.7,2.13-2.12a43.44,43.44,0,0,1-4-5.91c-1-1.61-3.64-.11-2.59,1.52Z"/><path d="M567.84,424.57a34.6,34.6,0,0,0,4.81,6.29c1.29,1.44,3.41-.68,2.12-2.12a31.53,31.53,0,0,1-4.34-5.68c-.94-1.69-3.53-.18-2.59,1.51Z"/><path d="M575.62,420.29a15.61,15.61,0,0,1,2.27,3,36.3,36.3,0,0,0,2.44,3.22c1.25,1.48,3.36-.65,2.12-2.12-1.68-2-2.79-4.47-4.71-6.24-1.42-1.3-3.55.81-2.12,2.12Z"/><path d="M622.78,382.68a19.82,19.82,0,0,0,6.39,6.2c1.65,1,3.16-1.59,1.51-2.59a16.54,16.54,0,0,1-5.31-5.12c-1-1.61-3.65-.11-2.59,1.51Z"/><path d="M629.12,376.9a20.74,20.74,0,0,0,2.82,3.52,26.5,26.5,0,0,0,3.63,2.58c1.65,1,3.15-1.57,1.52-2.59a21.3,21.3,0,0,1-3-2.11,17.38,17.38,0,0,1-2.35-2.92c-1.14-1.53-3.75,0-2.59,1.52Z"/><path d="M636.8,369.43a17,17,0,0,0,6,7c1.6,1.1,3.1-1.5,1.51-2.59a14.26,14.26,0,0,1-4.91-5.93c-.81-1.75-3.39-.23-2.59,1.52Z"/><path d="M643,363.63c2.08,2.19,3.89,4.41,6.7,5.65,1.75.77,3.28-1.81,1.52-2.59a8.9,8.9,0,0,1-3.11-2c-1-1-2-2.09-3-3.14-1.33-1.4-3.45.72-2.12,2.12Z"/><path d="M649.13,356.05a12.79,12.79,0,0,0,7.49,6.21c1.84.59,2.63-2.3.79-2.89a9.75,9.75,0,0,1-5.69-4.83c-.91-1.71-3.5-.2-2.59,1.51Z"/><path d="M654.16,349.27c1.41,3.72,5.31,5,8.84,5.91a1.5,1.5,0,0,0,.8-2.89c-2.25-.61-5.81-1.35-6.74-3.82-.68-1.79-3.58-1-2.9.8Z"/><path d="M660.27,343.16a16.78,16.78,0,0,0,9.26,5.31c1.89.38,2.69-2.51.8-2.89a14.16,14.16,0,0,1-7.94-4.54c-1.29-1.44-3.4.69-2.12,2.12Z"/><path d="M477.32,450.62a29.65,29.65,0,0,0,.26,8.92c.33,1.9,3.22,1.1,2.89-.79a27.36,27.36,0,0,1-.15-8.13c.23-1.91-2.77-1.9-3,0Z"/><path d="M486,450.18a33.68,33.68,0,0,0,1.59,8.73c.6,1.82,3.5,1,2.9-.8a30.2,30.2,0,0,1-1.49-7.93c-.09-1.92-3.09-1.93-3,0Z"/><path d="M494.12,449.83a19.51,19.51,0,0,0,2.55,7.95c1.05,1.61,3.65.11,2.59-1.51A17.51,17.51,0,0,1,497,449c-.29-1.9-3.18-1.09-2.9.8Z"/><path d="M701.14,288.42c3.06,1.57,6.06,3.43,9.53,3.82,1.92.21,1.9-2.79,0-3-2.85-.32-5.51-2.12-8-3.41-1.71-.88-3.23,1.71-1.51,2.59Z"/><path d="M706.56,280.4c2.38,2.36,4.91,4.21,8.3,4.74,1.89.3,2.71-2.59.8-2.89-2.91-.46-4.93-1.94-7-4-1.38-1.36-3.5.76-2.12,2.12Z"/><path d="M713.05,273.6a21.73,21.73,0,0,0,2.65,1.91,17.38,17.38,0,0,1,2.78,1.51,1.55,1.55,0,0,0,2.12,0,1.51,1.51,0,0,0,0-2.12c-1.7-1.36-3.72-2.06-5.43-3.42a1.55,1.55,0,0,0-2.12,0,1.51,1.51,0,0,0,0,2.12Z"/><path d="M243.69,264.38a27.87,27.87,0,0,1,2.19,5.85c.48,1.87,3.37,1.08,2.9-.8a31.92,31.92,0,0,0-2.5-6.56c-.88-1.72-3.47-.21-2.59,1.51Z"/><path d="M583.15,415.29a15.8,15.8,0,0,0,5.44,6.37,1.5,1.5,0,0,0,1.51-2.59,13,13,0,0,1-4.35-5.3c-.88-1.72-3.47-.2-2.6,1.52Z"/><path d="M590,410.74c1.76,2.05,3.27,4.31,5.79,5.43,1.75.78,3.28-1.8,1.52-2.59a6.27,6.27,0,0,1-2.49-1.82c-.9-1-1.8-2.09-2.69-3.14-1.26-1.46-3.38.67-2.13,2.12Z"/><path d="M596.73,405.11a20.12,20.12,0,0,0,2.8,3.3c1,.91,2.28,1.56,3.18,2.52,1.32,1.42,3.44-.71,2.12-2.12-.83-.89-2-1.45-2.9-2.27a16.6,16.6,0,0,1-2.61-2.94c-1.09-1.58-3.69-.08-2.59,1.51Z"/><path d="M603.48,401a22,22,0,0,1,3.09,2.34,18.44,18.44,0,0,0,3.29,2.08c1.72.85,3.25-1.74,1.51-2.59-2.37-1.17-4.08-3.18-6.37-4.42-1.7-.91-3.22,1.68-1.52,2.59Z"/><path d="M610.49,394.7a28.39,28.39,0,0,1,3,3,13.05,13.05,0,0,0,3.59,2.38c1.76.75,3.29-1.83,1.51-2.59A11.63,11.63,0,0,1,615,395a21.2,21.2,0,0,0-3-2.84c-1.62-1.05-3.13,1.54-1.51,2.59Z"/><path d="M616.3,388.75a8.16,8.16,0,0,0,1.42,1.68,10.81,10.81,0,0,1,1.29,1.73,16.49,16.49,0,0,0,3.58,3.18c1.51,1.17,3.64-.93,2.12-2.12a14.52,14.52,0,0,1-3.33-2.91,13,13,0,0,0-1.15-1.6,9.78,9.78,0,0,1-1.34-1.47,1.5,1.5,0,0,0-2.59,1.51Z"/><path d="M666.1,335.84a30.12,30.12,0,0,0,9,5c1.83.64,2.61-2.26.8-2.89a25.71,25.71,0,0,1-7.68-4.26c-1.49-1.2-3.63.91-2.13,2.13Z"/><path d="M672.14,328.29c2.89,2.24,5.56,4.13,9.15,5.1a1.5,1.5,0,0,0,.8-2.89,21.83,21.83,0,0,1-7.83-4.33c-1.5-1.17-3.64.93-2.12,2.12Z"/><path d="M678.42,320.82a34.27,34.27,0,0,0,8.52,5.18c1.81.69,2.59-2.21.8-2.89a32.18,32.18,0,0,1-7.81-4.88c-1.53-1.17-3,1.44-1.51,2.59Z"/><path d="M683.76,312.72a35.11,35.11,0,0,0,4.58,3.44c1.36.85,3.07,2.09,4.71,2.22a1.5,1.5,0,0,0,1.44-1.1l0-.11a1.52,1.52,0,0,0-.69-1.69l-.07,0c-1.73-.86-3.25,1.73-1.52,2.59l.08,0-.69-1.7,0,.11,1.45-1.1a8.31,8.31,0,0,1-1.49-.82c-.67-.35-1.31-.74-1.95-1.14a30,30,0,0,1-3.73-2.83c-1.45-1.26-3.58.85-2.12,2.13Z"/><path d="M689.5,304.85a27,27,0,0,0,9.14,5.38c1.84.59,2.63-2.31.79-2.89a19,19,0,0,1-4.15-2.14,25.14,25.14,0,0,1-3.65-2.47c-1.44-1.28-3.57.84-2.13,2.12Z"/><path d="M695.67,296.5c2.77,2,5.39,4.32,8.83,5,1.88.38,2.69-2.51.8-2.9-3.16-.64-5.58-2.87-8.11-4.72-1.57-1.14-3.07,1.46-1.52,2.59Z"/><path class="d" d="M242.06,276.49c.18.62-.56,1-.91,1.3-7.57,6.27-73.63,4.12-68-19.32,0,0,3.14-42.42,68.84,18l0,0Z"/><path d="M240.61,276.09c-.94,2.87-9.93,2.87-12.08,3a116,116,0,0,1-19.63-.46c-10-1-28.13-3-33.49-13.24-1.92-3.67-.87-8.55.73-12.13,2.59-5.78,8-8.27,14.21-7.67,6.89.67,13.47,4.07,19.33,7.55a138,138,0,0,1,13,8.88c2.9,2.2,5.73,4.5,8.51,6.85q2.06,1.72,4.08,3.51c1,.84,5,3.44,5.34,4.5a1.51,1.51,0,0,0,2.9-.8c-.4-1.37-2.31-2.43-3.31-3.32-3.11-2.8-6.27-5.54-9.5-8.19-4.64-3.81-9.42-7.47-14.41-10.8-6.63-4.43-13.94-8.69-21.8-10.5-7.56-1.74-15.57-.45-19.91,6.54-2.27,3.66-3.84,9.43-3,13.71,2.55,12.83,22.19,16.09,32.6,17.54a116.78,116.78,0,0,0,25.48.95c3.94-.32,12.3-.46,13.84-5.13C244.11,275.05,241.21,274.26,240.61,276.09Z"/><path class="e" d="M195.5,259.24c0,4.25-1.53,8.46-7.69,7.69-4.21-.52-7.68-3.44-7.68-7.69a7.69,7.69,0,0,1,7.68-7.69C192.06,251.55,195.5,252.32,195.5,259.24Z"/><path d="M244.79,265a1.5,1.5,0,0,0,0-3,1.5,1.5,0,0,0,0,3Z"/></svg>
