<svg xmlns="http://www.w3.org/2000/svg" width="99" height="100" viewBox="0 0 99 100"><defs><style>.a{fill:#e6e6e6;}.a,.b,.c,.d,.e{stroke:#000;stroke-miterlimit:10;}.b{fill:#931d26;}.c{fill:#3f3f3f;}.d{fill:#ccc;}.e{fill:#5a5b5b;}</style></defs><title>objekter</title><path class="a" d="M28,86s-.5,11.5,22,12h0s28,2,26-13Z"/><path class="b" d="M30,15s-4,4-4,6V85s1,8,25,9c0,0,13.53.9,25.17-5.86A3.78,3.78,0,0,0,78.05,85c.19-8.2.81-39.42,0-61a19.56,19.56,0,0,0-5-9C69,11,30,15,30,15Z"/><path class="c" d="M51.5,20.5S65.51,21,74,16.74c0,0-5.51-9.24-17.51-6.24a68.56,68.56,0,0,1-23.91,1.18L29.5,16.5A66,66,0,0,0,51.5,20.5Z"/><path class="d" d="M30,12s2-6,22-6C63.78,6,69.32,8.08,71.88,9.79A5.21,5.21,0,0,1,74,12s1,7-22,7S30,12,30,12Z"/><path class="e" d="M34.5,10.5s1-3,11-3,9,2,9,2-1,5-2,5c0,0-2,2-7,1S33.5,13.5,34.5,10.5Z"/><path class="d" d="M46.5,9.5l-2,4s6.51,1.28,7.25-1.86S46.5,9.5,46.5,9.5Z"/><path class="d" d="M42.93,12.5l1.57-3s-6,0-6,1S38.36,11.5,42.93,12.5Z"/></svg>
