<svg xmlns="http://www.w3.org/2000/svg" width="275.31" height="190.63" viewBox="0 0 275.31 190.63"><defs><style>.a{fill:#afa3a0;}.a,.b{stroke:#000;}.a,.b,.c{stroke-miterlimit:10;}.b{fill:#3d3330;}.c{fill:none;stroke:#9b9392;stroke-width:0.25px;}</style></defs><title>bog</title><path class="a" d="M153.4,165.13s97.18-27.34,109.33-36.45c0,0,6.08-3,6.08-15.18s.17-12.74-12.15-24.3c-14-13.14-100.22,33.41-100.22,33.41S135.18,156,153.4,165.13Z"/><path class="b" d="M123,25.43,27.45,64.26a1,1,0,0,0-.21,1.66c12.37,9,104.14,74.29,135.27,65.8,28.13-7.67,86.4-30.41,104.11-37.41a2.41,2.41,0,0,0,.13-4.43C242.49,78.62,139.1,30.78,123,25.43Z"/><path class="b" d="M27.82,66.55a2.68,2.68,0,0,0-3.73.54c-4.76,6.24-16.74,24.32-4.32,34.26,14,11.21,116,56.07,131.63,62.9a.74.74,0,0,0,1-1c-2.42-5-7-19.27,10.13-31.53C162.51,131.72,47.7,81.31,27.82,66.55Z"/><line class="c" x1="208.07" y1="125.65" x2="177.7" y2="134.76"/><line class="c" x1="220.22" y1="125.65" x2="247.55" y2="116.54"/><line class="c" x1="256.66" y1="104.39" x2="238.44" y2="110.46"/><line class="c" x1="259.7" y1="125.65" x2="241.47" y2="131.72"/><line class="c" x1="262.73" y1="116.54" x2="244.51" y2="122.61"/><line class="c" x1="226.29" y1="131.72" x2="205.03" y2="137.79"/><line class="c" x1="195.92" y1="134.76" x2="171.62" y2="140.83"/><line class="c" x1="195.92" y1="146.9" x2="171.62" y2="152.98"/></svg>
