<svg xmlns="http://www.w3.org/2000/svg" width="194.86" height="111.75" viewBox="0 0 194.86 111.75"><defs><style>.a{fill:#b7e0f9;}.a,.b,.c{stroke:#050001;stroke-miterlimit:10;}.b{fill:#3d4547;}.c{fill:#000202;}</style></defs><title>objekter</title><path class="a" d="M39.22,47.05s1.84-6.93,31.28-15.59l46-17.32S140.41,3.75,157,19.34s7.36,36.37,7.36,36.37l-104.86,45s-20.24,0-31.27-13.86C28.19,86.89,24.51,69.57,39.22,47.05Z"/><path class="a" d="M57.62,60.91s-5.52,5.2-5.52,20.78,1.84,15.59,7.36,19.06a147.58,147.58,0,0,0,40.47-10.4c20.24-8.66,53.35-19,58.87-26,0,0,9.2-3.46,9.2-17.32s-5.52-19-5.52-19-3.68-5.2-14.72-1.73-46,15.59-46,15.59S59.46,55.71,57.62,60.91Z"/><path class="b" d="M40.14,75.63s-3.67,0,0-10.39,7.36-17.32,14.72-19l27.6-10.4,23.91-8.66L134,18.47s7.36-1.73,5.52,0-11,3.47-11,3.47l-18.4,6.92L78.78,39.26,56.7,47.92s-11,6.93-11,10.39c0,0-3.68,8.66-3.68,15.59A1.73,1.73,0,0,1,40.14,75.63Z"/><path class="c" d="M139.49,18.47s5.51,5.2,11,3.47-5.52-5.2-11-3.47"/></svg>
