<svg xmlns="http://www.w3.org/2000/svg" width="99" height="100" viewBox="0 0 99 100"><defs><style>.a{fill:#272d2d;stroke-width:0.5px;}.a,.b,.c{stroke:#000;}.a,.b,.c,.d,.f,.g{stroke-miterlimit:10;}.b{fill:#111;}.c{fill:#fafcfc;}.d{fill:#313333;}.d,.f{stroke:#6f7070;}.d,.g{stroke-width:0.75px;}.e{fill:#6f7070;}.f{fill:#556060;}.g{fill:#1e1e1e;stroke:#686d6d;}</style></defs><path class="a" d="M75.5,11S79,10,76,26L72,61,69,88s0,7-4,5S72,11,75.5,11Z"/><path class="b" d="M29.5,10.5l-8,75s-1,3,1,4,43,5,43,5,2,0,2-3,8-79,8-79,1-3-3-3-40-4-40-4S29.5,5.5,29.5,10.5Z"/><path class="c" d="M25.63,79.19l6.73-65.36a1.31,1.31,0,0,1,1.47-1.16l35.92,4.61a1.8,1.8,0,0,1,1.57,2L64.67,83.89a1.58,1.58,0,0,1-1.77,1.4L26.8,80.67A1.36,1.36,0,0,1,25.63,79.19Z"/><line class="d" x1="48.5" y1="11.5" x2="56.5" y2="12.5"/><circle class="e" cx="53" cy="10" r="0.5"/><circle class="f" cx="44" cy="11" r="0.5"/><circle class="g" cx="43.5" cy="87.5" r="3"/></svg>
