<svg xmlns="http://www.w3.org/2000/svg" width="92.6" height="93.53" viewBox="0 0 92.6 93.53"><defs><style>.a{fill:#346645;}.a,.b{stroke:#000;stroke-miterlimit:10;}.b{fill:none;}.c{opacity:0.74;font-size:9px;fill:#fffe45;font-family:AbadiMT-CondensedExtraBold, Abadi MT Condensed Extra Bold;}</style></defs><title>objekter</title><path class="a" d="M30,65.55l1.5-8.25S58.5,31.8,75,38.55c0,0-2.25,3.75-2.25,6C72.75,44.55,30.75,61.8,30,65.55Z"/><path class="a" d="M19.4,48.66A38.37,38.37,0,0,0,18,56.55s8.25,9.75,12,9l1.5-8.25s-10.06-6.7-11.79-8.7A.18.18,0,0,0,19.4,48.66Z"/><path class="a" d="M18.38,56.17a21.64,21.64,0,0,0,3-.49"/><path class="b" d="M19.88,48.67s2.24,10.5,3,10.5c0,0,5.24.75,8.24-2.25"/><path class="b" d="M30.38,65.17a10,10,0,0,1-2.7-6.34"/><path class="a" d="M19.76,48.12c2.59-1.76,23.66-15.76,44.74-18.57,0,0,10.5,7.5,10.5,9,0,0-1.5,0-20.25,6.75s-23.25,12-23.25,12-10.3-6.18-11.84-8.68A.37.37,0,0,1,19.76,48.12Z"/><text class="c" transform="translate(40.1 47.45) rotate(-24.76) scale(1.19 1)">GUM</text></svg>
