<svg xmlns="http://www.w3.org/2000/svg" width="181.73" height="209.83" viewBox="0 0 181.73 209.83"><defs><style>.a{fill:#b6c2cc;}.a,.b{stroke:#000;stroke-miterlimit:10;}.b{fill:none;}</style></defs><title>objekter</title><path class="a" d="M12.5,49.42s19.66-14.3,50-3.58c0,0,0,59,1.79,60.77s50,42.89,50,59-1.79,21.45-12.51,26.81c-8,4-21.91,2-30-2.9-2.77-1.7-4.85-3.75-5.76-6,0,0-19.66-34-37.54-41.11s-14.29-17.87-14.29-17.87,3.57-26.81,1.78-39.32S12.5,49.42,12.5,49.42Z"/><path class="a" d="M67.9,24.4s23.24-14.3,48.26-3.58c0,0,3.57,25,3.57,60.77,0,0,51.83,46.46,50,57.19,0,0,1.79,23.23-10.72,26.8s-23.23,7.15-37.53-7.15c0,0-19.66-33.95-28.6-35.74,0,0-19.66-8.93-21.44-14.3s-3.58-5.36,0-23.23S67.9,24.4,67.9,24.4Z"/><path class="b" d="M12.5,49.42s28.59,10.72,50-3.58"/><path class="b" d="M67.9,24.4s34,7.14,48.26-3.58"/><path class="b" d="M16.07,106.61s18.5,12.24,8.36,33.82"/><path class="b" d="M72,81.36s17.81,9.52,7.73,34.36"/><path class="b" d="M71.48,188.82s16.08-28.6,42.89-23.24"/><path class="b" d="M127.59,163.62s15.49-27.74,42.24-23.61"/></svg>
