<svg xmlns="http://www.w3.org/2000/svg" xmlns:xlink="http://www.w3.org/1999/xlink" viewBox="0 0 1201 600"><defs><style>.cls-1,.cls-2{fill:#ffaf73;}.cls-1,.cls-10,.cls-11,.cls-12,.cls-13,.cls-14,.cls-15,.cls-16,.cls-17,.cls-18,.cls-2,.cls-3,.cls-4,.cls-5,.cls-6,.cls-8,.cls-9{stroke:#000;stroke-miterlimit:10;}.cls-1,.cls-12,.cls-13,.cls-17,.cls-3{stroke-width:2px;}.cls-10,.cls-11,.cls-2,.cls-5,.cls-8,.cls-9{stroke-width:3px;}.cls-10,.cls-3,.cls-4,.cls-6,.cls-7{fill:none;}.cls-4{stroke-width:0.5px;}.cls-5{fill:#492911;}.cls-13,.cls-8{fill:#0c0c0b;}.cls-9{fill:#826845;}.cls-11{fill:red;}.cls-12,.cls-14{fill:#fff;}.cls-15{fill:#bfa845;}.cls-18{fill:#ea1818;}</style><symbol id="neutral" data-name="neutral" viewBox="0 0 300 600"><path class="cls-1" d="M213.46,143.67s7,3.83,10-7.17,2-10,2-10-14,14-13,14,1,3.17,1,3.17"/><path class="cls-1" d="M91,142s-1,3-5-1a31.39,31.39,0,0,1-1-9l6,4Z"/><path class="cls-2" d="M149.5,189.5a33.37,33.37,0,0,0,22-5c11-7,31-16,39-29,0,0,5-1,2-47,0,0-16-10-52-15s-67,16-67,16-4,42,2,46c0,0,8,17,31,29C126.5,184.5,134.5,189.5,149.5,189.5Z"/><g id="næse"><path class="cls-3" d="M147.5,123.5s-2,10-8,16l5,5"/></g><g id="øjebryn"><path class="cls-3" d="M157,107s22-6,34,2"/><path class="cls-3" d="M137.5,107.5s-23-9-34,1"/></g><g id="fregner"><path d="M121.5,137.58a.75.75,0,0,0,0-1.5.75.75,0,0,0,0,1.5Z"/><path d="M126.5,135.92a.75.75,0,0,0,0-1.5.75.75,0,0,0,0,1.5Z"/><path d="M127.83,140.42a.75.75,0,0,0,0-1.5.75.75,0,0,0,0,1.5Z"/><path d="M136.83,135.75a.75.75,0,0,0,0-1.5.75.75,0,0,0,0,1.5Z"/><path d="M132,135.08a.75.75,0,0,0,0-1.5.75.75,0,0,0,0,1.5Z"/><path d="M135.83,132.25a.75.75,0,0,0,0-1.5.75.75,0,0,0,0,1.5Z"/><path d="M140.5,132.92a.75.75,0,0,0,0-1.5.75.75,0,0,0,0,1.5Z"/><path d="M141,127.92a.75.75,0,0,0,0-1.5.75.75,0,0,0,0,1.5Z"/><path d="M152.83,128.75a.75.75,0,0,0,0-1.5.75.75,0,0,0,0,1.5Z"/><path d="M151.17,133.92a.75.75,0,0,0,0-1.5.75.75,0,0,0,0,1.5Z"/><path d="M156.67,133.58a.75.75,0,0,0,0-1.5.75.75,0,0,0,0,1.5Z"/><path d="M156,137.08a.75.75,0,0,0,0-1.5.75.75,0,0,0,0,1.5Z"/><path d="M151.83,140.08a.75.75,0,0,0,0-1.5.75.75,0,0,0,0,1.5Z"/><path d="M161.5,138.75a.75.75,0,0,0,0-1.5.75.75,0,0,0,0,1.5Z"/><path d="M191.67,136.58a.75.75,0,0,0,0-1.5.75.75,0,0,0,0,1.5Z"/><path d="M185,137.25a.75.75,0,0,0,0-1.5.75.75,0,0,0,0,1.5Z"/><path d="M180.67,140.92a.75.75,0,0,0,0-1.5.75.75,0,0,0,0,1.5Z"/><path d="M175.17,137.75a.75.75,0,0,0,0-1.5.75.75,0,0,0,0,1.5Z"/><path d="M176,141.08a.75.75,0,0,0,0-1.5.75.75,0,0,0,0,1.5Z"/><path d="M169.83,137.92a.75.75,0,0,0,0-1.5.75.75,0,0,0,0,1.5Z"/><path d="M114.92,136.5a.75.75,0,0,0,0-1.5.75.75,0,0,0,0,1.5Z"/></g><g id="Layer_25" data-name="Layer 25"><polyline class="cls-4" points="185.5 142.5 190.5 138.75 189.25 140 191.75 138.75 191.75 140 195.5 137.5 194.25 140 196.75 137.5 200.5 137.5 203 137.5"/></g><polyline class="cls-4" points="115.5 142.5 111.5 139.5 112.5 140.5 110.5 139.5 110.5 140.5 107.5 138.5 108.5 140.5 106.5 138.5 103.5 138.5 101.5 138.5"/><path class="cls-5" d="M212.5,140.5s17-8,12-32l-2-2a12.27,12.27,0,0,0,7-11s2-6-7-7c0,0,7-7,2-15s-11-5-11-5-3-12-13-8c0,0,1-12-14-8,0,0-2-9-12-5,0,0-8-9-15-1,0,0-7-10-16-1,0,0-9-7-15,4,0,0-13-5-16,6,0,0-13-1-14,11,0,0-11-3-12,10,0,0-10,4-5,13,0,0-12,11,2,20,0,0-8,20,9,26v-26s23-17,53-15,40,2,64,13l3,2Z"/><g id="Layer_26" data-name="Layer 26"><line class="cls-6" x1="143.5" y1="97.5" x2="145.5" y2="88.5"/><line class="cls-6" x1="146.5" y1="97.5" x2="148.5" y2="89.5"/><line class="cls-6" x1="150.5" y1="98.5" x2="152.5" y2="89.5"/><line class="cls-6" x1="154.5" y1="98.5" x2="156.5" y2="90.5"/></g><rect class="cls-7" width="300" height="600"/><path class="cls-14" d="M162,114s20-7,31,2c0,0,1,10-2,14s-18,4-24,3-5-1-5-1a24.27,24.27,0,0,1-2-10C160,116,162,114,162,114Z"/><path class="cls-15" d="M182.17,111.75s11,7.94-.17,21.25a47.9,47.9,0,0,1-19.48-.81s-5.39-6.24-.71-18a29,29,0,0,1,10.66-2.5C178.5,111.5,182.17,111.75,182.17,111.75Z"/><g id="Layer_19" data-name="Layer 19"><path class="cls-16" d="M162.29,114.5c-.16,0-4,10.08,5.44,13-.78-.16,4.88.58,7.62-3,0,0,3.27-4,1.09-11C176.44,113.5,167.73,110.5,162.29,114.5Z"/></g><circle class="cls-14" cx="164.5" cy="116.5" r="3"/><path class="cls-14" d="M133.39,113.29s-17.65-6.18-27.37,1.77c0,0-.88,8.82,1.77,12.36S123.68,131,129,130.07s4.41-.89,4.41-.89a21.38,21.38,0,0,0,1.77-8.83C135.16,115.06,133.39,113.29,133.39,113.29Z"/><path class="cls-15" d="M113.59,129.93c-7.92-9.58-1.14-18.07-1.14-18.07s13.36-2.1,21.21,1.77c0,0,3.81,4.84-.18,15.36a54.11,54.11,0,0,1-13.82,1.57Z"/><path class="cls-16" d="M133.15,113.84c.15,0,3.77,8.94-5.17,11.53.74-.14-4.64.51-7.24-2.66,0,0-3.1-3.55-1-9.75C119.71,113,128,110.3,133.15,113.84Z"/><circle class="cls-14" cx="127.5" cy="115.5" r="3"/><path class="cls-3" d="M135.5,167.5s26,1,38-8l1-1"/><g id="mund_det" data-name="mund det"><line class="cls-6" x1="173.5" y1="157.5" x2="175.5" y2="159.5"/></g><path class="cls-8" d="M93.5,215.5s-11,2-12,17l-1,15-1,37v60h17s2-10,3-28,0-48,0-48l3-8,1-10Z"/><path class="cls-8" d="M203.5,213.5a16,16,0,0,1,14,14,195.24,195.24,0,0,1,2,26l-1,41v20s-3,26-3,32h-16s1-5-1-15,0-49,0-49l-1-22Z"/><path class="cls-8" d="M92.5,215.5l10,45a173.18,173.18,0,0,0,1.6,21.37c1.14,8.11,6.4,22.63,6.4,23.63s2,15-9,59c0,0-1,8,6,12s23,9,40,6,41-11,41-15-7-39-6-53,8-43,15-56l10-43s-10-7-35-10-31-5-65,4Z"/><path class="cls-1" d="M171.5,185.5l-1,21s-2,8-6,11-5,5-14,4c0,0-10,0-14-3s-7-5-10-14l-1-20s4,5,20,5,26-6,26-6Z"/><path class="cls-6" d="M204.5,250.5"/><path class="cls-1" d="M94.42,344.84l-13.25,1.28s.14,10.68-4.73,15.61-5.78,13.94-5.78,13.94a8.86,8.86,0,0,0,1.22,3.45c1.06,1.68,2,2.48,3.71,1.42,0,0-.06-9.8,3.93-14.64,0,0-6.67,14-2.71,18.09a3.29,3.29,0,0,0,2.82,1.51s.89-.08,1.51-2.82c0,0-.6-6.18,0-8.92s1.26-5.47,2-6.44c0,0-3.22,12.8-.94,17.93,0,0,1.4,5.21,2.11,3.36,0,0,1.77-.17,2.31-3.79,0,0-1.91-10.52-.65-16s1.42-3.7,1.42-3.7A48.57,48.57,0,0,0,87,388.35s1.14,2.57,2.91,2.4a3.28,3.28,0,0,0,2.48-2s-1.71-17.67.6-21.46c0,0-1.17,6.36,0,8.92s1.22,3.45,3.08,4.16,4.41-.42,4.41-.42.8-1-1.22-3.45.28-6.27.28-6.27,3.11-4.76,2.85-7.41-1.65-7.87-4.47-9.38-2.62-8.66-2.62-8.66Z"/><path class="cls-1" d="M200,344.51,214.94,346s-.16,12,5.33,17.59,6.52,15.7,6.52,15.7a10,10,0,0,1-1.38,3.89c-1.19,1.89-2.28,2.79-4.18,1.6,0,0,.07-11-4.43-16.5,0,0,7.52,15.8,3,20.39a3.69,3.69,0,0,1-3.18,1.7s-1-.1-1.7-3.18c0,0,.68-7,0-10s-1.41-6.16-2.31-7.26c0,0,3.63,14.42,1.06,20.2,0,0-1.57,5.88-2.38,3.79,0,0-2-.19-2.6-4.27,0,0,2.15-11.85.74-18s-1.61-4.18-1.61-4.18a54.66,54.66,0,0,1,.49,26.17s-1.29,2.89-3.28,2.7a3.71,3.71,0,0,1-2.79-2.28s1.92-19.91-.68-24.18c0,0,1.32,7.16,0,10.05s-1.38,3.89-3.47,4.69-5-.48-5-.48-.9-1.1,1.38-3.89-.32-7.06-.32-7.06-3.5-5.36-3.21-8.35,1.86-8.86,5-10.56,2.95-9.77,2.95-9.77Z"/><path class="cls-9" d="M101.5,372.5l3,37s1,24,0,30,4,30,4,30,2,18,0,25,1,21,1,21,21-6,30,8l1,1s3-10,17-13c0,0,10,0,13,3a270.69,270.69,0,0,1,5-56c6-31,9-43,9-43a163.72,163.72,0,0,1,4-32l-1-20s0,10-21,15c0,0-15,6-29,4a66.83,66.83,0,0,1-26-4C98.5,373.5,101.5,372.5,101.5,372.5Z"/><path class="cls-8" d="M144.5,380.5"/><path class="cls-10" d="M128.5,398.5s16,10,37-2"/><line class="cls-10" x1="141.5" y1="521.5" x2="147" y2="402.41"/><path class="cls-6" d="M137.5,522.5s5,3,4,10"/><path class="cls-11" d="M141.5,533.5s-14,17-23,21c0,0-10,8-18,1s-4-15-4-15,2-5,13-19l1-4s13-8,27,4"/><g id="Layer_23" data-name="Layer 23"><path class="cls-12" d="M117,548s-2-15-19-11a4.38,4.38,0,0,0-1,3s14-1,16,10A3.1,3.1,0,0,0,117,548Z"/><path class="cls-12" d="M120,540s1,2-1,5c0,0-7-11-19-10l2-3s9-7,19,8"/><path class="cls-12" d="M126,535s-5-10-16-10c0,0-4,0-4,4,0,0,8-1,16,9C122,538,126,538,126,535Z"/></g><path class="cls-11" d="M141.5,523.5s7-12,17-11,13,4,13,4l14,20s4,6,4,10-2,7-6,7a37.67,37.67,0,0,1-23-7c-10-7-18-14-18-14Z"/><path class="cls-13" d="M184.5,540.5"/><path class="cls-12" d="M155,526s5-9,18-6l4,4a21.06,21.06,0,0,0-19,5S154,529,155,526Z"/><path class="cls-12" d="M159,532s1-10,20-6l2,4s-9-4-20,4C161,534,158,535,159,532Z"/><path class="cls-12" d="M161,538s3-11,21-6l2,3s-9-5-22,5C162,540,160,539,161,538Z"/><path d="M137.84,527.08a7.23,7.23,0,0,1,1.12,4.26h3c-.25-3.92-.73-7.87-3.56-10.83l-2.12,2.12c1.73,1.43,1.67,3.49,1.73,5.57a40.74,40.74,0,0,0,.65,5.93c.34,1.9,3.23,1.1,2.89-.8-.74-4.1.47-9.84-3.15-12.82-1.47-1.21-3.48.69-2.12,2.12,2.24,2.34,2.48,5.63,2.68,8.71a1.5,1.5,0,0,0,3,0,10.12,10.12,0,0,0-1.53-5.77c-1-1.65-3.6-.14-2.59,1.51Z"/><polyline class="cls-4" points="144.5 171.5 148.5 171.5 145.5 172.5 147.5 172.5 146.5 173.5 145.5 174.5"/></symbol><symbol id="Glad" data-name="Glad" viewBox="0 0 300 600"><path class="cls-1" d="M213.46,143.67s7,3.83,10-7.17,2-10,2-10-14,14-13,14,1,3.17,1,3.17"/><path class="cls-1" d="M91,142s-1,3-5-1a31.39,31.39,0,0,1-1-9l6,4Z"/><path class="cls-2" d="M149.5,189.5a33.37,33.37,0,0,0,22-5c11-7,31-16,39-29,0,0,5-1,2-47,0,0-16-10-52-15s-67,16-67,16-4,42,2,46c0,0,8,17,31,29C126.5,184.5,134.5,189.5,149.5,189.5Z"/><g id="næse-2" data-name="næse"><path class="cls-3" d="M147.5,123.5s-2,10-8,16l5,5"/></g><g id="øjebryn-2" data-name="øjebryn"><path class="cls-3" d="M157,107s22-6,34,2"/><path class="cls-3" d="M137.5,107.5s-23-9-34,1"/></g><g id="fregner-2" data-name="fregner"><path d="M121.5,137.58a.75.75,0,0,0,0-1.5.75.75,0,0,0,0,1.5Z"/><path d="M126.5,135.92a.75.75,0,0,0,0-1.5.75.75,0,0,0,0,1.5Z"/><path d="M127.83,140.42a.75.75,0,0,0,0-1.5.75.75,0,0,0,0,1.5Z"/><path d="M136.83,135.75a.75.75,0,0,0,0-1.5.75.75,0,0,0,0,1.5Z"/><path d="M132,135.08a.75.75,0,0,0,0-1.5.75.75,0,0,0,0,1.5Z"/><path d="M135.83,132.25a.75.75,0,0,0,0-1.5.75.75,0,0,0,0,1.5Z"/><path d="M140.5,132.92a.75.75,0,0,0,0-1.5.75.75,0,0,0,0,1.5Z"/><path d="M141,127.92a.75.75,0,0,0,0-1.5.75.75,0,0,0,0,1.5Z"/><path d="M152.83,128.75a.75.75,0,0,0,0-1.5.75.75,0,0,0,0,1.5Z"/><path d="M151.17,133.92a.75.75,0,0,0,0-1.5.75.75,0,0,0,0,1.5Z"/><path d="M156.67,133.58a.75.75,0,0,0,0-1.5.75.75,0,0,0,0,1.5Z"/><path d="M156,137.08a.75.75,0,0,0,0-1.5.75.75,0,0,0,0,1.5Z"/><path d="M151.83,140.08a.75.75,0,0,0,0-1.5.75.75,0,0,0,0,1.5Z"/><path d="M161.5,138.75a.75.75,0,0,0,0-1.5.75.75,0,0,0,0,1.5Z"/><path d="M191.67,136.58a.75.75,0,0,0,0-1.5.75.75,0,0,0,0,1.5Z"/><path d="M185,137.25a.75.75,0,0,0,0-1.5.75.75,0,0,0,0,1.5Z"/><path d="M180.67,140.92a.75.75,0,0,0,0-1.5.75.75,0,0,0,0,1.5Z"/><path d="M175.17,137.75a.75.75,0,0,0,0-1.5.75.75,0,0,0,0,1.5Z"/><path d="M176,141.08a.75.75,0,0,0,0-1.5.75.75,0,0,0,0,1.5Z"/><path d="M169.83,137.92a.75.75,0,0,0,0-1.5.75.75,0,0,0,0,1.5Z"/><path d="M114.92,136.5a.75.75,0,0,0,0-1.5.75.75,0,0,0,0,1.5Z"/></g><g id="Layer_25-2" data-name="Layer 25"><polyline class="cls-4" points="185.5 142.5 190.5 138.75 189.25 140 191.75 138.75 191.75 140 195.5 137.5 194.25 140 196.75 137.5 200.5 137.5 203 137.5"/></g><polyline class="cls-4" points="115.5 142.5 111.5 139.5 112.5 140.5 110.5 139.5 110.5 140.5 107.5 138.5 108.5 140.5 106.5 138.5 103.5 138.5 101.5 138.5"/><path class="cls-5" d="M212.5,140.5s17-8,12-32l-2-2a12.27,12.27,0,0,0,7-11s2-6-7-7c0,0,7-7,2-15s-11-5-11-5-3-12-13-8c0,0,1-12-14-8,0,0-2-9-12-5,0,0-8-9-15-1,0,0-7-10-16-1,0,0-9-7-15,4,0,0-13-5-16,6,0,0-13-1-14,11,0,0-11-3-12,10,0,0-10,4-5,13,0,0-12,11,2,20,0,0-8,20,9,26v-26s23-17,53-15,40,2,64,13l3,2Z"/><g id="Layer_26-2" data-name="Layer 26"><line class="cls-6" x1="143.5" y1="97.5" x2="145.5" y2="88.5"/><line class="cls-6" x1="146.5" y1="97.5" x2="148.5" y2="89.5"/><line class="cls-6" x1="150.5" y1="98.5" x2="152.5" y2="89.5"/><line class="cls-6" x1="154.5" y1="98.5" x2="156.5" y2="90.5"/></g><rect class="cls-7" width="300" height="600"/><path class="cls-17" d="M178,144l-1.14,1.08c-13.69,9.7-43.36,8.62-43.36,8.62s7.42,24.8,26.24,24.8S178,144,178,144Z"/><path class="cls-8" d="M93.5,215.5s-11,2-12,17l-1,15-1,37v60h17s2-10,3-28,0-48,0-48l3-8,1-10Z"/><path class="cls-8" d="M203.5,213.5a16,16,0,0,1,14,14,195.24,195.24,0,0,1,2,26l-1,41v20s-3,26-3,32h-16s1-5-1-15,0-49,0-49l-1-22Z"/><path class="cls-8" d="M92.5,215.5l10,45a173.18,173.18,0,0,0,1.6,21.37c1.14,8.11,6.4,22.63,6.4,23.63s2,15-9,59c0,0-1,8,6,12s23,9,40,6,41-11,41-15-7-39-6-53,8-43,15-56l10-43s-10-7-35-10-31-5-65,4Z"/><path class="cls-1" d="M171.5,185.5l-1,21s-2,8-6,11-5,5-14,4c0,0-10,0-14-3s-7-5-10-14l-1-20s4,5,20,5,26-6,26-6Z"/><path class="cls-6" d="M204.5,250.5"/><path class="cls-1" d="M94.42,344.84l-13.25,1.28s.14,10.68-4.73,15.61-5.78,13.94-5.78,13.94a8.86,8.86,0,0,0,1.22,3.45c1.06,1.68,2,2.48,3.71,1.42,0,0-.06-9.8,3.93-14.64,0,0-6.67,14-2.71,18.09a3.29,3.29,0,0,0,2.82,1.51s.89-.08,1.51-2.82c0,0-.6-6.18,0-8.92s1.26-5.47,2-6.44c0,0-3.22,12.8-.94,17.93,0,0,1.4,5.21,2.11,3.36,0,0,1.77-.17,2.31-3.79,0,0-1.91-10.52-.65-16s1.42-3.7,1.42-3.7A48.57,48.57,0,0,0,87,388.35s1.14,2.57,2.91,2.4a3.28,3.28,0,0,0,2.48-2s-1.71-17.67.6-21.46c0,0-1.17,6.36,0,8.92s1.22,3.45,3.08,4.16,4.41-.42,4.41-.42.8-1-1.22-3.45.28-6.27.28-6.27,3.11-4.76,2.85-7.41-1.65-7.87-4.47-9.38-2.62-8.66-2.62-8.66Z"/><path class="cls-1" d="M200,344.51,214.94,346s-.16,12,5.33,17.59,6.52,15.7,6.52,15.7a10,10,0,0,1-1.38,3.89c-1.19,1.89-2.28,2.79-4.18,1.6,0,0,.07-11-4.43-16.5,0,0,7.52,15.8,3,20.39a3.69,3.69,0,0,1-3.18,1.7s-1-.1-1.7-3.18c0,0,.68-7,0-10s-1.41-6.16-2.31-7.26c0,0,3.63,14.42,1.06,20.2,0,0-1.57,5.88-2.38,3.79,0,0-2-.19-2.6-4.27,0,0,2.15-11.85.74-18s-1.61-4.18-1.61-4.18a54.66,54.66,0,0,1,.49,26.17s-1.29,2.89-3.28,2.7a3.71,3.71,0,0,1-2.79-2.28s1.92-19.91-.68-24.18c0,0,1.32,7.16,0,10.05s-1.38,3.89-3.47,4.69-5-.48-5-.48-.9-1.1,1.38-3.89-.32-7.06-.32-7.06-3.5-5.36-3.21-8.35,1.86-8.86,5-10.56,2.95-9.77,2.95-9.77Z"/><path class="cls-9" d="M101.5,372.5l3,37s1,24,0,30,4,30,4,30,2,18,0,25,1,21,1,21,21-6,30,8l1,1s3-10,17-13c0,0,10,0,13,3a270.69,270.69,0,0,1,5-56c6-31,9-43,9-43a163.72,163.72,0,0,1,4-32l-1-20s0,10-21,15c0,0-15,6-29,4a66.83,66.83,0,0,1-26-4C98.5,373.5,101.5,372.5,101.5,372.5Z"/><path class="cls-8" d="M144.5,380.5"/><path class="cls-10" d="M128.5,398.5s16,10,37-2"/><line class="cls-10" x1="141.5" y1="521.5" x2="147" y2="402.41"/><path class="cls-6" d="M137.5,522.5s5,3,4,10"/><path class="cls-11" d="M141.5,533.5s-14,17-23,21c0,0-10,8-18,1s-4-15-4-15,2-5,13-19l1-4s13-8,27,4"/><g id="Layer_23-2" data-name="Layer 23"><path class="cls-12" d="M117,548s-2-15-19-11a4.38,4.38,0,0,0-1,3s14-1,16,10A3.1,3.1,0,0,0,117,548Z"/><path class="cls-12" d="M120,540s1,2-1,5c0,0-7-11-19-10l2-3s9-7,19,8"/><path class="cls-12" d="M126,535s-5-10-16-10c0,0-4,0-4,4,0,0,8-1,16,9C122,538,126,538,126,535Z"/></g><path class="cls-11" d="M141.5,523.5s7-12,17-11,13,4,13,4l14,20s4,6,4,10-2,7-6,7a37.67,37.67,0,0,1-23-7c-10-7-18-14-18-14Z"/><path class="cls-13" d="M184.5,540.5"/><path class="cls-12" d="M155,526s5-9,18-6l4,4a21.06,21.06,0,0,0-19,5S154,529,155,526Z"/><path class="cls-12" d="M159,532s1-10,20-6l2,4s-9-4-20,4C161,534,158,535,159,532Z"/><path class="cls-12" d="M161,538s3-11,21-6l2,3s-9-5-22,5C162,540,160,539,161,538Z"/><path d="M137.84,527.08a7.23,7.23,0,0,1,1.12,4.26h3c-.25-3.92-.73-7.87-3.56-10.83l-2.12,2.12c1.73,1.43,1.67,3.49,1.73,5.57a40.74,40.74,0,0,0,.65,5.93c.34,1.9,3.23,1.1,2.89-.8-.74-4.1.47-9.84-3.15-12.82-1.47-1.21-3.48.69-2.12,2.12,2.24,2.34,2.48,5.63,2.68,8.71a1.5,1.5,0,0,0,3,0,10.12,10.12,0,0,0-1.53-5.77c-1-1.65-3.6-.14-2.59,1.51Z"/><polyline class="cls-4" points="151 180.5 155 180.5 152 181.5 154 181.5 153 182.5 152 183.5"/><polyline class="cls-3" points="183 110 157.5 119.25 183 128.5"/><polyline class="cls-3" points="116.5 110.5 139.5 119.5 116.5 128.5"/><path class="cls-18" d="M143.5,170.5s8.16-13.37,33.08-13.37C176.58,157.13,168,195,143.5,170.5Z"/></symbol><symbol id="Frastrødt" data-name="Frastrødt" viewBox="0 0 300 600"><path class="cls-1" d="M213.46,143.67s7,3.83,10-7.17,2-10,2-10-14,14-13,14,1,3.17,1,3.17"/><path class="cls-1" d="M91,142s-1,3-5-1a31.39,31.39,0,0,1-1-9l6,4Z"/><path class="cls-2" d="M149.5,189.5a33.37,33.37,0,0,0,22-5c11-7,31-16,39-29,0,0,5-1,2-47,0,0-16-10-52-15s-67,16-67,16-4,42,2,46c0,0,8,17,31,29C126.5,184.5,134.5,189.5,149.5,189.5Z"/><g id="næse-3" data-name="næse"><path class="cls-3" d="M147.5,123.5s-2,10-8,16l5,5"/></g><g id="fregner-3" data-name="fregner"><path d="M121.5,137.58a.75.75,0,0,0,0-1.5.75.75,0,0,0,0,1.5Z"/><path d="M126.5,135.92a.75.75,0,0,0,0-1.5.75.75,0,0,0,0,1.5Z"/><path d="M127.83,140.42a.75.75,0,0,0,0-1.5.75.75,0,0,0,0,1.5Z"/><path d="M136.83,135.75a.75.75,0,0,0,0-1.5.75.75,0,0,0,0,1.5Z"/><path d="M132,135.08a.75.75,0,0,0,0-1.5.75.75,0,0,0,0,1.5Z"/><path d="M135.83,132.25a.75.75,0,0,0,0-1.5.75.75,0,0,0,0,1.5Z"/><path d="M140.5,132.92a.75.75,0,0,0,0-1.5.75.75,0,0,0,0,1.5Z"/><path d="M141,127.92a.75.75,0,0,0,0-1.5.75.75,0,0,0,0,1.5Z"/><path d="M152.83,128.75a.75.75,0,0,0,0-1.5.75.75,0,0,0,0,1.5Z"/><path d="M151.17,133.92a.75.75,0,0,0,0-1.5.75.75,0,0,0,0,1.5Z"/><path d="M156.67,133.58a.75.75,0,0,0,0-1.5.75.75,0,0,0,0,1.5Z"/><path d="M156,137.08a.75.75,0,0,0,0-1.5.75.75,0,0,0,0,1.5Z"/><path d="M151.83,140.08a.75.75,0,0,0,0-1.5.75.75,0,0,0,0,1.5Z"/><path d="M161.5,138.75a.75.75,0,0,0,0-1.5.75.75,0,0,0,0,1.5Z"/><path d="M191.67,136.58a.75.75,0,0,0,0-1.5.75.75,0,0,0,0,1.5Z"/><path d="M185,137.25a.75.75,0,0,0,0-1.5.75.75,0,0,0,0,1.5Z"/><path d="M180.67,140.92a.75.75,0,0,0,0-1.5.75.75,0,0,0,0,1.5Z"/><path d="M175.17,137.75a.75.75,0,0,0,0-1.5.75.75,0,0,0,0,1.5Z"/><path d="M176,141.08a.75.75,0,0,0,0-1.5.75.75,0,0,0,0,1.5Z"/><path d="M169.83,137.92a.75.75,0,0,0,0-1.5.75.75,0,0,0,0,1.5Z"/><path d="M114.92,136.5a.75.75,0,0,0,0-1.5.75.75,0,0,0,0,1.5Z"/></g><g id="Layer_25-3" data-name="Layer 25"><polyline class="cls-4" points="185.5 142.5 190.5 138.75 189.25 140 191.75 138.75 191.75 140 195.5 137.5 194.25 140 196.75 137.5 200.5 137.5 203 137.5"/></g><polyline class="cls-4" points="115.5 142.5 111.5 139.5 112.5 140.5 110.5 139.5 110.5 140.5 107.5 138.5 108.5 140.5 106.5 138.5 103.5 138.5 101.5 138.5"/><path class="cls-5" d="M212.5,140.5s17-8,12-32l-2-2a12.27,12.27,0,0,0,7-11s2-6-7-7c0,0,7-7,2-15s-11-5-11-5-3-12-13-8c0,0,1-12-14-8,0,0-2-9-12-5,0,0-8-9-15-1,0,0-7-10-16-1,0,0-9-7-15,4,0,0-13-5-16,6,0,0-13-1-14,11,0,0-11-3-12,10,0,0-10,4-5,13,0,0-12,11,2,20,0,0-8,20,9,26v-26s23-17,53-15,40,2,64,13l3,2Z"/><g id="Layer_26-3" data-name="Layer 26"><line class="cls-6" x1="143.5" y1="97.5" x2="145.5" y2="88.5"/><line class="cls-6" x1="146.5" y1="97.5" x2="148.5" y2="89.5"/><line class="cls-6" x1="150.5" y1="98.5" x2="152.5" y2="89.5"/><line class="cls-6" x1="154.5" y1="98.5" x2="156.5" y2="90.5"/></g><rect class="cls-7" width="300" height="600"/><path class="cls-8" d="M93.5,215.5s-11,2-12,17l-1,15-1,37v60h17s2-10,3-28,0-48,0-48l3-8,1-10Z"/><path class="cls-8" d="M203.5,213.5a16,16,0,0,1,14,14,195.24,195.24,0,0,1,2,26l-1,41v20s-3,26-3,32h-16s1-5-1-15,0-49,0-49l-1-22Z"/><path class="cls-8" d="M92.5,215.5l10,45a173.18,173.18,0,0,0,1.6,21.37c1.14,8.11,6.4,22.63,6.4,23.63s2,15-9,59c0,0-1,8,6,12s23,9,40,6,41-11,41-15-7-39-6-53,8-43,15-56l10-43s-10-7-35-10-31-5-65,4Z"/><path class="cls-1" d="M171.5,185.5l-1,21s-2,8-6,11-5,5-14,4c0,0-10,0-14-3s-7-5-10-14l-1-20s4,5,20,5,26-6,26-6Z"/><path class="cls-6" d="M204.5,250.5"/><path class="cls-1" d="M94.42,344.84l-13.25,1.28s.14,10.68-4.73,15.61-5.78,13.94-5.78,13.94a8.86,8.86,0,0,0,1.22,3.45c1.06,1.68,2,2.48,3.71,1.42,0,0-.06-9.8,3.93-14.64,0,0-6.67,14-2.71,18.09a3.29,3.29,0,0,0,2.82,1.51s.89-.08,1.51-2.82c0,0-.6-6.18,0-8.92s1.26-5.47,2-6.44c0,0-3.22,12.8-.94,17.93,0,0,1.4,5.21,2.11,3.36,0,0,1.77-.17,2.31-3.79,0,0-1.91-10.52-.65-16s1.42-3.7,1.42-3.7A48.57,48.57,0,0,0,87,388.35s1.14,2.57,2.91,2.4a3.28,3.28,0,0,0,2.48-2s-1.71-17.67.6-21.46c0,0-1.17,6.36,0,8.92s1.22,3.45,3.08,4.16,4.41-.42,4.41-.42.8-1-1.22-3.45.28-6.27.28-6.27,3.11-4.76,2.85-7.41-1.65-7.87-4.47-9.38-2.62-8.66-2.62-8.66Z"/><path class="cls-1" d="M200,344.51,214.94,346s-.16,12,5.33,17.59,6.52,15.7,6.52,15.7a10,10,0,0,1-1.38,3.89c-1.19,1.89-2.28,2.79-4.18,1.6,0,0,.07-11-4.43-16.5,0,0,7.52,15.8,3,20.39a3.69,3.69,0,0,1-3.18,1.7s-1-.1-1.7-3.18c0,0,.68-7,0-10s-1.41-6.16-2.31-7.26c0,0,3.63,14.42,1.06,20.2,0,0-1.57,5.88-2.38,3.79,0,0-2-.19-2.6-4.27,0,0,2.15-11.85.74-18s-1.61-4.18-1.61-4.18a54.66,54.66,0,0,1,.49,26.17s-1.29,2.89-3.28,2.7a3.71,3.71,0,0,1-2.79-2.28s1.92-19.91-.68-24.18c0,0,1.32,7.16,0,10.05s-1.38,3.89-3.47,4.69-5-.48-5-.48-.9-1.1,1.38-3.89-.32-7.06-.32-7.06-3.5-5.36-3.21-8.35,1.86-8.86,5-10.56,2.95-9.77,2.95-9.77Z"/><path class="cls-9" d="M101.5,372.5l3,37s1,24,0,30,4,30,4,30,2,18,0,25,1,21,1,21,21-6,30,8l1,1s3-10,17-13c0,0,10,0,13,3a270.69,270.69,0,0,1,5-56c6-31,9-43,9-43a163.72,163.72,0,0,1,4-32l-1-20s0,10-21,15c0,0-15,6-29,4a66.83,66.83,0,0,1-26-4C98.5,373.5,101.5,372.5,101.5,372.5Z"/><path class="cls-8" d="M144.5,380.5"/><path class="cls-10" d="M128.5,398.5s16,10,37-2"/><line class="cls-10" x1="141.5" y1="521.5" x2="147" y2="402.41"/><path class="cls-6" d="M137.5,522.5s5,3,4,10"/><path class="cls-11" d="M141.5,533.5s-14,17-23,21c0,0-10,8-18,1s-4-15-4-15,2-5,13-19l1-4s13-8,27,4"/><g id="Layer_23-3" data-name="Layer 23"><path class="cls-12" d="M117,548s-2-15-19-11a4.38,4.38,0,0,0-1,3s14-1,16,10A3.1,3.1,0,0,0,117,548Z"/><path class="cls-12" d="M120,540s1,2-1,5c0,0-7-11-19-10l2-3s9-7,19,8"/><path class="cls-12" d="M126,535s-5-10-16-10c0,0-4,0-4,4,0,0,8-1,16,9C122,538,126,538,126,535Z"/></g><path class="cls-11" d="M141.5,523.5s7-12,17-11,13,4,13,4l14,20s4,6,4,10-2,7-6,7a37.67,37.67,0,0,1-23-7c-10-7-18-14-18-14Z"/><path class="cls-13" d="M184.5,540.5"/><path class="cls-12" d="M155,526s5-9,18-6l4,4a21.06,21.06,0,0,0-19,5S154,529,155,526Z"/><path class="cls-12" d="M159,532s1-10,20-6l2,4s-9-4-20,4C161,534,158,535,159,532Z"/><path class="cls-12" d="M161,538s3-11,21-6l2,3s-9-5-22,5C162,540,160,539,161,538Z"/><path d="M137.84,527.08a7.23,7.23,0,0,1,1.12,4.26h3c-.25-3.92-.73-7.87-3.56-10.83l-2.12,2.12c1.73,1.43,1.67,3.49,1.73,5.57a40.74,40.74,0,0,0,.65,5.93c.34,1.9,3.23,1.1,2.89-.8-.74-4.1.47-9.84-3.15-12.82-1.47-1.21-3.48.69-2.12,2.12,2.24,2.34,2.48,5.63,2.68,8.71a1.5,1.5,0,0,0,3,0,10.12,10.12,0,0,0-1.53-5.77c-1-1.65-3.6-.14-2.59,1.51Z"/><polyline class="cls-4" points="151 180.5 155 180.5 152 181.5 154 181.5 153 182.5 152 183.5"/><path class="cls-14" d="M162,113s20-7,31,2c0,0,1,10-2,14s-18,4-24,3-5-1-5-1a24.27,24.27,0,0,1-2-10C160,115,162,113,162,113Z"/><path class="cls-15" d="M182.17,110.75s11,7.94-.17,21.25a47.9,47.9,0,0,1-19.48-.81s-5.39-6.24-.71-18a29,29,0,0,1,10.66-2.5C178.5,110.5,182.17,110.75,182.17,110.75Z"/><g id="Layer_19-2" data-name="Layer 19"><path class="cls-16" d="M162.29,113.5c-.16,0-4,10.08,5.44,13-.78-.16,4.88.58,7.62-3,0,0,3.27-4,1.09-11C176.44,112.5,167.73,109.5,162.29,113.5Z"/></g><circle class="cls-14" cx="164.5" cy="115.5" r="3"/><path class="cls-14" d="M133.39,112.29s-17.65-6.18-27.37,1.77c0,0-.88,8.82,1.77,12.36S123.68,130,129,129.07s4.41-.89,4.41-.89a21.38,21.38,0,0,0,1.77-8.83C135.16,114.06,133.39,112.29,133.39,112.29Z"/><path class="cls-15" d="M113.59,128.93c-7.92-9.58-1.14-18.07-1.14-18.07s13.36-2.1,21.21,1.77c0,0,3.81,4.84-.18,15.36a54.11,54.11,0,0,1-13.82,1.57Z"/><path class="cls-16" d="M133.15,112.84c.15,0,3.77,8.94-5.17,11.53.74-.14-4.64.51-7.24-2.66,0,0-3.1-3.55-1-9.75C119.71,112,128,109.3,133.15,112.84Z"/><circle class="cls-14" cx="127.5" cy="114.5" r="3"/><path class="cls-2" d="M197.5,111s-29.17-.86-38.5-9.5"/><path class="cls-2" d="M103,111s25-.86,33-9.5"/><path class="cls-2" d="M190.56,162.68s-9.23-18.08-16.93,0-18.34-.6-18.34-.6"/></symbol><symbol id="Overrasket" data-name="Overrasket" viewBox="0 0 300 600"><path class="cls-1" d="M213.46,143.67s7,3.83,10-7.17,2-10,2-10-14,14-13,14,1,3.17,1,3.17"/><path class="cls-1" d="M91,142s-1,3-5-1a31.39,31.39,0,0,1-1-9l6,4Z"/><path class="cls-2" d="M149.5,189.5a33.37,33.37,0,0,0,22-5c11-7,31-16,39-29,0,0,5-1,2-47,0,0-16-10-52-15s-67,16-67,16-4,42,2,46c0,0,8,17,31,29C126.5,184.5,134.5,189.5,149.5,189.5Z"/><g id="næse-4" data-name="næse"><path class="cls-3" d="M147.5,123.5s-2,10-8,16l5,5"/></g><g id="fregner-4" data-name="fregner"><path d="M121.5,137.58a.75.75,0,0,0,0-1.5.75.75,0,0,0,0,1.5Z"/><path d="M126.5,135.92a.75.75,0,0,0,0-1.5.75.75,0,0,0,0,1.5Z"/><path d="M127.83,140.42a.75.75,0,0,0,0-1.5.75.75,0,0,0,0,1.5Z"/><path d="M136.83,135.75a.75.75,0,0,0,0-1.5.75.75,0,0,0,0,1.5Z"/><path d="M132,135.08a.75.75,0,0,0,0-1.5.75.75,0,0,0,0,1.5Z"/><path d="M135.83,132.25a.75.75,0,0,0,0-1.5.75.75,0,0,0,0,1.5Z"/><path d="M140.5,132.92a.75.75,0,0,0,0-1.5.75.75,0,0,0,0,1.5Z"/><path d="M141,127.92a.75.75,0,0,0,0-1.5.75.75,0,0,0,0,1.5Z"/><path d="M152.83,128.75a.75.75,0,0,0,0-1.5.75.75,0,0,0,0,1.5Z"/><path d="M151.17,133.92a.75.75,0,0,0,0-1.5.75.75,0,0,0,0,1.5Z"/><path d="M156.67,133.58a.75.75,0,0,0,0-1.5.75.75,0,0,0,0,1.5Z"/><path d="M156,137.08a.75.75,0,0,0,0-1.5.75.75,0,0,0,0,1.5Z"/><path d="M151.83,140.08a.75.75,0,0,0,0-1.5.75.75,0,0,0,0,1.5Z"/><path d="M161.5,138.75a.75.75,0,0,0,0-1.5.75.75,0,0,0,0,1.5Z"/><path d="M191.67,136.58a.75.75,0,0,0,0-1.5.75.75,0,0,0,0,1.5Z"/><path d="M185,137.25a.75.75,0,0,0,0-1.5.75.75,0,0,0,0,1.5Z"/><path d="M180.67,140.92a.75.75,0,0,0,0-1.5.75.75,0,0,0,0,1.5Z"/><path d="M175.17,137.75a.75.75,0,0,0,0-1.5.75.75,0,0,0,0,1.5Z"/><path d="M176,141.08a.75.75,0,0,0,0-1.5.75.75,0,0,0,0,1.5Z"/><path d="M169.83,137.92a.75.75,0,0,0,0-1.5.75.75,0,0,0,0,1.5Z"/><path d="M114.92,136.5a.75.75,0,0,0,0-1.5.75.75,0,0,0,0,1.5Z"/></g><g id="Layer_25-4" data-name="Layer 25"><polyline class="cls-4" points="185.5 142.5 190.5 138.75 189.25 140 191.75 138.75 191.75 140 195.5 137.5 194.25 140 196.75 137.5 200.5 137.5 203 137.5"/></g><polyline class="cls-4" points="115.5 142.5 111.5 139.5 112.5 140.5 110.5 139.5 110.5 140.5 107.5 138.5 108.5 140.5 106.5 138.5 103.5 138.5 101.5 138.5"/><path class="cls-5" d="M212.5,140.5s17-8,12-32l-2-2a12.27,12.27,0,0,0,7-11s2-6-7-7c0,0,7-7,2-15s-11-5-11-5-3-12-13-8c0,0,1-12-14-8,0,0-2-9-12-5,0,0-8-9-15-1,0,0-7-10-16-1,0,0-9-7-15,4,0,0-13-5-16,6,0,0-13-1-14,11,0,0-11-3-12,10,0,0-10,4-5,13,0,0-12,11,2,20,0,0-8,20,9,26v-26s23-17,53-15,40,2,64,13l3,2Z"/><g id="Layer_26-4" data-name="Layer 26"><line class="cls-6" x1="143.5" y1="97.5" x2="145.5" y2="88.5"/><line class="cls-6" x1="146.5" y1="97.5" x2="148.5" y2="89.5"/><line class="cls-6" x1="150.5" y1="98.5" x2="152.5" y2="89.5"/><line class="cls-6" x1="154.5" y1="98.5" x2="156.5" y2="90.5"/></g><rect class="cls-7" width="300" height="600"/><path class="cls-8" d="M93.5,215.5s-11,2-12,17l-1,15-1,37v60h17s2-10,3-28,0-48,0-48l3-8,1-10Z"/><path class="cls-8" d="M203.5,213.5a16,16,0,0,1,14,14,195.24,195.24,0,0,1,2,26l-1,41v20s-3,26-3,32h-16s1-5-1-15,0-49,0-49l-1-22Z"/><path class="cls-8" d="M92.5,215.5l10,45a173.18,173.18,0,0,0,1.6,21.37c1.14,8.11,6.4,22.63,6.4,23.63s2,15-9,59c0,0-1,8,6,12s23,9,40,6,41-11,41-15-7-39-6-53,8-43,15-56l10-43s-10-7-35-10-31-5-65,4Z"/><path class="cls-1" d="M171.5,185.5l-1,21s-2,8-6,11-5,5-14,4c0,0-10,0-14-3s-7-5-10-14l-1-20s4,5,20,5,26-6,26-6Z"/><path class="cls-6" d="M204.5,250.5"/><path class="cls-1" d="M94.42,344.84l-13.25,1.28s.14,10.68-4.73,15.61-5.78,13.94-5.78,13.94a8.86,8.86,0,0,0,1.22,3.45c1.06,1.68,2,2.48,3.71,1.42,0,0-.06-9.8,3.93-14.64,0,0-6.67,14-2.71,18.09a3.29,3.29,0,0,0,2.82,1.51s.89-.08,1.51-2.82c0,0-.6-6.18,0-8.92s1.26-5.47,2-6.44c0,0-3.22,12.8-.94,17.93,0,0,1.4,5.21,2.11,3.36,0,0,1.77-.17,2.31-3.79,0,0-1.91-10.52-.65-16s1.42-3.7,1.42-3.7A48.57,48.57,0,0,0,87,388.35s1.14,2.57,2.91,2.4a3.28,3.28,0,0,0,2.48-2s-1.71-17.67.6-21.46c0,0-1.17,6.36,0,8.92s1.22,3.45,3.08,4.16,4.41-.42,4.41-.42.8-1-1.22-3.45.28-6.27.28-6.27,3.11-4.76,2.85-7.41-1.65-7.87-4.47-9.38-2.62-8.66-2.62-8.66Z"/><path class="cls-1" d="M200,344.51,214.94,346s-.16,12,5.33,17.59,6.52,15.7,6.52,15.7a10,10,0,0,1-1.38,3.89c-1.19,1.89-2.28,2.79-4.18,1.6,0,0,.07-11-4.43-16.5,0,0,7.52,15.8,3,20.39a3.69,3.69,0,0,1-3.18,1.7s-1-.1-1.7-3.18c0,0,.68-7,0-10s-1.41-6.16-2.31-7.26c0,0,3.63,14.42,1.06,20.2,0,0-1.57,5.88-2.38,3.79,0,0-2-.19-2.6-4.27,0,0,2.15-11.85.74-18s-1.61-4.18-1.61-4.18a54.66,54.66,0,0,1,.49,26.17s-1.29,2.89-3.28,2.7a3.71,3.71,0,0,1-2.79-2.28s1.92-19.91-.68-24.18c0,0,1.32,7.16,0,10.05s-1.38,3.89-3.47,4.69-5-.48-5-.48-.9-1.1,1.38-3.89-.32-7.06-.32-7.06-3.5-5.36-3.21-8.35,1.86-8.86,5-10.56,2.95-9.77,2.95-9.77Z"/><path class="cls-9" d="M101.5,372.5l3,37s1,24,0,30,4,30,4,30,2,18,0,25,1,21,1,21,21-6,30,8l1,1s3-10,17-13c0,0,10,0,13,3a270.69,270.69,0,0,1,5-56c6-31,9-43,9-43a163.72,163.72,0,0,1,4-32l-1-20s0,10-21,15c0,0-15,6-29,4a66.83,66.83,0,0,1-26-4C98.5,373.5,101.5,372.5,101.5,372.5Z"/><path class="cls-8" d="M144.5,380.5"/><path class="cls-10" d="M128.5,398.5s16,10,37-2"/><line class="cls-10" x1="141.5" y1="521.5" x2="147" y2="402.41"/><path class="cls-6" d="M137.5,522.5s5,3,4,10"/><path class="cls-11" d="M141.5,533.5s-14,17-23,21c0,0-10,8-18,1s-4-15-4-15,2-5,13-19l1-4s13-8,27,4"/><g id="Layer_23-4" data-name="Layer 23"><path class="cls-12" d="M117,548s-2-15-19-11a4.38,4.38,0,0,0-1,3s14-1,16,10A3.1,3.1,0,0,0,117,548Z"/><path class="cls-12" d="M120,540s1,2-1,5c0,0-7-11-19-10l2-3s9-7,19,8"/><path class="cls-12" d="M126,535s-5-10-16-10c0,0-4,0-4,4,0,0,8-1,16,9C122,538,126,538,126,535Z"/></g><path class="cls-11" d="M141.5,523.5s7-12,17-11,13,4,13,4l14,20s4,6,4,10-2,7-6,7a37.67,37.67,0,0,1-23-7c-10-7-18-14-18-14Z"/><path class="cls-13" d="M184.5,540.5"/><path class="cls-12" d="M155,526s5-9,18-6l4,4a21.06,21.06,0,0,0-19,5S154,529,155,526Z"/><path class="cls-12" d="M159,532s1-10,20-6l2,4s-9-4-20,4C161,534,158,535,159,532Z"/><path class="cls-12" d="M161,538s3-11,21-6l2,3s-9-5-22,5C162,540,160,539,161,538Z"/><path d="M137.84,527.08a7.23,7.23,0,0,1,1.12,4.26h3c-.25-3.92-.73-7.87-3.56-10.83l-2.12,2.12c1.73,1.43,1.67,3.49,1.73,5.57a40.74,40.74,0,0,0,.65,5.93c.34,1.9,3.23,1.1,2.89-.8-.74-4.1.47-9.84-3.15-12.82-1.47-1.21-3.48.69-2.12,2.12,2.24,2.34,2.48,5.63,2.68,8.71a1.5,1.5,0,0,0,3,0,10.12,10.12,0,0,0-1.53-5.77c-1-1.65-3.6-.14-2.59,1.51Z"/><polyline class="cls-4" points="151 180.5 155 180.5 152 181.5 154 181.5 153 182.5 152 183.5"/><path class="cls-14" d="M162,113s20-7,31,2c0,0,1,10-2,14s-18,4-24,3-5-1-5-1a24.27,24.27,0,0,1-2-10C160,115,162,113,162,113Z"/><path class="cls-15" d="M182.17,110.75s11,7.94-.17,21.25a47.9,47.9,0,0,1-19.48-.81s-5.39-6.24-.71-18a29,29,0,0,1,10.66-2.5C178.5,110.5,182.17,110.75,182.17,110.75Z"/><g id="Layer_19-3" data-name="Layer 19"><path class="cls-16" d="M162.29,113.5c-.16,0-4,10.08,5.44,13-.78-.16,4.88.58,7.62-3,0,0,3.27-4,1.09-11C176.44,112.5,167.73,109.5,162.29,113.5Z"/></g><circle class="cls-14" cx="164.5" cy="115.5" r="3"/><path class="cls-14" d="M133.39,112.29s-17.65-6.18-27.37,1.77c0,0-.88,8.82,1.77,12.36S123.68,130,129,129.07s4.41-.89,4.41-.89a21.38,21.38,0,0,0,1.77-8.83C135.16,114.06,133.39,112.29,133.39,112.29Z"/><path class="cls-15" d="M113.59,128.93c-7.92-9.58-1.14-18.07-1.14-18.07s13.36-2.1,21.21,1.77c0,0,3.81,4.84-.18,15.36a54.11,54.11,0,0,1-13.82,1.57Z"/><path class="cls-16" d="M133.15,112.84c.15,0,3.77,8.94-5.17,11.53.74-.14-4.64.51-7.24-2.66,0,0-3.1-3.55-1-9.75C119.71,112,128,109.3,133.15,112.84Z"/><circle class="cls-14" cx="127.5" cy="114.5" r="3"/><ellipse class="cls-17" cx="148.93" cy="162.2" rx="13.43" ry="12.2"/><path class="cls-3" d="M162.5,101.5s24-28,31,5"/><path class="cls-3" d="M137.5,101.5s-24-28-31,5"/><path class="cls-6" d="M199.5,115.5s7,4,0,11"/><path class="cls-6" d="M204,114.44s7,4.93,0,13.56"/><path class="cls-6" d="M103,115.5s-5.62,3.21,0,8.84"/><path class="cls-6" d="M100.11,113.44s-7,4.93,0,13.56"/></symbol></defs><title>Ansigtsudtryk</title><g id="Layer_2" data-name="Layer 2"><g id="højre_fod" data-name="højre fod"><use width="300" height="600" xlink:href="#neutral"/></g><g id="Layer_18" data-name="Layer 18"><use width="300" height="600" transform="translate(300.33)" xlink:href="#Glad"/><use width="300" height="600" transform="translate(600.67)" xlink:href="#Frastrødt"/><use width="300" height="600" transform="translate(901)" xlink:href="#Overrasket"/></g></g></svg>